<?xml version="1.0" encoding="UTF-8"?>
<svg id="Layer_2" data-name="Layer 2" xmlns="http://www.w3.org/2000/svg" viewBox="0 0 109 109">
  <defs>
    <style>
      .cls-1 {
        fill: #fff;
      }

      .cls-2 {
        fill: #f90300;
      }

      .cls-3 {
        fill: #0000b8;
      }
    </style>
  </defs>
  <g id="flags">
    <g id="Australia">
      <g>
        <path class="cls-3" d="M65.4,1.09v4.33l-15.38,10.4h15.38v15.91h-15.39l15.39,10.41v5.41h-7.74l-21.54-14.58v14.58h-11.71v-14.42L3.1,47.56H.45c-.29,2.27-.45,4.59-.45,6.94,0,30.1,24.4,54.5,54.5,54.5s54.5-24.4,54.5-54.5c0-26.37-18.72-48.36-43.6-53.41ZM79.5,19.57l2.72.92.98-2.72.98,2.72,2.72-.92-1.5,2.46,2.42,1.56-2.85.36.29,2.87-2.05-2.02-2.05,2.02.29-2.87-2.85-.36,2.42-1.56-1.5-2.46ZM74.76,43.66l-2.04,2.02.28-2.87-2.84-.36,2.41-1.56-1.5-2.46,2.72.92.97-2.72.98,2.72,2.72-.92-1.5,2.46,2.41,1.56-2.84.36.28,2.87-2.05-2.02ZM84.34,74.79l-2.05-2.02-2.05,2.02.29-2.87-2.85-.35,2.42-1.57-1.5-2.46,2.72.93.98-2.72.98,2.72,2.72-.93-1.5,2.46,2.42,1.57-2.85.35.29,2.87ZM90.87,50.88l-1.7-1.06-1.71,1.06.47-1.96-1.53-1.3,2-.15.76-1.87.75,1.87,2,.15-1.53,1.3.47,1.96ZM96.66,38.96l-2.05,2.02.29-2.87-2.84-.35,2.41-1.57-1.5-2.46,2.72.92.98-2.71.98,2.71,2.72-.92-1.49,2.46,2.41,1.57-2.84.35.28,2.87-2.05-2.02Z"/>
        <polygon class="cls-1" points="94.9 38.11 94.61 40.99 96.67 38.97 98.73 40.99 98.44 38.11 101.29 37.75 98.88 36.18 100.38 33.71 97.65 34.63 96.67 31.91 95.68 34.63 92.96 33.71 94.46 36.18 92.04 37.75 94.9 38.11"/>
        <polygon class="cls-1" points="84.96 23.97 85.25 26.85 83.19 24.82 81.14 26.85 81.43 23.97 78.57 23.6 80.99 22.04 79.49 19.57 82.21 20.49 83.19 17.76 84.18 20.49 86.9 19.57 85.4 22.04 87.82 23.6 84.96 23.97"/>
        <polygon class="cls-1" points="76.54 42.81 76.82 45.69 74.76 43.67 72.71 45.69 73 42.81 70.15 42.45 72.56 40.88 71.06 38.41 73.79 39.33 74.76 36.61 75.75 39.33 78.48 38.41 76.98 40.88 79.39 42.45 76.54 42.81"/>
        <polygon class="cls-1" points="84.49 70 86 67.53 83.27 68.45 82.29 65.73 81.3 68.45 78.58 67.53 80.08 70 77.66 71.57 80.52 71.93 80.23 74.81 82.29 72.79 84.35 74.81 84.06 71.93 86.91 71.57 84.49 70"/>
        <polygon class="cls-1" points="34.45 69.35 37.45 64.4 32 66.25 30.03 60.8 28.07 66.25 22.61 64.4 25.62 69.35 20.78 72.49 26.49 73.2 25.92 78.97 30.03 74.92 34.15 78.97 33.58 73.2 39.29 72.49 34.45 69.35"/>
        <polygon class="cls-1" points="90.4 48.91 90.87 50.88 89.17 49.81 87.46 50.88 87.94 48.91 86.41 47.61 88.41 47.46 89.17 45.59 89.92 47.46 91.92 47.61 90.4 48.91"/>
        <path class="cls-1" d="M26.78,7.58c-.8.47-1.59.97-2.37,1.48v5.35l-3.8-2.57c-1.21.96-2.38,1.98-3.5,3.04l1.41.95h-2.41c-1.04,1.03-2.02,2.11-2.98,3.22h13.65V7.58Z"/>
        <path class="cls-1" d="M26.78,28.52v19.04h-2.36v-14.42L3.1,47.56H.6l23.4-15.82h-5.5L1.11,43.49c.45-2.19,1.05-4.33,1.75-6.42l7.89-5.33h-5.77c.5-1.09,1.03-2.17,1.59-3.22h20.2Z"/>
        <polygon class="cls-1" points="65.4 31.74 50.01 31.74 65.4 42.15 65.4 43.85 47.51 31.74 42.02 31.74 65.4 47.56 57.66 47.56 36.12 32.98 36.12 47.56 33.75 47.56 33.75 28.52 65.4 28.52 65.4 31.74"/>
        <path class="cls-1" d="M65.4,5.42l-15.38,10.4h15.38v3.22h-31.65V4.1c.78-.32,1.57-.63,2.37-.91v11.39L57.54.09c.75.04,1.5.1,2.24.17l-23.01,15.56h5.24L64.14.86c.43.08.84.15,1.26.23v4.33Z"/>
        <path class="cls-3" d="M24.41,9.06c-1.31.87-2.57,1.8-3.8,2.77l3.8,2.57v-5.35Z"/>
        <path class="cls-3" d="M57.54.09c-1.01-.06-2.02-.09-3.04-.09-6.45,0-12.63,1.13-18.38,3.18v11.39L57.54.09Z"/>
        <path class="cls-3" d="M4.98,31.74c-.8,1.73-1.5,3.51-2.12,5.33l7.89-5.33h-5.77Z"/>
        <path class="cls-2" d="M65.4,19.04v9.48h-31.65v19.04h-6.98v-19.04H6.58c1.85-3.4,4.06-6.57,6.56-9.48h13.64V7.58c2.23-1.32,4.56-2.48,6.98-3.48v14.94h31.65Z"/>
        <path class="cls-2" d="M17.11,14.87c-.34.32-.67.63-1,.95h2.41l-1.41-.95Z"/>
        <polygon class="cls-2" points="65.4 43.85 65.4 47.56 42.02 31.74 47.51 31.74 65.4 43.85"/>
        <path class="cls-2" d="M42.02,15.83L64.14.87c-1.43-.26-2.88-.47-4.35-.61l-23.01,15.57h5.25Z"/>
        <path class="cls-2" d="M24,31.74L.6,47.56h-.15c.17-1.37.38-2.73.65-4.07l17.39-11.75h5.5Z"/>
      </g>
    </g>
  </g>
</svg>