<?xml version="1.0" encoding="UTF-8"?>
<svg id="beef-parts" data-name="Layer 2" xmlns="http://www.w3.org/2000/svg" viewBox="0 0 197.34 120.82">
  <defs>
    <style>
      .letters-off {
        fill: #f4eee2;
      }

      .parts-off {
        fill: #373737;
      }

      .letters-on {
        fill: #373737;
      }

      .parts-on {
        fill: #f4eee2;
      }
    </style>
  </defs>
  <g id="Layer_1-2" data-name="Layer 1">
    <g>
      <g id="parts">
        <path class="parts-off" id="other" d="M40.88,27.02c.86-2.37,2.18-4.71,3.4-6.96.5-.92,1.06-1.87,1.67-2.73.37-.52,2-1.93,1.9-2.6-.18-1.25-3.55-.27-4.3-.65-1.11-.56,2.63-3.4,3.19-3.99,1.4-1.5,2.22-3.68,2.62-5.6-2.45.54-4.97.43-7.42,1.35-2.9,1.09-4.9,2.28-6.45,5.01-.87-1.08-3.39.22-4.59-.74-.78-.62-1.06-1.42-2.04-1.87-.67-.31-1.45-.46-2.14-.63-1.45-.34-2.8-.79-4.28-1.29-1.83-.61-3.86-.69-5.56-1.68-.98-.56-1.32-1.2-1.73-2.21-.32-.8-.19-1.65-.48-2.45-.9.02-1.45,1.48-1.52,2.22-.11,1.25.12,2.78.79,3.87.98,1.59,3.88,2.7,5.61,3.19,1.51.42,3.35.97,4.3,2.36.47.68.61,2.45-.49,2.3-.44-.06-1.43-.89-1.86-1.13-.95-.53-1.82-1.09-2.84-1.53-2.12-.91-4.53-.87-6.7-1.58-2.38-.77-4.88-2.38-5.96-4.59-1.24-.07-.72,2.35-.56,3.05.34,1.45,1.26,2.88,2.68,3.51,1.17.52,2.31,1.13,3.51,1.63,1.57.65,3.17,1.03,4.28,2.42,1.17,1.46,1.24,2.62.13,4.16-1.26,1.73-2.94,2.92-4.72,4.08-2.2,1.43-4.53,2.69-6.86,3.88-1.33.68-3.82,1.47-4.26,3.01-.38,1.36-.2,3.17.12,4.53.33,1.36.64,1.49,1.94,1.25,2.54-.47,4.96-.69,7.5-1.03,3.05-.41,6.12-.26,9.24.01.7.06,1.43.15,2.13.09.64-.06,1.22-.33,1.87-.25.7.09.65.43.93-.18.28-.6-.08-1.88-.08-2.54,0-2.13.28-3.21,2.34-4.46,1.69-1.03,3.43-2.28,5.27-3.01,1.4-.56,3.35-1.32,4.87-1.09,1.42.22,2.72.11,3.51,1.29.29.43.52.93.69,1.39.08.02.16,0,.33.18Z"/>
        <path class="parts-off" id="other" d="M35.69,42.16c-.44,1.68-.59,3.45-.6,5.21,0,.84.08,1.72.17,2.53.09.85.26,1.09-.63,1.35-1.2.35-3.12.07-4.3-.33-1.69-.57-3.66-1.04-5.23-1.82-.94-.46-1.78-1.05-2.68-1.56-.64-.36-1.54-.6-1.97-1.22.74-.7,1.79-1.04,2.56-1.72.97-.84,1.54-2.06,2.1-3.21.14-.29.51-1.49.75-1.62.48-.26,1.03.39,1.4.66,1.23.89,2.32,1.52,3.84,1.79.96.17,1.92.33,2.89.38.76.04,1.07-.28,1.68-.44Z"/>
        <path class="parts-off" id="tongue" d="M1.34,38.08c-.08.91.35,1.63.67,2.43.23.59.37,1.4.8,1.88,1,1.12,3.48.73,4.92.87,2.13.21,4.36.35,6.44.76,1.53.31,3.19,1.31,4.69,1.37.99.04,2.66-1.12,3.38-1.81.86-.82,1.5-2.09,1.72-3.21.26-1.3.03-2.76-1.29-3.25-.78-.29-1.6-.29-2.41-.24-1.15.07-2.1,0-3.25-.08-2.8-.2-5.81.08-8.6.34-1.99.18-4.35,0-6.24.57-.29.09-.55.27-.83.36Z"/>
        <path class="parts-off" id="cheek" d="M26.04,30.62c-.89.92-.6,2.33-.55,3.47.05,1.33.08,2.86,1,3.91.97,1.12,3.35,1.57,4.7,2.19,1.2.55,3.29,1.24,4.59.68,1.37-.59,1.69-3.46,2.19-4.73.59-1.5,1.03-3.02,1.48-4.56.38-1.33.82-2.26.15-3.62-.66-1.32-1.45-1.53-2.84-2-2.15-.72-4.08.07-5.93,1.17-1.61.96-4.01,1.77-4.78,3.48Z"/>
        <path class="parts-off" id="neck" d="M50.06,15.63c-1.67-.8-4.15,4.95-4.68,6.02-1.25,2.5-2.43,5.04-3.15,7.74-1.56,5.88-4.16,11.69-5.06,17.71-.16,1.04-.24,2.05-.3,3.11-.06,1.13.16,1.3,1.02,2.02,1.4,1.18,2.63,2.57,3.98,3.73.32.28,1.1,1.11,1.44,1.19.99.24,1.28-1.41,1.55-2.13,1.4-3.69,2.94-7.43,4.1-11.22.63-2.07,1.04-4.18,1.77-6.23.85-2.43,1.8-4.84,2.53-7.31.76-2.59,1.81-5.01,3.03-7.4.7-1.38,1.72-2.6,2.43-3.96.24-.45.43-.93.66-1.38-1.37-.74-3.17-.51-4.74-.78-1.52-.26-3.02-.73-4.61-1.11Z"/>
        <path class="parts-off" id="chuck" d="M61.29,17.39c-1.5.4-2.22,4.01-2.75,5.35-.93,2.33-2.01,4.67-3.14,6.92-.99,1.98-1.47,4.21-2.07,6.34-.67,2.4-1.68,4.83-2.48,7.2-.78,2.31-1.69,4.52-2.6,6.78-.34.85-.7,1.75-.97,2.6-.25.77-.29,1.08.49,1.33.75.24,1.73.04,2.5.07.98.04,2.38.19,3.32.25,1.98.12,3.86.22,5.72.29,2.51.1,5.49-.01,8.01,0,2.16.01,3.86.06,5.99.35,1.55.21,3.08,0,4.6.24,1.06.16,3.01.45,4.56.39.67-.02-.26-2.14-.34-2.75-.11-.82-.26-1.5-.5-2.3-.73-2.41-.98-4.59-1.11-7.12-.17-3.32-.36-5.44-.22-8.74.09-2.2.13-5.5.43-7.71.33-2.44.25-4.94.63-7.38.17-1.1.24-2.13.29-3.25.04-.91.68-2.56.4-3.42-.46-1.41-5.93.14-7.06.48-3.43,1.05-6.68,2.55-10.2,3.34-1.34.3-2.68.52-3.49.74Z"/>
        <path class="parts-off" id="brisket" d="M46.68,55.25c-.61.54-1.55,2.57-1.22,3.4.37.94,1.45,1.88,2.15,2.53,1.29,1.18,2.04,2.65,3.12,4.02,1.4,1.77,2.68,3.66,4.05,5.42,1.09,1.4,1.98,2.97,3.07,4.32.52.64.88.88,1.59,1.23.84.42,1.25,1.17,2,1.69,1.16.8,1.97-.16,3.1-.56,1.51-.53,3.15-.31,4.71-.66,1.86-.42,3.74-.52,5.62-.87,2.47-.46,5.01-.01,7.49-.02.99,0,1.92-.3,2.9-.34.6-.03,2.45.3,2.95-.16.75-.69-1.03-3.94-1.35-4.92-1.2-3.73-2.16-7.56-3.43-11.25-.53-1.55-.52-1.98-2.23-2.21-1.97-.26-4.02-.51-6.02-.51-2.1,0-4.15-.37-6.25-.42-1.29-.03-1.96-.14-3.39-.08-1.14.05-3.74.16-4.88.12-4.3-.17-7.88-.71-12.5-.71-.48,0-1.09-.12-1.47,0Z"/>
        <path class="parts-off" id="rib" d="M83.9,12.09c-.34.02-.41.47-.46.81-.23,1.54-.48,3.87-.54,5.15-.11,2.25-.33,4.55-.54,6.81-.24,2.63-.18,5.32-.41,7.96-.22,2.49-.34,5.09-.21,7.62.22,4.45,1.31,8.98,2.27,13.27.35,1.55-.05,1.72,2.48,1.85,3.43.17,7.63.26,10.58,0,1.66-.14,3.6.07,5.26.09,1.91.02,3.45,0,5.38-.09,2.72-.13,5.32.33,7.98.09.36-.03.74-.06,1.12-.08.14,0,.76.03.77-.57.03-1.42-.26-2.7-.19-4.14.11-2.18.34-4.32.29-6.46-.12-5.28-.01-10.69-.07-15.92-.03-2.36.33-4.71.44-7.09.11-2.16.27-4.68.54-6.82.24-1.9-.53-1.09-4.95-1.33-2.68-.15-5.35.09-8.01.21-3.98.18-7.94-.63-11.91-.74-2.2-.06-3.54-.1-5.7-.31-.74-.07-3.83-.32-4.12-.31Z"/>
        <path class="parts-off" id="plate" d="M85.64,57.32c-.33.03-.68.04-.69.42,0,.46.48,1.19.61,1.66.38,1.36.72,2.72,1.17,4.06.24.72.38,1.45.59,2.18.17.57.46,1.04.57,1.64.26,1.4.69,2.85,1.21,4.18.42,1.07.7,2.25,1.17,3.28.37.81,1.5.36,2.23.33,1.32-.05,2.61-.25,3.93-.37,1.82-.17,3.66.16,5.46.37,4,.46,7.91,1.5,11.95,1.7,1.07.05,1.05-.41,1.25-1.48.25-1.27.7-2.33.71-3.63.01-1.67.62-3.42.8-5.09.17-1.51.09-3.03.26-4.52.16-1.4.29-2.36.37-3.78.07-1.4-1.94-.88-2.89-.85-2.34.08-4.77-.01-7.11-.1-2.16-.09-5.34-.04-7.51-.05-4.92-.02-7.07-.15-12.08-.08-.31,0-1.73.22-2,.12Z"/>
        <path class="parts-off" id="short-loin" d="M121.76,13.96c-.83.31-1.46-.1-1.75.97-.25.96-.16,2.18-.16,3.19,0,2.61-.39,5.09-.68,7.66-.33,3.03-.16,6.28.1,9.31.3,3.49.26,6.99.26,10.5,0,3-.52,5.98-.48,8.96.01.81.08,1.34.95,1.55.52.12.91,0,1.41.21.65.26,1.24.65,1.93.88,2.12.7,4.44.59,6.63,1.14,1.4.35,2.72.91,4.11,1.05.95.1,2.44.84,3.35,1.17.67.25.49-.34.93-1.12.32-.57.46-1.63.61-2.31.6-2.66.69-5.53,1.29-8.25,1.13-5.12,1.75-10.39,2.28-15.56.11-1.03.27-1.33-.87-1.27-1.4.07-3.13-.21-4.52-.24-1.76-.04-3.09-.4-4.87-.39-.85,0-1.57-.15-2.39-.33-.76-.16-2.21-.41-2.97-.57-2.08-.44-4-.49-3.58-3.41.35-2.45,4.34-2.88,6.49-3.35,2.13-.47,5.14-.82,7.44-1.06.77-.08.24-.33,1.01-.39,1.14-.1,2.82.02,3.91-.06.87-.06.44.04,1-.78.3-.44.26-1.44.31-1.96.08-.83.12-1.69.16-2.52.04-.73.41-2.47.02-3.13-.35-.59-.96-.27-1.55-.21-1.1.12-2.22-.14-3.32-.09-2.32.12-4.63-.09-6.94.16-2.26.25-4.49.12-6.74.31-.67.06-1.42.17-2.1.07-.45-.07-.9-.35-1.33-.15.08.01.15,0,.06.01Z"/>
        <path class="parts-off" id="sirloin" d="M145.51,13.72c-.3,1.48-.47,2.94-.52,4.46-.02.77-.58,3.09-.1,3.74.45.59,3.32.14,4.03.14,2.26,0,4.52-.05,6.77-.08,2.06-.02,4.22.12,6.27-.09.83-.08,2.52-.06,3.36-.11.92-.05.47-.5.57-1.5.17-1.74-.15-3.2-.17-4.97,0-.88.46-1.29-.35-1.43-.9-.16-2.38-.04-3.31-.08-1.37-.06-2.75.04-4.12-.08-1.72-.14-3.36-.4-5.11-.24-1.65.15-3.32.14-4.96.24-.7.04-1.82-.24-2.38,0Z"/>
        <path class="parts-off" id="tenderloin" d="M165.48,23.24c-.73,0-1.5.08-2.22,0-1.05-.1-2.35.04-3.42.13-1.97.16-3.74-.03-5.78-.14-3.55-.19-7.02.49-10.59.4-1.59-.04-3.12.09-4.7.08-1.65-.02-2.88.31-4.43.51-1.66.21-3.64.37-5.01.86-1.17.42-2.21.6-3.39.85-.82.17-1.44.54-1.41,1.43.03.95.28,1.44,1.27,1.59,1.07.16,2.41.39,3.51.51,1.5.16,2.66.08,4.17.27,1.76.21,3.53.48,5.31.57,2.09.1,4.15.48,6.25.48,4.82,0,9.87-.06,14.64.6,1.71.23,3.39-.02,5.06.06,1.01.05,2.11.06,1.98-1.05-.16-1.4-.14-2.57-.28-3.95-.06-.59.2-2.35-.18-2.8-.18-.21-.6-.37-.8-.39Z"/>
        <path class="parts-off" id="top-sirloin" d="M144.31,32.25c-.45.27-.46,1.87-.52,2.39-.1.9-.27,1.86-.31,2.76-.04.77-.48,1.75.5,1.89,1.53.22,3.21-.05,4.68.24.88.17,1.79.31,2.7.27.83-.04,1.41.23,2.2.33.2.02.48-.08.7-.1.67-.06,1.13.14,1.76.28,1.01.23,2.06.2,3.08.34,1.1.15,2.22.09,3.32.25.54.08,1.08.13,1.63.14.65,0,1.21.06,1.83.16.48.08.71.14.9-.5.36-1.23.16-2.75.23-4.03.07-1.3.28-2.43.22-3.74-.45-.03-.92,0-1.36.02-.73.03-1.44-.16-2.18-.2-.81-.04-1.62.09-2.44.06-1.03-.03-2.08-.21-3.11-.28-1.89-.13-3.8.02-5.69-.11-1.69-.12-2.58.02-4.28-.06-.7-.03-2.16-.38-2.85-.24-.32.07-.8.27-1.01.13Z"/>
        <path class="parts-off" id="bottom-sirloin" d="M143.64,40.81c-.84.23-.67,1.6-.78,2.31-.21,1.34-.34,2.71-.65,4.04-.27,1.17-.41,2.38-.52,3.57-.07.73-.07,1.44-.32,2.15-.24.67-.42,1.01-.46,1.72-.06,1.12-.42,2.25-.57,3.38-.14,1.02-.82,1.8-1,2.74-.14.73.75,1.35,1.35,1.73.45.29.93.48,1.4.74.56.31,1.21.31,1.76.59.97.49,1.83,1.21,2.83,1.7,1.19.57,2.39,1.16,3.6,1.67,1.45.62,2.74,1.69,4.17,2.4.76.38,1.45.94,2.22,1.3.77.36.86.46,1.39,1.01,1.27,1.33,1.98-.18,2.74-1.23.59-.83.8-1.85,1.13-2.8.39-1.12.65-2.24.95-3.38.71-2.73,1.4-5.53,1.79-8.3.37-2.6,1.21-5.04,1.4-7.67.12-1.65.29-2.84.45-4.47.09-.98-.21-.95-1.12-.95-.69,0-1.05-.14-1.73-.17-.86-.03-2.74-.42-3.58-.56-1.85-.31-2.94-.27-4.81-.28-1.7,0-3.27-.48-4.97-.55-1.59-.06-3.13-.4-4.72-.4-.65,0-.69-.04-1.32-.17-.01-.06-.7,0-.62-.11Z"/>
        <path class="parts-off" id="flank" d="M157.39,74.3c-.88.21-2.17,1.31-3.02,1.73-1.02.51-2.28,1.23-3.3,1.73-.82.41-1.14.16-2.07.21-1.1.06-1.99.24-3.05.5-1.18.29-2.32.65-3.46,1.09-1,.39-2.19,1.03-3.26,1.17-.45.06-.52.38-.85.22-.47-.22-1.03-.74-1.52-.95-.68-.28-1.23-.81-1.85-1.23-.7-.48-1.46-.83-2.28-1.08-.8-.24-1.59-.1-2.41-.1-1.84,0-3.7.16-5.52-.05-1.86-.22-3.76-.12-5.63-.22-.39-.02-.78-.17-1.15-.21-.38-.05-.8.06-1.16-.07-.87-.3,0-2.25.17-2.96.44-1.81.25-3.14.78-4.92.37-1.23.3-1.04.34-2.35.02-.55.31-2.36.39-2.86.14-.85-.1-1.7.12-2.57.18-.69.1-.96.16-1.67.02-.29.18-1.36.33-1.6.29-.44.78-.12,1.18.04.64.26,1.14.38,1.84.38,1.79,0,3.33.69,5.08.96,1.8.29,3.92.65,5.61,1.38,1.09.47,2.02.85,3.13,1.23.86.3,1.59.63,2.36,1.06.85.48,1.69.73,2.48,1.32,1.07.8,2,.92,3.16,1.59,1.28.74,3.35,1.52,4.53,2.4,1.03.77,2.19,1.33,3.35,1.85,1.19.53,1.97,1.17,3.08,1.86.64.4,1.35.77,1.95,1.2.28.21.5.35.55.73-.08.03-.19.11-.05.18Z"/>
        <path class="parts-off" id="round" d="M188.65,35.18c-.1-2.13-.27-3.46-.39-5.58-.03-.45-1.72-1.28-1.94-1.65-.07-.12-1.83-1.76-1.96-1.9-.46-.52-1.69-2.24-2.01-2.86-1.27-2.43-1.16-3.17-.95-5.03.24-2.08,1.18-2.75,1.43-4.76-.68.02-.08-.3-.75-.33-.81-.03-1.58.2-2.44.07-.93-.14-1.79-.11-2.7-.07-2.11.1-4.14.18-6.24.5-.77.12-2.4-.03-2.85.38-.43.68-.2,1.81-.24,2.64-.03.72-.2,1.38-.16,2.11.08,1.62.4,3.16.56,4.76.2,2.09.4,4.14.4,6.26,0,2.01.42,3.98.4,5.99-.04,4.28-.33,8.55-1.09,12.76-.39,2.15-.6,4.35-1.15,6.45-.55,2.11-.99,4.31-1.29,6.47-.16,1.15-.4,2.25-.69,3.34-.27.39-.46.87-.67,1.47-.6,1.65-1.12,3.3-1.83,4.91-.36.81-1.89,2.22-1.41,2.97.45.7,1.82,1.52,2.58,1.83,1.63.65,3.51.99,5.27,1.31,2.71.49,5.59.26,8.4.3,1.35.02,2.65-.42,4.01-.42.74,0,1.98.22,2.64-.11.53-.27.57-1.02.55-1.63-.02-1.04.15-1.73.49-2.71.38-1.09.7-2.2,1.16-3.25.14-.32.31-.67.39-1.03.23-.35.25-1.02.35-1.38.61-2.09.88-4.14,1.24-6.29.44-2.61.86-5.36.88-8.01.03-2.89-.08-5.76-.08-8.66s.21-5.9.08-8.84Z"/>
        <path class="parts-off" id="shank" d="M159.24,75.31c-1.21-.1-2.8,1.04-3.82,1.62-.75.43-1.48.9-2.22,1.34-.38.22-1.12.47-1.4.81-.55.66.55,2.15.86,2.82.59,1.25,1.19,2.46,1.77,3.71,1.36,2.93,1.73,6.16,2.02,9.3.14,1.48.17,1.52,1.69,1.7,2.22.26,4.34.63,6.51,1.08.81.17.96.45,1.31-.32.38-.82.62-1.65.85-2.52.23-.88.46-1.75.75-2.61.17-.5.44-1.62.91-1.91.29.2.29.56.42.87.2.49.52.9.82,1.34.5.74.88,1.48,1.24,2.29.39.89.94,1.74,1.35,2.63.26.58.36,1.65.88,2.05.61.47,1.93.14,2.65.14,1.26,0,2.71.3,3.95,0,.39-.1.62-.24,1.08-.25.42-.01.7-.05,1.12-.17.47-.14,1.27-.29,1.62-.64.58-.59.08-1.97.11-2.66.04-.99.19-2,.36-2.98.21-1.19.41-2.39.82-3.53.41-1.15.34-2.41.37-3.62.07-2.43-.19-4.79-.74-7.14-.18-.78-1.85-.07-2.9.08-1.24.17-4.04-.12-5.3.06-4.36.64-7.48-.11-11.83-.68-1.71-.22-2.06-1.03-3.7-1.59-.68-.23-1.43-.71-1.53-1.25Z"/>
        <path class="parts-off" id="other" d="M157.57,98.17c-.61.11-.69.32-.68.98.01.97.09,1.99.13,2.97.09,2.33.57,4.87-.25,7.13-.78,2.18-1.74,4.19-1.91,6.53-.06.76-.03,1.2.75,1.34,1.1.21,2.24.38,3.36.39,1.07,0,2.06-.17,3.11-.25,1.12-.08,1.33.03,1.59-1.11.18-.81.38-1.61.49-2.44.08-.57.19-1.45.54-1.93.45-.63,1.39-.44,1.75-.99.35-.55.22-1.65.18-2.28-.05-1.12-.4-2.18-.43-3.31-.03-.95.07-1.91-.01-2.85-.08-.91.14-2.9-.29-2.84-.8.11-2.26-.29-3.08-.37-1.46-.15-1.43-.59-2.9-.69-.43-.03-.86-.14-1.28-.17-.37-.02-.75.16-1.05-.12Z"/>
        <path class="parts-off" id="other" d="M183.63,100.2c-.72,0-1.48.51-2.17.69-.97.26-1.92.46-2.93.51-1.42.07-2.88-.1-4.31-.02-.08,1.03.58,2.17.72,3.18.21,1.55.12,3.15.19,4.72.1,2.36-.93,4.64-1.35,6.94-.12.67-.44,2-.05,2.5.69.87,2.43,1.01,3.44,1.11,1.17.12,2.69.2,3.83-.09,1.06-.27.87-1.86.96-2.77.2-2.14,0-4.73,2.47-5.69.09-1.85-.29-3.63-.55-5.47-.24-1.7-.63-3.87-.25-5.61Z"/>
        <path class="parts-off" id="ox-tail" d="M196.31,30.07c.1-2.19-.06-4.22-.24-6.47-.28-3.5-1.63-6.51-4.11-9.02-1.42-1.44-3.77-1.14-6.85-1.59-1.19,1.04-1.68,4.13-1.83,5.65-.18,1.8.21,3.43,1.25,4.85,1.93,2.64,5.77,4.53,7.69,7.03,1.49.83,2.61.2,4.08-.45Z"/>
        <path class="parts-off" id="other" d="M196.41,57.06c-.1-5.14-.91-11.3-.8-17.22.05-2.43.21-5.34.44-7.69-1.08.05-2.26-.07-3.19.28.54,2.14.78,5.27.92,7.46.2,3.07.34,6.18.34,9.28,0,6.34.86,12.62.56,18.95-.07,1.59.12,2.98-.36,4.49-.46,1.45-1.16,2.84-1.54,4.31-.66,2.53.02,4.67,1.14,6.96.49-.47.4-1.38.74-1.92.31.32.55.7.63,1.1.16-.59.18-1.28.31-1.87.08.27.27.48.35.73.3-1.86.98-3.68,1.28-5.56.32-2.01-.13-3.57-.49-5.47-.93-4.91-.22-8.11-.34-13.82Z"/>
        <path class="parts-off" id="shank" d="M64,80c.93,1.51,1.53,3.4,1.66,5.23.14,1.97.74,3.94.94,5.91.22,2.2,0,4.42.19,6.63.07.81.09,1.07.79,1.31.74.25,1.91.03,2.68-.08,1.9-.26,3.65-.71,5.58-.81.35-2.51,1.06-4.99,1.68-7.43.34-1.33.5-1.57.92-2.87.21-.66,1.44-1.77,2.12-2.04,1.51-.61,1.96,2.49,2.11,3.43.24,1.53.74,4.37.81,5.91.06,1.33.38,1.42,1.61,1.36,2.72-.13,5.24.34,7.79-.63.39-2.76-.51-7-.22-9.82.31-3.03.34-6.12.79-9.05-1.64-.1-3.28.12-4.91.16-1.74.05-3.39,0-5.14,0-4.89,0-9.72.54-14.55,1.2-1.65.23-3.65.49-4.84,1.59Z"/>
        <path class="parts-off" id="other" d="M75.5,99.86c-2.87.87-5.56.8-8.52.97-.37,1.05-.24,2.61-.28,3.73-.05,1.6-.08,3.19,0,4.78.14,2.64-.63,4.52-1.61,6.88-.47,1.14-1.2,2.56-1.07,3.83,2.04.51,3.84.88,5.99.71.72-.05,2.22-.23,2.71-.79.37-.43.47-1.63.63-2.2.25-.86.24-1.41,1.03-1.88.6-.35,1.47-.34,1.65-1.07.23-.92-.28-2.42-.37-3.4-.12-1.32-.26-2.68-.33-4-.13-2.49.27-5.05.18-7.59Z"/>
        <path class="parts-off" id="other" d="M84.03,98.28c-.09.57.25,1.72.35,2.46.14,1.03-.18.99-.06,2.02.25,2.22.07,3.74-.7,5.8-.7,1.89-1.09,4-1.24,5.99-.04.45-.3,1.57-.09,2,.26.54,1.14.68,1.75.84,1.91.5,3.86-.05,5.75-.4.71-.13,1.67-.03,2.31-.39.68-.38.58-.92.65-1.74.13-1.38-.07-2.58.46-3.83.46-1.09,1.13-2.08,1-3.31-.39-3.83-.86-6.6-1.31-10.38-.83.17-1.69.4-2.52.65-.93.28-1.59.17-2.52.3-.77.1-1.83.4-2.55.26-.49-.09-1.16.05-1.54-.24.11,0,.17-.05.25-.02Z"/>
      </g>
      <g id="letters">
        <g id="sirloin" class="letters-off">
          <path d="M162.28,19.35l-.03.46v.11s-.11.03-.17.03h-.43c-.2-.77-.55-1.76-.66-2.06l-.06-.17c-.04-.11-.11-.42-.12-.42-.04.3.01,1.11-.05,1.83-.05.59,0,.72,0,.8-.07.02-.1.02-.19.02l-.5-.03.04-.94.06-1.66c-.01-.6.06-1.25.09-1.66.06-.02.13-.02.21-.02.08,0,.18,0,.29.02.11.01.17.02.17.04.04.1.1.29.15.43.04.14.19.59.22.69.02.1.11.32.21.66.14.38.2.61.21.61.02-.02.09-.35.07-.57l.07-1.01c0-.1.01-.55.03-.8.12-.02.24-.03.37-.03.13,0,.24.01.34.04l-.16,1.84c0,.21-.07.58-.06,1.02l-.08.78Z"/>
          <path d="M150.52,15.76h.16c.25,0,.29.02.37.01h.11s0,0,0,0l.04,3.36c0,.16.01.39.04.67,0,.02-.1.04-.27.04l-.34-.02s-.07,0-.08,0c.01-.13.02-.31.01-.53l-.09-2.95c0-.27,0-.47.03-.6h0s.01,0,.02,0Z"/>
          <path d="M155.84,19.33v.37s0,.05-.01.07c-.01.02-.02.03-.03.03-.01,0-.03,0-.05,0h-.04s-.04,0-.07,0h-.66c-.22,0-.43,0-.76,0v-.06c.05-.63.05-.92.05-1l.14-3.04c.06-.02.17-.03.34-.04.17,0,.3,0,.39.03,0,.09-.14,2.2-.15,2.36l-.05,1.01c0,.07,0,.12,0,.17h0s.06,0,.13,0l.71-.03s.05,0,.06,0v.13Z"/>
          <path d="M158.23,19.45c0-.17,0-.28-.02-.34l-1.87.03c0,.22-.02.45-.03.68.14,0,1.8,0,1.87,0,.02-.08.03-.21.04-.38Z"/>
          <path d="M158.24,16.28l-.03,1.26c0,.14,0,.24-.02.31l-.02.1c-.02.16-.08.3-.18.41-.09.08-.25.15-.47.19-.12.02-.22.04-.31.04-.09,0-.19,0-.29,0-.1,0-.2-.02-.3-.05-.1-.03-.18-.08-.22-.15-.07-.07-.1-.18-.1-.33-.02-.31-.03-.49-.02-.56,0-.16.01-1.13.03-1.23.01-.22.1-.4.25-.52.04-.03.07-.04.11-.06.18-.06.38-.1.6-.1.29,0,.53.04.72.13.09.05.15.11.18.18.03.05.05.1.06.17.01.07.02.13.02.2ZM157.66,17.67v-.14s.01-.13.01-.13v-.18c-.02-.07-.04-.76-.04-.79-.01-.11-.08-.19-.21-.23-.04,0-.08-.01-.11-.01l-.21.06c-.1.05-.16.12-.2.19-.03.09-.02.81-.02.9,0,.08,0,.14,0,.17.02.2.04.33.07.4.06.08.17.11.33.11.12,0,.22-.03.3-.09.04-.04.07-.07.07-.09,0-.02,0-.04,0-.07,0-.03,0-.06,0-.09Z"/>
          <path d="M158.96,15.55h.17c.25,0,.26.02.35.02h.11s0,0,0,0l-.18,3.67c0,.16,0,.38.02.66,0,.02-.1.04-.28.04l-.31-.02s-.08,0-.09,0c.02-.13.03-.31.03-.53v-1.06c0-.26.13-2.67.16-2.8h0s.01,0,.02,0Z"/>
          <path d="M153.74,19.81l-.49.03c-.07,0-.13,0-.15,0h0c-.04-.43-.26-1.56-.44-1.7h-.28s.03.49.02.58c0,.09.01.83.01,1.06-.08.02-.16.04-.4.05h-.23s-.05.01-.05.01c0,0,.05-1.18.02-1.81-.03-.58.11-2.21.09-2.34.35-.04.61-.07.78-.08.17,0,.3,0,.39,0,.17,0,.32.02.46.08.26.1.28.38.28.6,0,0,0,.02,0,.03,0,.09-.04,1.03-.13,1.12-.03.14-.04.24-.18.37l-.21.21s.06.06.16.36c.07.23.28,1.31.34,1.43ZM152.63,17.61c.07,0,.29-.04.39-.2.08-.29.04-.81.05-.92,0-.07,0-.25-.06-.28-.06-.03-.13-.05-.23-.04-.09,0-.2.02-.32.06,0,.03-.07,1.03-.07,1.11,0,.08,0,.24,0,.27h0c.09,0,.17,0,.25,0Z"/>
          <path d="M148.32,18.58h.46c0,.08-.08.64.16.72.04.01.09.02.14.01.05,0,.12,0,.16-.05.15-.16.13-.31.12-.36-.04-.48-.16-.56-.19-.6-.67-.83-.93-1.22-1.02-1.64-.03-.14-.04-.38.01-.54.1-.34.4-.42.53-.46.12-.03.25-.05.39-.06.2,0,.3,0,.46.06.14.05.2.1.26.2.04.06.18.31.18.37,0,.06.07.47.06.52h0c-.12.02-.24.03-.35.03-.11,0-.2,0-.28-.02,0-.01,0-.03.01-.04,0-.05-.07-.44-.13-.47-.06-.03-.16-.04-.2-.04-.09,0-.22.04-.26.23-.02.1.03.24.04.32.03.07.32.46.39.54.07.09.47.65.53.74.28.44.25.91.24,1.02,0,.12-.07.38-.14.47-.07.11-.18.2-.32.26-.15.06-.3.09-.47.09-.18,0-.34-.01-.5-.06-.16-.04-.28-.14-.35-.33-.07-.21-.13-.75-.13-.86,0-.01,0-.02,0-.03v-.02s.08-.01.18-.02Z"/>
        </g>
        <g id="short-loin" class="letters-off">
          <path d="M126.95,33.84h.47c.1,0,.18.02.23.04,0,.16,0,.4-.01.74-.02.34-.26,3.24-.24,3.42h0c.05.01.14.02.26.03.12,0,.29,0,.49,0h0c.05-.28.34-3.08.37-3.34.02-.26.04-.49.05-.7.19-.04.37.04.55.05.18,0,.32.02.42.03l-.79,9.7c-.13.01-.32.01-.56,0-.24-.01-.39-.02-.43-.01h0c-.02-.18,0-.45.02-.81.03-.36.39-3.84.38-4h0c-.13-.03-.26-.05-.4-.05-.14,0-.27,0-.42.02-.02.1-.04.23-.05.41l-.4,3.86c-.02.23-.05.39-.08.49-.06.02-.15.03-.29.03l-.5-.05c-.09,0-.15,0-.18,0,0-.36.42-5.02.47-5.74.05-.72.29-2.98.32-3.32.03-.34.06-.61.08-.82h0s.02,0,.02,0c.05.01.11.02.19.02Z"/>
          <path d="M124.72,50.87v.46c0,.08-.03.15-.06.21-.03.06-.06.09-.08.09-.02,0-.06,0-.1,0h-.08s.25.01.18,0l-1.28-.1c-.46-.06-1.04-.14-1.74-.25l.02-.18c.31-2,.48-3.13.52-3.38l.38-3.34c.13-.04.37-.04.75,0,.37.05.28.04.45.14-.05.28-.11.67-.17,1.17l-.43,3.6c-.03.21-.2.85-.21.99h0s.5.09.64.11l1.09.19c.07,0,.11.01.13.02v.24Z"/>
          <path d="M129.62,47.63l-.2,1.35c-.06.44-.11.78-.16,1.02l-.07.32c-.1.53-.28.96-.54,1.27-.23.24-.59.4-1.09.47-.26.04-.48.05-.68.02-.19-.03-.4-.06-.61-.1-.21-.04-.42-.13-.62-.26-.21-.13-.35-.31-.42-.56-.11-.27-.14-.64-.09-1.12.08-1.01.13-1.62.16-1.83.07-.52.13-.93.19-1.25.11-.73.35-1.27.74-1.61.09-.07.17-.12.25-.15.4-.14.84-.18,1.32-.12.63.08,1.12.3,1.49.66.17.19.28.41.32.65.05.16.07.35.07.57,0,.22-.01.44-.04.67ZM128.18,49.87l.09-.62.07-.57.08-.82c0-.31.02-.54.04-.69.02-.5.07-.75-.25-.98-.1-.06-.33-.17-.42-.18h-.65c-.28.18-.48.55-.61.86-.12.38-.2.75-.24,1.1-.04.36-.07.61-.08.75-.05.89-.05,1.5,0,1.81.11.37.38.59.81.65.31.04.59-.04.82-.26.14-.16.21-.28.23-.35.02-.07.03-.18.05-.32.02-.14.04-.27.06-.39Z"/>
          <path d="M130.8,45.67l.27.07c.41.1.53.17.66.19l.18.04v.04s-.64,4.65-.64,4.65c-.06.52-.14,1.22-.22,2.13-.02.07-.02.08-.3.02l-.77-.18c-.08-.01-.12-.02-.14-.02.08-.42.16-.97.25-1.66l.39-3.38c.1-.83.2-1.46.3-1.88v-.02s.02,0,.04,0Z"/>
          <path d="M136.73,52.67l-.09.79-.03.2c-.1.02-.03.02-.15,0l-.9-.17c-.43-1.37-1.42-3.97-1.54-4.51l-.06-.31c-.04-.2-.07-.31-.09-.31-.05,0-.12.76-.25,1.78-.13,1.02-.34,2.9-.36,3.05-.13.02-.1.01-.26,0l-.93-.18.09-.69.43-3.54c.13-1.04.28-1.91.43-2.61.11-.01.44.05.59.07.15.02.14,0,.34.05.21.05.31.08.3.11.04.18.19.79.26.99.08.21.28.88.32,1.02.04.15.17.41.35.94.18.52.49,1.89.68,1.99-.05.43.3-2.12.34-2.45l.15-1.42c.02-.15.06-.44.13-.87.23,0,.11-.04.36,0,.25.03.46.08.64.14l-.41,3.15c-.04.37-.11.93-.21,1.68l-.15,1.09Z"/>
          <path d="M133.02,35.96l-.42,3.41c-.04.29-.12.96-.15,1.11l-.12.63c-.07.35-.18.62-.35.83-.15.16-.39.26-.71.31-.17.03-.24.03-.37.01-.13-.02-.13-.03-.27-.05-.14-.03-.27-.08-.41-.17-.13-.08-.23-.2-.27-.37-.07-.17.03-1.28.07-1.59.05-.66.37-3.59.39-3.73.04-.34.09-.61.13-.82.07-.48.23-.83.48-1.05.06-.04.11-.08.16-.1.26-.09.42-.13.73-.09.41.05.66.2.9.43.11.13.18.27.21.42.03.1.05.23.05.37,0,.14,0,.29-.03.44ZM131.65,39.82l.05-.33.04-.31.35-2.97c0-.16.01-.29.02-.37.01-.27-.05-.46-.19-.58-.04-.03-.03-.05-.07-.06l-.26.09c-.13.1-.12.25-.18.42-.06.21-.1.4-.12.59-.02.19-.3,2.86-.31,2.94-.03.48-.15,1.67-.13,1.83.05.2.07.3.26.33.14.02.15-.03.25-.15.06-.09.1-.15.11-.19,0-.04.02-.1.03-.17.01-.07.14-1.01.16-1.07Z"/>
          <path d="M135.56,44.89l-.7-.11c-.11-.02-.18-.04-.22-.05h0c.08-1,.17-4.04-.05-4.44l-.4-.12c-.02.07-.16,1.53-.2,1.74-.04.21-.26,2.02-.33,2.55-.13.02-.23.04-.58-.02l-.32-.06s-.07-.01-.08-.01c.02,0,.46-2.81.61-4.26.14-1.34.84-5.05.85-5.34.5.02.88.05,1.12.1.25.05.43.09.55.12.24.06.45.17.63.34.34.32.28.97.22,1.47,0,.02,0,.04,0,.06-.04.21-.37,2.35-.53,2.52-.09.31-.2.52-.43.77l-.24.06c.03.08.02.53.07,1.26.03.56,0,3.12.04,3.41ZM134.67,39.43c.1.02.42.02.61-.32.2-.64.35-2.22.4-2.46.03-.15.09-.57,0-.67-.07-.1-.18-.16-.31-.18-.13-.03-.29-.02-.48.01,0,.06-.46,2.7-.49,2.9-.03.19-.09.55-.09.63h0c.13.04.24.07.35.09Z"/>
          <path d="M122.62,40.55l.73.08c0,.2-.3,1.47.08,1.7.06.03.14.05.22.06.08,0,.19,0,.26-.08.26-.35.28-1.22.28-1.34,0-1.13-.26-1.49-.31-1.58-.06-.11-.22-.64-.27-.7-.05-.07-.12-.41-.17-.46-.04-.05-.17-.24-.19-.25-.12-.11-.16-.55-.28-.71-.22-.35-.41-1.07-.37-1.48.03-.32-.02-.8.04-1.17.2-1.14.64-1.17.86-1.24.2-.05.41-.07.63-.06.31.03.59.11.85.25.22.13.37.32.46.55.06.15.08.3.07.44-.01.14-.01,1.37-.05,1.49h0c-.2.01-.38.02-.55,0-.17-.01-.32-.04-.45-.09.01-.03.02-.06.02-.09,0-.11.02-1.3-.08-1.38-.09-.08-.25-.13-.32-.14-.14-.01-.34-.19-.43.49-.12.86-.07.8-.06.98.04.16-.06.41.27,1.05.16.31.5.93.6,1.14.1.21.41.99.53,1.2.15.23.27,1.44.25,1.71-.02.27-.18,1.6-.29,1.78-.12.25-.31.43-.54.54-.24.11-.49.15-.76.13-.28-.02-.54-.1-.79-.23-.24-.13-.43-.3-.56-.52-.13-.22.01-1.72.03-1.96,0-.03,0-.05,0-.08v-.04s.13-.02.29,0Z"/>
          <path d="M136.92,45.01l.42-2.85c.13-.87.63-4.63.72-5.5h0c-.07-.06-.22-.1-.44-.14-.22-.04-.33-.06-.35-.06-.02-.06-.02-.18.02-.43.04-.25.07-.44.1-.58h0c.31.02.59.06.85.09.26.04.55.08.88.13.33.05.68.12,1.06.22-.01.15-.03.31-.06.49-.03.18-.06.33-.11.51-.05-.02-.14-.03-.28-.05-.13-.02-.31-.04-.53-.06h-.02s-.45,3.14-.5,3.53c-.06.39-.47,3.32-.66,4.88h0c-.1.02-.26,0-.47-.03l-.17-.03c-.21-.03-.37-.04-.46-.04,0,0,0-.03,0-.07Z"/>
          <path d="M129.7,43.04c0,.08-.04.16-.04.24,0,.04,0,.08,0,.12,0,.04-.02.07-.02.11,0,.06,0,.14,0,.2,0,.02-.02.03-.02.07,0,.05.02.04.07.04.29,0,.57.07.85.13.07.01.14,0,.21.02.06.01.11.04.17.04.12,0,.22.05.33.06.04,0,.09,0,.13,0,.04,0,.07.02.11.02.04,0,.11.01.14,0,.02,0,.02,0,.03-.02,0-.01.01-.05.01-.06.07-.23.07-.48.13-.7.01-.05.01-.09.02-.14,0-.02.02-.04.02-.06.01-.08-.14-.04-.18-.03-.12.03-.24-.03-.35-.04-.07,0-.14-.02-.2-.03-.09-.02-.18-.02-.27-.04-.15-.02-.29-.03-.44-.04-.07,0-.13-.02-.2-.02-.06,0-.08,0-.14-.02-.05,0-.09,0-.14-.02-.04,0-.08,0-.12,0-.05,0-.06,0-.06.04,0,.04,0,.08-.04.12Z"/>
        </g>
        <g id="bottom-sirloin" class="letters-off">
          <path d="M159.46,64.04l-.22.82-.04.2c-.07.02-.14.02-.21,0l-.51-.15c.07-1.42.06-3.32.06-3.89v-.32c0-.21.05-.78.03-.79-.17.52-.44,2-.8,3.28-.3,1.05-.3,1.28-.33,1.44-.09.01-.13,0-.23-.02l-.57-.21.42-1.67.74-2.95c.23-1.08.58-2.22.78-2.95.07,0,.16,0,.26.02.1.02.21.06.33.12.13.05.19.09.18.12,0,.19,0,.55,0,.81,0,.27,0,1.11-.02,1.3-.01.19,0,.62-.02,1.25.01.73,0,1.15,0,1.16.04-.03.25-.6.32-1l.49-1.79c.04-.19.24-.98.36-1.43.15,0,.3.02.45.07.15.04.28.1.38.18l-.93,3.25c-.08.38-.32,1.03-.49,1.81l-.41,1.37Z"/>
          <path d="M147.08,53.9l.19.05c.29.07.34.12.43.14l.13.03v.02s-1.15,5.94-1.15,5.94c-.06.29-.12.69-.2,1.2-.02.04-.13.04-.33,0l-.39-.13c-.05-.01-.09-.02-.1-.02.06-.23.13-.55.21-.93l.94-5.23c.09-.47.17-.82.25-1.06h0s.02,0,.03,0Z"/>
          <path d="M152.02,62.16l-.07.37s-.03.09-.05.11c-.02.03-.04.05-.05.05-.01,0-.03,0-.06,0h-.04s-.05-.02-.08-.03l-.77-.14c-.26-.06-.58-.09-.96-.18l.02-.1c.28-1.1.44-1.72.47-1.86l1.25-5.32c.07-.02.21,0,.42.05.21.05.35.1.45.17-.04.15-.95,3.84-1.02,4.12l-.47,2.04c-.03.12-.05.21-.07.29h0s.08.01.15.03l.85.17s.06.01.07.02l-.04.22Z"/>
          <path d="M155.98,57.18l-1.03,4.67c-.06.25-.1.43-.15.56l-.06.18c-.09.29-.21.52-.37.68-.14.12-.35.19-.63.2-.15,0-.27,0-.38-.03-.11-.03-.22-.06-.34-.09-.12-.04-.23-.1-.34-.18-.11-.08-.18-.19-.2-.34-.05-.16-.05-.37,0-.63.1-.56.16-.9.19-1.02.07-.29.97-4.44,1.02-4.61.1-.4.27-.69.5-.86.05-.03.1-.06.15-.07.23-.06.48-.05.75,0,.35.08.61.23.8.45.08.12.13.24.15.38.02.09.02.2,0,.32-.01.12-.03.25-.06.37ZM154.19,62.14l.07-.28.06-.26.07-.37c.02-.14.84-4.16.86-4.23.03-.23-.02-.4-.15-.53-.04-.03-.08-.06-.13-.07l-.27.04c-.14.07-.24.17-.31.31-.07.17-.93,4.25-.97,4.41-.04.16-.06.27-.07.34-.07.41-.09.68-.08.83.03.18.15.29.34.34.14.04.27.01.39-.07.07-.07.11-.12.12-.15.01-.03.02-.08.04-.14.01-.06.03-.12.05-.18Z"/>
          <path d="M157.09,56.19l.19.06c.3.08.3.12.4.14l.13.03v.02s-1.65,6.45-1.65,6.45c-.07.29-.14.68-.24,1.18-.02.04-.13.03-.34-.02l-.36-.13c-.05-.01-.09-.02-.1-.02.07-.23.15-.54.24-.92l.4-1.88c.11-.46,1.21-4.68,1.3-4.91h0s.02,0,.03,0Z"/>
          <path d="M151.31,48.44l-.26,1.18c-.04.24-.46,2.55-.49,2.68l-.04.17c-.06.29-.16.52-.31.69-.13.13-.33.21-.6.24-.14.02-.26.02-.37,0-.11-.02-.22-.04-.33-.06-.11-.03-.23-.08-.34-.15-.11-.07-.19-.17-.22-.31-.06-.15-.05-.81.12-1.94.16-1.04.37-1.67.7-3.86.04-.28.08-.51.12-.68.07-.4.21-.69.42-.87.05-.04.09-.06.14-.08.22-.07.46-.09.72-.05.34.05.61.18.81.38.09.11.15.23.17.36.02.09.03.19.03.31,0,.12-.24,1.86-.26,1.99ZM149.87,52.1l.44-2.4.04-.26.41-2.43c0-.14.02-.24.03-.31.02-.22-.04-.39-.18-.5-.04-.03-.08-.05-.12-.05l-.26.07c-.13.08-.22.19-.28.33-.06.17-.16.93-.19,1.09-.02.16-.35,2.03-.36,2.09-.04.4-.43,2.51-.41,2.65.04.17.16.27.35.3.14.02.26-.01.37-.11.06-.07.1-.12.11-.16,0-.03.02-.08.03-.14.01-.06.02-.12.03-.18Z"/>
          <path d="M159.4,50.24l-.43,1.74c-.05.24-.56,1.93-.6,2.05l-.06.17c-.08.28-.2.51-.36.67-.14.12-.34.19-.61.2-.14,0-.27,0-.37-.02-.11-.02-.21-.05-.33-.09-.11-.03-.22-.09-.33-.17-.11-.08-.17-.19-.2-.33-.05-.15,0-.81.26-1.93.23-1.02.36-1.34.85-3.5.06-.28.25-.8.3-.97.1-.39.26-.67.48-.84.05-.03.1-.05.14-.07.23-.06.47-.06.72,0,.34.08.6.22.78.44.08.11.13.24.14.37.02.09.02.19,0,.31,0,.12-.37,1.84-.4,1.96ZM157.76,53.77l.62-2.36.06-.25.58-2.39c.02-.14.03-.24.05-.31.03-.22-.03-.39-.17-.51-.04-.03-.09-.05-.14-.06l-.29.05c-.14.07-.25.17-.33.31-.07.16-.23.92-.26,1.07-.04.16-.49,2-.5,2.06-.06.4-.6,2.47-.59,2.61.04.17.16.28.37.33.15.03.29,0,.41-.08.07-.06.12-.11.13-.15.01-.03.02-.08.04-.14.02-.06.03-.12.05-.17Z"/>
          <path d="M161.57,55.97c-.08-.03-.18-.06-.31-.09l-.37-.15s.63-2.17,1-3.57c.17-.64.29-1.13.33-1.3.12-.54.22-.7.25-.94-.03.03-.74,1.24-.82,1.37-.04.1-.21.05-.24.04-.02,0-.13,0-.15-.09-.02-.08-.02-.67-.03-.72,0-.06,0-.56,0-.62,0-.06-.02-.38-.03-.43,0-.05-.05.04-.05-.01-.07.22-.14.74-.22,1.06-.08.32-1.13,4.44-1.22,4.91-.1,0-.22-.02-.36-.05l-.38-.1s-.01-.02-.01-.04c0-.03,1.12-4.27,1.28-4.91.16-.65.37-1.5.64-2.55.02-.02.1,0,.25.03l.45.1s.08.02.09.02l.04.02c.04.06.03.2.05.43.02.23.03.28.05.33,0,.05.03.27.03.27.01.26,0,.71.02.67.03-.04.25-.5.29-.56.04-.06.2-.34.24-.41.11-.18.2-.37.26-.41.03.01.21.04.24.05l.64.19c-.03.09-.06.21-.09.35l-.26,1.11c-.05.22-.1.39-.14.52l-1.45,5.49Z"/>
          <path d="M145.58,49.08l.69-3.77c.06-.29.1-.51.13-.67h0c.29-.03.53-.02.7.01.17.03.33.07.47.12.14.05.28.12.41.21.13.1.23.23.28.4.06.17-.22,2.36-.27,2.59-.05.23-.22.55-.45.79-.02.03-.02.07.01.13.03.06.05.1.06.11,0,.02.03.06.06.12.03.07.05.11.06.14,0,.03.02.07.03.13.01.06.02.11.02.15,0,.04-.01.09-.02.15-.01.06-.41,2.38-.44,2.46-.03.08-.09.17-.16.24-.07.08-.14.14-.22.18-.08.04-.17.07-.28.08-.21.03-.47.02-.8-.05-.08-.01-.21-.04-.4-.08l-.37-.09c-.06-.01-.1-.02-.11-.03.03-.23.47-2.84.58-3.33ZM146.97,45.56l-.4,2.41c-.02.11-.03.19-.02.25.07.02.14.04.2.05.21.04.36.01.44-.09.06-.07.1-.13.11-.18,0-.05.34-2.16.33-2.18-.03-.11-.1-.18-.19-.22-.1-.04-.18-.07-.26-.08-.07-.01-.14-.01-.19,0,0,0,0,.02,0,.05ZM145.9,51.87l.2.04c.14.03.24.03.29,0,.05-.02.1-.04.13-.07.05-.04.45-2.35.47-2.41.01-.06.01-.13,0-.21-.03-.1-.09-.17-.19-.21-.05-.02-.12-.05-.22-.07-.1-.02-.16-.04-.18-.05-.07.15-.12.28-.15.4-.02.12-.39,2.47-.35,2.55h0Z"/>
          <path d="M149.43,62.07l-.59-.1c-.09-.02-.15-.03-.18-.05h0c.11-.77.31-3.11.15-3.42l-.33-.1c-.02.05-.2,1.17-.24,1.33-.04.16-.3,1.55-.39,1.96-.11.01-.2.03-.49-.03l-.27-.06s-.06-.01-.06-.01c.01,0,.5-2.15.69-3.27.17-1.03.92-3.87.94-4.1.42.03.74.07.94.11.21.04.36.08.46.11.2.05.37.14.51.28.27.26.2.76.12,1.14,0,.02,0,.03,0,.05-.04.16-.41,1.8-.55,1.93-.08.24-.19.39-.4.58l-.2.04c.02.07,0,.41,0,.98,0,.43-.14,2.41-.11,2.63ZM148.9,57.83c.09.02.35.02.53-.23.2-.49.39-1.7.44-1.89.03-.12.1-.44.03-.51-.06-.08-.14-.13-.25-.15-.11-.02-.25-.02-.4,0,0,.05-.5,2.07-.54,2.22-.04.15-.1.43-.1.48h0c.11.03.2.06.29.08Z"/>
          <path d="M143.48,58.55l.55.14c-.02.15-.39,1.06-.13,1.27.05.03.1.05.16.07.06.01.15.02.2-.03.24-.23.26-.49.27-.57.12-.83.02-1.25-.01-1.32-.04-.09-.52-2.53-.48-3.28.01-.24.1-.57.17-.84.12-.5.54-.6.72-.63.16-.02.32-.01.48.03.23.05.44.15.61.28.15.12.25.28.29.46.03.12.03.23,0,.33-.02.1-.16,1.02-.2,1.1h0c-.15-.01-.29-.03-.42-.06-.13-.03-.24-.07-.33-.12.01-.02.02-.04.03-.07.02-.08.15-.96.09-1.03-.06-.07-.17-.12-.23-.14-.11-.02-.27,0-.38.32-.05.16-.05.42-.06.56.01.12.1,1.4.16,1.57.05.17.3,1.34.37,1.5.09.19.03,1.36-.02,1.56-.05.2-.22.64-.33.77-.12.17-.28.29-.47.34-.19.05-.39.06-.59.01-.21-.05-.4-.13-.57-.26-.17-.12-.29-.27-.37-.44-.08-.17.2-1.27.24-1.45,0-.02,0-.04.01-.06v-.03s.1,0,.23.03Z"/>
          <path d="M154.02,54.06l.51-2.29c.18-.67.77-3.59.87-4.27h0c-.06-.05-.17-.09-.34-.13-.17-.04-.26-.06-.27-.06-.01-.05,0-.17.04-.36.04-.2.07-.35.1-.46h0c.25.03.47.07.67.11.2.04.43.09.69.14.26.05.54.13.84.22-.02.12-.04.24-.07.38-.03.14-.07.28-.12.42-.04-.02-.11-.03-.22-.05-.11-.02-.25-.04-.42-.07h-.02s-.48,2.46-.54,2.77c-.06.31-.57,2.68-.88,3.89h0c-.08,0-.2-.02-.37-.07l-.13-.04c-.16-.04-.29-.07-.36-.08,0,0,0-.02.01-.05Z"/>
          <path d="M151.73,53.62l.34-2.32c.14-.68.69-3.64.8-4.33h0c-.06-.05-.17-.09-.34-.13-.17-.04-.26-.06-.27-.06-.01-.05,0-.17.04-.36.04-.2.07-.35.1-.46h0c.25.03.47.07.67.11.2.04.43.09.69.14.26.05.54.13.84.22-.02.12-.04.24-.07.38-.03.14-.07.28-.12.42-.04-.02-.11-.03-.22-.05-.11-.02-.25-.04-.42-.07h-.02s-.48,2.46-.54,2.77c-.06.31-.4,2.69-.62,3.92h0c-.08,0-.2,0-.37-.04l-.13-.03c-.17-.03-.29-.05-.37-.05,0,0,0-.02.01-.05Z"/>
        </g>
        <g id="top-sirloin" class="letters-off">
          <path d="M151.2,36.92c.08-.05.29-.1.37-.34.11-.32.17-1.75.18-1.85,0,0,0-.02,0-.03,0-.24,0-.54-.19-.68-.1-.07-.22-.11-.36-.13-.07-.01-.17-.02-.3-.03-.13,0-.34,0-.61.01.01.14-.12,1.81-.13,2.44,0,.68-.15,2.11-.15,2.11,0,0,.02,0,.04,0h.18c.19.02.25,0,.31,0,.01-.25.06-.97.07-1.07.01-.1.01-.32.02-.35,0,0,.35.04.57-.09ZM150.79,36.57c-.06,0-.08,0-.15-.02h0s0-.1,0-.19c0-.09.1-2,.1-2.03.1-.03.18-.04.26-.03.07,0,.13.03.18.07.05.04.04.24.04.31-.01.11-.03,1.39-.11,1.7-.09.16-.26.18-.31.18Z"/>
          <path d="M164.42,38.68l-.07.52v.13c-.05.02-.1.03-.15.03l-.36-.03c-.1-.86-.29-2-.35-2.34l-.03-.19c-.02-.13-.05-.48-.05-.48-.07.33-.1,1.25-.22,2.06-.1.66-.08.81-.08.9-.06.02-.09.02-.16.02l-.41-.06.12-1.06.2-1.86c.05-.67.17-1.4.23-1.86.05-.01.11-.02.18-.02.07,0,.15.01.24.03.09.02.14.03.14.05.02.11.06.33.08.49.02.16.11.67.12.78.01.11.06.37.11.75.08.44.11.69.11.69.03-.02.12-.39.12-.64l.15-1.14c0-.12.06-.62.1-.9.1-.02.2-.02.31-.01.11,0,.2.03.28.06l-.3,2.06c-.01.24-.12.65-.15,1.14l-.14.87Z"/>
          <path d="M154.99,34.09h.13c.2.02.24.04.31.04h.09s0,.01,0,.01l-.17,3.7c0,.18-.01.43-.01.74,0,.02-.08.04-.22.04l-.28-.03s-.06,0-.07,0c.02-.15.03-.34.05-.58l.11-3.25c.01-.29.03-.51.06-.66h0s.02,0,.02,0Z"/>
          <path d="M159.18,38.45v.23s-.02.05-.03.07c-.01.02-.02.03-.03.03,0,0-.02,0-.04,0h-.03s-.03,0-.06,0h-.54c-.18,0-.4.03-.67.02v-.06c.09-.7.13-1.09.14-1.18l.31-3.34s.14-.03.29-.02c.14,0,.25.02.32.05-.01.1-.26,2.42-.27,2.59l-.11,1.28c0,.07-.01.13-.02.18h0s.05,0,.11,0h.59s.04,0,.05,0v.14Z"/>
          <path d="M161.36,34.99l-.23,2.92c-.01.15-.03.27-.04.35l-.02.11c-.03.19-.09.34-.18.45-.08.09-.22.16-.41.2-.1.02-.19.03-.26.03-.08,0-.16,0-.24-.01-.08,0-.16-.03-.25-.07-.08-.04-.14-.1-.17-.18-.05-.09-.07-.21-.06-.38,0-.35.02-.56.02-.63.02-.18.21-2.78.22-2.89.03-.25.11-.45.25-.58.03-.03.06-.05.09-.06.15-.06.32-.09.51-.09.24,0,.44.06.59.18.07.06.11.13.14.21.02.05.03.12.04.19,0,.08,0,.15,0,.23ZM160.65,38.18l.02-.18v-.16s.02-.23.02-.23c0-.09.15-2.6.15-2.64,0-.14-.05-.24-.16-.3-.03-.02-.06-.02-.09-.03l-.18.06c-.09.06-.15.13-.18.22-.03.11-.2,2.66-.21,2.76,0,.1-.01.17-.01.21,0,.25,0,.42.03.51.04.1.13.16.27.16.1,0,.18-.03.25-.09.04-.05.06-.08.07-.1,0-.02,0-.05.01-.09,0-.04,0-.08.01-.11Z"/>
          <path d="M162.01,34.26h.14c.21.02.22.05.28.05h.09s0,.02,0,.02l-.46,4.06c-.02.18-.03.43-.04.74-.01.02-.09.04-.23.03l-.26-.04s-.06,0-.07,0c.03-.15.05-.34.07-.58l.08-1.17c.02-.29.35-2.95.38-3.1h0s.01,0,.02,0Z"/>
          <path d="M157.41,38.71h-.41c-.06,0-.1,0-.13,0h0c0-.48-.11-1.9-.25-2.07l-.23-.02s-.02.73-.03.83c-.01.1-.05.97-.06,1.22-.07.02-.13.04-.34.04h-.19s-.04,0-.04,0c0,0,.12-1.35.13-2.04.01-.64.23-2.43.22-2.57.29-.03.51-.05.65-.05.14,0,.25,0,.32.01.14,0,.27.04.38.11.21.12.21.43.2.67,0,.01,0,.02,0,.03-.01.1-.09,1.13-.18,1.23-.03.15-.09.26-.21.4l-.13.05s.04.24.1.58c.05.26.15,1.46.19,1.59ZM156.63,36.23c.06,0,.24-.03.34-.2.08-.32.09-1.07.11-1.18,0-.07.02-.28-.03-.31-.05-.04-.11-.06-.19-.06-.08,0-.17.01-.27.05,0,.03-.13,1.3-.14,1.4-.01.09-.02.27-.02.3h0c.07,0,.14.01.2.01Z"/>
          <path d="M153.03,37.32l.38.02c0,.09-.16.68.04.78.03.01.07.02.12.02.04,0,.1,0,.13-.04.14-.17.12-.32.12-.38,0-.51-.12-.75-.14-.79-.03-.05-.61-1.45-.66-1.91-.01-.15.01-.35.03-.52.03-.31.31-.43.42-.47.1-.03.21-.04.33-.04.16,0,.31.03.44.09.11.06.19.14.24.24.03.07.04.13.04.2,0,.06,0,.63-.02.68h0c-.1.01-.2.02-.29.01-.09,0-.17-.01-.24-.03,0-.01,0-.03.01-.04,0-.05,0-.59-.04-.63-.05-.03-.13-.05-.17-.05-.08,0-.19.03-.23.24-.02.1.01.26.01.34.02.07.21.83.27.92.05.09.34.77.4.86.08.1.16.81.15.94-.01.12-.08.41-.14.5-.06.12-.16.21-.28.26-.12.05-.26.08-.4.08-.15,0-.28-.03-.41-.08-.13-.05-.23-.13-.3-.22-.07-.09,0-.79.02-.9,0-.01,0-.02,0-.04v-.02s.07-.01.15,0Z"/>
          <path d="M146.46,38.12l.13-1.35c.06-.4.18-2.11.19-2.51h0s-.12-.04-.23-.05c-.12,0-.18-.02-.18-.02-.01-.03-.01-.1,0-.21,0-.12.02-.21.03-.27h0c.16,0,.31,0,.45.02.14,0,.29.02.46.03.17.01.36.03.57.07,0,.07,0,.14,0,.22,0,.08-.02.17-.04.25-.03,0-.08-.01-.15-.02-.07,0-.16,0-.28-.01h-.01s-.1,1.44-.11,1.62c-.01.18-.13,1.58-.23,2.29h0c-.05,0-.13,0-.25-.01h-.09c-.11-.03-.19-.03-.24-.03,0,0,0-.01,0-.03Z"/>
          <path d="M149.74,35.43l-.06,1.02c0,.14-.12,1.14-.13,1.21v.1c-.03.17-.08.31-.17.41-.08.08-.21.14-.39.18-.1.02-.18.03-.26.03-.07,0-.15,0-.23-.01-.08,0-.16-.03-.25-.06-.08-.03-.14-.09-.18-.16-.05-.08-.11-.46-.08-1.11.02-.6.06-.79.11-2.05,0-.16.06-.47.07-.57.01-.23.08-.4.22-.52.03-.02.06-.04.09-.05.15-.06.31-.08.49-.08.24,0,.44.06.59.16.07.05.12.12.15.19.02.05.04.11.05.17,0,.07,0,1.07,0,1.14ZM149.08,37.52l.1-1.33v-.14s.07-1.35.07-1.35c0-.07-.01-.13,0-.17,0-.12-.07-.21-.18-.26-.03-.01-.07-.02-.1-.02l-.19.06c-.09.05-.14.12-.18.2-.03.1-.03.52-.04.6,0,.09-.07,1.12-.06,1.16,0,.22-.08,1.39-.05,1.46.05.09.14.13.28.14.1,0,.19-.03.26-.09.04-.04.06-.07.06-.09,0-.02,0-.04,0-.08,0-.03,0-.07,0-.1Z"/>
        </g>
        <g id="flank" class="letters-off">
          <path d="M124.84,69.36l-1.02-.1h0c-.11.34-.59,3.22-.8,4.13-.22-.02-.39-.07-.73-.14-.33-.07-.51-.12-.53-.15l1.99-10.63h0c.53.01,1.03.1,1.72.24.69.15.88.3,1.3.47l-.24,1.15c-1.14-.18-1.49-.29-1.74-.32-.08.11-.65,3.36-.68,3.48-.02.12-.03.21,0,.27.02.06.04.1.04.1.14.05.29.09.45.12.16.03.34.06.53.09,0,.04,0,.15-.05.33l-.13.59c-.03.14-.05.26-.07.36,0,.01-.01.01-.03.01Z"/>
          <path d="M128.09,73.47l-.07.54c-.01.07-.03.12-.06.17-.03.04-.05.07-.07.07-.02,0-.05,0-.08,0h-.06s-.07-.02-.12-.03l-.95-.22c-.37-.07-.83-.15-1.39-.26l.03-.14c.32-1.59.98-4.42,1.03-4.62l1.26-5.61c.1-.02.3,0,.6.07.29.07.51.15.63.25-.06.22-.81,3.5-.91,3.9l-.64,2.84c-.04.16-.46,2.18-.48,2.29h0s.11.01.22.03l1.02.18c.05,0,.09.02.1.02l-.05.54Z"/>
          <path d="M132.79,73.96c-.37-.08-3.43-.68-3.64-.74-.08.13-.15.35-.2.64-.05.3-.1.38-.08.48l3.86.72c.11-.33.2-.57.19-1.08l-.14-.03Z"/>
          <path d="M131.81,64.4c.08,0,.45.05.47.06.03,0,.09.02.21.05.11.02.74.17,1.05.2l-.21,3.06-.37,5.08h0c-.14,0-.39-.05-.57-.08-.18-.03-.38-.05-.6-.13h0c-.02-.09.08-.71.06-.98-.02-.28.05-.44.01-.54-.02-.02-.07-.03-.15-.05l-.79-.14c-.06.07-.08.28-.19.65-.08.27-.27.82-.36.91-.05,0-.1,0-.15-.01l-.96-.2s-.01,0-.01,0c0-.01.33-1.05.48-1.58.2-.67.61-1.94.82-2.65.35-1.2,1.11-2.99,1.27-3.64ZM131.16,69.87c.2.04.64.1.84.14.06-.91.53-3.86.46-3.85-.05,0-.08-.06-.11,0-.03.06-.89,2.98-1.18,3.72Z"/>
          <path d="M137.17,74.52l-.23,1.03-.04.26c-.08.03-.17.03-.27.01l-.65-.16c-.19-1.8,0-4.17-.04-4.88v-.4c-.02-.27-.03-.4-.05-.41-.04,0-.38,1.95-.77,3.57-.32,1.33-.37,1.63-.4,1.83-.11.02-.22.02-.35,0l-.73-.23.44-2.12.76-3.74c.23-1.37.61-2.82.81-3.74.09-.02.2-.01.32.01.12.02.26.07.42.13s.24.11.23.14c.01.23.04.69.04,1.02,0,.33.09,1.39.09,1.63,0,.23-.01.77,0,1.57.06.92.05,1.45.06,1.45.04-.04.28-.76.34-1.28l.52-2.28c.03-.23.24-1.25.37-1.81.18,0,.37.01.57.06.19.05.36.11.49.2l-.99,4.13c-.07.48-.35,1.3-.51,2.29l-.44,1.74Z"/>
          <path d="M141.76,77.26c-.13,0-.28-.09-.47-.12l-.63-.21c.03-.61.06-1.46.14-2.53.09-1.31.15-2.21.12-2.28-.03.08-.73.83-.76.95l-.97,3.47c-.15,0-.28-.01-.4-.04-.35-.07-.46-.14-.61-.2.01-.14,1.15-4.38,1.29-4.87l1.12-4.42c.05.01.11.02.18.04l.87.3c-.04.15-.25,1.17-.34,1.5-.09.33-.76,2.48-.8,2.63-.09.18.68-1,.79-1.07.11-.07.49-.7.7-1.02.35-.54.96-1.33,1.14-1.45.04.01.11.03.19.05l.33.16c.19.05.46.16.53.19-.18.22-1.16,1.31-1.48,1.78-.37.55-.59.92-.73,1.08l-.23,6.07Z"/>
        </g>
        <g id="cheek" class="letters-off">
          <path d="M29.98,34.64l.16-.1c.1-.06.17-.1.2-.1.08.07.36.41.41.49.16.25.38.79.29,1.07-.06.19-.17.34-.34.45-.05.04-.1.08-.16.12-.06.04-.14.08-.24.12-.1.04-.22.05-.37.03-.14-.02-.26-.09-.35-.21-.14-.2-.48-.69-.65-.97-.17-.27-.78-1.16-.87-1.29-.08-.13-.14-.21-.16-.25-.02-.04-.2-.32-.21-.4-.04-.15-.04-.3,0-.44.02-.07.07-.13.13-.2.07-.09.14-.15.21-.19.2-.13.39-.2.55-.2.41,0,.7.29.88.57.06.09.38.43.41.54-.05.05-.11.1-.2.15-.08.05-.2.11-.34.17-.02-.02-.17-.23-.21-.29-.04-.05-.07-.1-.1-.13-.08-.09-.3-.35-.38-.35-.04,0-.07.01-.1.03-.03.02-.06.05-.11.09-.05.04-.07.08-.08.11,0,0,0,.03,0,.05.02.07.74,1.14.91,1.41.17.26.42.64.5.74.14.17.33.31.47.27.02,0,.03-.01.04-.02.16-.1.08-.39-.05-.61-.05-.09-.37-.54-.38-.57.02-.01.07-.04.13-.08Z"/>
          <path d="M29.44,31.95l.23-.16c.05-.03.1-.05.13-.06.07.09.18.23.33.44.14.21.5.68.59.77h0s.08-.04.14-.08c.06-.04.14-.1.24-.18h0c-.1-.18-.43-.68-.53-.84-.1-.16-.2-.3-.29-.43.07-.09.16-.17.25-.22s.16-.1.22-.13l2.54,3.66c-.06.05-.15.12-.27.2-.12.08-.2.13-.22.14h0c-.09-.1-.38-.54-.53-.76-.15-.22-.69-1-.76-1.09h0c-.07.03-.15.07-.22.11-.07.04-.13.1-.2.16.03.06.51.77.58.88l.26.4c.09.14.33.53.36.6-.02.03-.06.07-.13.12l-.26.15s-.07.05-.08.07c-.16-.21-.99-1.44-1.29-1.88-.3-.44-.75-1.09-.88-1.3-.13-.21-.24-.38-.32-.51h0s.01-.01.01-.01c.03-.01.06-.03.11-.06Z"/>
          <path d="M33.9,33.66l.63-.38c.06-.04.1-.07.15-.1h0c.04.06.09.13.14.22.05.09.1.18.13.28l-.84.56c-.16.11-.32.2-.46.27l-1.28-1.93c-.17-.27-1.06-1.48-1.21-1.73.39-.28.73-.52,1.02-.7.29-.19.27-.17.27-.17.04.05.08.1.11.15l.21.35h0c-.09.1-.05.09-.22.2l-.19.12c-.13.09-.24.16-.33.22h-.01s0,.01,0,.01l.57.86c.04.06.07.09.09.1.13-.08.28-.17.45-.27h0s.05.05.11.14l.22.35s-.12.11-.23.18c-.11.07-.17.12-.18.14.02.06.41.53.46.6.05.08.29.42.36.51h0Z"/>
          <path d="M34.87,31.73l.64-.37c.05-.04.1-.07.15-.1h0c.04.06.09.13.14.22.05.09.1.18.13.28l-.85.55c-.16.11-.32.2-.46.27l-.67-1.04c-.17-.27-1.02-1.5-1.17-1.75.39-.28.73-.52,1.02-.7.29-.19.28-.16.29-.16.04.05.08.1.11.15l.21.35h0c-.09.1-.06.08-.23.19l-.19.12c-.13.09-.24.16-.33.22h-.01s0,.01,0,.01l.3.42c.04.06.07.09.09.1.13-.08.28-.17.45-.27h0s.05.05.11.14l.22.35s-.12.11-.23.18c-.11.07-.17.12-.18.14.02.06.16.28.21.35.05.08.17.24.24.33h0Z"/>
          <path d="M35.79,33.16h0s.01-.01.01-.01c.09-.06.2-.14.33-.23l.19-.12c.17-.11.12-.06.21-.15h0s-.21-.36-.21-.36c-.04-.06-.03-.09-.07-.13,0,0,.02-.07-.27.12-.29.19-.63.43-1.02.71.06.11.1.19.32.51.27-.21.51-.34.51-.34Z"/>
          <path d="M38.49,31.39s-.11.1-.2.15l-.3.18c-.14-.04-1.34-1.31-1.61-1.49-.07-.05.13.55.03.4.03.05.48.73.53.8l.45.67c-.05.06-.07.06-.13.09-.16.1-.28.17-.36.2-.06-.07-.37-.54-.56-.83l-1.89-2.89s.05-.03.08-.05l.4-.25c.06.09.43.66.56.86.13.2.26.47.32.56,0,0-.15-.74-.14-.82,0-.08-.1-.61-.11-.74-.01-.18-.04-.24,0-.27l.22-.14c.09-.06.24-.16.27-.17.05.18.22,1.62.24,1.75l2.19,2Z"/>
        </g>
        <g id="neck" class="letters-off">
          <path d="M46.84,39.55l.6.15.15.04c0,.08,0,.17-.03.26l-.21.51c-1.11.21-1.08.33-1.52.38l-.88.29c-.16.01-.64.18-.64.19,0,.03.38.15,1.16.35.78.2,1.39.31,1.51.34,0,.1-.01.21-.05.34l-.23.71-.52-.13-2.71-.67c-.79-.2-1.46-.4-1.99-.58,0-.09.02-.19.05-.31.03-.12.07-.08.13-.24.06-.16.09-.23.11-.23.14-.02.7-.2.87-.24.17-.04.51-.15.62-.17.12-.02.68-.21,1.1-.3.42-.09.29-.13.29-.14-.02-.04-.59-.16-.84-.23l-1.09-.25c-.11-.03-.34-.09-.66-.19.01-.18.04-.36.09-.55.05-.19.11-.35.17-.48l2.41.61c.28.07.71.17,1.28.32l.83.22Z"/>
          <path d="M47.22,37.54l.55-1.71c.03-.11.06-.22.08-.31h.01c.12.03.19.06.36.11.18.05.35.13.51.22l-.58,2.12c-.1.34-.2.65-.3.93l-3.5-.96c-.56-.16-1.09-.33-1.59-.5.2-.85.38-1.58.55-2.18.17-.6.27-.91.28-.91.11.01.22.04.34.07l.59.22h0c-.01.23-.07.53-.17.89l-.11.39c-.08.28-.18.6-.22.79v.02s0,0,0,0l.76.21c.13.04.21.05.24.03.09-.26.22-.65.32-.99h0s.13,0,.32.06l.72.22c0,.11-.03.28-.1.51-.07.23-.13.45-.11.49.1.05.23.1.38.14.16.04.42.09.63.13h.01Z"/>
          <path d="M47.76,32.09l.11-.33c.07-.2.12-.33.17-.38.2.01.28.1.45.16.52.17.82.39,1.01.89.13.34.14.68.03,1.03-.02.11-.05.22-.09.34-.04.12-.11.27-.21.44-.1.17-.2.18-.43.31-.22.13-.92.16-1.19.1-.42-.12-.52-.12-1.07-.31-.56-.18-.97-.32-1.23-.41-.27-.09-.44-.15-.52-.17-.08-.03-.18-.09-.3-.2-.23-.17-.4-.38-.5-.62-.04-.12-.06-.27-.04-.43,0-.21.03-.37.07-.51.14-.42.32-.72.55-.91.58-.47.95-.51,1.62-.35.18.06.49.09.66.21-.01.12-.12.23-.18.4-.06.17-.07.32-.2.56-.06,0-.31-.03-.43-.06-.11-.03-.21-.06-.28-.07-.22-.04-.37-.02-.47.07-.05.05-.09.1-.11.15-.02.05-.04.14-.05.25-.02.11-.01.2.02.25,0,.02.02.04.06.06.1.08.59.31,1.13.49.54.18,1.14.36,1.36.41.39.09.67.02.81-.19.02-.03.03-.05.03-.08.11-.33.06-.57-.37-.73-.17-.06-.44-.19-.49-.22.02-.04.05-.06.09-.19Z"/>
          <path d="M51.55,27.6c-.01.13-.07.39-.13.58l-.17.47c-.24.11-1.7.29-2.31.28-.1,0-.12.43-.21.45.1.04.21.08.35.12l1.69.5c-.02.31-.13.4-.12.36-.11.35-.21.6-.3.74-.17-.03-.56-.13-1.16-.32l-3.9-1.29c.02-.05.04-.11.06-.18l.34-.82c.19.05.48.14.88.27.4.13.89.28,1.08.33,0,0,.09-.26.01-.38-.08-.12-.48-.49-.84-.82-.44-.4-.57-.52-.71-.71.01-.04.04-.11.06-.2l.16-.48c.06-.19.13-.43.16-.49.27.19.62.6,1.06,1.13.45.53.76.72.93.88l3.04-.42Z"/>
        </g>
        <g id="chuck" class="letters-off">
          <path d="M68.58,46.53l.04-.43c.02-.26.06-.43.09-.5.25-.04,2.59.12,2.8.14.68.06,2.51.45,2.89,1,.26.37.37.78.33,1.24,0,.14,0,.28-.01.44-.01.16-.06.36-.13.6-.07.24-.23.47-.46.69-.24.22-.52.33-.87.33-.54-.02-7.78-.69-8.51-.75-.72-.06-4.51-.69-4.85-.72-.35-.03-.57-.05-.68-.06-.1,0-.24-.06-.42-.15-.33-.15-.59-.35-.79-.6-.08-.14-.14-.31-.18-.51-.06-.25-.07-.46-.06-.63.05-.54.19-.96.41-1.26.57-.73,1.84-.65,2.6-.58.24.02,3.12.24,3.37.34.02.15.02.34,0,.56-.02.22-.07.5-.16.83-.07,0-.18,0-.33,0-.15,0-.27,0-.36,0-.27.01-3.7-.49-3.8-.35-.05.07-.08.14-.09.21,0,.07,0,.17,0,.31.01.14.04.24.09.3.01.02.04.04.09.06.15.07,3.82.71,4.52.78.7.06,6.5.6,6.78.62,2.13.2,2.11-.07,2.23-.38,0-.04.02-.07.02-.1.04-.43-.28-.71-2.09-.84-.22-.03-2.47-.22-2.54-.24.01-.06.02-.17.04-.34Z"/>
          <path d="M58.76,42.83l.03-.64c.01-.14.04-.24.07-.31.26,0,.67,0,1.24.03.57.03,5.39.41,5.68.38h0c.03-.08.05-.21.06-.37.01-.17.02-.39.02-.67h0c-.46-.09-5.29-.53-5.72-.57-.43-.04-.82-.07-1.17-.08-.06-.26-.08-.51-.06-.75.02-.24.05-.43.07-.57l16.45,1.25c.02.18,0,.43-.02.76-.03.33-.04.53-.04.58h0c-.3.03-.75.01-1.35-.03-.6-.04-6.38-.59-6.64-.58h-.01c-.05.19-.08.37-.1.55-.02.19-.01.37.02.57.16.03.38.05.68.08l6.41.61c.38.03.65.07.81.12.04.08.05.21.03.39l-.1.68c-.01.12,0,.2,0,.24-.6,0-8.34-.66-9.54-.74-1.2-.08-4.95-.45-5.52-.5-.56-.05-1.01-.09-1.36-.13h0s0-.03,0-.03c.02-.06.03-.15.04-.26Z"/>
          <path d="M59.69,34.94v-.84c.03-.27.08-.46.15-.56.63.03,4.25.32,5.1.4.86.08,8.24.68,9.19.87.43.1.78.29,1.04.59.32.36.45.84.39,1.45-.07.72-.32,1.27-.78,1.66-.28.24-.6.35-.98.33l-13.55-1.13c-.59-.05-.89-.07-.9-.06h0s.04-.72.04-.72c.03-.28.07-.49.12-.64h0c.55.08,4.08.38,4.86.45.78.07,6.87.49,7.9.5,1.62.16,1.75-.15,1.78-.45,0-.1,0-.2-.05-.3-.07-.17-.38-.45-1.67-.43-.58-.08-6.59-.55-7.67-.66-1.08-.11-4.66-.42-5-.46Z"/>
          <path d="M69.83,29.81l.04-.43c.02-.26.05-.43.09-.5.25-.04,2.02.19,2.24.21.68.06,3.07.42,3.45.97.26.37.37.78.33,1.24,0,.14,0,.28-.01.44-.01.16-.06.36-.13.6-.07.24-.23.47-.46.69-.24.22-.52.33-.87.33-.54-.02-7.64-.65-8.36-.71-.72-.06-3.75-.57-4.1-.6-.35-.03-.57-.05-.67-.06-.1,0-.24-.06-.42-.15-.33-.14-.59-.35-.79-.6-.08-.14-.14-.31-.18-.51-.05-.25-.07-.46-.06-.63.05-.54.19-.96.41-1.26.57-.73,2.44-.7,3.2-.63.24.02,1.76.17,2.01.27.02.15,0,.11-.02.33-.02.22-.07.5-.16.83-.07,0-.18,0-.33,0-.15,0-.27,0-.36,0-.27.01-2.93-.15-3.02-.01-.05.07-.08.14-.09.22,0,.07,0,.17,0,.31.01.14.04.24.09.3.01.02.04.04.09.06.15.07,3.06.6,3.77.66.7.06,6.36.54,6.64.58,1.98.29,2.11-.07,2.23-.38,0-.04.02-.07.02-.1.04-.43-.35-.68-2.09-.83-.22-.03-2.47-.26-2.54-.28.01-.06.02-.17.04-.34Z"/>
          <path d="M76.52,23.82c.02.15.02.34,0,.56l-.1.77c-.95.08-2.87.06-4.55.17-2.04.13-3.69.15-3.79.19.13.02,1.07.53,1.26.55l6.95.6c.03.18.04.33.02.47-.04.43-.09.74-.15.92-.22.01-7.26-.73-8.04-.8l-7.47-.57c0-.06.01-.14.02-.22l.11-1.06c.24.02,2.44.13,2.96.18.52.05,2.82.35,3.06.36.29.07-1.24-.56-1.37-.68-.13-.12-.98-.48-1.53-.67-.91-.31-2.7-.8-2.92-.99,0-.05.01-.13.02-.24l.05-.59c.02-.23.04-.39.07-.47.39.15,2.49.9,3.3,1.19.92.33,2.23.88,2.5,1.02l9.58-.7Z"/>
        </g>
        <g id="ox-tail" class="letters-off">
          <path d="M188.33,16.87l-.62.38c-.2.13-.36.22-.47.28l-.15.08c-.25.14-.49.21-.7.21-.18-.01-.36-.11-.56-.29-.1-.09-.18-.18-.24-.27-.06-.09-.11-.18-.16-.29-.05-.1-.09-.21-.11-.34-.02-.13.01-.25.09-.36.07-.14.21-.28.43-.42.44-.31.7-.5.8-.56.23-.15.43-.26.58-.35.33-.2.64-.29.91-.25.06.01.11.03.14.05.19.12.36.28.49.5.18.28.26.56.23.83-.02.13-.07.25-.16.35-.05.07-.12.15-.21.22-.09.08-.19.15-.29.21ZM187,16.92l.24-.14.21-.13.3-.2c.11-.08.19-.14.24-.18.17-.13.25-.29.23-.47,0-.05-.02-.1-.05-.14l-.23-.17c-.15-.05-.29-.06-.44-.01-.16.06-.31.14-.44.22-.13.08-.22.14-.27.18-.31.23-.52.4-.61.5-.09.15-.08.31.03.48.08.13.19.2.34.23.09,0,.16,0,.19-.01.03-.01.07-.04.12-.07.05-.03.1-.06.15-.09Z"/>
          <path d="M187.41,20.01l-.19-.28c-.05-.08-.08-.15-.11-.21h0c.06-.1.2-.26.4-.46.2-.21.34-.36.4-.48h0c-.14.01-.35.07-.62.15-.27.09-.47.14-.6.15-.06-.08-.13-.19-.21-.31-.08-.12-.12-.23-.14-.32.12-.04.4-.11.83-.21.43-.11.75-.2.96-.27.24-.23.43-.44.57-.62.14-.18.22-.29.25-.32.21-.27.34-.44.38-.52.12.16.2.28.24.35.06.09.1.16.13.21.03.05.05.08.05.09,0,.02,0,.03,0,.03-.46.51-.72.82-.8.91.12-.02.34-.08.66-.17.32-.1.5-.15.54-.16h0c.1.13.25.35.44.67h0s-.59.15-.59.15c-.56.12-.99.25-1.3.38-.17.15-.4.39-.68.73-.28.33-.47.54-.56.64-.01-.03-.04-.07-.07-.12Z"/>
          <path d="M188.43,21.77l.6-.38c.57-.36,1.13-.74,1.7-1.13h0c0-.08-.05-.19-.14-.34-.09-.15-.13-.23-.14-.24.02-.04.12-.11.29-.22.17-.11.3-.19.4-.24h0c.14.19.26.38.36.55.11.17.23.37.37.59.14.22.27.47.4.75-.09.07-.2.14-.32.21-.12.08-.24.14-.38.2-.02-.04-.05-.1-.11-.19-.06-.09-.13-.21-.23-.35h0s-.15.07-.41.24c-.26.17-.9.59-1.93,1.26h0c-.05-.05-.12-.15-.21-.29l-.07-.11c-.09-.14-.16-.24-.21-.3,0,0,.02-.01.04-.03Z"/>
          <path d="M192.64,21.66s.05.06.06.08c0,.02.03.06.07.12.04.06.12.17.24.33l-1.34,1.36-1.34,1.32h0c-.06-.06-.12-.14-.18-.24-.06-.1-.12-.22-.17-.36h0c.04-.06.14-.17.3-.33.15-.16.25-.27.3-.34,0-.02-.01-.05-.04-.09l-.13-.19c-.07.01-.21.06-.42.14-.21.08-.35.13-.45.14-.02-.02-.04-.05-.06-.07l-.34-.56s0,0,0-.01c.01,0,.2-.08.56-.23.36-.15.82-.33,1.38-.53.56-.21,1.09-.38,1.58-.52ZM190.88,22.95c.07.11.14.22.21.33.57-.46.85-.72.82-.76,0-.01-.04,0-.09,0-.05.02-.36.16-.94.42Z"/>
          <path d="M193.59,23.1l.09.17c.15.25.24.42.29.5l.07.11h-.02s-2.13,1.32-2.13,1.32c-.23.15-.55.36-.95.64-.04.01-.11-.07-.22-.24l-.27-.47s-.05-.07-.06-.08c.2-.11.46-.26.77-.46l1.52-.99c.38-.24.67-.41.88-.51h0s0,0,.01.02Z"/>
          <path d="M192.6,27.43l-.29.2s-.07.04-.11.05c-.03,0-.05,0-.06,0,0,0-.02-.02-.03-.04l-.02-.04s-.02-.04-.04-.07l-.43-.56c-.13-.21-.29-.48-.49-.8l.08-.05c.92-.55,1.44-.86,1.56-.94l1.49-.98c.06.04.14.14.25.31.11.17.17.31.18.41-.13.07-.31.18-.54.33l-1.62,1.05c-.09.06-.17.11-.24.15h0s.05.06.09.12l.43.66s.03.05.04.06l-.23.13Z"/>
        </g>
        <g id="shank" class="letters-off">
          <path d="M69.71,83.68l.6-.11c.04.17.18.39.66.37.08,0,.23-.03.33-.05.1-.02.38-.1.46-.18.09-.08.08-.25.06-.35-.02-.13-.25-.17-.34-.22-.12-.06-.22-.09-.31-.1-.09,0-.18-.01-.25-.01-.07,0-.13,0-.15,0-.2,0-.29-.05-.31-.05-.19,0-.47-.12-.66-.19-.38-.18-.58-.43-.63-.77-.04-.28-.08-.54.16-.84.16-.19.32-.35.56-.47.21-.1.58-.19.84-.24.37-.07.53-.05.85,0,.28.05.49.25.64.42.1.11.16.23.18.35.02.12.07.26.05.36l-.06-.02c-.23.07-.28.08-.48.12s-.05.03-.21.02c0-.03-.08-.24-.09-.27-.1-.1-.23-.2-.48-.19-.13-.04-.6.08-.69.09-.38.07-.51.28-.44.55.08.12-.13.25.75.33.28.03.97.18,1.22.25.25.07.56.24.7.72.06.23.08.35-.02.54-.09.25-.12.44-.37.59-.25.16-.53.26-.85.32-.33.06-.64.12-.95.08-.31-.04-.57-.19-.77-.33-.2-.14-.31-.32-.34-.52,0-.02,0-.05,0-.07v-.03s.14-.05.33-.08Z"/>
          <path d="M73.46,80.15l.51-.07c.11-.01.03,0,.08.01.04.15.08.39.13.73.05.34.1.59.16.76h0c.06,0,.34-.01.47-.03.13-.01.49-.06.71-.09h0c0-.28,0-.55-.02-.81-.02-.26-.05-.49-.07-.7.2-.07.22-.1.42-.12.2-.02.35-.03.47-.04l.54,3.99c-.14.03-.34.06-.61.09-.27.03-.25.03-.3.04h0c-.05-.17-.1-.44-.13-.8-.04-.36-.08-.62-.11-.77h0c-.15,0-.3,0-.45.01-.15.02-.65.07-.8.12,0,.1,0,.23.02.41l.06.64c.02.23.02.39,0,.49-.06.03-.16.06-.31.07l-.38.02c-.1,0-.16.02-.19.04-.07-.35-.14-.88-.22-1.6-.08-.71-.13-1.24-.16-1.57-.03-.34-.05-.61-.06-.82h0s.02,0,.02,0c.05,0,.13,0,.22-.01Z"/>
          <path d="M78.33,79.62c.07-.02.12-.02.15-.02.03,0,.09,0,.2-.01.11-.01.31-.04.6-.09l.86,1.96.87,1.94h0c-.13.04-.45.08-.62.1-.17.02-.11,0-.33-.01h0c-.04-.07-.11-.22-.21-.44-.1-.23-.18-.38-.23-.45-.02-.01-.33.01-.41.02l-.56.07c-.04.08-.07.24-.12.48-.04.24-.09.42-.14.51-.05.01-.09.02-.14.03l-.75.07s-.01,0-.02,0c0-.01.09-.24.15-.67.06-.43.13-.9.27-1.56s.26-1.34.44-1.9ZM78.66,81.98c.19-.02.54-.05.73-.07-.19-.79-.39-1.34-.46-1.33-.02,0-.04.2-.06.26s-.14.45-.21,1.14Z"/>
          <path d="M84.85,82.85v.46s.02.12.02.12c-.08.02-.16.03-.26.03l-.72-.02c-.49-.75-.81-1.28-.97-1.58l-.08-.17c-.05-.11-.28-.49-.29-.49-.04,0-.02.62,0,1.22,0,.6.02.95.02,1.04-.1.02-.06.03-.19.03l-.75-.03v-.4s-.06-2.08-.06-2.08c0-.61,0-1.13.05-1.55.09-.02.19-.03.32-.03s.27,0,.43.01c.17,0,.15.02.15.04.05.1.13.18.21.29.08.11.14.19.18.28.05.08.13.28.33.56.2.29.64,1.2.65,1.2.04-.02-.03-.86-.03-1.05l-.04-.84c0-.09,0-.26,0-.51.18-.02.26-.04.46-.04.2,0,.37,0,.51.03l.03,1.86c0,.22.02.54.02.99v.64Z"/>
          <path d="M89.06,83.67c-.12.01-.27.01-.45,0l-.47-.04c-.17-.16-.71-1.19-.87-1.64-.02-.07-.43,0-.47-.07,0,.08-.01.17-.02.28v1.33c-.31.04-.28.03-.24.03-.35-.02-.6-.05-.75-.08-.02-.13-.02-.43,0-.91l.16-3.09c.05,0,.11,0,.18.01l.71.05c0,.15,0,.38-.02.69-.01.32-.02.7-.02.85,0,0,.26.02.35-.06.09-.08.32-.45.52-.76.25-.4.32-.51.46-.65.04,0,.11,0,.19.01l.48.03c.19.01.31.02.38.04-.1.24-.38.56-.75.99-.36.42-.46.69-.56.85l1.18,2.15Z"/>
        </g>
        <g id="shank" class="letters-off">
          <path d="M158.92,82.99l.64.14c-.04.22,0,.55.47.74.08.05.25.07.35.09.11.02.42.05.54,0s.19-.26.23-.38c.04-.16-.16-.32-.23-.42-.09-.12-.17-.21-.26-.26-.09-.05-.17-.1-.24-.13-.07-.03-.12-.06-.15-.07-.2-.08-.26-.19-.28-.2-.19-.08-.41-.36-.56-.53-.29-.39-.47-.77-.35-1.21.09-.35.15-.62.52-.86.24-.15.51-.25.8-.28.26-.02.53,0,.81.06.39.09.73.24,1.03.44.25.19.41.44.47.71.05.18.05.34,0,.49-.04.15-.06.34-.12.45l-.04-.05c-.25-.02-.41-.04-.63-.09-.21-.05-.06,0-.21-.07.02-.03.05-.36.06-.4,0-.19-.12-.21-.31-.39-.1-.11-.63-.19-.72-.21-.41-.09-.74.01-.79.37.02.18-.15.32.68.82.26.16.87.66,1.09.85.21.19.45.54.35,1.17-.04.3-.09.44-.27.63-.2.25-.32.46-.64.53-.32.07-.65.06-.98-.01-.35-.08-.69-.15-.98-.34-.29-.19-.48-.48-.6-.74-.13-.26-.16-.52-.09-.77,0-.03.02-.06.02-.09v-.04c.05-.01.17,0,.38.05Z"/>
          <path d="M163.93,80.47l.55.08c.12.02.03.01.08.04,0,.19-.04.5-.09.92-.05.42-.07.74-.06.97h0c.06.03.35.09.49.12.14.03.52.09.76.12h0c.09-.33.17-.66.22-.98s.1-.61.13-.86c.22-.02.26-.05.47-.01.21.04.37.07.49.11l-.64,5c-.15,0-.37-.03-.66-.09-.29-.05-.27-.04-.32-.05h0c0-.23.03-.56.1-1.01.07-.45.11-.77.11-.97h0c-.15-.06-.3-.1-.46-.13-.16-.03-.69-.12-.86-.12-.03.12-.07.28-.1.5l-.13.79c-.05.28-.1.48-.15.59-.07.02-.18.02-.34-.01l-.4-.1c-.1-.02-.17-.03-.21-.02.04-.45.12-1.11.25-2,.13-.89.23-1.54.31-1.95.07-.41.13-.75.18-1h0s.02,0,.02,0c.05.02.13.04.23.06Z"/>
          <path d="M169.12,81.24c.08,0,.13,0,.16.01.03,0,.1.02.22.04s.34.04.66.06l.43,2.6.45,2.58h0c-.14.01-.49-.03-.68-.06-.18-.03-.11-.03-.35-.11h0c-.03-.1-.07-.29-.11-.59-.05-.3-.09-.5-.14-.61-.02-.02-.35-.08-.43-.09l-.6-.08c-.06.08-.14.27-.24.55-.1.28-.2.48-.28.58-.05,0-.1,0-.15,0l-.8-.12s-.01,0-.02,0c0-.01.15-.26.32-.77.17-.5.36-1.05.66-1.81.3-.76.6-1.54.92-2.17ZM168.91,84.17c.21.03.58.08.79.11-.01-1-.09-1.72-.16-1.73-.02,0-.09.23-.12.3-.03.07-.26.5-.5,1.32Z"/>
          <path d="M175.33,85.92v.58s0,.15,0,.15c-.08.02-.18.03-.28.03l-.78-.06c-.51-.97-.85-1.65-1.01-2.04l-.08-.22c-.06-.15-.29-.63-.3-.63-.04,0-.04.77-.04,1.54,0,.76,0,1.2,0,1.31-.11.02-.06.04-.2.03l-.81-.07v-.51s0-2.62,0-2.62c0-.77.04-1.42.09-1.95.1-.02.21-.02.34-.02.13,0,.29.02.47.03.18.02.16.03.16.05.06.13.13.23.22.37.09.15.14.25.19.35.05.11.13.36.34.73.21.37.67,1.54.68,1.54.04-.02,0-1.08,0-1.33l-.02-1.05c0-.11,0-.33.02-.65.19-.02.28-.04.5-.03.21,0,.4.03.56.06l-.02,2.34c0,.27,0,.69,0,1.24l-.02.81Z"/>
          <path d="M180.09,86.38c-.13.03-.29.05-.49.06h-.52c-.19-.17-.87-1.4-1.06-1.95-.03-.09-.46.04-.51-.03,0,.1,0,.22,0,.36l.09,1.67c-.31.09-.29.07-.24.07-.38.02-.65.02-.82,0-.03-.16-.06-.54-.08-1.14l-.07-3.9c.06,0,.12,0,.2,0l.77-.03c.01.18.02.47.04.87.01.4.03.89.04,1.07,0,0,.28,0,.38-.12.09-.11.32-.6.51-1.02.24-.53.31-.69.45-.87.04,0,.12,0,.21-.01l.53-.03c.2,0,.34,0,.42,0-.09.31-.37.75-.73,1.33-.36.58-.44.92-.54,1.13l1.45,2.56Z"/>
        </g>
        <g id="tongue" class="letters-off">
          <path d="M7.03,41.86l-.05-.65c-.06-.61-.13-1.23-.21-1.85h0c-.06-.03-.17-.03-.33-.02-.16.01-.24.02-.25.01-.02-.04-.04-.15-.06-.33-.02-.18-.03-.32-.03-.42h0c.22-.04.43-.06.61-.08.18-.02.4-.04.63-.06.24-.02.5-.03.78-.02.02.1.03.22.04.35.01.13.01.26,0,.39-.04,0-.11,0-.2,0-.1,0-.22.02-.38.05h-.01s0,.16.03.44c.03.28.1.98.22,2.1h0c-.07.03-.18.05-.33.06h-.12c-.15.02-.26.04-.33.06,0,0,0-.02,0-.05Z"/>
          <path d="M10.72,39.48l-.02.66c0,.22,0,.38-.02.5l-.02.16c-.02.26-.08.48-.19.65-.1.13-.26.23-.5.29-.12.03-.23.05-.33.05-.1,0-.2,0-.3-.01-.1,0-.21-.04-.32-.09-.11-.05-.19-.13-.24-.25-.07-.12-.11-.3-.11-.53-.02-.49-.03-.79-.03-.89,0-.25,0-.46.02-.61,0-.36.1-.63.26-.82.04-.04.07-.07.11-.09.19-.09.4-.14.63-.14.31,0,.56.08.76.23.09.08.16.18.19.29.03.07.05.16.07.27.01.11.02.21.02.33ZM10.1,40.53v-.25s.01-.23.01-.23v-.33c-.02-.12-.03-.21-.03-.27-.02-.2-.1-.33-.25-.41-.05-.02-.09-.03-.13-.03l-.24.09c-.11.09-.19.2-.23.33-.03.16-.05.31-.05.45,0,.14,0,.24,0,.3.02.36.05.59.09.72.07.14.19.21.38.21.14,0,.25-.05.34-.15.05-.07.08-.12.08-.15,0-.03,0-.07,0-.13,0-.05,0-.11,0-.16Z"/>
          <path d="M13.23,41.31v.38s0,.1,0,.1c-.05.02-.1.02-.16.02l-.44-.03c-.28-.64-.47-1.09-.56-1.34l-.05-.15c-.03-.1-.05-.14-.06-.14-.02,0-.04.25-.05.75,0,.5-.01.79-.01.86-.06.02-.13.02-.21.02l-.46-.04v-.34s.02-1.73.02-1.73c0-.51.03-.94.07-1.29.06-.01.12-.02.2-.02.07,0,.16,0,.27.02.1.01.15.02.15.04.03.08.07.17.12.27.05.1.09.18.11.25.03.07.1.23.22.47.11.24.18.36.18.36.03-.02.04-.1.04-.26v-.7c0-.07,0-.22.01-.43.11-.02.22-.03.35-.02.12,0,.23.01.32.03l-.03,1.55c0,.18,0,.45,0,.82v.53Z"/>
          <path d="M15.05,40.79l-.19-.03c-.06,0-.09-.02-.1-.02,0-.07.01-.15.02-.24.01-.1.02-.18.03-.26h0s0,0,0,0c0,0,0,0,.01,0,.05-.02.12-.03.2-.02.08.01.16.02.23.03.07,0,.18.03.32.06.14.03.22.04.22.05h0s0,0,0,0c0,.22-.02.42-.04.6-.02.18-.06.45-.1.58-.07.27-.24.44-.53.5-.25.03-.45.04-.61.02-.16-.02-.3-.07-.41-.13-.11-.06-.19-.15-.25-.24-.09-.16-.13-.51-.13-.82.01-.36.03-.61.05-.77.06-.42.12-.75.19-.98.07-.23.19-.39.35-.47.17-.11.4-.14.69-.1.29.04.53.15.7.33.18.18.24.41.2.7,0,.07-.02.13-.04.19,0,0-.09,0-.25-.02-.16-.02-.28-.04-.35-.06-.04-.27-.13-.42-.27-.44-.03,0-.06-.01-.08-.02-.03,0-.06,0-.1,0-.04,0-.07,0-.1.03-.03.02-.06.08-.11.19-.07.16-.13.38-.16.66-.04.28-.06.51-.07.7,0,.18.03.43.1.5.04.04.1.06.17.07.07,0,.15,0,.24-.02.08-.02.14-.07.17-.15.01-.04.03-.2.04-.27.01-.07.01-.11,0-.13-.01,0-.03,0-.06,0Z"/>
          <path d="M17.96,39.1l.42.04c.14.02.23.05.27.09-.04.31-.1.68-.17,1.11-.07.42-.17.98-.3,1.45-.06.21-.18.37-.33.49-.19.14-.44.19-.74.14-.36-.06-.62-.21-.79-.45-.11-.15-.15-.31-.13-.5l.38-2.19c.05-.29.07-.44.07-.45h0s.35.05.35.05c.14.02.24.05.31.09h0c-.06.27-.12.6-.19.99-.07.39-.12.95-.17,1.46.02.15.1.24.25.26.05,0,.1,0,.15-.01.09-.03.15-.08.19-.17.06-.28.14-.81.24-1.34.1-.54.16-.89.19-1.05Z"/>
          <path d="M19.36,42.15l1.02.27c.07.02.14.03.2.04h0c-.01.09-.03.18-.06.29-.03.11-.07.22-.12.32l-1.33-.3c-.22-.05-.41-.11-.58-.16l.49-2.2c.08-.35.17-.68.27-1,.53.1.99.19,1.37.28.38.09.57.14.57.15,0,.07-.02.14-.04.21l-.12.45h0c-.14,0-.33-.02-.55-.08l-.24-.06c-.17-.04-.32-.07-.44-.09h-.01s0,0,0,0l-.11.4c-.02.08-.02.13-.01.15.17.05.36.1.57.15h0s0,.08-.03.21l-.12.45c-.07,0-.18-.01-.32-.05-.14-.03-.23-.05-.26-.04-.03.06-.05.14-.08.24-.02.1-.04.21-.06.34h0Z"/>
        </g>
        <g id="tenderloin" class="letters-off">
          <path d="M136.41,28.73v-.68c.01-.65,0-1.46-.02-2.12h0c-.06-.04-.19-.05-.36-.06-.18,0-.45,0-.46-.01-.02-.04-.03.01-.03-.18,0-.19,0-.34.01-.45h0c.25-.02.48-.02.69-.02.21,0,.45,0,.71,0,.27,0,.56.02.87.06,0,.11.01.23,0,.37,0,.13-.01.11-.03.25-.04,0-.12-.01-.23-.01-.11,0-.25,0-.43,0h-.02s-.01.33-.01.63c0,.3,0,1.04.02,2.22h0c-.08.02-.21.03-.38.03h-.13c-.17,0-.12,0-.2.01v-.05Z"/>
          <path d="M138.95,28.24l1.37.04c.08,0,.16,0,.23,0h0c0,.09.01.03,0,.15,0,.12-.02.24-.06.36h-1.53c-.25,0-.48,0-.68-.02l-.02-2.37c0-.38.01-.74.04-1.08.61-.03,1.13-.04,1.57-.04.44,0,.66,0,.66.02.01.07.02.15.02.23l-.02.32h0c-.16.04-.37.05-.63.05h-.28c-.2,0-.55,0-.69,0h-.02s-.02.61-.02.61c0,.09,0,.14.03.16.19.01.59.02.84.02h0s.02.09.02.22v.32c-.09.02-.21.03-.38.03-.17,0-.44,0-.47.02-.02.07-.02.33-.02.43,0,.11,0,.39.02.53h0Z"/>
          <path d="M147.55,25.81l1.37-.04c.08,0,.16,0,.23,0h0c0-.09.01-.03,0-.15,0-.12-.02-.24-.06-.36h-1.53c-.25,0-.48,0-.68.02l-.02,2.37c0,.38.01.74.04,1.08.61.03,1.13.04,1.57.04.44,0,.66,0,.66-.02.01-.07.02-.15.02-.23l-.02-.32h0c-.16-.04-.37-.05-.63-.05h-.28c-.2,0-.55,0-.69,0h-.02s-.02-.61-.02-.61c0-.09,0-.31.03-.32.19-.01.59-.02.84-.02h0s.02-.09.02-.22v-.32c-.09-.02-.21-.03-.38-.03-.17,0-.44,0-.47-.02-.02-.07-.02-.16-.02-.27,0-.11,0-.39.02-.53h0Z"/>
          <path d="M143.46,28.3v.4s0,.1,0,.1c-.05.02-.11.02-.18.02l-.57-.03c-.33-.67-.45-1-.56-1.27l-.27-.73c-.04-.1-.15-.37-.16-.37-.03,0,0,.59,0,1.12,0,.53,0,1.16,0,1.24-.07.02-.15.02-.24.02l-.43-.03v-.35s0-1.82,0-1.82c0-.53.02-.99.06-1.35.06-.01.22-.02.31-.02.08,0,.18,0,.3.02.12.01.17.02.17.04.04.09.29.58.34.68.06.1.58,1.35.59,1.35.03-.02.02-.73.02-.89v-.73c-.01-.08,0-.23,0-.45.12-.02.07-.03.21-.03.14,0,.33.01.43.03v1.63c0,.19,0,.48,0,.86v.56Z"/>
          <path d="M162.15,28.3v.37s0,.1,0,.1c-.05.02-.11.02-.18.02h-.57c-.33-.66-.31-.83-.42-1.1l-.41-.89c-.04-.1-.15-.37-.16-.37-.03,0,0,.59,0,1.12,0,.53,0,1.26,0,1.34-.07.02-.15.02-.24.02l-.43-.03v-.45s0-1.82,0-1.82c0-.53.02-.99.06-1.35.06-.01.22-.02.31-.02.08,0,.18,0,.3.02.12.01.17.02.17.04.04.09.29.58.34.68.06.1.58,1.35.59,1.35.03-.02.02-.73.02-.89v-.73c-.01-.08,0-.16,0-.38.12-.02.07-.03.21-.03.14,0,.33.01.43.03v1.56c0,.19,0,.48,0,.86v.56Z"/>
          <path d="M144.8,25.27h.5c.05,0,.09,0,.13,0,.11.03.23.08.33.16.11.08.19.17.26.27.15.22.25.46.32.74.03.07.04.18.05.32,0,.05,0,.13-.01.23,0,.11,0,.19-.01.25-.01.19-.02.31-.04.38-.01.06-.02.09-.02.09,0,0,0,0,0,0-.12.32-.35.67-.69,1.07-.32,0-.79.01-1.42,0h0c-.06-.41-.09-.98-.08-1.72l.02-1.27c0-.19,0-.34,0-.47l.02-.02c.17-.04.39-.05.67-.05ZM144.78,26.56v.86c0,.27,0,.49,0,.67.04.04.11.07.2.07.15,0,.28-.02.37-.06.07-.05.14-.14.21-.26.13-.23.19-.47.19-.72,0-.18-.02-.36-.06-.53-.09-.35-.22-.57-.39-.64-.09-.02-.17-.03-.26-.03-.08,0-.16,0-.24.03h-.02s0,.03,0,.03c0,.13,0,.32,0,.58Z"/>
          <path d="M152.26,28.84l-.63.02c-.09,0-.16-.42-.19-.43,0,0-.36-.89-.44-1.02-.13.01-.18,0-.34-.02h-.21c0,.07,0,.32,0,.49,0,.17-.02.49,0,.91-.1.04-.12.05-.42.05h-.28s-.06,0-.06,0c0,0,.02-.53.02-1.59,0-1.06-.01-1.71-.05-1.94.42-.05.74-.02.95-.01.21,0,.37,0,.47.02.21.01.4,0,.57.11.33.2.51.51.54.91,0,.02,0,.03,0,.05,0,.17-.02.36-.13.56-.04.14-.18.26-.4.37,0,0-.02.07.08.3.17.41.42,1.01.51,1.23ZM150.89,26.88c.12,0,.2-.02.29-.04.2-.05.34-.2.34-.5,0-.19-.06-.33-.18-.42-.1-.1-.22-.07-.37-.07-.15,0-.32-.04-.52.04,0,.07,0,.23,0,.47,0,.24,0,.41.02.5h0c.15.02.28.03.4.03Z"/>
          <path d="M154.74,28.35v.34s0,.08,0,.11c-.01.03-.03.05-.04.05-.01,0-.03,0-.06,0h-.04s-.05,0-.08,0h-.74c-.26,0-.58,0-.96,0v-.09c.03-1.03.05-1.61.05-1.75l-.02-1.72c.06-.03.2-.04.41-.04.21,0,.18.02.28.06,0,.14-.01.35-.01.61v2.02c0,.11,0,.2,0,.27h0s.07,0,.15,0l1,.05s.06,0,.07,0v.09Z"/>
          <path d="M157.6,26.52l-.02.7c0,.23,0,.4-.02.52l-.02.17c-.02.28-.09.5-.21.68-.11.14-.3.24-.56.31-.14.04-.26.05-.37.05-.11,0-.4,0-.51-.01-.12,0-.24-.04-.36-.09-.12-.05-.21-.14-.27-.26-.08-.13-.12-.32-.13-.56-.03-.52-.04-.83-.04-.94,0-.27,0-.48.02-.65,0-.38.11-.66.29-.86.04-.04.08-.07.12-.09.21-.1.62-.14.89-.14.35,0,.63.08.85.24.1.09.18.19.22.31.04.08.06.17.08.28.02.11.02.23.02.34ZM157,27.66l.02-.28v-.26s0-.37,0-.37c-.01-.14-.02-.24-.02-.31-.01-.23-.11-.38-.29-.47-.05-.02-.11-.03-.16-.03l-.5.11c-.14.1-.23.23-.29.38-.04.18-.07.35-.07.51,0,.16,0,.28,0,.34.02.4.05.68.09.81.08.16.43.24.66.24.17,0,.31-.05.42-.17.07-.08.1-.14.1-.17,0-.03,0-.08.01-.14,0-.06,0-.12.01-.18Z"/>
          <path d="M158.41,25.31h.19c.3.02.32.03.42.03h.13v.02l-.05,2.41c0,.27,0,.63.03,1.1-.01.04.06.05-.15.05l-.56-.02c-.05,0-.09,0-.1,0,.02-.22.03-.51.03-.86l-.02-1.74c0-.43.02-.76.05-.98h0s.02,0,.03,0Z"/>
        </g>
        <g id="rib" class="letters-off">
          <path d="M103.72,36.52l.6-13.78c.06-.97.1-1.72.12-2.26l.02-.02c.92-.19,1.65-.27,2.21-.24.56.03,1.07.09,1.53.19.46.09.98.5,1.42.8.71.49.89,1.21,1.16,2.15.16.56.35,3.6.36,4.38.09,5.76-.75,5.82-1.36,6.71-.06.1-.03.24.1.41.13.18.21.29.25.35.04.05.12.18.25.38.13.2.21.34.24.43.03.09.08.22.15.42.07.19.11.53.12.67s.18,2.42.17,2.61c-.01.19-.16,6.86-.23,7.15-.07.29-.2.58-.38.87-.19.29-.39.52-.61.68-.22.17-.5.3-.83.39-.64.2-1.48.26-2.53.19-.26-.01-.69-.05-1.29-.11l-1.19-.14c-.19-.01-.32-.03-.37-.06,0-.76-.01-10.5.09-12.15ZM106.22,22.5l-.34,10.14c-.02.4,0,.7.08.88.33.05.62.08.89.1.95.04,1.57-.13,1.86-.52.22-.28.33-.51.34-.68,0-.17.41-4.55.14-7.5-.13-1.12-.36-1.88-.85-2.28-.36-.29-.94-.38-1.27-.4-.33-.01-.6.02-.83.09,0,.02,0,.08,0,.16ZM105.87,47.09l1.06.06c.61.03,1.02,0,1.24-.09.21-.09.38-.19.51-.29.18-.17.45-7.81.09-10.13-.03-.23-.04-.47-.15-.73-.2-.33-.52-.55-.96-.66-.23-.06-.56-.11-1.01-.15-.45-.04-.7-.07-.78-.08-.21.55-.05.51-.07.93-.02.42-.19,10.85.03,11.12l.05.02Z"/>
          <path d="M96.93,48.24l-1.69-.06c-.28-.02-.48-.04-.59-.07h-.02c-.69-1.94-1.66-11.5-2.36-12.48l-1.28-.04c-.03.19-.08,3.06-.11,3.63-.04.57.09,7.1.09,8.52-.32.1-.08.19-1.02.14l-1.04-.05c-.11,0-.18-.01-.2-.01.05,0,.2-8.53.11-12.39-.08-3.56.63-14.67.55-15.45,1.33-.11,2.33-.15,2.99-.11.66.04,1.15.09,1.48.14.65.07,1.24.3,1.76.68,1.01.74,1.03,2.53,1.02,3.88,0,.06-.01,1.39-.01,1.45-.04.56-.41,5.98-.6,6.58-.26.8-.57,1.57-1.55,2.14l-.12.56c.1.21.51.58.9,2.82.25,1.46,1.49,9.39,1.72,10.14ZM92.26,33.61c.38.02,1.36-.13,1.87-1.24.38-2.06.24-7.42.28-8.17.03-.48.03-1.79-.33-2.05-.3-.26-.69-.4-1.17-.42-.48-.02-1.03-.12-1.66.07,0,.19-.27,9.84-.29,10.45-.03.61-.02,1.09.01,1.32h.02c.46.06.89.03,1.26.04Z"/>
          <path d="M99.58,20.48l.39.07c.86.09,1.09.14,1.37.16l.37.02v.07s-.71,16.23-.71,16.23c-.05.89.19,9.52.16,11.08-.04.12-.01.16-.6.12l-1.43-.16c-.16-.01-.25-.01-.3,0,.09-.73-.11-9.09-.04-10.29l.26-5.84c.08-1.44.32-10.7.44-11.44v-.03s.05,0,.08,0Z"/>
        </g>
        <g id="plate" class="letters-off">
          <path d="M94.84,67.72c.2-.14.67-.29.84-.94.23-.89.26-4.8.27-5.07,0-.03,0-.05,0-.08,0-.65-.03-1.49-.52-1.84-.25-.18-.54-.29-.85-.33-.16-.03-.4-.05-.72-.06-.32-.02-.8,0-1.45.06.04.37-.13,4.96-.08,6.68.05,1.87-.16,5.78-.18,5.78.01,0,.04,0,.1,0l.42.02c.45.03.59-.02.74-.07,0-.69.06-2.66.08-2.94.02-.28,0-.87.01-.96,0,0,.82.1,1.33-.27ZM93.85,66.77c-.14,0-.18-.01-.35-.04h0c-.01-.09-.01-.27,0-.52.01-.25.06-5.47.06-5.55.23-.07.43-.11.6-.1.17,0,.31.07.42.18.13.11.12.65.11.85-.02.31.04,3.82-.11,4.67-.19.46-.59.51-.72.5Z"/>
          <path d="M99.44,71.03v.51c0,.07-.02.13-.04.18-.02.05-.04.08-.06.08-.02,0-.05,0-.09,0h-.07s-.07,0-.12,0l-1.32-.04c-.39-.02-.88-.05-1.47-.09v-.15c.14-1.69.21-2.65.22-2.86l.42-8.97c.1-.04.31-.06.63-.04.31.02.55.06.7.13-.02.24-.05.57-.07.99l-.45,9.31c0,.18-.02.33-.02.45h0s.11,0,.23,0l1.45.07c.06,0,.09,0,.11,0l-.04.42Z"/>
          <path d="M101.39,59.98c.08,0,.46-.01.48,0,.03,0,.1.01.22.02.12,0,.77.08,1.09.06l.31,5.81.37,6.08h0c-.14.03-.41.01-.59,0-.18,0-.39,0-.63-.05h0c-.03-.11,0-.51-.07-.85-.07-.34-.02-.57-.07-.69-.02-.02-.07-.03-.16-.03l-.82-.02c-.05.1-.06.33-.14.67-.08.34-.03.75-.1.88-.05,0-.1.01-.15,0l-1-.07s-.01,0-.02,0c0-.02.1-.86.18-1.56.1-.88.32-2.56.42-3.49.17-1.57.62-5.89.68-6.75ZM101.6,69.13c.2.01.67,0,.87.02-.07-1.16-.08-7.1-.16-7.07-.04.02-.09-.07-.12.02-.03.08-.42,6.06-.6,7.04Z"/>
          <path d="M109.44,71.22l1.8.18c.13,0,.24.01.34.02v.02c0,.13,0,.3-.02.49-.02.2-.06.39-.13.58l-2.33-.14c-.38-.03-.72-.07-1.03-.12l.47-6.55c.05-.62.38-4.63.46-5.18.93.02,1.72.05,2.39.1.67.05.65.02.66.03,0,.12,0,.24,0,.37l-.08.79h0c-.24.04-.22.11-.61.08l-.43-.03c-.31-.02-.56-.04-.77-.04h-.02s0,0,0,0l-.35,4.13c-.01.14,0,.23.02.26.29.04.63.07,1.01.1h0s.02.14,0,.35l-.08.79c-.12.02-.3.03-.56,0-.25-.02-.4-.01-.44,0-.03.11-.28,2.97-.29,3.14-.01.17-.02.37-.01.6h0Z"/>
          <path d="M105.14,71.91l.17-3.53c.05-1.07.21-5.73.22-6.8h0c-.09-.06-.28-.1-.55-.11-.27-.02-.41-.03-.43-.04-.03-.07-.04-.22-.03-.53.01-.31.03-.55.05-.72v-.02c.38,0,.73.02,1.04.03.32.01.68.03,1.08.05.4.02.85.07,1.32.14,0,.18,0,.38-.01.6,0,.22-.03.41-.08.63-.07-.01-.18-.02-.34-.03-.16,0-.38-.01-.66-.01h-.02s-.17,3.89-.19,4.37c-.02.48-.17,4.1-.23,6.03v.02c-.12.02-.31.02-.58,0l-.21-.02c-.26-.01-.45,0-.57,0,0,0,0-.03,0-.08Z"/>
        </g>
        <g id="brisket" class="letters-off">
          <path d="M74.82,70.59c-.12.02-.27.04-.46.04-.26,0-.38-.01-.64-.02-.17-.7-.36-1.95-.64-3.15-.33-1.46-.53-2.63-.57-2.69,0,.09-.32.8-.31.94.1,1.93.15,2.89.27,4.91-.14.03-.27.05-.38.05-.35,0-.61-.02-.77-.05-.04-.16-.19-5.11-.22-5.67-.12-1.94-.18-2.9-.31-4.92.05,0,.11,0,.18,0,.35,0,.52-.01.87-.02.02.18.13,1.31.15,1.69.02.38.03,2.05.04,2.22-.03.21.32-.93.4-1.03.08-.1.28-.74.37-1.16.15-.68.38-1.56.51-1.74.04,0,.11,0,.19,0,.19,0,.29-.01.48-.02.19,0,.32,0,.38,0-.08.3-.48,1.43-.63,2.04-.17.7-.47,1.69-.55,1.89.64,2.65.96,3.96,1.62,6.72Z"/>
          <path d="M56.55,66.37c-.03-1.97-.04-2.9-.1-5.05,0-.41,0-.74-.02-.98h0c.4-.12.72-.18.97-.19.25,0,.47,0,.68.03.21.02.42.09.62.19.21.1.38.26.51.48.13.22.37,3.21.36,3.52,0,.31-.16.76-.41,1.12-.03.04,0,.09.05.16.06.07.1.11.12.13.02.02.06.07.12.14.06.08.1.13.12.16.01.03.04.09.08.16.04.07.06.14.07.19,0,.06.01.12,0,.2,0,.08.11,3.24.09,3.36-.02.12-.07.25-.14.37-.07.13-.16.23-.25.3-.09.08-.21.14-.36.18-.27.09-.65.13-1.11.11-.11,0-.31-.01-.57-.03-.21-.02-.32-.03-.53-.04-.09,0-.14,0-.17-.02-.02-.33-.16-3.86-.15-4.51ZM57.48,61.47c.06,1.36.08,1.99.12,3.25,0,.15,0,.3.03.32.04.03.2.02.28.02.3,0,.5-.08.59-.22.06-.11.1-.19.1-.25,0-.06-.14-2.92-.16-2.95-.08-.14-.19-.22-.33-.24-.15-.03-.27-.04-.37-.04-.1,0-.19.02-.26.06,0,0,0,.03,0,.06ZM57.77,69.93c.11,0,.17,0,.29.01.2,0,.33-.01.4-.05.07-.04.12-.08.16-.12.06-.07-.03-3.18-.03-3.27,0-.08-.02-.18-.06-.27-.06-.12-.18-.19-.32-.23-.07-.02-.18-.03-.33-.04-.15,0-.23-.01-.25-.02-.06.21-.09.39-.1.55,0,.16.15,3.31.23,3.42,0,0,0,0,.02,0Z"/>
          <path d="M64.5,70.95c-.39,0-.59,0-.98,0-.13,0-.21-.01-.26-.02h0c-.37-.85-.7-4.44-1.03-4.82-.19-.02-.29-.03-.48-.05,0,.08.14,1.63.14,1.87,0,.23.15,2.25.19,2.87-.14.05-.26.09-.68.08-.15,0-.23,0-.38-.01-.05,0-.08,0-.09,0,.02,0-.09-3.16-.23-4.69-.13-1.41-.12-5.54-.18-5.87.58-.09,1.02-.14,1.31-.15.29,0,.51,0,.66.01.28.02.55.09.8.24.47.29.54,1.03.58,1.59,0,.02,0,.05,0,.07,0,.24.09,2.6-.06,2.81-.21.38-.19.88-.63.9-.09.06-.13.09-.21.15.07.03.1.05.17.08.05.08.24.22.47,1.13.15.59.79,3.51.92,3.84ZM62.1,64.93c.12,0,.49-.06.64-.45.09-.72-.06-2.19-.06-2.46,0-.17-.03-.65-.15-.73-.1-.08-.24-.13-.39-.13-.16,0-.34.04-.54.12,0,.07.06,2.99.06,3.2,0,.21,0,.35.02.43,0,0,0,0,0,0,.15.01.29.02.42.02Z"/>
          <path d="M64.69,60.1c.11,0,.16,0,.27.01.42,0,.69.01.82.01.07,0,.11,0,.18,0,0,.01,0,.02,0,.03.07,2.62.09,3.8.13,6.27,0,.37.22,3.58.25,4.27-.01.05-.17.08-.45.07-.31-.02-.47-.03-.78-.05-.08,0-.12,0-.14,0,.02-.32-.17-3.43-.17-3.92-.01-.96-.02-1.43-.03-2.39,0-.59-.16-3.95-.12-4.28,0,0,0,0,0-.01,0,0,.02,0,.04,0Z"/>
          <path d="M67.39,67.76c.33.02.5.02.83.04.02.21-.19,1.6.26,1.83.08.03.16.05.26.05.1,0,.22,0,.28-.11.26-.4.19-1.34.18-1.47-.12-1.21-.44-1.57-.51-1.66-.08-.11-.31-.66-.37-.72-.06-.06-.18-.42-.23-.47-.05-.05-.22-.23-.24-.25-.15-.11-.24-.57-.38-.72-.28-.35-.56-1.09-.56-1.52,0-.35-.1-.85-.07-1.25.11-1.25.6-1.35.83-1.44.21-.08.45-.13.7-.13.35,0,.68.05.97.19.25.12.45.31.57.56.08.16.12.32.12.47,0,.15.13,1.49.1,1.61,0,0,0,0,0,0-.22.04-.43.05-.62.05-.19,0-.36-.02-.51-.05,0-.03.01-.07.01-.1,0-.12-.11-1.4-.23-1.47-.11-.08-.29-.12-.37-.12-.16,0-.4-.17-.43.58-.04.94-.01.89.03,1.05.04.15-.02.44.4,1.08.21.31.65.93.78,1.15.14.22.55,1.03.71,1.23.18.23.45,1.52.45,1.81,0,.29-.05,1.76-.14,1.96-.12.27-.3.5-.55.63-.26.13-.54.19-.84.18-.32-.01-.62-.08-.91-.21-.29-.13-.52-.31-.69-.54-.17-.23-.16-1.86-.16-2.11,0-.03,0-.06,0-.09,0-.02,0-.03,0-.04.03-.02.14-.03.32-.02Z"/>
          <path d="M76.49,69.54c.66-.01.99-.02,1.66-.03.12,0,.22-.01.31-.02,0,0,0,0,0,.02.02.12.03.27.05.45.01.18,0,.36-.04.54-.85.05-1.28.08-2.13.12-.35.01-.66.01-.95,0-.17-2.42-.25-3.57-.41-5.92-.04-.55-.24-4.16-.25-4.67.84-.1,1.56-.18,2.17-.22.61-.04.59-.07.6-.06.02.1.04.22.05.33.01.29.02.44.03.73,0,0,0,0,0,0-.22.06-.18.12-.54.15-.16.01-.23.02-.39.03-.28.02-.51.04-.7.06,0,0-.01,0-.02,0,0,0,0,0,0,0,.09,1.5.13,2.24.21,3.73,0,.13.03.22.05.23.16.06.58-.01.92-.03,0,0,0,0,0,0,.02.01.04.12.05.31.01.29.02.43.03.72-.1.03-.27.06-.5.07-.23.01-.39.04-.4.06-.03.06.13,2.69.14,2.85.01.16.03.34.07.54,0,0,0,0,0,0Z"/>
          <path d="M79.51,70.38c-.08-1.32-.12-1.97-.2-3.28-.01-.98-.11-5.17-.16-6.15,0,0,0,0,0,0-.09-.04-.26-.07-.51-.07-.25,0-.38,0-.39,0-.03-.06-.05-.23-.05-.51,0-.28,0-.5,0-.66,0,0,0,0,0-.02.35-.02.67-.03.96-.03.29,0,.62,0,.99-.01.37,0,.77.01,1.21.06.01.16.02.35.02.55,0,.2,0,.41-.04.61-.06,0-.17-.01-.31,0-.15,0-.35.01-.6.03,0,0-.01,0-.02,0,0,.02.06,3.52.06,3.95,0,.44.23,3.79.29,5.56,0,0,0,0,0,.01-.11.02-.28.03-.52.03-.08,0-.11,0-.19,0-.24,0-.41.01-.52.03,0,0,0-.03,0-.08Z"/>
        </g>
        <g id="round" class="letters-off">
          <path d="M181.22,62.61l-.32,1.35c-.06.24-.12.4-.16.49h0c-1.84.28-3.22.42-4.4.6l-.35,1.65c.16.06.67.18,1.17.31.5.12,1.36.37,2.62.61.04.29.22-.23.02.55l-.23.87c-.03.09-.04.15-.04.17,0-.04-1.58-.3-4.69-1.08-3.11-.78-5.08-1.15-5.68-1.41.12-1.14.29-1.64.44-2.2.15-.55.44-1.47.54-1.73.17-.54.45-.77.87-1.15.82-.73,1.62-.89,2.81-.67.05,0,.1.01.15.02.49.12.93.39,1.32.78.7.6.92,1.63.92,1.63,0,0,.73-.16,1.99-.28,1.32-.13,2.32-.44,3.02-.5ZM174.81,64.75c.09-.31-.05-.59-.02-.84.01-.56-.44-1.08-1.36-1.29-.58-.13-1.1-.07-1.48.17-.38.19-.58.61-.7,1-.12.39-.38,1.24-.38,1.79.23.04.96.23,1.7.39.74.16,1.25.25,1.54.28l.33.1c.16-.37.28-1.28.37-1.59Z"/>
          <path d="M175.55,53.71l2.07.35c.68.1,1.2.19,1.56.27l.49.12c.82.17,1.47.45,1.95.84.37.35.59.88.68,1.6.05.38.05.71,0,.99-.05.28-.11.58-.18.88-.08.3-.22.61-.42.9-.2.3-.5.49-.88.59-.42.15-1,.37-1.74.28-1.55-.15-2.49-.26-2.82-.31-.79-.12-1.44-.23-1.92-.34-1.12-.19-1.94-.73-2.45-1.31-.1-.13-.17-.25-.22-.37-.2-.59-.24-1.24-.13-1.93.15-.91.51-1.63,1.08-2.14.31-.24.65-.39,1.02-.45.25-.06.54-.09.88-.08.34,0,.68.04,1.04.09ZM178.83,55.78l-.94-.19-.87-.14-1.24-.17c-.47-.03-.82-.06-1.05-.1-.76-.06-1.32.16-1.69.66-.1.15-.16.3-.18.45l.07.94c.27.46.8.81,1.27,1.03.58.21,1.13.36,1.67.45s.92.14,1.14.17c1.36.14,2.28.17,2.76.11.57-.16.91-.58,1.02-1.27.08-.5-.04-.94-.37-1.33-.24-.23-.41-.36-.52-.39-.11-.03-.27-.06-.48-.1-.2-.04-.4-.08-.59-.12Z"/>
          <path d="M173.11,46.76l-.04-.45c.05-.41.13-.69.25-.83,1.01.07,2.19.17,3.54.31,1.35.14,2.79.36,4.3.67.68.16,1.22.46,1.63.91.49.54.68,1.27.57,2.19-.13,1.08-.56,1.9-1.29,2.46-.45.35-.97.5-1.56.46l-6.65-.76c-.93-.1-1.41-.14-1.43-.12h0s.1-1.08.1-1.08c.05-.42.02-.26.12-.47h.02c.87.13,1.92.26,3.15.38,1.23.13,2.83.49,4.47.43.82-.03,1.05-.26,1.45-.84.32-.75-.04-1.38-.1-1.54-.1-.26-.85-.61-1.13-.69-.92-.13-2.28-.45-3.99-.65-1.72-.2-2.84-.33-3.38-.39Z"/>
          <path d="M182.3,37.22h1.19s.3.01.3.01c.04.14.06.29.05.45l-.12,1.09c-2,.8-2.17,1.06-3.21,1.57l-2.09,1.08c-.3.09-1.65.81-1.65.84,0,.06,2.44-.08,3.99-.05,1.56.03,2.45.04,2.68.03.04.17.22,0,.21.22l-.15,1.41-1.04-.02-5.37-.05c-1.58-.03-2.9-.09-3.98-.19-.03-.15-.04-.34-.03-.55,0-.21.04-.57.08-.86.04-.29.08-.43.12-.43.26-.09.45-.08.76-.22.3-.14.62-.27.84-.34.22-.08.7-.33,1.46-.66.76-.33,3.59-1.91,3.59-1.93-.05-.06-2.7.06-3.2.05h-2.16c-.23,0-.67-.02-1.32-.05-.05-.31-.07-.18-.06-.52.02-.34.06-.79.13-1.04l4.79.08c.56,0,1.4.01,2.54.03l1.65.04Z"/>
          <path d="M173.13,33.56l.03-.92c0-.14.07-.8.06-.9.07-.33.15-.61.37-.92.22-.31.68-.67.98-.87.64-.44,1.09-.67,1.93-.9.21-.08.53-.14.96-.17.15,0,.39,0,.71,0,.32,0,.57,0,.76,0,.57,0,.95.03,1.14.05.19.03.28.05.28.05,0,0,0,0,.02,0,.58.18,1.13.21,1.8.61.9.53,1.54,1.75,1.6,2.8.03.69.07,1.49.1,2.42l.02.02c-1.23.22-2.97.37-5.21.46l-3.83.12c-.56.02-1.03.05-1.42.07l-.06-.04c-.13-.47-.21-1.1-.24-1.89ZM176.79,33.74l2.95-.14c.91-.04,1.88-.09,2.49-.14.15-.17.03-.4.04-.72.02-.56-.04-1.01-.18-1.34-.18-.25-.46-.48-.86-.7-.78-.41-1.6-.6-2.45-.56-.61.03-1.22.14-1.82.32-1.22.38-1.96.88-2.22,1.52-.07.32-.1.64-.12.94,0,.3.02.59.08.86v.07s.11,0,.11,0c.45-.04,1.1-.07,1.98-.12Z"/>
        </g>
        <!-- <g id="head" class="letters-off">
          <path d="M28.1,23.32c-.28.16-2.51,1.51-2.67,1.59,0,.1.12.32.22.47.1.15.1.21.17.24l2.85-1.67c-.08-.2-.23-.49-.46-.7l-.1.06Z"/>
          <path d="M23.57,20.16c.05-.04.31-.2.33-.21.02,0,.07-.04.15-.09.08-.05.55-.31.77-.45l1.18,1.26,1.86,2.05h0c-.09.07-.28.18-.41.26-.13.08-.27.17-.45.25h0c-.05-.02-.2-.22-.31-.34-.12-.12-.16-.19-.22-.21-.02,0-.06.02-.12.06l-.69.38c0,.06.1.2.18.45.05.15.11.26.1.34-.03.02-.07.05-.1.07l-.69.41s0,0,0,0c0,0-.17-.5-.29-.78-.16-.35-.29-.93-.44-1.31-.36-.89-.67-1.81-.85-2.14ZM25.38,22.4c.14-.08.46-.29.61-.37-.34-.35-1.2-1.57-1.25-1.53-.03.02-.08.02-.08.06,0,.04.6,1.44.72,1.84Z"/>
          <path d="M23.57,26.06c.49-.29.73-.44,1.22-.73.08-.05.16-.1.23-.15,0,0,0,0,0,0,.04.05.21.32.26.41.05.08.09.18.1.28-.62.39-.93.59-1.55.98-.25.16-.49.29-.7.41-.71-1.11-1.05-1.65-1.73-2.73-.16-.26-1.18-1.94-1.31-2.19.6-.41,1.12-.76,1.56-1.04.44-.28.42-.29.43-.28.04.04.08.09.11.15.08.14.21.37.28.5,0,0,0,0,0,0-.15.12-.11.14-.37.3-.11.07-.17.11-.28.18-.2.13-.37.24-.51.33,0,0,0,0-.02.01,0,0,0,0,0,0,.41.67.17.26.8,1.32.05.09.11.15.13.14.15-.03.43-.26.67-.42,0,0,0,0,0,0,.02,0,.07.07.16.2.12.2.29.49.41.7-.06.07-.18.16-.35.27-.17.11-.27.19-.27.21,0,.05.56.95.6,1.02.04.07.04.04.11.12,0,0,0,0,0,0Z"/>
          <path d="M27.11,18.03s.41-.28,1.17-.41c.21-.04.56-.06.72.03.35.18.68.43.97.76.09.08.19.21.3.4.03.07.09.18.16.33.07.15.13.26.17.35.13.27.21.45.24.54.03.1.52.63.22,1.82-.1.4-.46.82-.88,1.1-.28.19-.61.41-1.03.67h0c-.39-.5-.98-1.65-1.54-2.66l-.97-1.63c-.14-.25-.29-.52-.39-.7v-.04c.2-.19.5-.33.86-.55ZM28.12,19.74l.66,1.2c.21.37.56.99.7,1.24.08.03.13-.05.23-.11.17-.1.28-.3.34-.42.03-.12.05-.21.03-.42-.04-.41-.3-1.04-.5-1.38-.14-.25-.3-.48-.48-.69-.37-.43-.47-.48-.82-.57-.11.04-.31.03-.4.09s-.19.08-.26.16h-.02s.02.05.02.05c.1.18.29.5.48.85Z"/>
          <path d="M22.28,27.92l-.51.33c-.1.06-.14.07-.19.09-.09-.1-.22-.43-.39-.67-.17-.24-.77-1.18-.93-1.35l-.09.06c-.06.02-.15.07-.26.14-.11.07-.26.18-.45.31h0c.15.32.74,1.21.86,1.41.12.19.26.49.36.64-.15.14-.35.29-.52.4-.17.1-.3.18-.4.24l-3.18-4.94c.11-.09.28-.2.51-.34.23-.14.37-.23.4-.25h0c.11.11.25.3.42.56.17.27.79,1.23.91,1.39h.01c.14-.05.27-.12.4-.2.13-.08.29-.2.4-.31-.05-.11-.21-.4-.34-.62l-.64-.99c-.1-.17-.16-.3-.19-.38.04-.05.09-.09.21-.17l.48-.27c.08-.05.14-.09.16-.11.19.25,1.46,2.26,1.8,2.78.34.52.77,1.18.92,1.43.15.25.35.56.43.72h0s-.02.02-.02.02c-.05.02-.11.06-.19.1Z"/>
        </g> -->
      </g>
    </g>
  </g>
</svg>