<?xml version="1.0" encoding="UTF-8"?>
<svg id="Layer_2" data-name="Layer 2" xmlns="http://www.w3.org/2000/svg" viewBox="0 0 899.7 257.77">
  <defs>
    <style>
      .cls-1 {
        fill: none;
      }

      .cls-2 {
        fill: #c37d3b;
      }

      .cls-3 {
        fill: #bf7a36;
      }

      .cls-4 {
        fill: #c17b38;
      }

      .cls-5 {
        fill: #bd7836;
      }

      .cls-6 {
        fill: #c8813e;
      }

      .cls-7 {
        fill: #c47e3d;
      }

      .cls-8 {
        fill: #c8813d;
      }

      .cls-9 {
        fill: #c27c39;
      }

      .cls-10 {
        fill: #be7a36;
      }

      .cls-11 {
        fill: #c7803d;
      }

      .cls-12 {
        fill: #c47e3b;
      }

      .cls-13 {
        fill: #bd7835;
      }

      .cls-14 {
        fill: #c47e3c;
      }

      .cls-15 {
        fill: #bc7734;
      }

      .cls-16 {
        fill: #bf7a37;
      }

      .cls-17 {
        fill: #bf7a38;
      }

      .cls-18 {
        fill: #c07b37;
      }

      .cls-19 {
        fill: #c57f3c;
      }

      .cls-20 {
        fill: #c7813e;
      }

      .cls-21 {
        fill: #c8813f;
      }

      .cls-22 {
        fill: #c5803c;
      }

      .cls-23 {
        fill: #bb7734;
      }

      .cls-24 {
        fill: #c27c3a;
      }

      .cls-25 {
        fill: #c7813d;
      }

      .cls-26 {
        fill: #bd7936;
      }

      .cls-27 {
        fill: #c37d3a;
      }

      .cls-28 {
        fill: #b97533;
      }

      .cls-29 {
        fill: #c07b38;
      }

      .cls-30 {
        fill: #c6803e;
      }

      .cls-31 {
        fill: #c27d3a;
      }

      .cls-32 {
        fill: #c47f3b;
      }

      .cls-33 {
        fill: #c57f3b;
      }

      .cls-34 {
        fill: #c07b39;
      }

      .cls-35 {
        fill: #c57f3d;
      }

      .cls-36 {
        fill: #ba7633;
      }

      .cls-37 {
        fill: #c98340;
      }

      .cls-38 {
        fill: #be7937;
      }

      .cls-39 {
        fill: #c17c39;
      }

      .cls-40 {
        fill: #be7936;
      }

      .cls-41 {
        fill: #c37e3a;
      }

      .cls-42 {
        fill: #bc7835;
      }

      .cls-43 {
        fill: #c6803c;
      }

      .cls-44 {
        fill: #c6803d;
      }

      .cls-45 {
        fill: #c17c3a;
      }

      .cls-46 {
        fill: #c27d39;
      }

      .cls-47 {
        fill: #c47f3c;
      }

      .cls-48 {
        fill: #c17b39;
      }

      .cls-49 {
        fill: #c8823e;
      }

      .cls-50 {
        fill: #c17c38;
      }
    </style>
  </defs>
  <g id="_レイヤー_1" data-name="レイヤー 1">
    <g>
      <path class="cls-1" d="M85.64,113.62s.06.08.09.12c.04-.04.08-.08.12-.12h-.21Z"/>
      <path class="cls-1" d="M403.96,153.39c.07-.03.13-.06.2-.08-.04-.13-.07-.25-.11-.39-.12.01-.24.02-.35.03.09.14.18.3.26.44Z"/>
      <path class="cls-1" d="M765.67,197.37c.24.07.47.14.71.22-.73-.43-.84-.39-.71-.22Z"/>
      <path class="cls-1" d="M62.84,140.98c1.22-.81,2.31-1.8,3.24-2.93.81-.99,1.49-2.1,2.01-3.29.4-.9.71-1.84.92-2.82.21-.99.33-2.01.33-3.05,0-.02,0-.03,0-.05-.01-3.62-1.36-6.92-3.56-9.46-2.66-3.06-6.57-5-10.95-5-5.03,0-9.46,2.56-12.06,6.44-1.54,2.29-2.44,5.04-2.45,8,0,.02,0,.04,0,.07,0,1.66.29,3.26.81,4.75.19.54.41,1.07.66,1.58.49,1.01,1.08,1.96,1.78,2.82.95,1.17,2.08,2.18,3.34,3.01,2.28,1.49,5,2.37,7.93,2.37s5.72-.89,8.01-2.42Z"/>
      <path class="cls-1" d="M207.94,40.37s.08-.08.11-.11h-.19s.05.08.08.11Z"/>
      <path class="cls-1" d="M110.55,211.24s-.05-.06-.07-.09c-.07.03-.13.06-.2.1.09,0,.18,0,.27,0Z"/>
      <path class="cls-1" d="M621.09,175.41c-.07-.02-.15-.03-.22-.05-.02,0-.04,0-.06.01.09.01.18.02.28.04Z"/>
      <path class="cls-1" d="M623.51,79.94s0,0,0,0h.04,0s-.02,0-.03,0Z"/>
      <path class="cls-1" d="M769.6,198.81s.06.03.1.04c-.76-.71-1.73-1.19-3.11-1.18.35.12.69.24,1.04.36.81.14,1.47.4,1.98.78Z"/>
      <path class="cls-1" d="M449.27,193.04s0,.07,0,.11c.04-.04.08-.07.11-.11-.04,0-.08,0-.12,0Z"/>
      <path class="cls-48" d="M12.54,31.08v-3.05c-4.18-.39-8.36-.72-12.54-1.03v4.51c4.4-.67,8.61.07,12.54-.43Z"/>
      <path class="cls-48" d="M36.98,43.3c-12.18.24-24.13-.91-36.98-3.54v10.47c12.33-2.31,24.65-4.62,36.98-6.93h0Z"/>
      <path class="cls-29" d="M0,97.8v9.56c108.05-8.16,216.27-10.37,324.56-11.7-108.26-5.74-216.4.2-324.56,2.14Z"/>
      <path class="cls-29" d="M37,113.66s0,0,0,0h0c0-1.05-.02-2.1-.02-3.16t0,0c-12.31-.83-24.87,1.77-36.97-3.09v9.04c12.41.36,24.87,1.55,37-2.79Z"/>
      <path class="cls-29" d="M110.27,159.36s0,0,0,0c7.64-3.86,15.89-2.97,23.98-2.97,62.53-.05,125.07-.03,187.63-1.52-68.53-.37-136.89-6.88-205.48-4.64-7.53,1-15.06,2.91-22.58,2.85-31.29-.23-62.56.45-93.83,1.3v7.22c36.71-2.04,73.45-3.23,110.27-2.23Z"/>
      <path class="cls-19" d="M93.83,153.08c7.52.05,15.05-1.85,22.58-2.85,0-1.02,0-2.03,0-3.05-11.32-3.21-22.04-2.27-33.74.59-14.96,3.65-31.31,7.42-45.7-3.65-12.33,0-24.65,0-36.97,0v10.26c31.27-.84,62.55-1.53,93.83-1.3Z"/>
      <path class="cls-34" d="M29.02,79.96c-9.67,0-19.35,0-29.02,0v4.16h29.03c0-1.39,0-2.78,0-4.16Z"/>
      <path class="cls-16" d="M85.85,196.08s0,0,0,0h24.44c24.44,0,48.88-.02,73.31-.03h0s0-.01,0-.01h.02c0-1.01,0-2.03,0-3.04-57.73,0-115.46,0-173.19-.03-3.48,0-6.98.13-10.44-.07v2.65c7.23.03,14.46.19,21.7.54h64.16Z"/>
      <path class="cls-12" d="M30.75,185.79c-10.43-3.18-20.96-1.36-30.75-1.91v3.11c9.61-.87,19.79.82,30.75-1.21Z"/>
      <path class="cls-40" d="M63.48,220.44c7.58,0,15.28.68,22.39-2.99,0,0,0,0,0,0h0c-.01-1.04-.03-2.08-.04-3.12h0c-28.64,1.19-57.23.1-85.82-1.09v7.31c21.16-.03,42.32-.1,63.48-.1Z"/>
      <path class="cls-16" d="M70.47,116.63c-10.07.87-47.83,5.99-57.94,6.05-4.18,0-8.36,0-12.54,0v6.07c13.44.02,26.88.05,40.32.07,43.46,1.71,28.62-9.9,30.15-12.19Z"/>
      <path class="cls-16" d="M85.8,128.8c0-3.03.01-6.06.02-9.09-2.02-.02-4.04-.04-6.06-.05,0,0,0,0,.02-.01,0,0-.01,0-.02.01-4.67-.33-9.34-.38-13.99-.28,2.2,2.54-10.96,6.08-10.95,9.7,5.49,0,25.49-.26,30.98-.28Z"/>
      <path class="cls-16" d="M6.15,121.1c2.13.53,4.26,1.06,6.39,1.58-2.09-1.04-4.23-1.45-6.39-1.58Z"/>
      <path class="cls-14" d="M29.63,204.62c-2.8-3.02-5.37-5.78-7.93-8.54-7.23-.36-14.47-.52-21.7-.54v9.49c9.81.65,19.68.64,29.63-.41Z"/>
      <path class="cls-40" d="M85.84,254.12c-28.61,0-57.23-.02-85.84-.02v3.66h82.09c1.36-.85,2.63-2.01,3.75-3.64Z"/>
      <path class="cls-10" d="M0,171.64v3c1.9-.49,3.82-.99,5.81-1.5-1.99-.51-3.91-1.01-5.81-1.5Z"/>
      <path class="cls-31" d="M100.35.56c8.58-.59,17.34.81,25.85-.56H29.06c-3.62.93-7.6.63-11.41.42C11.76.08,5.88.02,0,.12v11.77c20.49-3.05,41.52-1.76,61.41-8.29,12.63-5.43,25.95-2.16,38.93-3.05Z"/>
      <path class="cls-31" d="M97.53,24.56c12.48-.11,24.15-7.81,37.21-5.71,0-2.03,0-4.06,0-6.09,0,0,0,0,0,0h0c-44.87-2.36-89.71,4.97-134.74.86v13.38c4.18.3,8.36.63,12.54,1.03,28.44,1.86,56.6-3.21,84.99-3.47Z"/>
      <path class="cls-12" d="M205.27,48.02c.93.46,1.85.93,2.78,1.39-.68-.96-1.72-1.2-2.78-1.39Z"/>
      <path class="cls-12" d="M330.26,52.48s.06-.02.09-.03c-.04,0-.08,0-.12,0l.03.03Z"/>
      <path class="cls-12" d="M76.06,60.78c29.93-.23,59.86-.66,89.75-.79,30.38-.13,60.76,1.27,91.13-1.43,15.99-5.9,32.6-1.83,48.88-3.04,8.24-.28,16.68,1.04,24.45-3.05-16.26-1.3-32.87,2.92-48.84-3.05-17.33,0-34.65-.02-51.97-.02-7.13,0-14.27,0-21.4,0-8.15,0-16.29,0-24.44.01-4.76,2.71-9.99,3.05-15.29,3.01-3.08,0-6.17,0-9.25-.01-53.02,1.9-106.05,3.79-159.07,5.69v6.58c4.18,0,8.36,0,12.54,0,20.85-6.12,42.43-3.75,63.52-3.91Z"/>
      <path class="cls-34" d="M229.44,28.03c-.54.29-1.09.55-1.64.79.55-.22,1.1-.47,1.64-.79Z"/>
      <path class="cls-34" d="M183.62,31.07c8.15,0,16.29,0,24.44,0,.52-.31,1.05-.55,1.58-.77,6.31-2.78,13.11-2.16,19.8-2.27,1.02,0,2.04,0,3.05,0-3.16-4.71-7.91-6.11-13.17-5.96-28.27.78-56.43-1.26-84.59-3.21-13.06-2.1-24.73,5.6-37.21,5.71-28.39.25-56.55,5.32-84.99,3.47v3.05c40.81,2.13,81.42-3.73,122.2-3.05,16.28,1.21,32.89-2.88,48.88,3.03Z"/>
      <path class="cls-31" d="M36.98,43.3c7.29-1.73,14.56-4.89,21.86-4.93,25.56-.14,50.71-3.75,75.9-7.29,0-1.02,0-2.03,0-3.05-40.78-.69-81.39,5.18-122.2,3.05-3.93.5-8.14-.24-12.54.43v8.26c12.85,2.63,24.8,3.78,36.98,3.54Z"/>
      <path class="cls-31" d="M134.74,49.41v-9.16c-32.66-1.15-65.08,5.12-97.76,3.05,0,0,0,0,0,0-12.33,2.31-24.65,4.62-36.98,6.93v1.98c44.91-.94,89.83-1.87,134.74-2.81Z"/>
      <path class="cls-16" d="M134.74,49.41c-44.91.94-89.83,1.87-134.74,2.81v5.89c53.02-1.9,106.05-3.79,159.07-5.69-7.73-4.07-16.13-2.72-24.33-3.01Z"/>
      <path class="cls-19" d="M36.97,110.5s0,0,0,0h0s0,0,0,0c4.43-.98,8.91-2.97,13.28-2.78,36.16,1.6,72.06-4.65,108.19-3.29,58,2.18,115.84-4.34,173.81-3.08,7.6.17,15.33-.66,22.44,3.04,48.8-4.59,97.76-1.04,146.62-3.06,4.66-2.38,9.68-3.09,14.83-2.97,51.92,1.25,103.76-1.43,155.61-3.24,22.74-.79,45.43-2.66,68.09-6.67-110.17,2.22-220.28,6.71-333.59,6.09,6.85-6.77,12.55-5.29,17.55-5.31,35.13-.16,70.26-.11,105.39-.12,8.15,0,16.33.2,24.07-3.05,0-2.03,0-4.06,0-6.09-5.97,1-11.92,2.8-17.9,2.88-87.72,1.2-175.44,2.18-263.16,3.21-37.69.27-75.26,4.95-113.01,3.04-8.16,0-16.32,0-24.47,0-32.59,1.02-65.18,2.04-97.77,3.06-12.34.39-24.64,1.56-36.96,2.43v3.2c108.16-1.93,216.3-7.88,324.56-2.14-108.29,1.33-216.51,3.54-324.56,11.7v.05c12.1,4.85,24.66,2.26,36.97,3.09Z"/>
      <path class="cls-43" d="M12.54,122.68c10.1-.06,20.17-1,30.23-1.87,7.35,1.87,10.41.28,15.44.28,4.37,0,4.9-4.78,7.57-1.72,4.65-.1,9.32-.04,13.99.28,0,0,.01,0,.02-.01,1.98-1.97,3.96-3.94,5.95-5.91-.03-.04-.06-.08-.09-.12-16.21.01-32.43.03-48.64.04,0,0,0,0,0,0-12.13,4.34-24.59,3.15-37,2.79v3.12c2.05.51,4.1,1.02,6.15,1.52,2.16.13,4.3.54,6.39,1.58Z"/>
      <path class="cls-13" d="M85.8,113.54h0c-15.97-5.9-32.57-1.78-48.82-3.05,0,0,0,0,0,0h0c0,1.05.02,2.11.02,3.16h0c16.21-.01,32.43-.03,48.64-.04h.21l-.05-.08Z"/>
      <path class="cls-22" d="M404.39,154.11c-.07-.23-.15-.51-.23-.81-.07.03-.13.06-.2.08.14.24.29.47.43.72Z"/>
      <path class="cls-22" d="M69.99,163.8c12.63-3.47,28.26-1.89,40.34,7.78,48.87.01,97.74.03,146.62.04,73.32,0,146.63,0,219.95,0,16.56-.02,32.93-1.59,48.93-6.1-27.08-2.77-54.02-2.64-80.91,2.47-8.73,1.66-16.34-.42-16.91-11.65-9.55.29-19.59-1.61-27.49,6.11v3.05c-22.37,5.88-45.03,4.3-67.31.64-8.94-1.47-17.68-3.74-26.85-3.72-33.97.07-67.94.04-101.91.01-6.67,0-13.42.37-19.68-2.48-.39-.17-.77-.35-1.16-.56-24.45-.01-48.89-.02-73.34-.03,0,0,0,0,0,0,0,0,0,0,0,0-36.82-1-73.56.2-110.27,2.23v6.56c23.28-.27,46.61,2.08,69.99-4.35Z"/>
      <path class="cls-12" d="M455.51,156.33c1.29-16.68,14.35-5.92,21.4-9.17h0s0,0,0,0c-21.88-5.85-44.06-2.72-66.13-1.95-2.46.08-4.81,3.25-7.22,4.98h16.47c-5.33,1.18-10.66,2.21-15.98,2.73.04.14.08.26.11.39.09.3.17.57.23.81-.14-.25-.29-.48-.43-.72-.09-.15-.17-.3-.26-.44-8.2.77-16.36.33-24.46-2.69h-90.23c1.26-5.32,8.15-1.28,8.63-8.97-60.58.46-120.83,6.84-181.22,5.89,0,1.02,0,2.03,0,3.05,68.59-2.24,136.95,4.28,205.48,4.64-62.56,1.49-125.09,1.47-187.63,1.52-8.09,0-16.35-.89-23.98,2.97,0,0,0,0,0,0,24.45,0,48.9.02,73.34.03,57.73,0,115.46-.01,173.19.02,7.57,0,15.26-.66,22.34,3.03,7.12,0,14.25,0,21.38,0,7.9-7.72,17.94-5.81,27.49-6.11,9.17,0,18.33,0,27.49,0Z"/>
      <path class="cls-12" d="M379.14,162.44c.54.33,1.1.58,1.66.8-.56-.24-1.11-.5-1.66-.8Z"/>
      <path class="cls-12" d="M184.77,159.95c-.39-.18-.77-.36-1.16-.56.38.21.77.39,1.16.56Z"/>
      <path class="cls-11" d="M297.64,141.29c-.48,7.69-7.37,3.65-8.63,8.97h90.23c8.11-.03,16.21-.05,24.32-.07,2.4-1.73,4.76-4.89,7.22-4.98,22.07-.76,44.25-3.89,66.13,1.95,0,0,0,0,0,0,32.59-1.01,65.18-2.02,97.76-3.02,16.27-1.3,32.88,2.73,48.87-3.06,12.23-5.84,25.55-1.28,39.95-4.22-5.65-4.46-13.12-4.71-15.52-11.08,16.29,0,32.58,0,48.88,0v-3.08c-16.28,1.24-32.9-2.79-48.89,3.08h0c-81.47,2.04-162.93,4.09-244.4,6.14-16.29,4.68-32.58,4.71-48.87-.03-24.41,1.81-48.8,4.14-73.32,3.05-65.21-.24-130.34,5.06-195.58,3.18-7.33,3.72-15.19,2.84-22.95,2.86-2.3,1.53,1.53-7.6-1.43-7.6s-12.23,9.14-14.51,7.65c-3.31,0-6.61.02-9.92.03,0,1.02,0,2.04,0,3.05,14.39,11.07,30.73,7.3,45.7,3.65,11.7-2.86,22.42-3.8,33.74-.59,60.39.95,120.65-5.43,181.22-5.89Z"/>
      <path class="cls-40" d="M36.98,141.06c3.31,0,22.55-.07,25.86-.08,9.88-1.73,36.15-6.23-19.28-2.96-2.18,0-4.35,0-6.53-.01h0c-12.34-.6-24.69-1.05-37.03-1.36v4.38c12.31-.38,24.66.02,36.98.02Z"/>
      <path class="cls-33" d="M36.98,141.06c-12.33,0-24.67-.41-36.98-.02v3.08c12.33,0,24.65,0,36.97,0,0-1.02,0-2.04,0-3.05Z"/>
      <path class="cls-39" d="M862.82,89.13c-6.6-.14-13.23.15-19.33-3.05-22.56-2-45.01,6.7-67.69.12,30.46-5.59,61.22-6.88,92.12-6.23-5.43-8-13.84-5.57-21.4-6.12-17.74,5.33-36.5,5.59-54.31,5.32-79.79-1.18-159.17,9.79-238.95,6.9-7.74,3.25-15.92,3.05-24.07,3.05-35.13,0-70.26-.04-105.39.12-5,.02-10.7-1.46-17.55,5.31,113.31.61,223.42-3.87,333.59-6.09-22.66,4.01-45.36,5.89-68.09,6.67-51.85,1.8-103.69,4.49-155.61,3.24-5.14-.12-10.16.59-14.83,2.97,0,1.02,0,2.05.01,3.07,81.83,5.82,163.17-8.32,244.91-6.11,5.4.15,10.81.02,16.21,1.65-119.5,8.6-239.09,13.31-358.84,13.65,17.69,6.06,35.95,2.11,53.93,2.9,14.57.64,29.2.15,43.8.16,24.43,2.31,48.87,2.3,73.3-.04,4.92-1,9.88-3.01,14.76-2.83,44.14,1.66,88.1-3.16,132.19-3.38,28.88-.15,57.29-7.73,86.35-6.03,4.99.29,10,.04,15.1,3.13-11.09,0-22.17-.01-33.26,0-7.16,0-14.34-.02-19.62,6.07h0c19.06.01,38.11.01,57.17.01.02.98.04,1.95.07,2.93-43.51,3.1-87.02,6.21-130.53,9.31,8.08,4.1,16.87,3.45,25.35,2.91,59.17-3.77,118.32-7.79,177.47-11.88v-6.93c-2.48-.44-4.93-1.18-7.31-2.44-17.3-1.3-34.92,2.95-51.94-3.04,8.55-6.52,18.39-1.42,27.49-3.06,9.99-5.11,21.25-1.92,31.77-3.6v-9.45c-12.26.73-24.54,1.06-36.88.81ZM860.93,111.98c-5.1,2.63-9.93,1.46-14.69.99-.21-.02-.3-1.24-.48-2.05,5.04-.2,9.93-1.4,15.17,1.06Z"/>
      <path class="cls-45" d="M888.12,64.56c-15.1.68-30.06,1.98-44.65,6.22,1.02,1.02,2.03,2.04,3.05,3.07,7.56.55,15.97-1.89,21.4,6.12,10.57.74,21.38-1.47,31.77,1.33v-18.54c-2.77,3.18-7.71,1.63-11.58,1.8Z"/>
      <path class="cls-24" d="M776.89,0h-9.56c.92.17,1.85.33,2.77.51,2.26-.2,4.52-.36,6.79-.51Z"/>
      <path class="cls-24" d="M574.67,3.6c23.75,5.7,47.55,9.44,71.73,2.22,8.7-2.6,17.48-2.89,27.81-.94-6.41,11.87-23.15,3.84-26.24,17.05,10.18-.01,20.36-.03,30.54-.05,0,0,0,0,0,0,0-1,.02-1.99.03-2.99h0c13.25-7.71,29.19-2.91,42.75-9.2-6.37-.21-12.78-.02-19.08-.75-4.47-.52-9.58-1.78-5.37-8.39.99-.2,1.98-.38,2.96-.56h-33.34c.23.09.45.18.68.27-32.78-.31-62.66.9-92.47,3.33Z"/>
      <path class="cls-34" d="M885.59,246.66c2.23.42,4.45.83,6.68,1.25-2.24-.63-4.46-1.04-6.68-1.25Z"/>
      <path class="cls-34" d="M892.38,248.02l-.11-.11c-7.25.21-14.63-.49-21.41,3.03,0,0,0,0,0,0h0c1.48.19,3.29-.1,4.37.65,3.16,2.21.23,3.41-1.28,3.6-6.89.85-13.83,1.88-20.75,1.81-5.76-.06-11.48.21-17.16.77h63.65v-5.6c-2.88-.18-5.43-1.06-7.31-4.15Z"/>
      <path class="cls-50" d="M16.22,89.14c7.05,0,14.18-.41,20.74,3.03,32.59-1.02,65.18-2.04,97.77-3.06-11.8-12.18-27.4-2.34-40.61-9.15,11.6,0,23.19,0,34.79,0,37.1-.01,73.12-8.68,109.56-13.9,13.21-1.89,26.36-1.45,39.5-1.2,14.33.27,28.32-2.16,42.46-3.41,6.09-.54,10.7-2.92,12.87-8.95-.98-.02-1.96-.03-2.94-.05-.03.01-.06.02-.09.03-7.76,4.09-16.21,2.77-24.45,3.05-15.99,5.91-32.6,1.83-48.88,3.04-30.36,2.7-60.74,1.3-91.13,1.43-29.88.12-59.82.56-89.75.79-21.09.16-42.67-2.22-63.52,3.91-3.93,3.23-8.16,4.8-12.54,5.6v3.08h28.5c.01,1.18.02,2.37.03,3.55H0v3.04c9.67,0,19.35,0,29.02,0,0,1.39,0,2.78,0,4.16H0v5.02c5.41,0,10.81,0,16.22,0Z"/>
      <path class="cls-3" d="M28.5,73.37H0v3.55h28.54c0-1.18-.02-2.37-.03-3.55Z"/>
      <path class="cls-3" d="M12.54,64.69c-4.18,0-8.36,0-12.54,0v5.6c4.38-.8,8.61-2.38,12.54-5.6Z"/>
      <path class="cls-16" d="M16.22,89.14c-5.41,0-10.81,0-16.22,0v5.46c12.32-.87,24.62-2.04,36.96-2.43-6.56-3.44-13.69-3.02-20.74-3.03Z"/>
      <path class="cls-41" d="M183.6,257.16c18.67-5.53,37.86-5.96,57.14-6.27,13.56-.22,27.43,2.64,40.64-2.87-18.29-6.15-37.16-2.02-55.74-2.99-11.39-.6-22.83-.11-34.23-1.02,22.81-6.38,46.04-5.06,69.17-5.22,8.05-.06,16.27.88,23.85-3h-54.63c-4.43.61-8.95.72-13.62,0h13.62c17.54-2.41,33.61-12.82,51.55-12.24,7.1-3.71,14.81-3.04,22.39-3.04,58.39-.05,116.78-.02,175.17-.06,7.58,0,15.29.69,22.4-3-72.73-2.84-145.72,2.16-218.35-7.58,48.95-11.75,98.84-3.73,148.09-7.72h0c2.46-10.25,13.16-3.95,18.2-9,0-.04,0-.07,0-.11-8.05.12-15.85-.63-23.52-3.77-4-1.64-9.4-2.95-13.16-1.61-26.02,9.25-52.86,3.87-79.28,5.33-41.75,0-83.5,0-125.24,0-8.15,0-16.29,0-24.44,0,0,1.01,0,2.03,0,3.04h65.02c.02,1.02.04,2.04.05,3.07h-65.08l-.03.05c13.81,6.45,29.21.05,44.95,5.33-5.69,5.03-11.37,3.67-16.44,3.71-27.47.16-54.94.08-82.41.1-6.55,0-13.12-.16-19.21,2.87.02.03.05.06.07.09,32.55-.53,65.06.39,97.51,3.13,13.76-.92,27.14,2.21,40.76,6.07h-40.76c-40.79,1.16-81.38-5.24-122.2-2.99,0,0,0,0,0,0-7.1,3.67-14.81,2.99-22.39,2.99-21.16,0-42.32.08-63.48.1v17.13c50.42,1.21,100.84,3.3,151.28,4.57-20.75,7.89-42.32,6.76-63.4,4.91-18.79-1.66-37.48-2.15-56.25-2.15-10.54,0-21.08.03-31.62,0v9.1c28.61,0,57.23.01,85.84.02,9.39-1.55,18.19,1.3,27.07,3.64h59.59c3.7-.2,7.41-.4,11.11-.61h0ZM289.2,198.32c0-.51,0-1.02,0-1.53h106.12c-.04.51-.07,1.02-.11,1.53h-106.01Z"/>
      <path class="cls-46" d="M85.82,214.33s0,0,0,0c.01-1,.03-2.01.04-3.01,11.81-12.13,27.35-2.53,44.55-8.62h-61.3c-.04-.71-.07-1.41-.11-2.12,5.62-1.5,11.23-2.99,16.85-4.49H21.7c2.57,2.76,5.13,5.52,7.93,8.54-9.95,1.05-19.82,1.06-29.63.41v8.21c28.59,1.2,57.18,2.29,85.82,1.09Z"/>
      <path class="cls-19" d="M110.28,211.24c.07-.03.13-.06.2-.1,6.09-3.02,12.66-2.86,19.21-2.87,27.47-.01,54.94.07,82.41-.1,5.08-.03,10.76,1.33,16.44-3.71-15.73-5.28-31.13,1.12-44.95-5.33-24.41-1.62-49.08,3.31-73.29-3.07h-24.44s0,0,0,0c-5.62,1.5-11.23,2.99-16.85,4.49.04.71.07,1.42.11,2.12h61.3c-17.2,6.09-32.75-3.51-44.55,8.62,8.14-.02,16.28-.05,24.42-.07Z"/>
      <path class="cls-12" d="M10.44,192.96c57.73.04,115.46.03,173.19.03,8.15,0,16.29,0,24.44,0-4.29-8.43-11.32-9.79-19.33-6.7-9.78,3.77-19.86,3.66-30.02,3.66-52.91-.02-105.81-.01-158.72-.02v2.96c3.46.2,6.96.07,10.44.07Z"/>
      <polygon class="cls-46" points="183.61 196.04 183.61 196.04 183.61 196.04 183.61 196.04"/>
      <path class="cls-46" d="M183.59,199.15l.03-.05c0-1.02,0-2.04,0-3.06-24.44,0-48.88.02-73.31.03,24.2,6.38,48.88,1.46,73.29,3.07Z"/>
      <path class="cls-44" d="M158.72,189.94c10.16,0,20.24.11,30.02-3.66,8.01-3.09,15.04-1.72,19.33,6.7,41.75,0,83.5,0,125.24,0-1.02-5.08-2.04-10.16-3.05-15.24-24.43-.03-48.86-.05-73.28-.08h0c-24.46.01-48.92.02-73.38.03-48.86,0-97.72,0-146.58,0-12.34,0-24.67,0-37.01,0v6.18c9.79.55,20.32-1.27,30.75,1.91-10.96,2.03-21.14.34-30.75,1.21v2.93c52.91,0,105.81,0,158.72.02Z"/>
      <path class="cls-42" d="M208.06,220.44c0-2.02,0-4.05,0-6.07-32.45-2.74-64.96-3.67-97.51-3.13-.09,0-.18,0-.27,0-8.14.03-16.28.05-24.42.07-.01,1-.03,2.01-.04,3.01h0c.01,1.04.03,2.09.04,3.13h0c40.81-2.25,81.41,4.16,122.2,2.99Z"/>
      <path class="cls-12" d="M899.7,153.38v-2.4c-2.47.45-4.9,1.16-7.26,2.32,2.43-.04,4.84,0,7.26.07Z"/>
      <path class="cls-19" d="M696.86,31.09c-10.55,4.95-21.79,2.48-32.75,3.03-5.56.28-11.06.44-16.14,3.08,0,2.03,0,4.06,0,6.09,1.02.01,2.04.02,3.07.03,48.95-4.08,98.12-4.58,146.98-10.81,22.99-2.93,46.59-1.11,69.92-1.44,10.49-3.03,21.04-5.4,31.77-5.78v-5.23c-37.19,2.55-74.39,5.08-111.6,7.33-30.38,1.84-60.82,2.51-91.24,3.71Z"/>
      <path class="cls-33" d="M217.23,3.59h39.71s0,0,0,0c6.64-3.03,11.65-3.3,16.87-.65-5.33.28-10.68.57-16.52.87,7.38,4.7,18.31-.05,24.09,8.94h0c18.34,0,36.68.01,55.01.02,30.44-4.01,61.05-2.97,91.62-3.1,4.91-1,9.86-3.01,14.73-2.82,44.05,1.71,87.92-3.49,131.92-3.26,29.81-2.42,59.69-3.64,92.47-3.33-.23-.1-.45-.18-.68-.27H224.08c-2.12.88-4.7,1.04-6.84,3.59Z"/>
      <path class="cls-44" d="M85.82,119.71c38.63-4.05,77.39-3.03,116.13-3.08,18.33,0,36.65.01,54.97.02,48.91-.37,97.87,1.51,146.69-3.06,0,0,0,0,0,0,119.75-.35,239.33-5.05,358.84-13.65-5.4-1.63-10.81-1.5-16.21-1.65-81.74-2.21-163.08,11.93-244.91,6.11-4.63,2.38-9.62,2.96-14.73,3.01-43.99.44-88.02-1.33-131.92,3.08-57.02.01-114.04.03-171.06.04-16,5.88-32.6,1.83-48.89,3.02-16.31,0-32.62-.01-48.94-.01h0l.05.08s-.08.08-.12.12c-1.98,1.97-3.97,3.94-5.95,5.91,0,0-.01,0-.02.01,2.02.02,4.04.03,6.06.05Z"/>
      <path class="cls-33" d="M114.3,127.45c-1.36.22-2.7.64-4.01,1.39,1.33-.56,2.67-1,4.01-1.39Z"/>
      <path class="cls-33" d="M82.14,131.93c25.62-1.68,51.52,3.39,76.96-3.05-.07,0-.13-.02-.2-.02-16.2,0-32.41-.01-48.61-.02-8.16-.01-16.32-.02-24.49-.04-5.49.02-28.62.27-34.1.28,0,.02,17.65-.19,17.64-.2-17.64-2.65-17.43,2.39-17.64,3.37,4.39.16,26.08-.04,30.44-.33Z"/>
      <path class="cls-33" d="M37.01,134.99c1.37-.54,23.03-1.22,24.4-1.61-.52-1.49-22.64-5.12-21.1-4.5,23.98,9.71,15.66,0,15.66-.03-13.44-.02-42.54-.08-55.98-.1v7.9c12.34.31,24.69.76,37.03,1.36-.02-1.01-.03-2.01-.02-3.02Z"/>
      <path class="cls-41" d="M159.21,128.86h-.3c.07,0,.13.02.2.02.03,0,.07-.02.1-.02Z"/>
      <path class="cls-41" d="M110.29,128.84c1.31-.75,2.65-1.17,4.01-1.39,11.93-3.46,24.32-.83,36.44-1.65,10.99-.74,22.28,1.89,32.88-3.06,0,0,0,0,.01,0h-.01c6.11-2.04,12.22-4.07,18.33-6.11-38.73.05-77.5-.96-116.13,3.08,0,3.03-.01,6.06-.02,9.09,8.16.01,16.32.02,24.49.04Z"/>
      <path class="cls-41" d="M6.15,121.1c-2.05-.51-4.1-1.02-6.15-1.52v3.11c4.18,0,8.36,0,12.54,0-2.13-.53-4.26-1.06-6.39-1.58Z"/>
      <path class="cls-48" d="M759.65,6.19h26.57c.01,1.17.03,2.34.04,3.51h-64.97c-13.56,6.28-29.5,1.48-42.75,9.2,6.11,0,12.21,0,18.32,0,67.38-3.18,134.82-3.88,202.11-10.91.24-.03.49-.05.73-.07V0h-46.55c-31.08,2.82-62.19,5.35-93.5,6.19Z"/>
      <path class="cls-48" d="M696.85,18.89c-.84.47-1.7.85-2.56,1.19.88-.25,1.74-.62,2.56-1.19Z"/>
      <path class="cls-16" d="M221.11,257.77h51.73c-17.23-1.4-34.48-1.27-51.73,0Z"/>
      <path class="cls-16" d="M183.6,257.16h0c-3.7.22-7.4.42-11.11.61h12.38c-.43-.19-.85-.39-1.28-.61h0Z"/>
      <path class="cls-16" d="M85.84,254.12c-1.12,1.63-2.39,2.79-3.75,3.64h30.82c-8.88-2.35-17.67-5.19-27.07-3.64Z"/>
      <path class="cls-29" d="M17.65.42c3.81.22,7.79.51,11.41-.42H0v.12C5.88.02,11.76.08,17.65.42Z"/>
      <path class="cls-46" d="M37.01,177.7h0c4.33-6.47,11.09-6.03,17.6-6.05,18.56-.07,37.13-.03,55.69-.04,14.16,5.67,28.97,2.07,43.46,3.03,9.98.66,20.26-1.61,29.83,3.07,24.46-.01,48.92-.02,73.38-.03h0c0-2.02-.01-4.04-.02-6.06-48.87-.01-97.74-.03-146.62-.04-12.08-9.67-27.72-11.25-40.34-7.78-23.38,6.42-46.71,4.08-69.99,4.35v3.49c1.9.49,3.82.98,5.81,1.5-1.99.51-3.91,1.01-5.81,1.5v3.07c12.34,0,24.67,0,37.01,0Z"/>
      <path class="cls-26" d="M843.48,174.66c0,1.02,0,2.04,0,3.06,0,1.01,0,2.03-.01,3.04,8.15,0,16.3,0,24.45.01h0c10.39-3.39,21.06-4.2,31.77-4.46v-5.21c-18.67,2.01-37.52,1.93-56.23,3.53v.02Z"/>
      <path class="cls-13" d="M31.62,245c18.77,0,37.47.49,56.25,2.15,21.08,1.86,42.65,2.98,63.4-4.91-50.44-1.27-100.86-3.36-151.28-4.57v7.33c10.54.02,21.08,0,31.62,0Z"/>
      <path class="cls-2" d="M852.71,138.03c-11.22,0-22.44-.01-33.66-.02,0-1.02,0-2.04,0-3.07-8.24.32-16.68-1.04-24.45,3.05,8.15,0,16.29.01,24.44.01-14.71,4.26-29.8,6.19-45.03,5.97-15.28-.23-30.24,1.82-47.04,4.35,7.44,1.98,13.11,3.48,18.79,4.99,0,0,0,0,0,0,51.42-.4,102.67-4.27,153.94-7.46v-6.85c-15.63,2.16-31.28,4.45-46.99-.98Z"/>
      <path class="cls-7" d="M899.7,109.91v-2.78c-2.44.11-4.87.24-7.31.34,2.38,1.26,4.83,2,7.31,2.44Z"/>
      <path class="cls-19" d="M843.43,238.77c14.05,2.63,28.11,5.26,42.16,7.89,2.21.21,4.44.62,6.68,1.25,0,0,0,0,0,0h0l.11.11c2.44-.06,4.88-.16,7.31-.27v-15.17c-13.9.45-27.88.04-41.56,3.01-4.9,1.07-9.8,2.12-14.71,3.17Z"/>
      <path class="cls-50" d="M745.75,257.18c-1.35.21-2.7.4-4.05.59h30.19c-.56-.18-1.12-.37-1.68-.57-8.15,0-16.31-.01-24.46-.02Z"/>
      <path class="cls-46" d="M219.33,22.07c5.26-.14,10.01,1.25,13.17,5.96,12.22,5.18,25.03,3,37.6,2.58,11.71-.39,11.1-9.62,11.29-17.86h0c-33.26,0-66.53.16-99.79-.16-7.48-.07-14.94-1.88-22.4-2.89-7.76,4.1-16.21,2.76-24.44,3.06,0,0,0,0,0,0,0,2.03,0,4.06,0,6.09,28.16,1.95,56.32,3.99,84.59,3.21Z"/>
      <path class="cls-30" d="M134.74,12.76h0c8.24-.31,16.68,1.04,24.44-3.06-.01-2.03-.02-4.05-.03-6.08-32.58,0-65.16,0-97.73-.02C41.52,10.14,20.49,8.84,0,11.9v1.73c45.03,4.1,89.87-3.22,134.74-.86Z"/>
      <path class="cls-29" d="M100.35.56c-12.99.89-26.3-2.39-38.93,3.05,32.58,0,65.16.01,97.73.02,10.56.61,20.89-1.05,31.29-3.62h-64.23c-8.51,1.37-17.27-.03-25.85.56Z"/>
      <path class="cls-46" d="M183.63,40.24c2-.84,4.03-1.29,6.08-1.51,6.12-1.53,12.24-3.05,18.36-4.58-8.24-.29-16.69,1.05-24.44-3.08-15.99-5.91-32.6-1.82-48.88-3.03,0,1.02,0,2.03,0,3.05,7.1.87,15.06-2.18,22.01,4.58-6.95,6.76-14.91,3.71-22.01,4.58v9.16c8.2.29,16.6-1.06,24.33,3.01,3.08,0,6.17,0,9.25.01-2.07-13.06,6.64-12.6,15.3-12.19Z"/>
      <path class="cls-4" d="M305.79,49.3c-1.66-8.19-8.37-5.78-13.31-5.85-19.99-.3-39.99-.14-59.98-.15-1.02,2.03-2.03,4.07-3.05,6.1,17.32,0,34.65.02,51.97.02,8.12-.04,16.24-.09,24.36-.13t0,0Z"/>
      <path class="cls-27" d="M207.94,40.37s-.05-.08-.08-.11c-8.08,0-16.16,0-24.24-.01-8.66-.41-17.37-.87-15.3,12.19,5.3.04,10.53-.3,15.29-3.01,5.74-3.25,12.05-3.04,18.33-3.08,2-1.99,4-3.98,6-5.98Z"/>
      <path class="cls-27" d="M183.63,40.24c2.02-.5,4.05-1.01,6.08-1.51-2.04.23-4.07.68-6.08,1.51Z"/>
      <path class="cls-46" d="M232.5,43.3c0-1.02,0-2.03,0-3.05-8.15,0-16.3,0-24.45,0-.04.04-.08.08-.11.11-2,1.99-4,3.99-6,5.98,1.11.56,2.22,1.11,3.33,1.67,1.06.19,2.1.43,2.78,1.39,7.13,0,14.27,0,21.4,0,1.01-2.03,2.03-4.07,3.05-6.1Z"/>
      <path class="cls-27" d="M256.94,58.57c16.28-1.21,32.89,2.87,48.88-3.04-16.28,1.21-32.89-2.86-48.88,3.04Z"/>
      <path class="cls-37" d="M330.27,49.4c-8.16-.03-16.32-.06-24.47-.09,0,0,0,0,0,0t0,0c-8.12.04-16.24.08-24.36.13,15.97,5.97,32.58,1.75,48.84,3.05l-.03-.03c0-1.02.02-2.03.03-3.05Z"/>
      <path class="cls-4" d="M201.94,46.35c-6.28.03-12.59-.17-18.33,3.08,8.14,0,16.29,0,24.44-.01-.93-.46-1.85-.93-2.78-1.39-1.11-.56-2.22-1.11-3.33-1.67Z"/>
      <path class="cls-27" d="M208.06,31.06c.52-.28,1.05-.53,1.58-.77-.53.21-1.06.45-1.58.77Z"/>
      <path class="cls-27" d="M270.09,30.61c-12.57.42-25.37,2.6-37.6-2.58-1.02,0-2.04,0-3.05,0-.54.33-1.09.58-1.64.79-6.3,2.76-13.07,2.14-19.75,2.24-8.15,0-16.29,0-24.44,0,7.75,4.13,16.2,2.8,24.44,3.08,13.79-.88,27.19,2.26,40.95,6.1h-16.51c0,1.02,0,2.03,0,3.05,19.99,0,39.99-.15,59.98.15,4.95.07,11.66-2.34,13.31,5.85,0,0,0,0,0,0,8.16.03,16.32.06,24.47.09,8.55-4.3,17.8-3.2,26.78-2.94,21.72.64,43.29-1.12,64.87-3.17,2.04-2.04,4.08-4.08,6.12-6.12h0c0-2.02,0-4.04,0-6.06h-16.43c21.76-1.75,43.57-6.22,65.2-.07,25.7-.9,51.28-4.48,77.08-3.07,5.89.32,11.85-.14,17.48,1.72,1.14.19,2.24.59,3.27,1.38,10.28,1.51,21.98-4.06,30.54,6.09,14.26,0,28.53.01,42.79.02,5.07-2.64,10.58-2.8,16.14-3.08,10.95-.54,22.2,1.92,32.75-3.03-16.28-1.24-32.9,2.91-48.88-3.06h-37.54c-.02-1.02-.04-2.04-.06-3.05h37.6c0-1.01,0-2.03,0-3.04,3.09-13.21,19.82-5.18,26.24-17.05-10.33-1.95-19.11-1.65-27.81.94-24.18,7.21-47.98,3.48-71.73-2.22-44-.24-87.87,4.97-131.92,3.26-4.87-.19-9.82,1.83-14.73,2.82-2.15,3.01-4.9,5.34-8.68,5.54-23.74,1.22-47.48,2.37-71.23,3.4-4.8.21-8.91-1.68-11.72-5.83-18.34,0-36.68-.01-55.01-.02-.19,8.24.42,17.47-11.29,17.86Z"/>
      <path class="cls-46" d="M227.8,28.82c.55-.24,1.1-.5,1.64-.79-6.69.11-13.49-.51-19.8,2.27-.53.23-1.06.48-1.58.77,6.67-.1,13.45.52,19.75-2.24Z"/>
      <path class="cls-34" d="M156.75,35.67c-6.95-6.76-14.91-3.71-22.01-4.58-25.19,3.55-50.34,7.15-75.9,7.29-7.3.04-14.57,3.2-21.86,4.93h0s0,0,0,0c32.68,2.06,65.11-4.2,97.76-3.05,7.1-.87,15.06,2.18,22.01-4.58Z"/>
      <path class="cls-27" d="M623.5,79.95s0,0,0,0c-6.01-1.5-12.01-2.99-18.02-4.49-.7-.04-1.39-.07-2.09-.12-1.63-.11-2.88-.84-4.25-1.46-42.79,5.83-86.08.06-128.89,5.54-6.62.85-13.33,1.06-17.78-5.53,0,0,0,0,.01,0h-.01c-16.31,1.15-32.93-2.85-48.96,2.96,0,0,0,0,0,0h0c5.48,0,10.95,0,16.43,0,0,.7-.01,1.41-.02,2.11h-105.83c-.02-.7-.04-1.39-.06-2.08h65.14c2.82-4.14,6.91-5.83,11.72-5.83,33.9.03,67.81.04,101.71.28,2.9.02,5.78,1.64,8.67,2.51,44.02.28,87.9-4.98,131.97-3.25,4.87.19,9.82-1.83,14.74-2.83h0c-16.27-1.25-32.88,2.87-48.86-3.05h0c-32.66-.78-65.27.4-97.83,2.99-33.81.02-67.61.05-101.42.04-7.05,0-14.18.4-20.74-3.04-7.36-5.65-21.03,1.31-24.44-12.23-7.13.01-14.27.02-21.4.03-2.17,6.04-6.78,8.42-12.87,8.95-14.14,1.25-28.13,3.68-42.46,3.41-13.15-.25-26.3-.69-39.5,1.2-36.44,5.22-72.46,13.89-109.56,13.9-11.6,0-23.2,0-34.79,0,13.21,6.81,28.81-3.03,40.61,9.15,8.16,0,16.32,0,24.47,0,3.17-4.75,7.97-6.03,13.25-5.95,26.87.38,53.67-.58,80.44-3.04,6.92-.63,14.47-1.15,19.32,5.95,87.72-1.03,175.44-2,263.16-3.21,5.98-.08,11.93-1.88,17.9-2.88,23.42,0,46.83-.02,70.24-.03Z"/>
      <path class="cls-50" d="M85.8,113.54h0c16.31,0,32.62,0,48.94.01,15.99-5.91,32.6-1.85,48.89-3.02,57.02-.02,114.04-.03,171.06-.04,0-2.03.01-4.06.02-6.09-7.12-3.71-14.85-2.88-22.44-3.04-57.98-1.26-115.82,5.26-173.81,3.08-36.12-1.36-72.03,4.89-108.19,3.29-4.38-.19-8.85,1.8-13.28,2.78,16.26,1.27,32.85-2.86,48.82,3.05Z"/>
      <path class="cls-12" d="M792.21,79.17c17.81.26,36.57.01,54.31-5.32-1.02-1.02-2.03-2.04-3.05-3.07-32.58,1.03-65.16,2.06-97.75,3.09h0c-7.58,3.87-15.78,3.12-23.82,2.96-32.85-.65-65.63.52-98.37,3.11h-.04c-23.41,0-46.83.02-70.24.03,0,2.03,0,4.06,0,6.09,79.78,2.89,159.16-8.08,238.95-6.9Z"/>
      <path class="cls-27" d="M354.68,110.49c43.89-4.41,87.93-2.64,131.92-3.08,5.11-.05,10.1-.63,14.73-3.01,0-1.02,0-2.04-.01-3.07-48.85,2.02-97.82-1.53-146.62,3.06,0,2.03-.01,4.06-.02,6.09Z"/>
      <path class="cls-50" d="M252.89,80.12c-26.77,2.45-53.57,3.42-80.44,3.04-5.28-.08-10.08,1.21-13.25,5.95,37.75,1.91,75.32-2.77,113.01-3.04-4.85-7.09-12.4-6.58-19.32-5.95Z"/>
      <path class="cls-43" d="M735.51,155.99c3.45-.21,6.83-1.75,10.24-2.67-5.68-1.51-11.35-3.02-18.79-4.99,16.81-2.54,31.76-4.58,47.04-4.35,15.23.22,30.32-1.71,45.03-5.97-8.15,0-16.29,0-24.44-.01-8.15.03-16.3.06-24.46.08-7.76,4.03-16.18,2.73-24.41,2.98-57.02,3.05-114.04,6.1-171.07,9.15h0c-39.86-.65-79.44,4.02-119.16,6.12-9.16,0-18.33,0-27.49,0,.57,11.22,8.18,13.31,16.91,11.65,26.89-5.11,53.83-5.23,80.91-2.47,70.08,1.04,139.84-5.23,209.68-9.54Z"/>
      <path class="cls-26" d="M699.9,168.74c.09-.06.17-.12.26-.18-.09,0-.17,0-.26,0v.18Z"/>
      <path class="cls-26" d="M495.19,174.7c-.82.46-1.66.83-2.51,1.16.86-.25,1.7-.61,2.51-1.16Z"/>
      <path class="cls-26" d="M745.75,153.32s0,0,0,0c-3.41.92-6.78,2.45-10.24,2.67-69.84,4.31-139.6,10.58-209.68,9.54-16,4.51-32.37,6.08-48.93,6.1,0,1,0,1.99-.01,2.99h0c6.1.03,12.2.06,18.3.09,26.55.15,52.91-4.94,79.53-2.97,0,0,0,0,0,0,0,0,0,0,0,0,8.1-.05,16.19-.11,24.28-.16,24.24-6.17,48.93-1.54,73.36-3.05,0,0,0,0,0,0,16.01-5.79,32.62-1.85,48.92-3.01-.99.54-1.99.97-3,1.34,1.04-.26,2.04-.68,3-1.33,49.75-6.58,100.19-4,149.91-11.16,6.99-1,14.16-.73,21.24-1.05,2.35-1.17,4.78-1.88,7.26-2.32v-5.12c-51.28,3.19-102.53,7.05-153.94,7.46Z"/>
      <path class="cls-16" d="M452.47,177.74c8.1-.03,16.2-.06,24.3-.08.04-1.01.08-2.03.11-3.04h0,0c0-1,.01-1.99.01-2.99-73.32,0-146.63,0-219.95,0,0,2.02.01,4.04.02,6.05h0c24.43.03,48.86.05,73.28.08,40.74,0,81.48-.01,122.22-.02Z"/>
      <path class="cls-25" d="M380.8,163.25c-.56-.22-1.12-.47-1.66-.8-7.08-3.69-14.77-3.03-22.34-3.03-57.73-.03-115.46-.02-173.19-.02.38.2.77.39,1.16.56,6.27,2.85,13.01,2.48,19.68,2.48,33.97.02,67.94.05,101.91-.01,9.17-.02,17.91,2.25,26.85,3.72,22.28,3.66,44.94,5.24,67.31-.64-6.66-.12-13.44.51-19.72-2.25Z"/>
      <path class="cls-43" d="M380.8,163.25c6.29,2.76,13.06,2.13,19.72,2.25v-3.05c-7.13,0-14.25,0-21.38,0,.55.3,1.1.56,1.66.8Z"/>
      <path class="cls-9" d="M476.91,147.16h0c-7.05,3.26-20.1-7.5-21.4,9.17,39.72-2.1,79.3-6.77,119.16-6.12,0-2.02,0-4.05,0-6.07-32.59,1.01-65.17,2.01-97.76,3.02Z"/>
      <path class="cls-16" d="M379.23,150.26c8.1,3.02,16.26,3.46,24.46,2.69.12-.01.23-.02.35-.03,5.31-.52,10.64-1.55,15.98-2.73h-16.47c-8.11.03-16.21.05-24.32.07Z"/>
      <path class="cls-12" d="M696.87,125.81c43.51-3.1,87.02-6.21,130.53-9.31-.02-.98-.04-1.95-.07-2.93h-57.17c-4.9,1.08-9.86,1.97-14.7,3.27-19.23,5.18-39.52-.41-58.62,5.86v3.08c-16.29,0-32.58,0-48.88,0,2.4,6.37,9.87,6.62,15.52,11.08-14.4,2.94-27.72-1.62-39.95,4.22,58.48-.63,116.46-9.38,174.84-11.14,33.89-1.02,67.55-5.26,101.31-7.99v-5.1c-59.15,4.09-118.3,8.11-177.47,11.88-8.49.54-17.27,1.19-25.35-2.91Z"/>
      <path class="cls-9" d="M599.09,119.67c-81.41,4.09-162.86,6.84-244.39,6.1,0,2.04,0,4.08,0,6.12h0c16.29,0,32.58.02,48.86.03,81.47-2.05,162.93-4.1,244.4-6.15h0c15.99-5.85,32.61-1.82,48.89-3.07,19.11-6.26,39.4-.67,58.62-5.86,4.84-1.31,9.8-2.19,14.7-3.27h0c-57.19-2.57-113.96,6.7-171.07,6.1Z"/>
      <path class="cls-40" d="M798.38,129.94c-58.38,1.76-116.36,10.51-174.84,11.14-15.99,5.79-32.6,1.76-48.87,3.06,0,2.02,0,4.05,0,6.07h0c57.02-3.05,114.04-6.1,171.07-9.15,7.76-4.06,16.18-2.74,24.41-2.98,8.15-.03,16.31-.06,24.46-.08,7.76-4.09,16.21-2.74,24.45-3.05,26.83-3.42,53.62-8.29,80.66-5.33v-7.66c-33.76,2.73-67.42,6.97-101.31,7.99Z"/>
      <path class="cls-9" d="M321.91,128.86h-162.71s-.07.02-.1.02c-25.44,6.44-51.34,1.37-76.96,3.05-4.36.29-22.93-.47-27.32-.63-.21.98,13.66,2.56,13.26,3.46,5.98.23,11.92,1.06,17.78,3.26,0,0-.07.11-.08.11h0c65.24,1.88,130.36-3.41,195.58-3.18,13.06-5.84,27.13-1.35,40.54-6.09Z"/>
      <path class="cls-9" d="M41.12,133.63c-1.38.39-2.75.82-4.12,1.36,1.59.12,3.18.18,4.77.21-.25-.51-.47-1.03-.66-1.58Z"/>
      <path class="cls-33" d="M354.7,131.89c0-2.04,0-4.08,0-6.12,0-1.01,0-2.03,0-3.04-32.59,0-65.18,0-97.77-.01-24.43,0-48.87.01-73.3.02,0,0,0,0-.01,0-10.59,4.95-21.89,2.32-32.88,3.06-12.13.82-24.51-1.81-36.44,1.65-1.34.39-2.68.83-4.01,1.39,16.2,0,32.41.01,48.61.02h163.01c-13.41,4.74-27.48.25-40.54,6.09,24.53,1.09,48.92-1.24,73.32-3.05,16.29,4.73,32.57,4.71,48.87.03-16.29,0-32.58-.02-48.86-.03h0Z"/>
      <path class="cls-33" d="M85.87,138.01c-6.6.01-13.2.02-19.79.03-.92,1.13-2.01,2.12-3.24,2.93,7.76-.01,15.63.87,22.95-2.86h0s.08-.11.08-.11Z"/>
      <path class="cls-23" d="M63.1,133.38c-1.59-.03-24.22-1.07-26.09,1.61,0,1.01,0,2.01.02,3.02h0c2.18,0,23.9-.02,26.08-.02-.7-.86.48-3.6,0-4.61Z"/>
      <path class="cls-23" d="M85.87,138.01c-5.86-2.2-19.66-5.07-25.64-5.3-.53,1.19-2.03,3.94,5.84,5.33,6.6-.01,13.2-.02,19.79-.03Z"/>
      <path class="cls-41" d="M256.92,116.65c0,2.02,0,4.05,0,6.07,32.59,0,65.18,0,97.77.01,43.89-4.46,87.92-2.6,131.91-3.24,4.93-.07,9.83-1.86,14.74-2.85-14.6,0-29.22.49-43.8-.16-17.98-.79-36.24,3.16-53.93-2.9,0,0,0,0,0,0-48.82,4.57-97.78,2.69-146.69,3.06Z"/>
      <path class="cls-44" d="M354.7,122.73c0,1.01,0,2.03,0,3.04,81.53.74,162.98-2.01,244.39-6.1-7.76-4.12-16.21-2.78-24.45-3.07-24.43,2.34-48.86,2.35-73.3.04-4.91.99-9.81,2.78-14.74,2.85-43.98.64-88.02-1.21-131.91,3.24Z"/>
      <path class="cls-32" d="M599.09,119.67c57.12.6,113.88-8.67,171.07-6.11,5.28-6.09,12.47-6.06,19.62-6.07,11.09-.02,22.17,0,33.26,0-5.1-3.08-10.12-2.83-15.1-3.13-29.06-1.7-57.47,5.89-86.35,6.03-44.09.22-88.05,5.04-132.19,3.38-4.88-.18-9.84,1.83-14.76,2.83,8.24.29,16.69-1.05,24.45,3.07Z"/>
      <path class="cls-17" d="M867.91,104.33h0c-9.16.03-18.31.06-27.47.09,17.02,5.99,34.65,1.74,51.94,3.04,2.44-.09,4.88-.22,7.31-.34v-4.78c-10.6.66-21.19,1.32-31.79,1.98Z"/>
      <path class="cls-38" d="M843.49,86.08c6.1,3.2,12.73,2.91,19.33,3.05,12.33.25,24.62-.08,36.88-.81v-5.58c-18.82-.61-37.4,3.56-56.2,3.34Z"/>
      <path class="cls-47" d="M867.93,79.96c-30.9-.65-61.66.65-92.12,6.23,22.67,6.58,45.12-2.12,67.69-.12,18.8.22,37.38-3.95,56.2-3.34v-1.44c-10.39-2.8-21.2-.59-31.77-1.33Z"/>
      <path class="cls-19" d="M867.93,101.37c0,.99-.01,1.98-.02,2.96,10.6-.66,21.19-1.32,31.79-1.98v-4.59c-10.51,1.69-21.78-1.5-31.77,3.6Z"/>
      <path class="cls-30" d="M867.91,104.33h0c0-.99.01-1.98.02-2.96-9.09,1.64-18.94-3.46-27.49,3.06,9.16-.03,18.31-.06,27.47-.09Z"/>
      <path class="cls-35" d="M846.25,112.97c4.75.47,9.59,1.64,14.69-.99-5.24-2.46-10.13-1.26-15.17-1.06.18.81.27,2.03.48,2.05Z"/>
      <path class="cls-26" d="M843.49,61.64c-24.02,7.25-48.73,6.06-73.34,6.09-8.24.31-16.68-1.02-24.46,3h0c.02,1.05.03,2.09.05,3.14,0,0,0,0,0,0h0c32.58-1.03,65.16-2.06,97.75-3.09,14.58-4.24,29.55-5.54,44.65-6.22,3.86-.17,8.8,1.37,11.58-1.8v-4c-18.72,1.2-37.36,4.16-56.21,2.89Z"/>
      <path class="cls-14" d="M843.56,55.55s0,0,0,0c-.03,1.01-.05,2.01-.08,3.02,0,1.02,0,2.05,0,3.07,18.85,1.27,37.49-1.69,56.21-2.89v-5.37c-18.69,1.36-37.34,3.41-56.14,2.17Z"/>
      <path class="cls-40" d="M867.96,46.39s-.01-.01-.02-.02c-15.96,4.67-32.33,6.06-48.87,6.11,0,1.01-.03,2.02-.04,3.03,8.18.01,16.36.03,24.54.04h0s0,0,0,0c18.8,1.25,37.45-.81,56.14-2.17v-7.23c-10.55.53-21.13.72-31.74.24Z"/>
      <path class="cls-2" d="M868,40.28c-.03,1-.06,2-.09,3h0c.02,1.03.04,2.06.05,3.08h0v.03c10.6.48,21.18.29,31.73-.24v-5.11c-10.54.21-21.1.03-31.7-.76Z"/>
      <path class="cls-2" d="M867.94,46.37s.01.01.02.02c0,0,0-.02,0-.02,0,0-.01,0-.02,0Z"/>
      <path class="cls-27" d="M696.84.56c-4.21,6.61.9,7.87,5.37,8.39,6.3.73,12.71.55,19.08.75h64.97c-.01-1.17-.03-2.34-.04-3.51h-26.57c31.3-.84,62.42-3.38,93.5-6.19h-76.25c-2.26.15-4.53.32-6.79.51-24.42.02-48.84.03-73.26.05Z"/>
      <path class="cls-43" d="M696.85,18.89c-.83.57-1.69.94-2.56,1.19-5.04,1.94-10.42,1.82-15.78,1.81h0c-10.18.01-20.36.03-30.54.05,0,1.01,0,2.03,0,3.04,8.16,0,16.33,0,24.49,0,75.7.74,150.97-6.76,226.37-11.67.29-.02.57-.03.86-.05v-5.35c-.24.03-.49.05-.73.07-67.29,7.03-134.72,7.73-202.11,10.91Z"/>
      <path class="cls-16" d="M770.1.51c-.92-.18-1.85-.34-2.77-.51h-67.53c-.99.18-1.98.36-2.96.56,24.42-.02,48.84-.03,73.26-.05Z"/>
      <path class="cls-27" d="M694.29,20.08c.86-.33,1.72-.72,2.56-1.19-6.11,0-12.21,0-18.32,0h0c0,1-.02,1.99-.03,2.99h0c5.36.01,10.74.14,15.78-1.8Z"/>
      <path class="cls-19" d="M696.87,226.56h0s0,0,0,0c-40.74.01-81.48.02-122.22.03-6.27,8.53-15.54,5.39-23.81,6.12-6.42.57-13.11-1.33-19.5,6.11h43.31c7.76-4.1,16.2-2.78,24.43-3.05h0c13.84-11.52,29.81-4.72,44.91-5.04,2.5-.05,4.32,2.54,4.01,5.5-.3,2.84-2.14,4.76-4.86,4.94-6.53.44-13.09.49-19.64.7-16.28,0-32.57,0-48.85,0,0,1.01,0,2.03,0,3.04,26.19,0,52.38,0,78.58-.02,6.55,0,13.14.16,19.2-3h0c-1.41-5.43-1.26-12.38,5.38-11.42,16.89,2.44,34.16,2.6,50.77,6.91,1.71-.46,3.33.2,4.91,1.39,52.95-4.06,105.9-8.13,158.85-12.2,0,0,.02,0,.02-.01,2.39-1.25,4.84-2,7.33-2.43v-9.38c-53.02,1.88-105.73,8.6-158.72,11-14.68.66-29.4.55-44.1.79Z"/>
      <path class="cls-16" d="M892.41,196.07c-.02,2.02-.05,4.05-.07,6.07-15.98,5.94-32.58,1.85-48.85,3.07-15.97,4.59-32.31,6.17-48.86,6.13h-.01c-7.77,4.07-16.2,2.75-24.44,3-15.28,1.04-30.55,2.07-45.83,3.11-8.28,5.69-20.59-.8-27.47,9.11h0c14.7-.24,29.42-.13,44.1-.79,52.99-2.4,105.7-9.12,158.72-11v-18.69h-7.28Z"/>
      <path class="cls-5" d="M899.7,252.17v-4.41c-2.43.11-4.87.21-7.31.27,1.88,3.09,4.43,3.97,7.31,4.15Z"/>
      <path class="cls-6" d="M800.89,248.5c-7.47,1.26-14.99,2.19-22.59,5.59h40.75c17.1-3.86,34.48-3.09,51.81-3.15,0,0,0,0,0,0,6.78-3.52,14.16-2.82,21.41-3.03h0s0,0,0,0c-2.23-.42-4.45-.83-6.68-1.25-14.05-2.63-28.1-5.26-42.16-7.89-8.23.29-16.64-.89-24.41,3.05-3.2,9.89-11.7,5.6-18.13,6.68Z"/>
      <path class="cls-26" d="M873.96,255.19c1.51-.19,4.43-1.39,1.28-3.6-1.08-.76-2.89-.47-4.37-.65h0c-17.33.06-34.71-.71-51.81,3.15-15.97,5.92-32.58,1.81-48.84,3.1.56.2,1.12.39,1.68.57h64.16c5.68-.55,11.4-.83,17.16-.77,6.91.07,13.86-.96,20.75-1.81Z"/>
      <path class="cls-44" d="M403.58,52.47c-2.18.58-4.37,1.17-6.56,1.75,2.3-.11,4.51-.54,6.56-1.75Z"/>
      <path class="cls-44" d="M354.7,52.47c16.29,0,32.59,0,48.88,0,37.73-5.52,75.84-8.57,113.7-5.17,25.14,2.25,49.69-1.05,74.4-2.01,18.74-.73,37.51-1.68,56.29-2,0-2.03,0-4.06,0-6.09-14.26,0-28.53-.01-42.79-.02-61.09,2.04-122.18,4.08-183.27,6.12-21.57,2.04-43.14,3.81-64.87,3.17-8.98-.27-18.23-1.36-26.78,2.94,0,1.02-.02,2.03-.03,3.05.04,0,.08,0,.12,0,.98.02,1.96.04,2.94.05,7.13,0,14.27-.02,21.4-.03Z"/>
      <path class="cls-43" d="M721.28,192.98c-16.67,6.03-33.95,2.25-50.93,2.94-15.59.63-31.23.13-46.84.12-64.18.76-128.4.63-192.43,6.11,0,0,0,0,0,0h0c-49.25,4-99.14-4.03-148.09,7.72,72.63,9.74,145.62,4.74,218.35,7.58h0c17.67-5.2,35.84-7.13,54.05-5.89,19.68,1.34,38.67.55,58.4-2.79,43.71-7.4,88.08-9.31,132.52-6.7,7.86.46,15.96.94,23.42-2.74-5.92-.31-11.35-.6-19.29-1.02,6.31-2.44,10.89-2.23,15.25-.92-.13-.17-.02-.21.71.22.07.02.13.05.2.07,1.38,0,2.34.47,3.11,1.18.2.08.4.17.6.26,9.13.02,18.27.03,27.4.05,0,0,0,0,0,0,6.1,1,12.19,2,18.29,3,1.02-2.03,2.04-4.06,3.07-6.1-8.45-.88-18.02,2.73-24.45-6.16-16.29.02-32.59.03-48.88.05-7.76,4.09-16.2,2.78-24.44,3.03Z"/>
      <path class="cls-43" d="M769.6,198.81c-.51-.38-1.17-.65-1.98-.78.66.24,1.31.51,1.98.78Z"/>
      <path class="cls-43" d="M745.73,247.96c-81.43,4.08-162.92,3.03-244.39,3.09-73.37,3.26-146.64-1.16-219.95-3.04-13.21,5.51-27.08,2.66-40.64,2.87-19.29.31-38.47.75-57.14,6.27h0c.42.22.85.42,1.28.61h36.23c17.25-1.27,34.5-1.4,51.73,0h468.85c1.35-.19,2.7-.39,4.05-.59,0-3.07-.01-6.14-.02-9.21Z"/>
      <path class="cls-19" d="M229.82,235.78h-13.62c4.67.72,9.19.61,13.62,0Z"/>
      <path class="cls-19" d="M525.73,223.57c-65.16,1.01-130.32,2.02-195.47,3.03-16.28-1.22-32.89,2.88-48.87-3.05h0c-17.94-.58-34.01,9.82-51.55,12.24h54.63c7.11,0,14.22.01,21.34.02,28.49-1.74,56.27,4.08,84.27,7.62,4.5-.4,9.23-1.1,13.52,1.49,24.46.02,48.91.04,73.36.05h0c8.23.26,16.65-1.05,24.4,3h0c24.4-1.82,48.79-4.03,73.31-3.06,0-1.01,0-2.03,0-3.04s0-2.04,0-3.05h-43.31c6.38-7.44,13.07-5.54,19.5-6.11,8.27-.73,17.54,2.41,23.81-6.12-16.29-1.24-32.92,2.8-48.93-3.01Z"/>
      <path class="cls-16" d="M390.06,243.42c4.5.57,9,1.08,13.52,1.49-4.29-2.59-9.02-1.89-13.52-1.49Z"/>
      <path class="cls-16" d="M501.34,247.97h0c-8.23-.25-16.65,1.06-24.41-3h0c-24.45-.02-48.91-.04-73.36-.05-32.97.95-65.8.44-97.79-9.11-7.11,0-14.22-.02-21.34-.02-7.59,3.88-15.8,2.94-23.85,3-23.14.16-46.37-1.17-69.17,5.22,11.4.91,22.84.42,34.23,1.02,18.58.97,37.44-3.16,55.74,2.99,73.31,1.88,146.58,6.3,219.95,3.04,0-1.03,0-2.05,0-3.08Z"/>
      <path class="cls-33" d="M412.59,187.66c3.77-1.34,9.16-.03,13.16,1.61,7.66,3.14,15.46,3.9,23.52,3.77.04,0,.08,0,.12,0h0c13.01-11.84,29.47-2.81,44.68-7.51-13.88-5.6-29.96,4.43-41.61-7.78-40.74,0-81.48.01-122.22.02,1.02,5.08,2.04,10.16,3.05,15.24,26.42-1.46,53.27,3.92,79.28-5.33Z"/>
      <path class="cls-40" d="M330.25,226.6c65.16-1.01,130.32-2.02,195.47-3.03,12.62-.05,25.24-.03,37.86-.21,1.51-.02,4.76.66,3.66-2.52-.53-1.51-3.14-2.3-4.81-3.42-20.37,0-40.73,0-61.1.01h0c-7.11,3.69-14.82,3-22.4,3-58.39.04-116.78.02-175.17.06-7.58,0-15.3-.66-22.39,3.04h0c16.28,1.19,32.89-2.82,48.87,3.05Z"/>
      <path class="cls-16" d="M623.51,196.04c.01-1,.03-2.01.04-3.01-16-6-32.64-1.83-48.93-3.11-41.78-.49-83.41,5.11-125.22,3.11h0s-.08.08-.11.12c-5.04,5.05-15.74-1.25-18.2,9,0,0,0,0,0,0,64.04-5.48,128.25-5.35,192.43-6.11Z"/>
      <path class="cls-16" d="M289.21,196.79c0,.51,0,1.02,0,1.53h106.01c.04-.51.07-1.02.11-1.53h-106.12Z"/>
      <path class="cls-15" d="M208.06,220.44h40.76c-13.62-3.86-27-6.99-40.76-6.07,0,2.02,0,4.05,0,6.07Z"/>
      <path class="cls-10" d="M183.62,199.1h65.08c-.02-1.02-.04-2.05-.05-3.07h-65.03c0,1.03,0,2.05,0,3.07Z"/>
      <path class="cls-16" d="M153.76,174.64c-14.49-.96-29.3,2.64-43.46-3.03-18.56,0-37.13-.03-55.69.04-6.51.02-13.27-.42-17.6,6.05h0c48.86,0,97.72,0,146.58,0-9.57-4.67-19.84-2.4-29.83-3.07Z"/>
      <path class="cls-19" d="M794.62,177.73c-2.12.44-4.24.82-6.36,1.17,2.12-.26,4.24-.63,6.36-1.17Z"/>
      <path class="cls-19" d="M892.44,153.31c-7.09.32-14.26.04-21.24,1.05-49.72,7.16-100.16,4.58-149.91,11.16-.96.65-1.96,1.07-3,1.33-5.82,2.1-12.02,1.61-18.12,1.71-.09.06-.17.12-.26.18v2.86c31.87-2.54,63.04,5.62,94.72,6.13,8.13-.02,16.27-.04,24.41-.06,7.77-4.07,16.21-2.76,24.46-3.01v-.02c6.35-8.96,30.86-15.29,45.14-10.29,3.7,1.29,7.38,2.25,11.07,2.94v-13.9c-2.42-.08-4.83-.11-7.26-.07Z"/>
      <path class="cls-50" d="M630.35,52.48c-24.11.09-48.3-1.33-72.27,6.12h16.58c68.44.59,136.57-5.7,204.85-8.82,12.15-.56,24.34-.24,36.51-.33,17.04-5.68,34.63-2.07,51.94-3.09-.02-1.03-.04-2.06-.05-3.08h-40.8c12.43-3.94,24.9-6.52,37.78-6.08,1.02-2.04,2.04-4.09,3.05-6.13-23.33.33-46.92-1.49-69.92,1.44-48.86,6.23-98.03,6.73-146.98,10.81-4.35,8.82-12.38,9.13-20.68,9.16Z"/>
      <path class="cls-50" d="M867.96,46.39v-.03s0,0,0,0c0,0,0,.02,0,.02Z"/>
      <path class="cls-31" d="M591.67,45.29c-24.71.96-49.26,4.26-74.4,2.01-37.86-3.39-75.96-.35-113.7,5.17-2.05,1.22-4.26,1.65-6.56,1.75-3.44.92-6.88,1.84-10.31,2.76.04.52.09,1.04.13,1.56h57.44c-13.26,5.45-27.7-.03-40.72,6.09,32.64.89,65.21-.42,97.75-2.95h0c24.43-1.57,49.13,3.26,73.36-3.09h-16.58c23.97-7.45,48.16-6.03,72.27-6.12,8.3-.03,16.34-.35,20.68-9.16-1.02-.01-2.05-.02-3.07-.03-18.78.32-37.55,1.27-56.29,2Z"/>
      <path class="cls-17" d="M864.87,37.2c1.04,1.03,2.08,2.05,3.12,3.08,10.6.79,21.16.97,31.7.76v-15.75c-10.73.38-21.28,2.75-31.77,5.78-1.02,2.04-2.03,4.09-3.05,6.13Z"/>
      <path class="cls-29" d="M672.47,24.98c-7.78,4.1-16.24,2.72-24.5,3.05,15.99,5.97,32.6,1.82,48.88,3.06,30.41-1.2,60.86-1.87,91.24-3.71,37.21-2.25,74.41-4.78,111.6-7.33v-6.79c-.29.02-.57.03-.86.05-75.41,4.91-150.67,12.41-226.37,11.67Z"/>
      <path class="cls-27" d="M159.15,3.62c.01,2.03.02,4.05.03,6.08,7.47,1.01,14.93,2.81,22.4,2.89,33.26.33,66.53.15,99.79.16-5.78-8.99-16.7-4.24-24.09-8.94,5.84-.31,11.19-.59,16.52-.87-5.21-2.65-10.23-2.37-16.87.65,0,0,0,0,0,0h-39.71c2.14-2.55,4.72-2.71,6.84-3.59h-33.64c-10.4,2.57-20.73,4.23-31.29,3.62Z"/>
      <path class="cls-29" d="M348.11,18.61c23.75-1.02,47.49-2.17,71.23-3.4,3.78-.19,6.53-2.52,8.68-5.54-30.57.12-61.18-.91-91.62,3.1,2.81,4.15,6.92,6.04,11.72,5.83Z"/>
      <path class="cls-50" d="M183.62,122.74h.01c24.43,0,48.87-.01,73.3-.02,0-2.03,0-4.05,0-6.07-18.33,0-36.65-.01-54.97-.02-6.11,2.04-12.22,4.07-18.33,6.11Z"/>
      <path class="cls-41" d="M134.74,113.56c16.29-1.19,32.89,2.86,48.89-3.02-16.29,1.17-32.9-2.89-48.89,3.02Z"/>
      <path class="cls-19" d="M867.92,180.77c-19.1,6.29-39.39.73-58.61,5.89-4.84,1.3-9.8,2.17-14.71,3.24,6.43,8.88,16.01,5.27,24.45,6.16,8.16,0,16.31,0,24.47,0,8.13,0,16.25,0,24.38,0,8.17,0,16.34.01,24.52.01h0s0,0,0,0h7.28v-15.92c-10.59.19-21.18.37-31.77.62h0Z"/>
      <path class="cls-29" d="M722.43,183.58c-16.6,1.21-33.35.22-50.04.21-32.72.03-65.37,1.05-97.77,6.12,16.29,1.28,32.94-2.89,48.93,3.11,32.58-.02,65.15-.03,97.73-.05,7.76-4.09,16.2-2.76,24.44-3.03,16.29-.02,32.59-.03,48.88-.05,4.91-1.07,9.86-1.94,14.71-3.24,19.23-5.16,39.51.4,58.61-5.89-8.15,0-16.3,0-24.45-.01-8.22-.23-16.63,1.13-24.36-3.02,8.12,0,16.25-.02,24.38-.03,0-1.02,0-2.04,0-3.06-8.25.26-16.68-1.05-24.46,3.01-8.14.02-16.27.04-24.41.06-2.12.54-4.25.91-6.36,1.17-21.77,3.62-43.89,3.09-65.82,4.68Z"/>
      <path class="cls-29" d="M899.7,180.15v-3.84c-10.71.26-21.38,1.07-31.77,4.46,10.59-.25,21.18-.43,31.77-.62Z"/>
      <path class="cls-46" d="M888.62,164.34c-14.28-4.99-38.79,1.34-45.15,10.29,18.71-1.6,37.55-1.51,56.23-3.53v-3.83c-3.69-.69-7.37-1.64-11.07-2.94Z"/>
      <path class="cls-36" d="M819.11,177.74c7.73,4.15,16.14,2.79,24.36,3.02,0-1.01.01-2.03.01-3.04-8.12,0-16.25.02-24.38.03Z"/>
      <path class="cls-19" d="M819.04,134.94c0,1.02,0,2.04,0,3.07,11.22,0,22.44.02,33.66.02,15.66-1.57,31.33-3.14,46.99-4.72v-3.7c-27.04-2.96-53.82,1.91-80.66,5.33Z"/>
      <path class="cls-29" d="M852.71,138.03c15.71,5.43,31.36,3.15,46.99.98v-5.7c-15.66,1.57-31.33,3.15-46.99,4.72Z"/>
      <path class="cls-26" d="M728.58,237.39c1.64.43,3.28.88,4.91,1.39-1.58-1.19-3.2-1.85-4.91-1.39Z"/>
      <path class="cls-26" d="M892.34,226.59s.02,0,.02-.01c0,0-.02,0-.02.01-52.95,4.06-105.9,8.13-158.85,12.2-2.02.04-4.04.08-6.06.13-.01.97-.03,1.95-.04,2.92,0,0,0,0,0,0,5.26.08,10.55-.08,15.51,1.78.95.25,1.87.64,2.75,1.27l.12.11c24.52,1.44,48.82-2.35,73.24-3.18,7.77-3.94,16.18-2.76,24.41-3.05,4.9-1.06,9.81-2.11,14.71-3.17,13.68-2.97,27.66-2.56,41.56-3.01v-6c-2.45-.02-4.91-.08-7.36,0Z"/>
      <path class="cls-32" d="M745.73,247.96c0,3.07.01,6.14.02,9.21,8.15,0,16.31.01,24.46.02,16.26-1.29,32.87,2.81,48.84-3.1h-40.75c7.6-3.4,15.12-4.34,22.59-5.59,6.43-1.08,14.92,3.21,18.13-6.68-24.42.83-48.72,4.62-73.24,3.18-.02.99-.03,1.98-.05,2.96Z"/>
      <path class="cls-4" d="M249.01,40.26c-13.76-3.84-27.17-6.99-40.95-6.1-6.12,1.53-12.24,3.05-18.36,4.58-2.03.5-4.05,1.01-6.08,1.51,8.08,0,16.16,0,24.24.01h.19c8.15,0,16.3,0,24.45,0h16.51Z"/>
      <path class="cls-50" d="M571.38,29.7c1.1.37,2.19.81,3.27,1.38-1.03-.79-2.13-1.19-3.27-1.38Z"/>
      <path class="cls-50" d="M574.65,31.08c-49-1.16-97.6,7.32-146.61,6.09h0c-2.04,2.04-4.08,4.08-6.12,6.12,61.09-2.04,122.18-4.08,183.27-6.12-8.56-10.15-20.25-4.58-30.54-6.09Z"/>
      <path class="cls-44" d="M574.65,31.08c-1.08-.57-2.17-1.01-3.27-1.38-5.63-1.86-11.59-1.4-17.48-1.72-25.8-1.41-51.38,2.17-77.08,3.07-16.26.02-32.51.04-48.77.07,0,2.02,0,4.04,0,6.06h0c49,1.22,97.61-7.25,146.61-6.09Z"/>
      <path class="cls-29" d="M476.81,31.05c-21.63-6.16-43.44-1.68-65.2.07h16.43c16.26-.02,32.51-.04,48.77-.07Z"/>
      <path class="cls-20" d="M610.37,24.98c.02,1.02.04,2.04.06,3.05h37.54c8.25-.33,16.71,1.06,24.5-3.05-8.16,0-16.33,0-24.49,0h-37.6Z"/>
      <path class="cls-43" d="M816.01,49.45c-12.17.09-24.36-.23-36.51.33-68.27,3.12-136.41,9.41-204.85,8.82-24.23,6.34-48.93,1.51-73.36,3.09,0,2.01,0,4.01,0,6.01,32.56-2.59,65.16-3.77,97.83-2.99,32.57-1.03,65.15-2.05,97.72-3.08,40.74-1.7,81.31-6.92,122.18-6.12.02-1.01.04-2.02.04-3.03-1.02-1.01-2.04-2.02-3.05-3.03Z"/>
      <path class="cls-12" d="M603.39,75.33c.7.05,1.4.07,2.09.12-2.12-.53-4.23-1.05-6.35-1.58,1.37.63,2.63,1.36,4.25,1.46Z"/>
      <path class="cls-12" d="M696.86,64.75s0,0,0,0c-15.99,5.84-32.6,1.77-48.88,3.01h0c-4.92,1-9.87,3.02-14.74,2.83-44.07-1.73-87.95,3.53-131.97,3.25-16.27.02-32.53.03-48.8.05,0,0,0,0-.01,0,4.45,6.59,11.15,6.37,17.78,5.53,42.81-5.49,86.1.29,128.89-5.54,48.91,1.7,97.69-2.38,146.54-3.14h0c7.78-4.02,16.23-2.69,24.46-3-6.74-3.68-14.12-2.9-21.37-3.06-17.31.03-34.61.05-51.91.08Z"/>
      <path class="cls-18" d="M599.14,73.87c2.12.53,4.23,1.05,6.35,1.58,6.01,1.5,12.02,2.99,18.02,4.49.01,0,.02,0,.03,0h0c32.74-2.59,65.52-3.76,98.37-3.11,8.03.16,16.24.91,23.82-2.96h0c-.02-1.05-.03-2.1-.05-3.14h0c-48.85.76-97.63,4.84-146.54,3.14Z"/>
      <path class="cls-50" d="M403.55,64.63c13.02-6.12,27.46-.64,40.72-6.09h-57.44c-.04-.52-.08-1.04-.13-1.56,3.44-.92,6.87-1.84,10.31-2.76,2.19-.58,4.37-1.17,6.56-1.75-16.29,0-32.58,0-48.88,0,3.42,13.54,17.08,6.58,24.44,12.23,8.14-.02,16.28-.04,24.41-.06Z"/>
      <path class="cls-3" d="M501.28,73.83c-2.89-.87-5.78-2.49-8.67-2.51-33.9-.24-67.81-.26-101.71-.28-4.81,0-8.91,1.69-11.72,5.83,8.11,0,16.22-.02,24.33-.03,0,0,0,0,0,0,16.03-5.81,32.65-1.81,48.96-2.96h.01c16.27-.02,32.53-.03,48.8-.05Z"/>
      <path class="cls-49" d="M501.3,61.68h0c-32.54,2.53-65.11,3.84-97.75,2.95-8.14.02-16.27.04-24.41.06,6.56,3.44,13.69,3.04,20.74,3.04,33.81,0,67.61-.02,101.42-.04,0-2,0-4.01,0-6.01Z"/>
      <path class="cls-29" d="M696.86,64.75s0,0,0,0h0c0-1.04,0-2.08-.01-3.12-32.57,1.03-65.14,2.05-97.72,3.08h0c15.98,5.92,32.59,1.81,48.86,3.05h0c16.28-1.24,32.88,2.83,48.88-3.01Z"/>
      <path class="cls-43" d="M379.17,76.87h-65.14c.02.69.04,1.39.06,2.08h105.83c0-.7.01-1.41.02-2.11-5.48,0-10.95,0-16.43,0h0c-8.11,0-16.22.02-24.33.03Z"/>
      <path class="cls-2" d="M770.14,138.08c-8.23.24-16.64-1.07-24.41,2.98,8.23-.25,16.64,1.05,24.41-2.98Z"/>
      <path class="cls-43" d="M476.77,177.66c-8.1.03-16.2.06-24.3.08,11.65,12.21,27.73,2.19,41.61,7.78-15.21,4.71-31.66-4.32-44.68,7.5,41.82,2,83.44-3.61,125.22-3.11,32.4-5.07,65.05-6.1,97.77-6.12,4.56-14.46,19.12-6.36,27.51-12.19v-3.04c-9.18-.01-18.36-.03-27.54-.04,0,0,0,0,0,0,0,0,0,0,0,0-24.43,1.51-49.12-3.12-73.36,3.05h40.99c-6.37.92-12.75,2.44-19.12,3.79.07.02.15.03.22.05-.09-.01-.18-.02-.28-.04-15.43,3.28-30.85,5.62-46.09-3.64,0,0,0,0,0,0-26.62-1.96-52.98,3.12-79.53,2.97-.81.55-1.65.91-2.51,1.16-5.08,1.97-10.5,1.84-15.91,1.79Z"/>
      <path class="cls-8" d="M620.82,175.37s.04,0,.06-.01c6.38-1.36,12.75-2.87,19.12-3.79h-40.99c-8.09.05-16.19.11-24.28.16,0,0,0,0,0,0,15.24,9.26,30.66,6.92,46.09,3.64Z"/>
      <path class="cls-12" d="M699.9,168.56c.09,0,.17,0,.26,0,6.11-.1,12.3.39,18.12-1.71,1.01-.36,2.01-.8,3-1.34-16.3,1.16-32.91-2.79-48.92,3.01,0,0,0,0,0,0,9.18.02,18.36.03,27.54.04Z"/>
      <path class="cls-43" d="M476.77,177.66c5.41.05,10.83.18,15.91-1.79.85-.33,1.68-.71,2.51-1.16-6.1-.03-12.2-.06-18.3-.09h0c-.03,1.01-.07,2.03-.11,3.04Z"/>
      <path class="cls-39" d="M748.78,64.67c7.25.16,14.63-.62,21.37,3.06,24.62-.02,49.33,1.17,73.34-6.09,0-1.03,0-2.05,0-3.07-31.71-.12-63.34.93-94.71,6.1Z"/>
      <path class="cls-40" d="M696.84,61.62c0,1.04,0,2.08.01,3.12h0c17.3-.03,34.61-.05,51.91-.08,31.37-5.17,63-6.22,94.71-6.1.03-1.01.05-2.01.08-3.02h0c-8.18-.01-16.36-.03-24.54-.04-40.87-.8-81.43,4.41-122.18,6.12Z"/>
      <path class="cls-43" d="M816.01,49.45c1.02,1.01,2.04,2.02,3.05,3.03,16.54-.05,32.91-1.44,48.87-6.11,0,0,.01,0,.02,0,0,0,0,0,0,0h0c-17.32,1.01-34.9-2.59-51.94,3.09Z"/>
      <path class="cls-13" d="M827.1,43.28h40.81c.03-1,.06-2,.09-3-1.04-1.03-2.08-2.05-3.12-3.08-12.88-.44-25.34,2.14-37.78,6.08Z"/>
      <path class="cls-16" d="M501.34,247.97c0,1.03,0,2.05,0,3.08,81.48-.06,162.96.99,244.39-3.09.01-.99.03-1.97.05-2.96l-.12-.11c-6.03-1.39-13.03,3.04-18.27-3.05h0s0,0,0,0c.01-.97.03-1.95.04-2.92-18.33,1-36.66,1.99-54.99,2.99h0c-6.06,3.16-12.65,3-19.2,3-26.19.01-52.39.01-78.58.02-24.52-.97-48.9,1.24-73.31,3.05Z"/>
      <path class="cls-16" d="M745.65,244.89c-.88-.63-1.81-1.02-2.75-1.27.93.35,1.85.76,2.75,1.27Z"/>
      <path class="cls-16" d="M562.44,217.42c1.67,1.12,4.28,1.91,4.81,3.42,1.1,3.18-2.14,2.5-3.66,2.52-12.62.18-25.24.16-37.86.21,16.01,5.81,32.63,1.78,48.93,3.01,40.74,0,81.48-.02,122.22-.03t0,0c6.88-9.91,19.2-3.42,27.47-9.11-53.97-1.5-107.94,3.37-161.91-.02Z"/>
      <path class="cls-19" d="M623.51,241.86c6.55-.21,13.11-.26,19.64-.7,2.72-.18,4.56-2.1,4.86-4.94.31-2.96-1.51-5.56-4.01-5.5-15.1.33-31.07-6.47-44.91,5.04,8.43.88,17.98-2.75,24.42,6.1Z"/>
      <path class="cls-19" d="M727.42,238.91c2.02-.04,4.04-.08,6.06-.13-1.63-.51-3.26-.97-4.91-1.39-16.61-4.31-33.88-4.47-50.77-6.91-6.64-.96-6.79,6-5.38,11.42h0c18.33-1,36.66-1.99,54.99-2.99Z"/>
      <path class="cls-21" d="M574.65,241.87c16.29,0,32.57,0,48.85,0-6.43-8.86-15.99-5.22-24.42-6.1h0c-7.76,4.11-16.2,2.78-24.43,3.06,0,1.02,0,2.04,0,3.05Z"/>
      <path class="cls-16" d="M892.34,226.59c2.44-.08,4.9-.02,7.36,0v-2.45c-2.49.44-4.94,1.18-7.33,2.43,0,0-.02,0-.02.01Z"/>
      <path class="cls-19" d="M599.09,235.76c-8.24.27-16.67-1.05-24.43,3.05,8.24-.28,16.68,1.05,24.43-3.05Z"/>
      <path class="cls-33" d="M797.7,199.16c-9.13-.02-18.27-.03-27.4-.05-.2-.09-.4-.17-.6-.26-.03-.01-.06-.03-.1-.04-.66-.28-1.32-.54-1.98-.78-.34-.13-.69-.25-1.04-.36-.07-.02-.13-.05-.2-.07-.24-.08-.47-.15-.71-.22-4.35-1.3-8.94-1.52-15.25.92,7.95.42,13.37.71,19.29,1.02-7.46,3.68-15.55,3.2-23.42,2.74-44.43-2.61-88.81-.7-132.52,6.7-19.73,3.34-38.73,4.13-58.4,2.79-18.21-1.24-36.38.7-54.05,5.88,20.37,0,40.74,0,61.1-.01,53.97,3.39,107.94-1.48,161.91.02,15.28-1.04,30.55-2.07,45.83-3.11,7.77-4.05,16.2-2.75,24.44-3h.01c1.02-4.06,2.05-8.12,3.07-12.18Z"/>
      <path class="cls-33" d="M843.49,205.21c15.98-5.92,32.58-1.84,48.85-3.07.02-2.02.05-4.05.07-6.07h0c-8.17,0-16.34-.01-24.52-.02-8.12,3.92-16.25,3.92-24.38,0-8.15,0-16.31,0-24.47,0-1.02,2.03-2.05,4.06-3.07,6.1,8.86,3.77,18.23,2.94,27.5,3.06Z"/>
      <path class="cls-46" d="M815.99,202.15c-6.1-1-12.19-2-18.29-3,0,0,0,0,0,0-1.02,4.06-2.05,8.12-3.07,12.18,16.55.04,32.9-1.54,48.86-6.13-9.27-.13-18.64.7-27.5-3.06Z"/>
      <path class="cls-46" d="M843.49,205.21c16.27-1.22,32.88,2.86,48.85-3.07-16.27,1.23-32.88-2.84-48.85,3.07Z"/>
      <path class="cls-46" d="M770.18,214.34c8.24-.24,16.67,1.07,24.44-3-8.24.25-16.67-1.05-24.44,3Z"/>
      <path class="cls-33" d="M670.36,195.92c16.98-.68,34.25,3.1,50.93-2.94-32.58.02-65.15.03-97.73.05-.02,1-.03,2.01-.04,3.01,15.62,0,31.25.5,46.84-.12Z"/>
      <path class="cls-33" d="M745.72,189.95c-8.24.27-16.68-1.06-24.44,3.03,8.24-.25,16.68,1.06,24.44-3.03Z"/>
      <path class="cls-41" d="M403.58,244.92c-4.51-.41-9.02-.92-13.52-1.49-28-3.54-55.78-9.36-84.27-7.62,31.99,9.55,64.82,10.06,97.79,9.11Z"/>
      <path class="cls-41" d="M281.38,223.55c15.98,5.93,32.6,1.84,48.87,3.05-15.99-5.88-32.59-1.86-48.87-3.05Z"/>
      <path class="cls-16" d="M501.34,247.98c-7.76-4.05-16.18-2.75-24.4-3h0c7.76,4.06,16.18,2.75,24.41,3Z"/>
      <path class="cls-12" d="M672.39,183.8c16.68,0,33.44,1,50.04-.21,21.93-1.59,44.05-1.07,65.82-4.68,2.12-.35,4.25-.73,6.36-1.17-31.67-.51-62.85-8.66-94.72-6.13-8.39,5.83-22.95-2.27-27.51,12.19Z"/>
      <path class="cls-46" d="M867.9,196.06c-8.12,0-16.25,0-24.38,0,8.13,3.92,16.25,3.92,24.38,0Z"/>
      <path class="cls-28" d="M745.65,244.89c-.9-.51-1.82-.92-2.75-1.27-4.96-1.86-10.25-1.7-15.51-1.78h0c5.24,6.09,12.24,1.67,18.27,3.05Z"/>
    </g>
  </g>
</svg>