<?xml version="1.0" encoding="UTF-8"?>
<svg id="Layer_2" data-name="Layer 2" xmlns="http://www.w3.org/2000/svg" viewBox="0 0 899.7 257.77">
  <defs>
    <style>
      .cls-1 {
        fill: #c8975d;
      }

      .cls-2 {
        fill: none;
      }

      .cls-3 {
        fill: #c59659;
      }

      .cls-4 {
        fill: #a97d43;
      }

      .cls-5 {
        fill: #e2b276;
      }

      .cls-6 {
        fill: #bc8d54;
      }

      .cls-7 {
        fill: #b99156;
      }

      .cls-8 {
        fill: #dba86e;
      }

      .cls-9 {
        fill: #ab7c42;
      }

      .cls-10 {
        fill: #cda567;
      }

      .cls-11 {
        fill: #c59259;
      }

      .cls-12 {
        fill: #d9ae72;
      }

      .cls-13 {
        fill: #d4a46b;
      }

      .cls-14 {
        fill: #e5b87b;
      }

      .cls-15 {
        fill: #b8874e;
      }

      .cls-16 {
        fill: #be9157;
      }

      .cls-17 {
        fill: #dbae72;
      }

      .cls-18 {
        fill: #af8144;
      }

      .cls-19 {
        fill: #e1b578;
      }

      .cls-20 {
        fill: #c3945b;
      }

      .cls-21 {
        fill: #9f6e37;
      }

      .cls-22 {
        fill: #d5a169;
      }

      .cls-23 {
        fill: #d2a46a;
      }

      .cls-24 {
        fill: #e6bd82;
      }

      .cls-25 {
        fill: #deb073;
      }

      .cls-26 {
        fill: #956733;
      }

      .cls-27 {
        fill: #e0b075;
      }

      .cls-28 {
        fill: #e3b175;
      }

      .cls-29 {
        fill: #be8d53;
      }

      .cls-30 {
        fill: #c99a60;
      }

      .cls-31 {
        fill: #d0a166;
      }

      .cls-32 {
        fill: #c08952;
      }

      .cls-33 {
        fill: #d5a168;
      }

      .cls-34 {
        fill: #f6c586;
      }

      .cls-35 {
        fill: #dcae72;
      }

      .cls-36 {
        fill: #cb9d64;
      }

      .cls-37 {
        fill: #d8a56c;
      }

      .cls-38 {
        fill: #dcb477;
      }

      .cls-39 {
        fill: #8f6d37;
      }

      .cls-40 {
        fill: #c5945b;
      }

      .cls-41 {
        fill: #b88b4f;
      }

      .cls-42 {
        fill: #e7c488;
      }

      .cls-43 {
        fill: #cc9d62;
      }

      .cls-44 {
        fill: #e2ae73;
      }

      .cls-45 {
        fill: #ecbe7f;
      }

      .cls-46 {
        fill: #ddad71;
      }

      .cls-47 {
        fill: #b27c44;
      }

      .cls-48 {
        fill: #c4955b;
      }

      .cls-49 {
        fill: #e9b579;
      }

      .cls-50 {
        fill: #be965a;
      }

      .cls-51 {
        fill: #e5bc7e;
      }

      .cls-52 {
        fill: #b2854a;
      }

      .cls-53 {
        fill: #d6a96e;
      }

      .cls-54 {
        fill: #e9b475;
      }

      .cls-55 {
        fill: #c49e67;
      }

      .cls-56 {
        fill: #b1844a;
      }

      .cls-57 {
        fill: #cb955e;
      }

      .cls-58 {
        fill: #ae8147;
      }

      .cls-59 {
        fill: #c39057;
      }

      .cls-60 {
        fill: #856633;
      }

      .cls-61 {
        fill: #b7824a;
      }

      .cls-62 {
        fill: #d7ab6f;
      }

      .cls-63 {
        fill: #b8824a;
      }

      .cls-64 {
        fill: #e5bc7c;
      }

      .cls-65 {
        fill: #cb9d63;
      }

      .cls-66 {
        fill: #c79d62;
      }

      .cls-67 {
        fill: #d6a76a;
      }

      .cls-68 {
        fill: #d9b075;
      }

      .cls-69 {
        fill: #d2a76e;
      }

      .cls-70 {
        fill: #a4753d;
      }

      .cls-71 {
        fill: #b8844c;
      }

      .cls-72 {
        fill: #b08147;
      }

      .cls-73 {
        fill: #d9b074;
      }

      .cls-74 {
        fill: #bc8d53;
      }

      .cls-75 {
        fill: #dfb279;
      }

      .cls-76 {
        fill: #ab7b42;
      }

      .cls-77 {
        fill: #daaf72;
      }

      .cls-78 {
        fill: #d6a66b;
      }

      .cls-79 {
        fill: #cba166;
      }

      .cls-80 {
        fill: #e4b477;
      }

      .cls-81 {
        fill: #cda46c;
      }

      .cls-82 {
        fill: #d6a56b;
      }

      .cls-83 {
        fill: #e8c48b;
      }

      .cls-84 {
        fill: #c7975e;
      }

      .cls-85 {
        fill: #ac7840;
      }

      .cls-86 {
        fill: #ba8f53;
      }

      .cls-87 {
        fill: #cc955e;
      }

      .cls-88 {
        fill: #d09b61;
      }

      .cls-89 {
        fill: #d8ab6f;
      }

      .cls-90 {
        fill: #cfa067;
      }

      .cls-91 {
        fill: #bc8950;
      }

      .cls-92 {
        fill: #cd9f66;
      }

      .cls-93 {
        fill: #d4af76;
      }

      .cls-94 {
        fill: #be9056;
      }

      .cls-95 {
        fill: #bb8b52;
      }
    </style>
  </defs>
  <g id="_レイヤー_1" data-name="レイヤー 1">
    <g>
      <path class="cls-2" d="M716.75,226.3c-4.85.82-9.7,1.65-14.55,2.47h0c4.85-.82,9.7-1.65,14.55-2.47Z"/>
      <path class="cls-2" d="M54.83,114.37c-4.35,0-8.24,1.92-10.9,4.95-2.17,2.47-3.52,5.69-3.6,9.22,0,.12-.02.23-.02.34,0,8.01,6.5,14.51,14.51,14.51s14.51-6.5,14.51-14.51c0-.88-.09-1.73-.24-2.57-.46-2.55-1.57-4.87-3.17-6.77-2.66-3.16-6.65-5.18-11.1-5.18Z"/>
      <path class="cls-2" d="M372.41,229.21h.17s-.06-.03-.1-.04c-.01.01-.05.03-.07.04Z"/>
      <path class="cls-13" d="M4.13,7.18s-.05,0-.07,0c6.56-2.15,7.12-4.62,5.74-7.18H0v8.15c1.36-.32,2.72-.64,4.08-.96.02,0,.03,0,.05-.01Z"/>
      <path class="cls-68" d="M268.37,16.12c-35.32-3.97-69.41,12.24-105.17.47,0,0-.02,0-.02,0-44.29,8.74-93.19,6.87-142.32,4.49-5.74-.04-11.47-.07-17.2-.12,1.28,9.55,32.08,13.06,52.52,18.69l.08.13c64.95-.82,127-9.6,193.86-5.07h0c22.81.24,45.6.47,68.39.7,9.8-13.9,58.95-9.88,89.62-14.28.05-1.7.11-3.41.16-5.11,11.29-5.35,46.19-10.62,39.82-16.02h-51.64c-26.07,12.63-65.37,19.49-128.1,16.12Z"/>
      <path class="cls-92" d="M266.29,54.34c-11.44-4.85-22.88-9.7-34.33-14.55,6.04-1.69,12.1-3.37,18.16-5.06h0c-66.87-4.55-128.92,4.24-193.86,5.06,5.77,3.1,11.54,6.19,17.3,9.28,19.04.3,37.77.82,52.12,4.8-.02,0-.04.01-.05.02.02,0,.05,0,.07,0,11.84,1.61,23.68,3.24,35.55,4.87,23.85-22.9,46.66-5.19,69.79.12h.02c11.74-1.51,23.47-3.02,35.23-4.53Z"/>
      <path class="cls-69" d="M163.18,16.59s.02,0,.02,0c-.02,0-.02,0-.03,0,13.56-1.04,31.22-1.49,33.35-5.9,2.38-4.95-15.71-6.66-28.73-6.46-25.29.37-48.74.22-67.2-4.21h-17.54c-18.1,7.59-19.07,18.85-62.18,21.08,49.13,2.38,98.03,4.24,142.32-4.49Z"/>
      <path class="cls-24" d="M167.79,4.21c13.01-.19,31.11,1.52,28.73,6.46-2.13,4.41-19.79,4.86-33.35,5.9.02,0,.02,0,.03,0,35.76,11.77,69.85-4.44,105.17-.47-.88-1.57-1.75-3.12-2.65-4.68h0c-4.04-7.23-17.46-10.11-34.25-11.44H100.58c18.46,4.44,41.91,4.58,67.2,4.21Z"/>
      <path class="cls-69" d="M56.18,39.64C35.74,34.02,4.94,30.5,3.66,20.95c-1.23.15-2.44.31-3.66.47v21.57c19.34.36,37.96-.08,56.18-3.35Z"/>
      <path class="cls-27" d="M4.06,7.18s.05,0,.07,0c23.44-.4,33.56-3.36,39.22-7.18H9.8c1.38,2.56.82,5.03-5.74,7.18Z"/>
      <path class="cls-5" d="M73.57,49.06c-28.06.56-60.25-1.08-69.51,9.49.17.06.36.12.53.19,40.36-1.62,80.71-3.25,121.04-4.87.02,0,.04,0,.05-.02-14.35-3.98-33.08-4.5-52.12-4.8Z"/>
      <path class="cls-4" d="M3.39,58.79s.67-.24.65-.24c-1.35-.02-2.7-.03-4.04-.05v3.78c1.59-1.05,2.72-2.21,3.39-3.49Z"/>
      <path class="cls-8" d="M164.61,73.68h0c4.57-.29,9.14-.58,13.71-.88,2.08-8.91,37.79-8.56,52.72-13.93h0c-23.13-5.32-45.94-23.03-69.79-.13-51,8.2-101.92,16.49-161.25,13.12v14.67c31.48.6,60.91,4.9,92.21,5.83,5.63-11.43,20.91-20.15,72.41-18.68Z"/>
      <path class="cls-63" d="M43.93,119.32c6.33,1.69,7.99.84,12.33.84s4.15-.43,9.67-.61c2.07.02,4.13.04,6.2.06-25.22-10.79,53.22-16.04,20.08-27.26-31.3-.93-60.72-5.23-92.21-5.83v25.67c11.85,2.34,23.7,4.69,35.55,7.03,2.8.03,5.59.06,8.38.09Z"/>
      <path class="cls-36" d="M882.51,2.51c-23.07,1.21-46.41,7.34-68.89-.31-9.31-.45-17.99-1.22-26.24-2.2h-100.67c-16.56,4.3-41.81,5.65-68.32,6.56-17.88,5.1-35.84,7.48-53.96.07-24.49-2.09-71.21,3.76-72.42-6.63h-43.9c6.38,5.4-28.53,10.67-39.82,16.02,76.76-1.9,92.68,15.24,121.8,28.26,0,.01-.02.01-.02.01h.02c17.73,1.66,35.43,3.35,53.18,5.02,5.22.08,10.4.15,15.62.23h.03c.79-1.88,1.58-3.75,2.37-5.63-12.5-1.97-33.95-3.47-35.87-6.03-7.95-10.44-21.29-16.39-54.71-18.14,78.81-10.58,142.79,4.72,211.99,5.81,6.73-5.79,15.33-12.4,43.14-8.86,14.53,1.85,2.27,6.25-7.83,8.83-.1,1.71-.2,3.43-.31,5.14,26.47,2.29,52.93,4.58,98.24,8.5-63.05-.12-107.84,4.23-149.21-4.02-35.08-6.15-67.27-8.4-88.07,4.73,23.86,1.64,47.74,3.27,71.6,4.91,55.49,2.52,114.33-5.39,167.67,3.86h-.04c13.89,1.46,27.68,3.73,41.8,3.08V12.34c-8.35-1.79-14.15-5.02-17.19-9.83Z"/>
      <path class="cls-82" d="M340.87,55.35c-34.96,8.51-23-7.87-39.74-11.31h0c-24.91.77-47.55-1.13-69.16-4.25,11.45,4.85,22.88,9.7,34.33,14.55-5.47,10.94-10.95,21.87-16.42,32.8,10.88-3.25,21.78-6.5,32.68-9.75h.02c6.47-2.13,12.95-4.27,19.44-6.4,6.14,2.21,12.3,4.41,18.45,6.63,38.99-11.87,61.32-1.55,86.68,4.72,0,0,.01,0,.01,0h0c18.41-2,36.76-5.05,55.62-.27,5.37-.09,10.76-.13,16.15-.13.03-9.98-4.98-18.89-53.97-18.44-18.98,1.59-37.04,1.16-32.62-5.5,7-10.56,40.65-8.37,68.02-8.69,23.23-1.67,46.48-3.34,69.71-5.02,0,0,.02,0,.02-.01-29.12-13.01-45.04-30.15-121.8-28.26-.05,1.7-.11,3.41-.16,5.11,46.71,20.76-34.79,26.31-67.27,34.22Z"/>
      <path class="cls-30" d="M340.87,55.35c32.48-7.91,113.98-13.45,67.27-34.22-30.66,4.39-79.82.37-89.62,14.28-5.8,2.88-11.58,5.76-17.39,8.63,16.74,3.44,4.78,19.83,39.74,11.31Z"/>
      <path class="cls-55" d="M265.73,11.42h0c.9,1.57,1.76,3.12,2.65,4.69,62.73,3.38,102.03-3.48,128.1-16.12h-47.06c-21.37,6.46-46.31,11.47-83.67,11.44,0,0-.02,0-.02-.01Z"/>
      <path class="cls-86" d="M301.13,44.04h0c5.81-2.87,11.59-5.75,17.39-8.63-22.8-.23-45.58-.46-68.39-.69-6.06,1.69-12.12,3.38-18.16,5.06,21.62,3.12,44.25,5.02,69.16,4.26Z"/>
      <path class="cls-20" d="M161.25,58.74c-11.86-1.63-23.7-3.26-35.55-4.87-.02,0-.05,0-.07,0-40.33,1.62-80.68,3.24-121.04,4.87-.4,0-.81.03-1.2.05-.67,1.28-1.8,2.45-3.39,3.49v9.58c59.33,3.36,110.25-4.93,161.25-13.12Z"/>
      <path class="cls-95" d="M214.67,78.48c3.3,5.37,15.84,8.02,35.2,8.65,5.47-10.93,10.95-21.87,16.42-32.8-11.76,1.51-23.49,3.02-35.23,4.53t-.02,0c-14.93,5.37-50.64,5.02-52.72,13.93,8.59,1.34,17.21,2.69,25.83,4.04,3.86.27,7.5.73,10.51,1.65Z"/>
      <path class="cls-68" d="M265.73,11.42s.02,0,.02.01c37.36.04,62.29-4.98,83.67-11.44h-117.94c16.8,1.33,30.22,4.2,34.25,11.42Z"/>
      <path class="cls-12" d="M829.57,0h-42.19c8.25.98,16.92,1.75,26.24,2.2,5.32-.73,10.63-1.47,15.96-2.2Z"/>
      <path class="cls-83" d="M564.43,6.63c11.95-1.82,23.89-3.64,35.84-5.47.36-.4.78-.79,1.22-1.16h-109.48c1.21,10.39,47.93,4.54,72.42,6.63Z"/>
      <path class="cls-57" d="M108.12,120.64c7.57-1.81,15.15-3.62,22.72-5.44h0c10.18-1.51,20.3-3.02,30.42-4.52,36.99-6.1,70.11-7.53,91.41,5.46.02,0,.03,0,.05,0,4.89-.08,9.72-.28,14.48-.61q11.9-21.47,96.74-20.7c-33.5,7-64.96,12.16-80.17,21.2.51,2.93,1.05,5.85,1.58,8.78h.01c22.58-1.26,45.21-2.53,67.8-3.8,95.13-5.11,186.77,8.87,281.88,3.73h.05c11.82-4.59,50.74-3.22,39.18-12.95-15.13-5.73-82.41,2.4-54.3-14.82-6.24-.11-12.53-.21-18.77-.32-35.18-1.57-70.36-3.14-105.54-4.72,11.96,3.01,23.92,6.01,35.88,9.02-28.02,13.21-71.51,3.57-107.33,5.27-5.25-15.22,45.78-10.16,71.19-14.33.18-3.07.36-6.14.55-9.2-5.73-.13-11.41-.37-17-.73h0c-5.39-.01-10.78.02-16.15.12-18.16,5.83-36.18,14-55.62.27,0,0-.01,0-.01,0-25.37-6.27-47.7-16.59-86.68-4.72-13.05,4.98-26.07,9.96-37.9-.22h-.02c-10.9,3.25-21.8,6.5-32.68,9.75-19.36-.63-31.9-3.29-35.2-8.65-19.85.78-45.51,5.95-50.05-4.81-51.5-1.47-66.78,7.25-72.41,18.68,33.14,11.21-45.3,16.47-20.08,27.26,11.97.34,23.97.69,35.95,1.03t.04,0ZM152.08,93.68c-3.76-.48-5.29-2.23-7.83-3.39,4.47-.58,8.94-1.15,13.69-1.77,3.56.9,10.21,1.82,10.21,2.75.02,2.8-8.02,3.46-16.08,2.42Z"/>
      <path class="cls-57" d="M214.67,78.48c-3.01-.92-6.65-1.38-10.51-1.65,3.5.55,7,1.09,10.51,1.65Z"/>
      <path class="cls-9" d="M214.67,78.48c-3.51-.56-7.01-1.1-10.51-1.65-8.62-1.35-17.24-2.7-25.83-4.04-4.57.3-9.14.6-13.71.88h0c4.54,10.77,30.2,5.59,50.05,4.81Z"/>
      <path class="cls-75" d="M108.08,120.65c-11.98-.34-23.98-.69-35.95-1.03-2.07-.02-4.13-.04-6.2-.06-4.25,3.09,2.71,4.22,3.17,6.77,2.34-.24,4.67-.49,6.99-.76h0c10.68-1.64,21.35-3.28,31.99-4.91Z"/>
      <path class="cls-75" d="M65.93,119.55c-2.79-.03-27.58-.29-30.38-.32-11.84,1.14-23.7,2.27-35.55,3.4v7.16c13.59-.15,61.94-.19,75.21-.92.08-3.53-11.45-6.86-9.28-9.33Z"/>
      <path class="cls-21" d="M0,112.2v10.44c11.85-1.13,23.71-2.27,35.55-3.4-11.85-2.34-23.7-4.69-35.55-7.03Z"/>
      <path class="cls-23" d="M857.9,48.63c-55.79.13-111.54.24-167.29.37-30.83-3.35-59.76,17.04-91.68.54h-.03c-5.22-.07-10.4-.15-15.62-.23-.41,9.74-37.5,5.78-57.82,8.34,41.45,17.43,107.73-2.23,146,10.6,46.54-.06,93.08-.12,139.64-.15,0,0,.02,0,.02,0,0,0,.01,0,.01,0,7.07-.24,14.17-.48,21.28-.72,2.06,7.79-7.38,13.44-38.66,15.04-47.09,4.65,14.17,10.1-1.47,14.98.05-.01,1.17-.35,1.17-.35,35.39-.08,70.83-.17,106.26-.26v-13.81c-11.33-.09-30.42,1.61-26.73-4.34,1.37-2.21,17.43-3.75,26.73-5.6v-21.31c-14.12.66-27.91-1.62-41.8-3.08Z"/>
      <path class="cls-3" d="M899.7,12.34V0h-25.81c2.88.84,5.75,1.67,8.62,2.51,3.03,4.81,8.84,8.04,17.19,9.83Z"/>
      <path class="cls-11" d="M462.91,54.71c45.95,5.58,60.25,15.29,50.72,28.15,41.02,5.8,42.05-9.06,70.33-9.86,29.14-1.58,58.32-3.17,87.49-4.76-38.27-12.83-104.55,6.83-146-10.6,20.32-2.56,57.41,1.4,57.82-8.34-17.75-1.67-35.45-3.36-53.18-5.02h-.02c-23.24,1.68-46.48,3.35-69.71,5.02.84,1.81,1.69,3.6,2.55,5.4Z"/>
      <path class="cls-25" d="M706.73,35.13c16.99-1.5,33.99-2.99,50.97-4.47.11-1.71.21-3.43.31-5.14-11.77,0-23.51.02-35.31.03-69.21-1.09-133.18-16.39-211.99-5.81,33.42,1.75,46.76,7.7,54.71,18.14,1.92,2.56,23.37,4.05,35.87,6.03,5.8-1.35,11.57-2.7,17.37-4.04,20.8-13.13,53-10.88,88.07-4.73Z"/>
      <path class="cls-11" d="M690.61,49c-1.14-1.41-1.24-2.82-.34-4.22-23.86-1.64-47.75-3.27-71.6-4.91-5.79,1.35-11.57,2.69-17.37,4.04-.79,1.88-1.58,3.75-2.37,5.63,31.92,16.51,60.86-3.88,91.68-.54Z"/>
      <path class="cls-14" d="M855.94,39.16c-45.3-3.92-71.77-6.2-98.24-8.5-16.98,1.48-33.98,2.97-50.97,4.47,41.37,8.25,86.15,3.91,149.21,4.02Z"/>
      <path class="cls-26" d="M690.61,49c55.76-.12,111.5-.24,167.29-.37h.04c-53.34-9.24-112.18-1.34-167.67-3.86-.9,1.41-.79,2.82.34,4.22Z"/>
      <path class="cls-39" d="M618.08,3.36l-.04,1.61.35,1.59c26.51-.91,51.76-2.26,68.32-6.56h-38.45c-7.79,1.99-16.92,3.46-30.18,3.36Z"/>
      <path class="cls-54" d="M765.84,16.69c-27.8-3.54-36.41,3.07-43.14,8.86,11.8-.01,23.54-.02,35.31-.03,10.1-2.58,22.35-6.98,7.83-8.83Z"/>
      <path class="cls-60" d="M618.08,3.36c-5.94-.73-11.88-1.46-17.81-2.2-11.95,1.82-23.89,3.65-35.84,5.47,18.12,7.41,36.08,5.03,53.96-.07l-.35-1.59.04-1.61Z"/>
      <path class="cls-18" d="M882.51,2.51c-2.87-.84-5.75-1.68-8.62-2.51h-44.31c-5.32.73-10.64,1.47-15.96,2.2,22.49,7.65,45.82,1.53,68.89.31Z"/>
      <path class="cls-44" d="M495.93,82.69c5.89.05,11.77.12,17.68.17h.01c9.53-12.85-4.77-22.57-50.72-28.15-12.65,2.93-25.3,5.85-37.95,8.79,48.99-.45,54,8.46,53.97,18.44h0c5.6.38,11.27.62,17,.75Z"/>
      <path class="cls-56" d="M460.36,49.31c-27.37.32-61.03-1.88-68.02,8.69-4.41,6.66,13.64,7.09,32.62,5.5,12.64-2.94,25.3-5.85,37.95-8.79-.86-1.8-1.7-3.6-2.55-5.4Z"/>
      <path class="cls-32" d="M462.78,82.07c-18.86-4.79-37.2-1.74-55.62.26h0c19.44,13.74,37.46,5.58,55.62-.26Z"/>
      <path class="cls-15" d="M320.46,77.61c-6.15-2.21-12.31-4.41-18.45-6.63-6.49,2.13-12.98,4.27-19.44,6.4,11.82,10.19,24.85,5.21,37.9.22Z"/>
      <path class="cls-66" d="M338.53,173.7c5.28.37,16.06.16,16.49-.3,17.82-19.6,51.37-5.46,80.77-3.11,18.82,1.51,39.4,1.43,59.24,2.05-11.67-4.89-48.68-4.17-41.6-13.07,7.45-9.38,37.65-7.62,62.67-9.26,68.02-4.49,140.94,4.15,206.46-5.85-52-1.36-101.22-5.6-156.83-.81-43.58,3.76-105.84,5.6-96.08-20.51-21.57,18.13-48.92,29.01-114.95,25.64-76.24,4.81-152.48,9.62-228.72,14.43,4.05,2.87,11.11,8.28,11.72,8.23,68.33-5.85,134.55-1.99,200.82,2.57Z"/>
      <path class="cls-10" d="M74.53,162.88c-25.32-1.79-50.11-2.1-74.53-1.43v11.09c12.85,0,25.69,0,38.54,0,11.99-3.22,23.98-6.43,35.98-9.65Z"/>
      <path class="cls-42" d="M109.72,151.1c41.05-1.16,32.46-12.59,33.58-20.95-23.19,1.46-46.38,2.92-69.57,4.37,30.03,3.09,13.15,17.24,35.99,16.59Z"/>
      <path class="cls-81" d="M108.12,120.64s-.02,0-.04,0c-10.64,1.63-21.31,3.27-31.99,4.9h0c-.79,2.99-1.58,5.98-2.36,8.96,23.19-1.45,46.38-2.91,69.57-4.37,6.01-1.82,12.02-3.64,18.04-5.46-10.18-3.16-20.36-6.32-30.5-9.48-7.57,1.81-15.15,3.63-22.72,5.44Z"/>
      <path class="cls-70" d="M161.26,110.68c-10.12,1.5-20.25,3.01-30.42,4.52h0c10.15,3.16,20.32,6.32,30.5,9.48,12.19-1.14,24.38-2.27,36.57-3.41l-1.92-1.55c15.42-10.53-16.61-7.85-34.72-9.05Z"/>
      <path class="cls-93" d="M600.27,1.16c5.94.73,11.87,1.46,17.81,2.2,13.26.11,22.39-1.37,30.18-3.36h-46.77c-.45.38-.86.76-1.22,1.16Z"/>
      <path class="cls-87" d="M644.34,77.74c23.34-6.67,41.74-2.81,60.72.85,12.53,2.41,21.29,6.36,14.59,10.25-13.08,7.62-35.63-.35-53.96,1.61-21.15,2.26-47.09.95-64.49,6.21,6.25.1,12.54.2,18.77.32,19.25,8.46,83.89-3.9,84.16,13.3,11.67.33,23.31.65,34.98.98,5.15-8.12,27.7-11.4,53.14-13.86h.04c15.64-4.89-45.62-10.34,1.47-14.99,5.81-4.77,11.56-9.54,17.36-14.3,0,0-.02,0-.02,0-46.55.04-93.09.1-139.64.15-29.17,1.59-58.35,3.18-87.49,4.76,15.54,5.92,31.57,12.95,60.38,4.74Z"/>
      <path class="cls-32" d="M495.93,82.69c-.19,3.06-.37,6.13-.55,9.2-25.41,4.17-76.44-.89-71.19,14.33,31.92-7.42,71.31-3.83,107.29-5.27h.04c-11.96-3-23.92-6.01-35.88-9.02,35.18,1.57,70.36,3.14,105.54,4.72,17.4-5.25,43.35-3.95,64.49-6.21,18.33-1.96,40.88,6.02,53.96-1.61,6.7-3.89-2.06-7.84-14.59-10.25-18.98-3.67-37.38-7.52-60.72-.85-28.8,8.21-44.83,1.18-60.38-4.74-28.29.8-29.32,15.66-70.33,9.86h-.01c-5.91-.06-11.79-.12-17.68-.17Z"/>
      <path class="cls-71" d="M267.2,115.54c5.56.08,11.07.25,16.57.49,15.22-9.03,46.68-14.19,80.17-21.2q-84.85-.77-96.74,20.7Z"/>
      <path class="cls-47" d="M674.27,111.79c9.95-.51,19.9-1.01,29.86-1.52-.27-17.2-64.91-4.84-84.16-13.3-28.11,17.22,39.17,9.09,54.3,14.82Z"/>
      <path class="cls-45" d="M285.35,124.81c-14.76,5.79-5.19,8.8,16.91,8.93,30.59.17,47.55-4.53,50.91-12.73-22.59,1.27-45.22,2.53-67.8,3.8h-.01Z"/>
      <path class="cls-73" d="M674.27,111.79c11.56,9.73-27.36,8.36-39.18,12.95h-.05c-95.11,5.14-186.75-8.84-281.88-3.73-3.36,8.2-20.32,12.89-50.91,12.73-22.09-.13-31.67-3.14-16.91-8.93h.01-.01c-.53-2.93-1.06-5.85-1.58-8.78-5.49-.25-11.01-.41-16.57-.49-4.75.32-9.59.52-14.48.61-.02,0-.04,0-.05,0,.02,0,.02,0,.02,0-15.57,3.69-33.62,4.54-53.12,3.73-.55.46-1.09.93-1.66,1.4,9.44,26.99,100.56,19.8,156.81,27.2,66.02,3.37,93.38-7.51,114.95-25.64-9.76,26.11,52.5,24.27,96.08,20.51,55.6-4.79,104.83-.55,156.83.81,18.09-1.64,36.19-3.29,54.31-4.93-.03-.01-.09-.02-.12-.03h.02s-.02,0-.02,0h.03c.06,0,.1,0,.18-.01-.14-1.55-.2-3.1-.27-4.65-41.77-8.11-98.1-.4-139.19-9.27,42.81,2.68,73.18-4.27,105.31-9.85-1.2-1.39-2.43-2.78-3.71-4.16-11.66-.33-23.31-.65-34.98-.98-9.95.51-19.9,1.01-29.86,1.52Z"/>
      <path class="cls-71" d="M252.69,116.14s0,0-.02,0c-21.31-12.99-54.43-11.56-91.41-5.46,18.11,1.2,50.14-1.48,34.72,9.05,1.21.06,2.38.1,3.59.15,19.5.81,37.55-.05,53.12-3.73Z"/>
      <path class="cls-85" d="M424.2,106.22c35.82-1.7,79.31,7.94,107.33-5.27h-.04c-35.98,1.44-75.37-2.15-107.29,5.27Z"/>
      <path class="cls-61" d="M168.16,91.27c0-.93-6.65-1.85-10.21-2.75-4.75.62-9.22,1.19-13.69,1.77,2.54,1.16,4.06,2.91,7.83,3.39,8.06,1.04,16.1.38,16.08-2.42Z"/>
      <path class="cls-48" d="M846.47,113.49l.07,2.11c6.21.05,12.46.1,18.7.15,12.56-.12,24.33.03,34.46.78v-12.45c-17.04,2.64-43.08,2.17-52.92,7.31l-.31,2.11Z"/>
      <path class="cls-76" d="M793.44,97.03s-1.12.33-1.17.35h-.04c-25.44,2.47-47.99,5.76-53.14,13.87,1.27,1.38,2.51,2.78,3.71,4.16,39.89,8.42,66.39-8.16,103.97-4.03,9.83-5.14,35.87-4.67,52.92-7.31v-7.19c-35.2,6.78-70.66,5.63-106.26.15Z"/>
      <path class="cls-19" d="M872.97,78.62c-3.68,5.95,15.4,4.25,26.73,4.34v-9.94c-9.3,1.85-25.36,3.39-26.73,5.6Z"/>
      <path class="cls-74" d="M832.4,67.37c-7.11.24-14.21.48-21.28.72,0,0-.01,0-.01,0-5.81,4.77-11.55,9.54-17.36,14.3,31.28-1.59,40.72-7.24,38.66-15.04Z"/>
      <path class="cls-87" d="M899.7,96.88v-.11c-35.43.09-70.86.18-106.26.26,35.6,5.48,71.06,6.64,106.26-.15Z"/>
      <path class="cls-43" d="M724.37,172.52c-15.54-3.03-25.91-7.97-50.58-7.23-25.3.76-40.44,4.18-65.46-7.63-25.96-12.25-83.61,3.24-112.85,14.71-6.18,4.68-12.39,9.35-18.57,14.03h0c-40.49,4.21-81.31-1.52-121.86.31h0c-.06,1.59-.13,3.16-.19,4.73,13.83,3.33,12.87,6.56-.83,9.72,4.28,4.93,15.03,8.18,33.6,9.4l3.14-.38c7.64-10.62,38.84-12.59,71.3-14.12-.01,0-.04,0-.04,0,.03,0,.04,0,.05,0,5.38-3.11,10.73-6.23,16.1-9.34,5.87,1.56,11.73,3.12,17.6,4.69,5.84,0,11.68,0,17.53,0,67.7,1.39,141.23-2.95,193.09,14.16-1.11-6.59,33.64-10.62,17.88-18.25h0c-35.69-4.94-16.96-9.87.1-14.79ZM528.1,176.4c44.67-1.87,67.56-.44,96.36,4.75-33.98,3.21-57.12,1.47-96.36-4.75Z"/>
      <path class="cls-43" d="M522.33,192.87c-3-.49-6.03-.98-9.03-1.47,2.87.58,5.92,1.04,9.03,1.47Z"/>
      <path class="cls-35" d="M226.89,252.2c21.28,1.62,48.84-2.73,73.55-4.36h.01c-5.41-4.66-10.77-9.31-16.16-13.98-44.18-8.44-84.9-5.86-117.47,5.49-48.5-20.74,26.27-17.72,47.5-24.34.04,0,.07-.02.1-.03-22.22-2.83-41.05-9.58-70.19-4.43h-.02c-11.68,3.03-23.37,6.06-35.06,9.09,5.56,11.11-57.03,3.53-53.36,14.12.1,1.64.23,3.28.34,4.92,30.47,2.87-2.9,18.45,38.67,19.1h5.72c2.31-.03,4.79-.1,7.49-.21,41.61-10.28,57.71-10.03,118.87-5.36Z"/>
      <path class="cls-90" d="M355.04,186.71c-43.58,3.44-98.27-10.11-130.92,2.77-42.49,16.76-61.09-14.06-97.05-1.88-7.89,2.67-27.61,2.78-24.77,8.78,73.84-8,17.62,11.33,41.92,14.18h.02c29.15-5.15,47.97,1.6,70.19,4.43,35.37-12.79,78.09-22.42,140.42-23.54.06-1.57.13-3.14.19-4.72Z"/>
      <path class="cls-62" d="M516.1,150.01c-25.02,1.65-55.23-.12-62.67,9.26-7.08,8.89,29.93,8.17,41.6,13.07-19.84-.62-40.42-.54-59.24-2.05-29.4-2.35-62.95-16.49-80.77,3.11-.42.46-11.21.67-16.49.3-66.27-4.56-132.49-8.42-200.82-2.57-.61.05-7.67-5.36-11.72-8.23-17.16,0-34.31,0-51.47-.02-12,3.22-23.99,6.44-35.98,9.65-13.54,4.36-32.73,7.68-35.18,14.05,35.26,11.02,70.53,22.04,105.8,33.05,11.69-3.03,23.38-6.06,35.06-9.09h.02s-.02,0-.02,0c-24.3-2.85,31.92-22.18-41.92-14.18-2.83-6,16.88-6.1,24.77-8.78,35.96-12.18,54.56,18.63,97.05,1.88,32.64-12.87,87.33.68,130.92-2.77h0c40.55-1.83,81.38,3.9,121.86-.3h0c6.18-4.69,12.39-9.36,18.57-14.04,29.24-11.47,86.89-26.96,112.85-14.71,25.02,11.81,40.16,8.38,65.46,7.63,24.67-.74,35.05,4.2,50.58,7.23,5.6-1.63,11.23-3.27,16.82-4.91-5.76-11.88,36.01-15.62,54.96-23.27-6.46-1.7-12.86-3.4-19.28-5.11-18.12,1.64-36.23,3.29-54.31,4.93-65.52,10-138.44,1.36-206.46,5.85Z"/>
      <path class="cls-51" d="M637.5,125.26c41.09,8.87,97.42,1.16,139.19,9.27,23.3-6.31,46.58-12.62,69.85-18.93l-.07-2.11.31-2.11c-37.59-4.14-64.09,12.45-103.97,4.03-32.12,5.57-62.5,12.52-105.31,9.85Z"/>
      <path class="cls-79" d="M776.78,139.2s0,0,.01,0h-.03s.02,0,.02,0Z"/>
      <path class="cls-79" d="M776.97,139.19c34.87-1.6,69.71-3.2,104.58-4.79-19.98-5.29-38.64-10.66-16.31-18.64-6.24-.05-12.49-.11-18.7-.15-23.27,6.32-46.54,12.62-69.85,18.93.07,1.55.14,3.1.27,4.65Z"/>
      <path class="cls-17" d="M56.15,238.67c-.12-1.63-.24-3.28-.34-4.92-18.63-.25-37.19,1.48-55.8,1.76v19.35c23.75-4.05,51.82-6.92,56.15-16.2Z"/>
      <path class="cls-64" d="M865.24,115.75c-22.33,7.98-3.67,13.35,16.31,18.64,2.51,2.66,1.67,6.32,18.15,4.83v-22.69c-10.13-.74-21.9-.9-34.46-.78Z"/>
      <path class="cls-31" d="M759.32,163.01c43.52,5.46,86.92,10.94,19.15,23.07h0s0,0-.02,0c0,0-.02,0-.02,0,0,0-.01,0-.01,0-18.08.4-36.11.81-54.14,1.21h0c15.75,7.63-18.99,11.67-17.88,18.26h17.74c58.62,6.7,117.09,4.1,175.56,1.39v-38.82c-33.66-.49-68.49-.19-88-9.95-18.91.45-38.41.48-52.37,4.83ZM854.54,195.98c-2.65.4-16.24-2.08-16.89-3.51-2.88-6.13,9.82-9.6,37.04-11.31,6.28,7.6-1.72,12.04-20.14,14.82Z"/>
      <path class="cls-33" d="M493.15,252.95c21.15-12.4,71.01-12.8,107.7-18.71,6.18-1.95,12.39-3.89,18.6-5.85h.02s-.02,0-.02,0c-22.07-5.54-69.2,3.99-77.88-9.11-8.74-13.15,65.11-.94,59.31-13.63-26.19-4.26-52.36-8.51-78.55-12.78-3.11-.42-6.16-.89-9.03-1.47-5.85,0-11.69,0-17.53,0-31.75,11.54-21.17,28.65-68.81,38.11h-.01c20.79,6.63,2,20.19-30.96,28.26h70.46c5.95-2.37,13.57-4.31,26.72-4.82h0Z"/>
      <path class="cls-89" d="M522.33,192.87c26.19,4.26,52.36,8.52,78.55,12.78,12.41,1.79,24.87,3.57,37.28,5.36,22.71,1.35,45.4,2.71,68.09,4.06,5.97-3.16,11.91-6.33,17.88-9.5h-17.74c-51.87-17.1-125.39-12.77-193.09-14.16,3.01.49,6.03.98,9.03,1.47Z"/>
      <path class="cls-94" d="M462.08,196.05s-.03,0-.05,0c-17.79,4.85-35.59,9.7-53.39,14.55-12.07,6.19-24.11,12.38-36.16,18.57.04.01.07.03.1.04,18.13.1,36.24.2,54.37.3h0s.01,0,.01,0c47.65-9.46,37.06-26.56,68.81-38.11-5.86-1.56-11.73-3.13-17.6-4.69-5.37,3.11-10.72,6.22-16.1,9.34Z"/>
      <path class="cls-41" d="M778.47,186.08h0s0,0-.02,0h.02Z"/>
      <path class="cls-41" d="M760.21,167.49c-6.35.04-12.67.08-19.02.11-5.59,1.64-11.22,3.28-16.82,4.91-17.06,4.92-35.79,9.84-.1,14.78,18.03-.41,36.07-.81,54.14-1.21-25.99-4.78-6.43-12.8-18.21-18.59Z"/>
      <path class="cls-62" d="M528.1,176.4c39.25,6.22,62.39,7.96,96.36,4.75-28.8-5.19-51.69-6.62-96.36-4.75Z"/>
      <path class="cls-67" d="M100.54,257.77h8.25c-.25-.07-.51-.14-.76-.21-2.69.11-5.18.18-7.49.21Z"/>
      <path class="cls-67" d="M56.15,238.67c-4.32,9.28-32.4,12.15-56.15,16.2v2.9h94.82c-41.57-.65-8.21-16.23-38.67-19.1Z"/>
      <path class="cls-1" d="M426.94,229.51h0c-18.13-.1-36.24-.2-54.37-.3h-.17v.03c-6.01,1.62-12.01,3.25-18.02,4.88-.43,6.11,27.39,13.33,8.36,17.32-21.12,4.41-25.33-6.12-42.44-8.09-2.4,2.85-2.24,6.51-19.84,4.49h-.01c-24.72,1.62-52.27,5.98-73.55,4.36-61.15-4.67-77.25-4.92-118.87,5.36.26.07.51.14.76.21h287.19c32.95-8.07,51.75-21.62,30.96-28.26Z"/>
      <path class="cls-90" d="M408.63,210.6c-5.96-.14-11.92-.28-17.87-.43l-3.14.38h.02c-11.73,5.88-25.14,10.33-50.92,4.42-40.85-7.83-81.57,7.43-122.41.05,0,0,.01,0,.01,0-21.23,6.62-96,3.6-47.5,24.34,32.57-11.35,73.3-13.92,117.47-5.49,27.58-4.04,57.54-4.74,88.12-4.62v-.03s.04-.03.05-.04c12.05-6.19,24.09-12.38,36.16-18.57Z"/>
      <path class="cls-6" d="M284.3,233.86c5.39,4.66,10.75,9.31,16.16,13.98,17.6,2.02,17.44-1.64,19.84-4.49,11.36-3.08,22.73-6.16,34.09-9.23h0c6.01-1.62,12.01-3.25,18.03-4.88-30.58-.12-60.54.58-88.12,4.62Z"/>
      <path class="cls-53" d="M336.73,214.97c1.39-5.01,1.29-10.15,17.29-13.82,13.7-3.16,14.66-6.38.83-9.72-62.33,1.13-105.05,10.75-140.42,23.54-.04.01-.07.02-.1.03,0,0-.01,0-.01,0,40.84,7.39,81.57-7.88,122.41-.05Z"/>
      <path class="cls-28" d="M462.02,196.06s.03,0,.04,0c-32.46,1.53-63.66,3.5-71.3,14.12,5.95.15,11.91.29,17.87.43,17.8-4.85,35.59-9.7,53.39-14.55Z"/>
      <path class="cls-94" d="M336.73,214.97c25.78,5.91,39.19,1.46,50.92-4.42h-.02c-18.57-1.22-29.33-4.47-33.6-9.4-16.01,3.67-15.91,8.81-17.29,13.82Z"/>
      <path class="cls-77" d="M881.55,134.39c-34.87,1.6-69.71,3.2-104.58,4.79-.08,0-.12.01-.18.01-.01,0-.01,0-.01,0h-.02s.08.01.12.03c6.42,1.71,12.82,3.41,19.28,5.11,91.58-2.44.76,10.01,15.54,13.84,19.51,9.75,54.34,9.46,88,9.95v-12.9c-9.15.75-22.18-.03-28.72,1.7,4.18-4.87,15.33-6.55,28.72-7.4v-10.3c-16.48,1.49-15.64-2.18-18.15-4.83Z"/>
      <path class="cls-50" d="M741.2,167.6c6.35-.04,12.67-.07,19.02-.11-.86-1.48-1.13-2.98-.89-4.48,13.96-4.35,33.46-4.38,52.37-4.83-14.78-3.83,76.03-16.29-15.54-13.84-18.95,7.65-60.72,11.39-54.96,23.27Z"/>
      <path class="cls-84" d="M724.14,205.56c-5.97,3.17-11.91,6.34-17.88,9.5-1.16,1.36-2.48,2.72-3.92,4.06t-.01,0h.01c18.47-.88,37.14-4.64,55.29.23,7.34.23,14.72.45,22.04.68t.04,0c32.42,5.31,68.92,4.29,104.35,4.95,4.78-.23,10.12-.79,15.64-1.45v-16.6c-58.47,2.71-116.94,5.31-175.56-1.39Z"/>
      <path class="cls-80" d="M760.21,167.49c11.78,5.79-7.78,13.81,18.21,18.59,0,0,.01,0,.01,0,0,0,.02,0,.02,0,.02,0,.02,0,.02,0,67.77-12.13,24.37-17.61-19.15-23.07-.24,1.5.03,3,.89,4.48Z"/>
      <path class="cls-16" d="M837.64,192.47c.65,1.43,14.25,3.91,16.89,3.51,18.43-2.78,26.43-7.22,20.14-14.82-27.22,1.7-39.92,5.18-37.04,11.31Z"/>
      <path class="cls-40" d="M638.16,211c-12.41-1.78-24.87-3.57-37.28-5.36,5.8,12.69-68.05.48-59.31,13.63,8.68,13.1,55.8,3.58,77.88,9.11h.02c5.69-1.01,11.37-2.02,17.07-3.02.55-4.79,1.06-9.58,1.62-14.36Z"/>
      <path class="cls-72" d="M634.32,234.76c-11.15-.18-22.32-.35-33.47-.52-36.69,5.91-86.55,6.31-107.7,18.71h.02c7.46.33,14.94.66,22.43,1,22.02-2.29,44.02-4.58,66.02-6.87.02,0,.05,0,.07,0,16.49-4.43,50.98-3.27,52.62-12.32Z"/>
      <path class="cls-1" d="M515.6,253.95c-7.48-.34-14.97-.67-22.43-1t-.02,0c-13.15.51-20.76,2.45-26.72,4.82h53.14c-2.13-.79-3.55-2-3.97-3.82Z"/>
      <path class="cls-34" d="M670.31,223.95c2.68-.4,5.34-.81,8.02-1.21-3.06.21-5.87.56-8.02,1.21Z"/>
      <path class="cls-34" d="M634.32,234.76c12.46-.21,24.91-.44,37.34-.65,0,0,.02,0,.02,0,.01,0,.01,0,.01,0,10.16-1.78,20.33-3.56,30.48-5.34-10.62-1.61-21.24-3.22-31.86-4.82-11.25.47-22.52.94-33.77,1.41-5.71,1.01-11.38,2.01-17.07,3.02h-.02c-6.21,1.96-12.42,3.9-18.6,5.86,11.15.17,22.32.34,33.47.52h0Z"/>
      <path class="cls-58" d="M636.55,225.36c11.25-.47,22.51-.95,33.77-1.41,2.15-.66,4.96-1,8.02-1.21,8.01-1.2,16.03-2.4,23.99-3.61t.01,0c1.44-1.34,2.75-2.69,3.92-4.06-22.69-1.35-45.38-2.71-68.09-4.06-.55,4.78-1.07,9.57-1.62,14.36Z"/>
      <path class="cls-22" d="M320.3,243.35c17.12,1.97,21.32,12.5,42.44,8.09,19.04-3.98-8.78-11.21-8.36-17.32h0c-11.36,3.07-22.72,6.14-34.09,9.22Z"/>
      <path class="cls-7" d="M870.98,156.92c6.54-1.73,19.57-.95,28.72-1.7v-5.7c-13.39.84-24.54,2.53-28.72,7.4Z"/>
      <path class="cls-88" d="M882.4,233.99c-17.84,5.89-36.67,5.24-56.17.64-7.43,8.26-25.53,17.6-5.78,23.13h49.2c4.58-2.46,11.92-4.04,25.69-2.96,1.78.14,3.21.32,4.35.54v-19.01c-2.07-.28-4.15-.56-6.22-.85-3.97-.02-7.67-.48-11.08-1.5Z"/>
      <path class="cls-91" d="M702.2,228.77h-.03c-10.16,1.78-20.33,3.56-30.48,5.34,0,0,0,0-.01,0,5.94,1.65,11.85,3.28,17.76,4.93,12.66,3.73,25.43,7.43,37.92,11.19,14.9,4.48,26.18,5.51,29.32-2.05-15.96-6.82,1.64-8.35,20.87-9.62-34.36-6.47-2.38-12.39,2.13-18.54-7.33-.23-14.71-.45-22.04-.68-13.62,2.32-27.24,4.63-40.88,6.95-4.85.82-9.7,1.65-14.55,2.47Z"/>
      <path class="cls-37" d="M882.4,233.99c3.4,1.02,7.11,1.49,11.08,1.5-3.7-.5-7.39-1-11.08-1.5Z"/>
      <path class="cls-37" d="M779.71,220.04s-.03,0-.04,0c-4.51,6.14-36.49,12.07-2.13,18.54,16.27-1.32,32.51-2.64,48.71-3.95,0,0,0,0-.02.01,19.5,4.6,38.33,5.24,56.17-.64,5.78-.26,11.54-.54,17.29-.82v-.54c-5.19-2.55-10.42-5.1-15.64-7.65-35.43-.66-71.93.37-104.35-4.95Z"/>
      <path class="cls-49" d="M899.7,232.63v-9.09c-5.52.66-10.86,1.21-15.64,1.45,5.22,2.55,10.45,5.1,15.64,7.65Z"/>
      <path class="cls-52" d="M893.48,235.5c2.07.28,4.15.56,6.22.85v-3.17c-5.75.28-11.52.56-17.29.82,3.69.5,7.38,1.01,11.08,1.5Z"/>
      <path class="cls-43" d="M670.31,223.95c10.62,1.6,21.24,3.21,31.86,4.82h.02c4.86-.82,9.7-1.64,14.55-2.47,13.64-2.31,27.27-4.63,40.88-6.95-18.15-4.86-36.82-1.11-55.29-.23h-.01c-7.96,1.21-15.98,2.42-23.99,3.62-2.68.4-5.34.81-8.02,1.21Z"/>
      <path class="cls-46" d="M618.83,256.92c5.35-1.3,10.7-2.61,16.03-3.9h-.03c-14.11-4.33-33.81-5.03-53.2-5.93.02,0,.05-.01.07-.01-.02,0-.05,0-.07,0-22.01,2.29-44,4.58-66.02,6.87.42,1.82,1.84,3.04,3.97,3.82h94.45c1.59-.26,3.19-.54,4.77-.85h.03Z"/>
      <path class="cls-1" d="M671.66,234.11c-12.42.21-24.88.44-37.34.65h0c-1.64,9.04-36.13,7.89-52.62,12.32-.02,0-.05,0-.07.01,19.4.9,39.09,1.61,53.2,5.93h.03c23.9-3.04,40.37-8.19,54.58-13.98-5.91-1.64-11.83-3.28-17.76-4.93,0,0-.02,0-.02,0Z"/>
      <path class="cls-59" d="M618.83,256.92h-.03c-1.58.31-3.18.58-4.77.85h7.39c-.78-.27-1.65-.55-2.62-.83.02,0,.02,0,.03-.01Z"/>
      <path class="cls-29" d="M826.23,234.64s.02,0,.02-.01c-16.2,1.31-32.43,2.63-48.71,3.95-19.22,1.27-36.82,2.8-20.87,9.62,25.98-.11,28.01,4.75,30.12,9.58h33.65c-19.76-5.53-1.66-14.87,5.78-23.13Z"/>
      <path class="cls-29" d="M869.65,257.77h30.05v-2.41c-1.14-.22-2.57-.4-4.35-.54-13.78-1.09-21.11.49-25.69,2.96Z"/>
      <path class="cls-78" d="M756.68,248.19c-3.13,7.56-14.42,6.53-29.32,2.05-12.49-3.76-25.26-7.46-37.92-11.19-14.21,5.79-30.68,10.94-54.58,13.98-5.34,1.3-10.69,2.6-16.03,3.9-.01,0-.01,0-.03.01.97.28,1.84.56,2.62.83h165.39c-2.12-4.84-4.14-9.69-30.12-9.58Z"/>
      <path class="cls-65" d="M20.86,21.08C63.97,18.85,64.95,7.59,83.04,0h-39.69c-5.66,3.82-15.79,6.78-39.22,7.18-.02,0-.04,0-.05.01-1.36.32-2.72.64-4.08.96v13.27c1.22-.16,2.44-.31,3.66-.47,5.74.05,11.47.09,17.2.12Z"/>
      <path class="cls-65" d="M3.39,58.79c.4-.02.81-.04,1.2-.05-.18-.07-.37-.13-.53-.19,9.25-10.57,41.44-8.93,69.51-9.49-5.77-3.09-11.53-6.18-17.3-9.28l-.08-.13c-18.22,3.27-36.84,3.71-56.18,3.35v15.51c1.35.02,2.69.03,4.04.05.02,0-.65.24-.65.24Z"/>
      <path class="cls-38" d="M74.53,162.88c17.16.01,34.31.02,51.47.02,76.24-4.8,152.47-9.62,228.72-14.43-56.25-7.4-147.37-.21-156.81-27.2.57-.47,1.11-.94,1.66-1.4-1.2-.05-2.38-.09-3.59-.15l1.92,1.55c-12.18,1.14-24.38,2.27-36.57,3.41-6.02,1.82-12.03,3.64-18.04,5.46-1.11,8.37,7.47,19.8-33.58,20.95-22.83.65-5.96-13.49-35.99-16.59.78-2.99,1.57-5.97,2.36-8.95-2.32.27-4.65.52-6.99.76.15.83,1.05,2.91.24,2.57-9.87-4.2-6.5-1.51-14.51-1.51s-1.69.14-14.51,1.51c-.11.01.02-.23.02-.34-13.27.73-26.74,1.11-40.33,1.26v31.65c24.42-.67,49.2-.36,74.53,1.43Z"/>
      <path class="cls-38" d="M38.54,172.54c-12.85,0-25.7,0-38.54,0v13.86c1.12.06,2.24.12,3.36.18,2.45-6.37,21.64-9.69,35.18-14.05Z"/>
      <path class="cls-90" d="M55.8,233.75c-3.67-10.59,58.92-3,53.36-14.12-35.27-11.02-70.54-22.03-105.8-33.05-1.12-.06-2.24-.12-3.36-.18v49.11c18.61-.28,37.17-2.01,55.8-1.76Z"/>
    </g>
  </g>
</svg>