<?xml version="1.0" encoding="UTF-8"?>
<svg id="Layer_2" data-name="Layer 2" xmlns="http://www.w3.org/2000/svg" viewBox="0 0 176.35 171.48">
  <defs>
    <style>
      .cls-1 {
        fill: #c6b261;
      }

      .cls-2 {
        fill: #fff;
      }
    </style>
  </defs>
  <g id="_ÉåÉCÉÑÅ__2" data-name="ÉåÉCÉÑÅ[_2">
    <g>
      <path class="cls-1" d="M82.48,156.87c-5.41,7.44-13.39,12.33-22.48,13.77-9.09,1.44-18.19-.75-25.63-6.15-15.37-11.16-18.78-32.75-7.62-48.11l5.56-7.65-8.5-2.76C5.74,100.1-4.18,80.63,1.69,62.57c2.84-8.75,8.92-15.87,17.12-20.05,8.2-4.18,17.53-4.91,26.28-2.07l8.28,2.69v-8.7C53.37,15.45,68.82,0,87.81,0s34.44,15.45,34.44,34.44v8.94l8.99-2.92c8.75-2.84,18.08-2.11,26.28,2.07,8.2,4.18,14.28,11.3,17.12,20.05,2.84,8.75,2.11,18.08-2.07,26.28-4.18,8.2-11.3,14.28-20.05,17.12l-9.21,2.99,5.69,7.83c5.41,7.44,7.59,16.55,6.15,25.63-1.44,9.09-6.33,17.07-13.77,22.48-15.37,11.16-36.95,7.74-48.11-7.62l-5.55-7.65-5.25,7.23Z"/>
      <g>
        <path class="cls-2" d="M92.39,59.81c.15,4.01-3.43,20.99-4.66,20.99-1.31,0-5.03-17.06-4.66-20.99.24-2.57,2.09-5.39,4.66-5.39s4.57,2.82,4.66,5.39Z"/>
        <path class="cls-2" d="M60.55,77c3.86,1.1,18.91,9.75,18.52,10.92-.41,1.25-17.78-.49-21.41-2.05-2.37-1.02-4.48-3.65-3.69-6.1.8-2.45,4.09-3.48,6.57-2.77Z"/>
        <path class="cls-2" d="M66.27,111.5c2.24-3.33,15.11-14.97,16.11-14.24,1.06.77-5.96,16.75-8.56,19.72-1.7,1.94-4.86,3.14-6.94,1.62-2.08-1.51-2.04-4.97-.6-7.11Z"/>
        <path class="cls-2" d="M101.64,116.98c-2.47-3.16-9.57-19-8.56-19.72,1.06-.77,14.09,10.84,16.11,14.24,1.32,2.22,1.48,5.59-.6,7.11-2.08,1.51-5.36.41-6.94-1.62Z"/>
        <path class="cls-2" d="M117.79,85.88c-3.77,1.38-21.02,3.23-21.41,2.05-.41-1.25,14.67-10.05,18.52-10.92,2.51-.57,5.78.32,6.57,2.77.8,2.45-1.27,5.22-3.69,6.1Z"/>
      </g>
    </g>
  </g>
</svg>