<?xml version="1.0" encoding="UTF-8"?>
<svg id="Layer_2" data-name="Layer 2" xmlns="http://www.w3.org/2000/svg" viewBox="0 0 1579.1 41.35">
  <defs>
    <style>
      .cls-1 {
        fill: #b68764;
      }
    </style>
  </defs>
  <g id="Layer_1-2" data-name="Layer 1">
    <g>
      <g>
        <path class="cls-1" d="M1384.45,15.34l8.49,8.48c4.84,4.83,12.67,4.83,17.51,0l-8.49-8.48c-4.84-4.83-12.67-4.83-17.51,0Z"/>
        <path class="cls-1" d="M1418.64,11.27c-4.38-1.59-9.48-.64-13,2.88l8.49,8.48c1.32,1.32,2.87,2.28,4.51,2.88,4.38,1.59,9.48.64,13-2.88l-8.49-8.48c-1.32-1.32-2.87-2.28-4.51-2.88Z"/>
        <path class="cls-1" d="M1426.82,14.14l8.49,8.48c4.84,4.83,12.67,4.83,17.51,0l-8.49-8.48c-4.83-4.83-12.67-4.83-17.51,0Z"/>
        <path class="cls-1" d="M1461.01,11.27c-4.38-1.59-9.48-.64-13,2.88l8.49,8.48c1.32,1.32,2.87,2.28,4.51,2.88,4.38,1.59,9.48.64,13-2.88l-8.49-8.48c-1.32-1.32-2.87-2.28-4.51-2.88Z"/>
        <path class="cls-1" d="M1469.2,14.14l8.49,8.48c4.84,4.83,12.67,4.83,17.51,0l-8.49-8.48c-4.83-4.83-12.67-4.83-17.51,0Z"/>
        <path class="cls-1" d="M1503.38,11.27c-4.38-1.59-9.48-.64-13,2.88l8.49,8.48c1.32,1.32,2.87,2.28,4.51,2.88,4.38,1.59,9.48.64,13-2.88l-8.49-8.48c-1.32-1.32-2.87-2.28-4.51-2.88Z"/>
        <path class="cls-1" d="M1511.57,14.14l8.49,8.48c4.83,4.83,12.67,4.83,17.51,0l-8.49-8.48c-4.84-4.83-12.67-4.83-17.51,0Z"/>
        <path class="cls-1" d="M1235.21,16.53l8.49,8.48c4.84,4.83,12.67,4.83,17.51,0l-8.49-8.48c-4.84-4.83-12.67-4.83-17.51,0Z"/>
        <path class="cls-1" d="M1269.39,12.46c-4.38-1.59-9.48-.64-13,2.88l8.49,8.48c1.32,1.32,2.87,2.28,4.51,2.88,4.38,1.59,9.48.64,13-2.88l-8.49-8.48c-1.32-1.32-2.87-2.28-4.51-2.88Z"/>
        <path class="cls-1" d="M1277.58,15.33l8.49,8.48c4.83,4.83,12.67,4.83,17.51,0l-8.49-8.48c-4.84-4.83-12.67-4.83-17.51,0Z"/>
        <path class="cls-1" d="M1311.76,12.46c-4.38-1.59-9.48-.64-13,2.88l8.49,8.48c1.32,1.32,2.87,2.28,4.51,2.88,4.38,1.59,9.48.64,13-2.88l-8.49-8.48c-1.32-1.32-2.87-2.28-4.51-2.88Z"/>
        <path class="cls-1" d="M1319.95,15.33l8.49,8.48c4.83,4.83,12.67,4.83,17.51,0l-8.49-8.48c-4.84-4.83-12.67-4.83-17.51,0Z"/>
        <path class="cls-1" d="M1354.14,12.46c-4.38-1.59-9.48-.64-13,2.88l8.49,8.48c1.32,1.32,2.87,2.28,4.51,2.88,4.38,1.59,9.48.64,13-2.88l-8.49-8.48c-1.32-1.32-2.87-2.28-4.51-2.88Z"/>
        <path class="cls-1" d="M1362.32,15.33l8.49,8.48c4.83,4.83,12.67,4.83,17.51,0l-8.49-8.48c-4.83-4.83-12.67-4.83-17.51,0Z"/>
      </g>
      <g>
        <path class="cls-1" d="M1085.47,17.15l8.49,8.48c4.84,4.83,12.67,4.83,17.51,0l-8.49-8.48c-4.84-4.83-12.67-4.83-17.51,0Z"/>
        <path class="cls-1" d="M1119.65,13.07c-4.38-1.59-9.48-.64-13,2.88l8.49,8.48c1.32,1.32,2.87,2.28,4.51,2.88,4.38,1.59,9.48.64,13-2.88l-8.49-8.48c-1.32-1.32-2.87-2.28-4.51-2.88Z"/>
        <path class="cls-1" d="M1127.84,15.95l8.49,8.48c4.84,4.83,12.67,4.83,17.51,0l-8.49-8.48c-4.83-4.83-12.67-4.83-17.51,0Z"/>
        <path class="cls-1" d="M1162.02,13.07c-4.38-1.59-9.48-.64-13,2.88l8.49,8.48c1.32,1.32,2.87,2.28,4.51,2.88,4.38,1.59,9.48.64,13-2.88l-8.49-8.48c-1.32-1.32-2.87-2.28-4.51-2.88Z"/>
        <path class="cls-1" d="M1170.21,15.95l8.49,8.48c4.84,4.83,12.67,4.83,17.51,0l-8.49-8.48c-4.83-4.83-12.67-4.83-17.51,0Z"/>
        <path class="cls-1" d="M1204.39,13.07c-4.38-1.59-9.48-.64-13,2.88l8.49,8.48c1.32,1.32,2.87,2.28,4.51,2.88,4.38,1.59,9.48.64,13-2.88l-8.49-8.48c-1.32-1.32-2.87-2.28-4.51-2.88Z"/>
        <path class="cls-1" d="M1212.58,15.95l8.49,8.48c4.83,4.83,12.67,4.83,17.51,0l-8.49-8.48c-4.84-4.83-12.67-4.83-17.51,0Z"/>
        <path class="cls-1" d="M936.22,18.34l8.49,8.48c4.84,4.83,12.67,4.83,17.51,0l-8.49-8.48c-4.84-4.83-12.67-4.83-17.51,0Z"/>
        <path class="cls-1" d="M970.41,14.26c-4.38-1.59-9.48-.64-13,2.88l8.49,8.48c1.32,1.32,2.87,2.28,4.51,2.88,4.38,1.59,9.48.64,13-2.88l-8.49-8.48c-1.32-1.32-2.87-2.28-4.51-2.88Z"/>
        <path class="cls-1" d="M978.6,17.14l8.49,8.48c4.83,4.83,12.67,4.83,17.51,0l-8.49-8.48c-4.84-4.83-12.67-4.83-17.51,0Z"/>
        <path class="cls-1" d="M1012.78,14.26c-4.38-1.59-9.48-.64-13,2.88l8.49,8.48c1.32,1.32,2.87,2.28,4.51,2.88,4.38,1.59,9.48.64,13-2.88l-8.49-8.48c-1.32-1.32-2.87-2.28-4.51-2.88Z"/>
        <path class="cls-1" d="M1020.97,17.14l8.49,8.48c4.83,4.83,12.67,4.83,17.51,0l-8.49-8.48c-4.84-4.83-12.67-4.83-17.51,0Z"/>
        <path class="cls-1" d="M1055.15,14.26c-4.38-1.59-9.48-.64-13,2.88l8.49,8.48c1.32,1.32,2.87,2.28,4.51,2.88,4.38,1.59,9.48.64,13-2.88l-8.49-8.48c-1.32-1.32-2.87-2.28-4.51-2.88Z"/>
        <path class="cls-1" d="M1063.34,17.14l8.49,8.48c4.83,4.83,12.67,4.83,17.51,0l-8.49-8.48c-4.83-4.83-12.67-4.83-17.51,0Z"/>
      </g>
      <g>
        <path class="cls-1" d="M787.48,19.14l8.49,8.48c4.84,4.83,12.67,4.83,17.51,0l-8.49-8.48c-4.84-4.83-12.67-4.83-17.51,0Z"/>
        <path class="cls-1" d="M821.67,15.07c-4.38-1.59-9.48-.64-13,2.88l8.49,8.48c1.32,1.32,2.87,2.28,4.51,2.88,4.38,1.59,9.48.64,13-2.88l-8.49-8.48c-1.32-1.32-2.87-2.28-4.51-2.88Z"/>
        <path class="cls-1" d="M829.85,17.94l8.49,8.48c4.84,4.83,12.67,4.83,17.51,0l-8.49-8.48c-4.83-4.83-12.67-4.83-17.51,0Z"/>
        <path class="cls-1" d="M864.04,15.07c-4.38-1.59-9.48-.64-13,2.88l8.49,8.48c1.32,1.32,2.87,2.28,4.51,2.88,4.38,1.59,9.48.64,13-2.88l-8.49-8.48c-1.32-1.32-2.87-2.28-4.51-2.88Z"/>
        <path class="cls-1" d="M872.23,17.94l8.49,8.48c4.84,4.83,12.67,4.83,17.51,0l-8.49-8.48c-4.83-4.83-12.67-4.83-17.51,0Z"/>
        <path class="cls-1" d="M906.41,15.07c-4.38-1.59-9.48-.64-13,2.88l8.49,8.48c1.32,1.32,2.87,2.28,4.51,2.88,4.38,1.59,9.48.64,13-2.88l-8.49-8.48c-1.32-1.32-2.87-2.28-4.51-2.88Z"/>
        <path class="cls-1" d="M914.6,17.94l8.49,8.48c4.83,4.83,12.67,4.83,17.51,0l-8.49-8.48c-4.84-4.83-12.67-4.83-17.51,0Z"/>
        <path class="cls-1" d="M638.24,20.33l8.49,8.48c4.84,4.83,12.67,4.83,17.51,0l-8.49-8.48c-4.84-4.83-12.67-4.83-17.51,0Z"/>
        <path class="cls-1" d="M672.42,16.26c-4.38-1.59-9.48-.64-13,2.88l8.49,8.48c1.32,1.32,2.87,2.28,4.51,2.88,4.38,1.59,9.48.64,13-2.88l-8.49-8.48c-1.32-1.32-2.87-2.28-4.51-2.88Z"/>
        <path class="cls-1" d="M680.61,19.13l8.49,8.48c4.83,4.83,12.67,4.83,17.51,0l-8.49-8.48c-4.84-4.83-12.67-4.83-17.51,0Z"/>
        <path class="cls-1" d="M714.8,16.26c-4.38-1.59-9.48-.64-13,2.88l8.49,8.48c1.32,1.32,2.87,2.28,4.51,2.88,4.38,1.59,9.48.64,13-2.88l-8.49-8.48c-1.32-1.32-2.87-2.28-4.51-2.88Z"/>
        <path class="cls-1" d="M722.98,19.13l8.49,8.48c4.83,4.83,12.67,4.83,17.51,0l-8.49-8.48c-4.84-4.83-12.67-4.83-17.51,0Z"/>
        <path class="cls-1" d="M757.17,16.26c-4.38-1.59-9.48-.64-13,2.88l8.49,8.48c1.32,1.32,2.87,2.28,4.51,2.88,4.38,1.59,9.48.64,13-2.88l-8.49-8.48c-1.32-1.32-2.87-2.28-4.51-2.88Z"/>
        <path class="cls-1" d="M765.35,19.13l8.49,8.48c4.83,4.83,12.67,4.83,17.51,0l-8.49-8.48c-4.83-4.83-12.67-4.83-17.51,0Z"/>
      </g>
      <g>
        <g>
          <path class="cls-1" d="M1556.85,18.96c-.05-.41-.2-.88-.43-1.39.09.51.23.97.43,1.39Z"/>
          <path class="cls-1" d="M1556.46,14.67c1.39,1.81,2.07,3.57,1.94,4.93-.04.37-.13.7-.29,1.01-.02.03-.03.06-.04.08,3.9,3.71,13.01,2.53,15.57,7.71.68-.95,1.3-1.93,1.86-2.91-1-.78-2.78-1.61-5.86-1.81-.35-.04-.62-.34-.6-.69.02-.36.33-.63.69-.61,3.19.21,5.17,1.08,6.39,1.95.75-1.45,1.36-2.93,1.84-4.42-1.21.01-2.75-.02-4.31-.18-.76-.07-1.53-.18-2.27-.31l-4.03-.72c-.36-.06-.59-.4-.53-.75.06-.35.4-.59.75-.53l4.03.73c2.45.44,5.06.5,6.73.45.57-2.16.83-4.34.75-6.51-1.32,1.07-3.31,2.26-5.95,2.59-3.84.47-4.9.49-5.24.46-.09,0-.14-.02-.16-.03-.34-.11-.52-.48-.4-.82.1-.3.41-.49.72-.43.12.01.93.02,4.92-.46,2.84-.35,4.89-1.89,5.99-2.93-.26-2.34-.95-4.64-2.09-6.82-1.57,2.35-4.86,5.3-11.77,7.54-.09.03-.18.03-.27.03-.25-.02-.47-.19-.55-.44-.11-.34.08-.71.42-.82,7.2-2.33,10.19-5.45,11.42-7.62-.49-.8-1.04-1.57-1.66-2.33-5.51,12.63-15.59,5.51-18.05,14.61.02.02.03.04.05.06Z"/>
        </g>
        <g>
          <path class="cls-1" d="M1547.75,14.13c-.09.25-.18.53-.24.83,2.86-.73,4.97-1.01,5.57-1.5-.24-.18-.48-.35-.71-.49-1.05-.66-2.07-.96-2.85-.79-.78.17-1.36.82-1.76,1.95Z"/>
          <path class="cls-1" d="M1539.27,18.03c.27-.1.57-.23.88-.39.71-.35,1.42-.67,2.1-.96-1.16.01-2.3.34-2.98,1.35Z"/>
          <path class="cls-1" d="M1536.96,17.24c.14.27.41.38.74.39l.02.12s.04-.08.06-.12c1.01-1.92,3.15-2.75,5.99-2.31.77-.28,1.51-.51,2.21-.71.66-2.81,2.1-3.7,3.19-3.95.56-.13,1.15-.12,1.74.02-2.49-3.32-5.33-4.27-8.3-2.72-2.68,1.39-4.62,4.26-5.41,6.51-.43,1.19-.53,2.22-.25,2.76Z"/>
          <path class="cls-1" d="M1547.46,15.18c-.07.2-.13.41-.18.61.27-.08.53-.15.79-.21.84-.21,1.61-.38,2.28-.52,1.78-.39,2.81-.62,3.31-1.12-.2-.17-.38-.33-.58-.47-.24-.18-.48-.35-.71-.49,0,0,.01.02.02.03-.46.19-1.46.41-2.37.6-.67.15-1.43.32-2.27.53-.09.25-.18.53-.24.83-.07.01-.15.04-.22.05.06.01.14.03.19.06t0,.01l-.02.09ZM1537.7,17.63l.02.12s.04-.08.06-.12c-.03,0-.06,0-.08,0ZM1538.84,18.95c.48-.12,1.03-.33,1.65-.64,1.17-.58,2.31-1.06,3.42-1.46-.52-.1-1.09-.17-1.65-.17-1.16.01-2.3.34-2.98,1.35-.15.21-.28.45-.38.72-.02.06-.05.13-.06.2Z"/>
        </g>
        <g>
          <path class="cls-1" d="M1555.35,21.8c.21-.2.41-.43.61-.68-.71-2.42-3.18-4.24-4.48-4.55-1.53-.37-3.31,1.32-4.02-.56-.03-.09-.1-.16-.18-.21-.09.38-.16.74-.19,1.09-.23,2.77,1.37,4.99,3.31,5.83,1.47.63,3.37.6,4.95-.92Z"/>
          <path class="cls-1" d="M1543.62,28.96c3.43,1.93,7.23.58,10.72-3.78.33-.41.58-.83.76-1.25-1.13.64-2.33.82-3.43.71-.67-.06-1.31-.24-1.88-.48-2.54-1.08-4.61-3.95-4.26-7.49-.57.13-1.07.24-1.48.2-.05,0-.1,0-.14-.02-.52-.1-1.09-.17-1.65-.17-1.16.01-2.3.34-2.98,1.35-.15.21-.28.45-.38.72-.02.06-.05.13-.06.2-.88,2.86,1.1,7.94,4.79,10.01Z"/>
          <path class="cls-1" d="M1537.93,19.1l.04.26c.02-.09.04-.19.06-.27-.04.01-.07,0-.1.01ZM1547.09,16.9c.77,1.06,2.02.74,2.8.55.43-.11.88-.22,1.24-.19.06,0,.11.02.16.03.98.24,3.19,1.78,3.89,3.85.07.22.13.44.16.66.21-.2.41-.43.61-.68.18-.23.35-.48.52-.76-.97-2.41-3.37-4.15-4.83-4.51-.75-.19-1.48,0-2.12.16-1.14.28-1.21.2-1.38-.26-.02-.06-.05-.12-.08-.17-.14-.26-.34-.42-.59-.5t0,.01l-.02.09c-.07.2-.13.41-.18.61,0,0-.02,0-.03,0,0,0,.01,0,.02,0-.09.38-.16.74-.19,1.09Z"/>
        </g>
        <g>
          <path class="cls-1" d="M1547.09,16.9c-.23,2.77,1.37,4.99,3.31,5.83,1.47.63,3.37.6,4.95-.92.21-.2.41-.43.61-.68.18-.23.35-.48.52-.76.09-.15.18-.3.26-.46.12-.24.15-.55.11-.92h0c-.05-.41-.2-.89-.43-1.4h0s0-.01,0-.02c-.29-.62-.68-1.27-1.19-1.93-.49-.63-1.02-1.2-1.57-1.68-.2-.17-.38-.33-.58-.47-.24-.18-.48-.35-.71-.49-1.05-.66-2.07-.96-2.85-.79-.78.17-1.36.82-1.76,1.95-.09.25-.18.53-.24.83-.07.01-.15.04-.22.05.06.01.14.03.19.06t0,.01l-.02.09c-.07.2-.13.41-.18.61,0,0-.02,0-.03,0,0,0,.01,0,.02,0-.09.38-.16.74-.19,1.09Z"/>
          <path class="cls-1" d="M1547.25,15.79s.01,0,.02,0c0,0,0,0,0-.01,0,0-.02,0-.03,0ZM1547.29,15.02c.06.01.14.03.19.06.01-.04.02-.08.03-.11-.07.01-.15.04-.22.05ZM1547.25,15.79s.01,0,.02,0c0,0,0,0,0-.01,0,0-.02,0-.03,0ZM1547.29,15.02c.06.01.14.03.19.06.01-.04.02-.08.03-.11-.07.01-.15.04-.22.05ZM1547.25,15.79s.01,0,.02,0c0,0,0,0,0-.01,0,0-.02,0-.03,0ZM1547.29,15.02c.06.01.14.03.19.06.01-.04.02-.08.03-.11-.07.01-.15.04-.22.05Z"/>
        </g>
      </g>
      <g>
        <g>
          <path class="cls-1" d="M22.26,30.49c.05-.41.2-.88.43-1.39-.09.51-.23.97-.43,1.39Z"/>
          <path class="cls-1" d="M22.64,26.2c-1.39,1.81-2.07,3.57-1.94,4.93.04.37.13.7.29,1.01.02.03.03.06.04.08-3.9,3.71-13.01,2.53-15.57,7.71-.68-.95-1.3-1.93-1.86-2.91,1-.78,2.78-1.61,5.86-1.81.35-.04.62-.34.6-.69-.02-.36-.33-.63-.69-.61-3.19.21-5.18,1.08-6.39,1.95-.75-1.45-1.36-2.93-1.84-4.42,1.21.01,2.75-.02,4.31-.18.76-.07,1.53-.18,2.27-.31l4.03-.72c.36-.06.59-.4.53-.75-.06-.35-.4-.59-.75-.53l-4.03.73c-2.45.44-5.06.5-6.73.45C.2,27.97-.06,25.79.01,23.63c1.32,1.07,3.31,2.26,5.95,2.59,3.84.47,4.9.49,5.24.46.09,0,.14-.02.16-.03.34-.11.52-.48.4-.82-.1-.3-.41-.49-.72-.43-.12.01-.93.02-4.92-.46-2.84-.35-4.89-1.89-5.99-2.93.26-2.34.95-4.64,2.09-6.82,1.57,2.35,4.86,5.3,11.77,7.54.09.03.18.03.27.03.25-.02.47-.19.55-.44.11-.34-.08-.71-.42-.82-7.2-2.33-10.19-5.45-11.42-7.62.49-.8,1.04-1.57,1.66-2.33,5.51,12.63,15.59,5.51,18.05,14.61-.02.02-.03.04-.05.06Z"/>
        </g>
        <g>
          <path class="cls-1" d="M31.35,25.67c.09.25.18.53.24.83-2.86-.73-4.97-1.01-5.57-1.5.24-.18.48-.35.71-.49,1.05-.66,2.07-.96,2.85-.79.78.17,1.36.82,1.77,1.95Z"/>
          <path class="cls-1" d="M39.83,29.56c-.27-.1-.57-.23-.88-.39-.71-.35-1.42-.67-2.1-.96,1.16.01,2.3.34,2.98,1.35Z"/>
          <path class="cls-1" d="M42.15,28.77c-.14.27-.41.38-.74.39l-.02.12s-.04-.08-.06-.12c-1.01-1.92-3.15-2.75-5.99-2.31-.77-.28-1.51-.51-2.21-.71-.66-2.81-2.1-3.7-3.19-3.95-.56-.13-1.15-.12-1.74.02,2.49-3.32,5.33-4.27,8.3-2.72,2.68,1.39,4.62,4.26,5.41,6.51.43,1.19.53,2.22.25,2.76Z"/>
          <path class="cls-1" d="M31.62,26.63s0,0,0-.01c.06-.03.13-.05.19-.06-.07-.01-.15-.04-.22-.05-.07-.3-.15-.58-.24-.83-.84-.2-1.6-.38-2.27-.53-.9-.2-1.9-.42-2.37-.6,0,0,.01-.02.02-.03-.23.15-.47.31-.71.49-.19.14-.38.3-.58.47.5.5,1.54.73,3.31,1.12.67.15,1.44.31,2.28.52.25.06.52.13.79.21-.04-.2-.1-.41-.18-.61l-.02-.09ZM41.32,29.16s.04.08.06.12l.02-.12s-.05,0-.08,0ZM40.21,30.28c-.1-.28-.22-.51-.38-.72-.68-1.01-1.82-1.34-2.98-1.35-.56,0-1.13.06-1.65.17,1.1.4,2.25.88,3.42,1.46.62.31,1.17.52,1.65.64-.01-.06-.04-.13-.06-.2Z"/>
        </g>
        <g>
          <path class="cls-1" d="M23.75,33.33c-.21-.2-.41-.43-.61-.68.71-2.42,3.18-4.24,4.48-4.55,1.53-.37,3.31,1.32,4.02-.56.03-.09.1-.16.18-.21.09.38.16.74.19,1.09.23,2.77-1.37,4.99-3.31,5.83-1.47.63-3.37.6-4.95-.92Z"/>
          <path class="cls-1" d="M35.48,40.49c-3.43,1.93-7.23.58-10.72-3.78-.33-.41-.58-.83-.76-1.25,1.13.64,2.33.82,3.43.71.67-.06,1.31-.24,1.88-.48,2.54-1.08,4.61-3.95,4.26-7.49.57.13,1.07.24,1.48.2.05,0,.1,0,.14-.02.52-.1,1.09-.17,1.65-.17,1.16.01,2.3.34,2.98,1.35.15.21.28.45.38.72.02.06.05.13.06.2.88,2.86-1.1,7.94-4.79,10.01Z"/>
          <path class="cls-1" d="M41.07,30.62c.02.09.05.18.06.27l.04-.26s-.07,0-.1-.01ZM31.83,27.34s.01,0,.02,0c0,0-.02,0-.03,0-.04-.2-.1-.41-.18-.61l-.02-.09s0,0,0-.01c-.25.08-.45.24-.59.5-.03.05-.06.11-.08.17-.17.46-.25.54-1.38.26-.64-.16-1.37-.35-2.12-.16-1.45.36-3.86,2.1-4.83,4.51.17.28.34.53.52.76.19.25.4.48.61.68.03-.21.09-.44.16-.66.7-2.08,2.91-3.61,3.89-3.85.06-.01.11-.02.16-.03.37-.04.81.08,1.24.19.79.19,2.04.51,2.8-.55-.03-.36-.09-.71-.19-1.09Z"/>
        </g>
        <g>
          <path class="cls-1" d="M32.02,28.43c.23,2.77-1.37,4.99-3.31,5.83-1.47.63-3.37.6-4.95-.92-.21-.2-.41-.43-.61-.68-.18-.23-.35-.48-.52-.76-.09-.15-.18-.3-.26-.46-.12-.24-.15-.55-.11-.92h0c.05-.41.2-.89.43-1.4h0s0-.01,0-.02c.29-.62.68-1.27,1.19-1.93.49-.63,1.02-1.2,1.57-1.68.2-.17.38-.33.58-.47.24-.18.48-.35.71-.49,1.05-.66,2.07-.96,2.85-.79.78.17,1.36.82,1.77,1.95.09.25.18.53.24.83.07.01.15.04.22.05-.06.01-.14.03-.19.06t0,.01l.02.09c.07.2.13.41.18.61,0,0,.02,0,.03,0,0,0-.01,0-.02,0,.09.38.16.74.19,1.09Z"/>
          <path class="cls-1" d="M31.82,27.32s0,.01,0,.01c0,0,.01,0,.02,0,0,0-.02,0-.03,0ZM31.59,26.5s.02.08.03.11c.06-.03.13-.05.19-.06-.07-.01-.15-.04-.22-.05ZM31.82,27.32s0,.01,0,.01c0,0,.01,0,.02,0,0,0-.02,0-.03,0ZM31.59,26.5s.02.08.03.11c.06-.03.13-.05.19-.06-.07-.01-.15-.04-.22-.05ZM31.82,27.32s0,.01,0,.01c0,0,.01,0,.02,0,0,0-.02,0-.03,0ZM31.59,26.5s.02.08.03.11c.06-.03.13-.05.19-.06-.07-.01-.15-.04-.22-.05Z"/>
        </g>
      </g>
      <g>
        <path class="cls-1" d="M490.27,21.83l8.49,8.48c4.84,4.83,12.67,4.83,17.51,0l-8.49-8.48c-4.84-4.83-12.67-4.83-17.51,0Z"/>
        <path class="cls-1" d="M524.45,17.75c-4.38-1.59-9.48-.64-13,2.88l8.49,8.48c1.32,1.32,2.87,2.28,4.51,2.88,4.38,1.59,9.48.64,13-2.88l-8.49-8.48c-1.32-1.32-2.87-2.28-4.51-2.88Z"/>
        <path class="cls-1" d="M532.64,20.62l8.49,8.48c4.84,4.83,12.67,4.83,17.51,0l-8.49-8.48c-4.83-4.83-12.67-4.83-17.51,0Z"/>
        <path class="cls-1" d="M566.82,17.75c-4.38-1.59-9.48-.64-13,2.88l8.49,8.48c1.32,1.32,2.87,2.28,4.51,2.88,4.38,1.59,9.48.64,13-2.88l-8.49-8.48c-1.32-1.32-2.87-2.28-4.51-2.88Z"/>
        <path class="cls-1" d="M575.01,20.62l8.49,8.48c4.84,4.83,12.67,4.83,17.51,0l-8.49-8.48c-4.83-4.83-12.67-4.83-17.51,0Z"/>
        <path class="cls-1" d="M609.19,17.75c-4.38-1.59-9.48-.64-13,2.88l8.49,8.48c1.32,1.32,2.87,2.28,4.51,2.88,4.38,1.59,9.48.64,13-2.88l-8.49-8.48c-1.32-1.32-2.87-2.28-4.51-2.88Z"/>
        <path class="cls-1" d="M617.38,20.62l8.49,8.48c4.83,4.83,12.67,4.83,17.51,0l-8.49-8.48c-4.84-4.83-12.67-4.83-17.51,0Z"/>
        <path class="cls-1" d="M341.02,23.02l8.49,8.48c4.84,4.83,12.67,4.83,17.51,0l-8.49-8.48c-4.84-4.83-12.67-4.83-17.51,0Z"/>
        <path class="cls-1" d="M375.21,18.94c-4.38-1.59-9.48-.64-13,2.88l8.49,8.48c1.32,1.32,2.87,2.28,4.51,2.88,4.38,1.59,9.48.64,13-2.88l-8.49-8.48c-1.32-1.32-2.87-2.28-4.51-2.88Z"/>
        <path class="cls-1" d="M383.4,21.81l8.49,8.48c4.83,4.83,12.67,4.83,17.51,0l-8.49-8.48c-4.84-4.83-12.67-4.83-17.51,0Z"/>
        <path class="cls-1" d="M417.58,18.94c-4.38-1.59-9.48-.64-13,2.88l8.49,8.48c1.32,1.32,2.87,2.28,4.51,2.88,4.38,1.59,9.48.64,13-2.88l-8.49-8.48c-1.32-1.32-2.87-2.28-4.51-2.88Z"/>
        <path class="cls-1" d="M425.77,21.81l8.49,8.48c4.83,4.83,12.67,4.83,17.51,0l-8.49-8.48c-4.84-4.83-12.67-4.83-17.51,0Z"/>
        <path class="cls-1" d="M459.95,18.94c-4.38-1.59-9.48-.64-13,2.88l8.49,8.48c1.32,1.32,2.87,2.28,4.51,2.88,4.38,1.59,9.48.64,13-2.88l-8.49-8.48c-1.32-1.32-2.87-2.28-4.51-2.88Z"/>
        <path class="cls-1" d="M468.14,21.81l8.49,8.48c4.83,4.83,12.67,4.83,17.51,0l-8.49-8.48c-4.83-4.83-12.67-4.83-17.51,0Z"/>
      </g>
      <g>
        <path class="cls-1" d="M192.91,24.18l8.49,8.48c4.84,4.83,12.67,4.83,17.51,0l-8.49-8.48c-4.84-4.83-12.67-4.83-17.51,0Z"/>
        <path class="cls-1" d="M227.09,20.1c-4.38-1.59-9.48-.64-13,2.88l8.49,8.48c1.32,1.32,2.87,2.28,4.51,2.88,4.38,1.59,9.48.64,13-2.88l-8.49-8.48c-1.32-1.32-2.87-2.28-4.51-2.88Z"/>
        <path class="cls-1" d="M235.28,22.98l8.49,8.48c4.84,4.83,12.67,4.83,17.51,0l-8.49-8.48c-4.83-4.83-12.67-4.83-17.51,0Z"/>
        <path class="cls-1" d="M269.46,20.1c-4.38-1.59-9.48-.64-13,2.88l8.49,8.48c1.32,1.32,2.87,2.28,4.51,2.88,4.38,1.59,9.48.64,13-2.88l-8.49-8.48c-1.32-1.32-2.87-2.28-4.51-2.88Z"/>
        <path class="cls-1" d="M277.65,22.98l8.49,8.48c4.84,4.83,12.67,4.83,17.51,0l-8.49-8.48c-4.83-4.83-12.67-4.83-17.51,0Z"/>
        <path class="cls-1" d="M311.84,20.1c-4.38-1.59-9.48-.64-13,2.88l8.49,8.48c1.32,1.32,2.87,2.28,4.51,2.88,4.38,1.59,9.48.64,13-2.88l-8.49-8.48c-1.32-1.32-2.87-2.28-4.51-2.88Z"/>
        <path class="cls-1" d="M320.02,22.98l8.49,8.48c4.83,4.83,12.67,4.83,17.51,0l-8.49-8.48c-4.84-4.83-12.67-4.83-17.51,0Z"/>
        <path class="cls-1" d="M43.67,25.37l8.49,8.48c4.84,4.83,12.67,4.83,17.51,0l-8.49-8.48c-4.84-4.83-12.67-4.83-17.51,0Z"/>
        <path class="cls-1" d="M77.85,21.29c-4.38-1.59-9.48-.64-13,2.88l8.49,8.48c1.32,1.32,2.87,2.28,4.51,2.88,4.38,1.59,9.48.64,13-2.88l-8.49-8.48c-1.32-1.32-2.87-2.28-4.51-2.88Z"/>
        <path class="cls-1" d="M86.04,24.17l8.49,8.48c4.83,4.83,12.67,4.83,17.51,0l-8.49-8.48c-4.84-4.83-12.67-4.83-17.51,0Z"/>
        <path class="cls-1" d="M120.22,21.29c-4.38-1.59-9.48-.64-13,2.88l8.49,8.48c1.32,1.32,2.87,2.28,4.51,2.88,4.38,1.59,9.48.64,13-2.88l-8.49-8.48c-1.32-1.32-2.87-2.28-4.51-2.88Z"/>
        <path class="cls-1" d="M128.41,24.17l8.49,8.48c4.83,4.83,12.67,4.83,17.51,0l-8.49-8.48c-4.84-4.83-12.67-4.83-17.51,0Z"/>
        <path class="cls-1" d="M162.59,21.29c-4.38-1.59-9.48-.64-13,2.88l8.49,8.48c1.32,1.32,2.87,2.28,4.51,2.88,4.38,1.59,9.48.64,13-2.88l-8.49-8.48c-1.32-1.32-2.87-2.28-4.51-2.88Z"/>
        <path class="cls-1" d="M170.78,24.17l8.49,8.48c4.83,4.83,12.67,4.83,17.51,0l-8.49-8.48c-4.83-4.83-12.67-4.83-17.51,0Z"/>
      </g>
    </g>
  </g>
</svg>