<?xml version="1.0" encoding="UTF-8"?>
<svg id="Layer_2" data-name="Layer 2" xmlns="http://www.w3.org/2000/svg" viewBox="0 0 109 109">
  <defs>
    <style>
      .cls-1 {
        fill: #000b8f;
      }

      .cls-2 {
        fill: #d40026;
      }

      .cls-3 {
        fill: #fff;
      }
    </style>
  </defs>
  <g id="flags">
    <g id="USA">
      <g id="circle">
        <path class="cls-3" d="M54.53,16.77h39.28c-3.07-3.19-6.51-6.01-10.28-8.39h-29.01v8.39Z"/>
        <path class="cls-2" d="M83.53,8.39C75.13,3.09,65.19,0,54.53,0v8.39h29.01Z"/>
        <path class="cls-2" d="M54.53,25.15h45.89c-1.93-3.01-4.14-5.82-6.61-8.38h-39.28v8.38Z"/>
        <path class="cls-3" d="M54.53,33.54h50.29c-1.22-2.94-2.71-5.74-4.4-8.38h-45.89v8.38Z"/>
        <path class="cls-2" d="M54.53,41.92h53c-.68-2.89-1.59-5.69-2.71-8.38h-50.29v8.38Z"/>
        <path class="cls-3" d="M54.53,50.31h54.3c-.22-2.86-.66-5.66-1.3-8.38h-53v8.38Z"/>
        <path class="cls-2" d="M54.53,58.69h54.3c.11-1.39.18-2.78.18-4.19s-.07-2.81-.18-4.19h-54.3v8.38Z"/>
        <path class="cls-3" d="M108.82,58.69h-54.3s-54.35,0-54.35,0c.22,2.86.66,5.66,1.3,8.38h106.05c.64-2.72,1.08-5.52,1.3-8.38Z"/>
        <path class="cls-2" d="M83.53,100.62H25.47c8.41,5.3,18.35,8.38,29.03,8.38h0c10.67,0,20.62-3.08,29.03-8.38Z"/>
        <path class="cls-2" d="M107.53,67.08H1.47c.68,2.89,1.59,5.69,2.71,8.38h100.63c1.12-2.69,2.03-5.5,2.71-8.38Z"/>
        <path class="cls-3" d="M104.82,75.46H4.18c1.22,2.94,2.71,5.74,4.4,8.38h91.83c1.7-2.65,3.18-5.45,4.4-8.38Z"/>
        <path class="cls-2" d="M100.41,83.85H8.59c1.93,3.01,4.14,5.82,6.61,8.38h78.61c2.46-2.57,4.68-5.37,6.61-8.38Z"/>
        <path class="cls-3" d="M93.81,92.23H15.19c3.07,3.19,6.51,6.01,10.28,8.39h58.06c3.76-2.37,7.21-5.19,10.28-8.39Z"/>
        <path class="cls-1" d="M33.36,4.26c-.65.27-1.29.57-1.93.87h1.65l.28-.87Z"/>
        <path class="cls-1" d="M54.53,58.69V0s-.02,0-.02,0h0c-7.18,0-14.04,1.4-20.32,3.93l.39,1.19h2.41l-1.95,1.42.75,2.3-1.95-1.42-1.95,1.42.75-2.3-1.66-1.21c-8.29,3.98-15.42,10-20.74,17.41h2.11l.75-2.3.75,2.3h2.41l-1.95,1.42.75,2.3-1.95-1.42-1.95,1.42.75-2.3-1.75-1.27c-1.2,1.68-2.31,3.43-3.31,5.24l.15.47h2.41l-1.95,1.42.75,2.3-1.95-1.42-1.26.91c-2.07,4.51-3.55,9.34-4.33,14.41h1.8l-1.95,1.42.75,2.3-.96-.7c-.17,1.73-.26,3.48-.26,5.26,0,1.41.07,2.81.18,4.19h54.35ZM16.85,40.34h2.41l.75-2.3.75,2.3h2.41l-1.95,1.42.75,2.3-1.95-1.42-1.95,1.42.75-2.3-1.95-1.42ZM21.97,32.32l-1.95-1.42-1.95,1.42.75-2.3-1.95-1.42h2.41l.75-2.3.75,2.3h2.41l-1.95,1.42.75,2.3ZM33.07,28.6l.75-2.3.75,2.3h2.41l-1.95,1.42.75,2.3-1.95-1.42-1.95,1.42.75-2.3-1.95-1.42h2.41ZM34.57,52.08h2.41l-1.95,1.42.75,2.3-1.95-1.42-1.95,1.42.75-2.3-1.95-1.42h2.41l.75-2.3.75,2.3ZM26.13,46.22l.75-2.3.75,2.3h2.41l-1.95,1.42.75,2.3-1.95-1.42-1.95,1.42.75-2.3-1.95-1.42h2.41ZM42.64,49.94l-1.95-1.42-1.95,1.42.75-2.3-1.95-1.42h2.41l.75-2.3.75,2.3h2.41l-1.95,1.42.75,2.3ZM35.77,44.05l-1.95-1.42-1.95,1.42.75-2.3-1.95-1.42h2.41l.75-2.3.75,2.3h2.41l-1.95,1.42.75,2.3ZM27.63,34.49h2.41l-1.95,1.42.75,2.3-1.95-1.42-1.95,1.42.75-2.3-1.95-1.42h2.41l.75-2.3.75,2.3ZM12.33,46.22l.75-2.3.75,2.3h2.41l-1.95,1.42.75,2.3-1.95-1.42-1.95,1.42.75-2.3-1.95-1.42h2.41ZM19.27,52.08l.75-2.3.75,2.3h2.41l-1.95,1.42.75,2.3-1.95-1.42-1.95,1.42.75-2.3-1.95-1.42h2.41ZM48.37,52.08h2.41l-1.95,1.42.75,2.3-1.95-1.42-1.95,1.42.75-2.3-1.95-1.42h2.41l.75-2.3.75,2.3ZM49.58,44.05l-1.95-1.42-1.95,1.42.75-2.3-1.95-1.42h2.41l.75-2.3.75,2.3h2.41l-1.95,1.42.75,2.3ZM41.43,34.49h2.41l-1.95,1.42.75,2.3-1.95-1.42-1.95,1.42.75-2.3-1.95-1.42h2.41l.75-2.3.75,2.3ZM49.58,32.32l-1.95-1.42-1.95,1.42.75-2.3-1.95-1.42h2.41l.75-2.3.75,2.3h2.41l-1.95,1.42.75,2.3ZM42.64,26.46l-1.95-1.42-1.95,1.42.75-2.3-1.95-1.42h2.41l.75-2.3.75,2.3h2.41l-1.95,1.42.75,2.3ZM33.07,16.86l.75-2.3.75,2.3h2.41l-1.95,1.42.75,2.3-1.95-1.42-1.95,1.42.75-2.3-1.95-1.42h2.41ZM42.64,14.72l-1.95-1.42-1.95,1.42.75-2.3-1.95-1.42h2.41l.75-2.3.75,2.3h2.41l-1.95,1.42.75,2.3ZM48.37,16.86h2.41l-1.95,1.42.75,2.3-1.95-1.42-1.95,1.42.75-2.3-1.95-1.42h2.41l.75-2.3.75,2.3ZM44.47,5.12h2.41l.75-2.3.75,2.3h2.41l-1.95,1.42.75,2.3-1.95-1.42-1.95,1.42.75-2.3-1.95-1.42ZM26.13,11.01l.75-2.3.75,2.3h2.41l-1.95,1.42.75,2.3-1.95-1.42-1.95,1.42.75-2.3-1.95-1.42h2.41ZM20.01,14.56l.75,2.3h2.41l-1.95,1.42.75,2.3-1.95-1.42-1.95,1.42.75-2.3-1.95-1.42h2.41l.75-2.3ZM25.67,24.17l-1.95-1.42h2.41l.75-2.3.75,2.3h2.41l-1.95,1.42.75,2.3-1.95-1.42-1.95,1.42.75-2.3ZM13.07,32.19l.75,2.3h2.41l-1.95,1.42.75,2.3-1.95-1.42-1.95,1.42.75-2.3-1.95-1.42h2.41l.75-2.3ZM3.05,40.34h2.41l.75-2.3.75,2.3h2.41l-1.95,1.42.75,2.3-1.95-1.42-1.95,1.42.75-2.3-1.95-1.42ZM6.21,49.78l.75,2.3h2.41l-1.95,1.42.75,2.3-1.95-1.42-1.95,1.42.75-2.3-1.95-1.42h2.41l.75-2.3Z"/>
        <polygon class="cls-3" points="24.93 14.72 26.88 13.31 28.83 14.72 28.09 12.43 30.04 11.01 27.63 11.01 26.88 8.71 26.13 11.01 23.72 11.01 25.67 12.43 24.93 14.72"/>
        <polygon class="cls-3" points="41.43 11.01 40.69 8.71 39.94 11.01 37.53 11.01 39.48 12.43 38.73 14.72 40.69 13.31 42.64 14.72 41.89 12.43 43.85 11.01 41.43 11.01"/>
        <path class="cls-3" d="M11.12,26.46l1.95-1.42,1.95,1.42-.75-2.3,1.95-1.42h-2.41l-.75-2.3-.75,2.3h-2.11s-.07.1-.1.15l1.75,1.27-.75,2.3Z"/>
        <polygon class="cls-3" points="26.88 25.04 28.83 26.46 28.09 24.17 30.04 22.75 27.63 22.75 26.88 20.45 26.13 22.75 23.72 22.75 25.67 24.17 24.93 26.46 26.88 25.04"/>
        <polygon class="cls-3" points="43.85 22.75 41.43 22.75 40.69 20.45 39.94 22.75 37.53 22.75 39.48 24.17 38.73 26.46 40.69 25.04 42.64 26.46 41.89 24.17 43.85 22.75"/>
        <polygon class="cls-3" points="9.91 34.49 11.87 35.91 11.12 38.2 13.07 36.78 15.03 38.2 14.28 35.91 16.24 34.49 13.82 34.49 13.07 32.19 12.33 34.49 9.91 34.49"/>
        <polygon class="cls-3" points="26.88 32.19 26.13 34.49 23.72 34.49 25.67 35.91 24.93 38.2 26.88 36.78 28.83 38.2 28.09 35.91 30.04 34.49 27.63 34.49 26.88 32.19"/>
        <polygon class="cls-3" points="39.94 34.49 37.53 34.49 39.48 35.91 38.73 38.2 40.69 36.78 42.64 38.2 41.89 35.91 43.85 34.49 41.43 34.49 40.69 32.19 39.94 34.49"/>
        <path class="cls-3" d="M.47,47.64l1.95-1.42H.62c-.15,1-.27,2-.37,3.02l.96.7-.75-2.3Z"/>
        <polygon class="cls-3" points="11.12 49.94 13.07 48.52 15.03 49.94 14.28 47.64 16.24 46.22 13.82 46.22 13.07 43.93 12.33 46.22 9.91 46.22 11.87 47.64 11.12 49.94"/>
        <polygon class="cls-3" points="24.93 49.94 26.88 48.52 28.83 49.94 28.09 47.64 30.04 46.22 27.63 46.22 26.88 43.93 26.13 46.22 23.72 46.22 25.67 47.64 24.93 49.94"/>
        <polygon class="cls-3" points="41.43 46.22 40.69 43.93 39.94 46.22 37.53 46.22 39.48 47.64 38.73 49.94 40.69 48.52 42.64 49.94 41.89 47.64 43.85 46.22 41.43 46.22"/>
        <path class="cls-3" d="M31.87,8.84l1.95-1.42,1.95,1.42-.75-2.3,1.95-1.42h-2.41l-.39-1.19c-.27.11-.55.21-.82.32l-.28.87h-1.65c-.16.07-.32.14-.47.21l1.66,1.21-.75,2.3Z"/>
        <polygon class="cls-3" points="45.67 8.84 47.63 7.42 49.58 8.84 48.83 6.54 50.79 5.12 48.37 5.12 47.63 2.83 46.88 5.12 44.47 5.12 46.42 6.54 45.67 8.84"/>
        <polygon class="cls-3" points="16.85 16.86 18.81 18.28 18.06 20.58 20.01 19.16 21.97 20.58 21.22 18.28 23.17 16.86 20.76 16.86 20.01 14.56 19.27 16.86 16.85 16.86"/>
        <polygon class="cls-3" points="31.87 20.58 33.82 19.16 35.77 20.58 35.03 18.28 36.98 16.86 34.57 16.86 33.82 14.56 33.07 16.86 30.66 16.86 32.61 18.28 31.87 20.58"/>
        <polygon class="cls-3" points="46.88 16.86 44.47 16.86 46.42 18.28 45.67 20.58 47.63 19.16 49.58 20.58 48.83 18.28 50.79 16.86 48.37 16.86 47.63 14.56 46.88 16.86"/>
        <path class="cls-3" d="M8.16,32.32l-.75-2.3,1.95-1.42h-2.41l-.15-.47c-.66,1.2-1.28,2.43-1.85,3.68l1.26-.91,1.95,1.42Z"/>
        <polygon class="cls-3" points="20.76 28.6 20.01 26.3 19.27 28.6 16.85 28.6 18.81 30.02 18.06 32.32 20.01 30.9 21.97 32.32 21.22 30.02 23.17 28.6 20.76 28.6"/>
        <polygon class="cls-3" points="31.87 32.32 33.82 30.9 35.77 32.32 35.03 30.02 36.98 28.6 34.57 28.6 33.82 26.3 33.07 28.6 30.66 28.6 32.61 30.02 31.87 32.32"/>
        <polygon class="cls-3" points="48.37 28.6 47.63 26.3 46.88 28.6 44.47 28.6 46.42 30.02 45.67 32.32 47.63 30.9 49.58 32.32 48.83 30.02 50.79 28.6 48.37 28.6"/>
        <polygon class="cls-3" points="4.25 44.05 6.21 42.63 8.16 44.05 7.41 41.76 9.37 40.34 6.95 40.34 6.21 38.04 5.46 40.34 3.05 40.34 5 41.76 4.25 44.05"/>
        <polygon class="cls-3" points="18.06 44.05 20.01 42.63 21.97 44.05 21.22 41.76 23.17 40.34 20.76 40.34 20.01 38.04 19.27 40.34 16.85 40.34 18.81 41.76 18.06 44.05"/>
        <polygon class="cls-3" points="34.57 40.34 33.82 38.04 33.07 40.34 30.66 40.34 32.61 41.76 31.87 44.05 33.82 42.63 35.77 44.05 35.03 41.76 36.98 40.34 34.57 40.34"/>
        <polygon class="cls-3" points="50.79 40.34 48.37 40.34 47.63 38.04 46.88 40.34 44.47 40.34 46.42 41.76 45.67 44.05 47.63 42.63 49.58 44.05 48.83 41.76 50.79 40.34"/>
        <polygon class="cls-3" points="3.05 52.08 5 53.5 4.25 55.79 6.21 54.37 8.16 55.79 7.41 53.5 9.37 52.08 6.95 52.08 6.21 49.78 5.46 52.08 3.05 52.08"/>
        <polygon class="cls-3" points="18.06 55.79 20.01 54.37 21.97 55.79 21.22 53.5 23.17 52.08 20.76 52.08 20.01 49.78 19.27 52.08 16.85 52.08 18.81 53.5 18.06 55.79"/>
        <polygon class="cls-3" points="33.07 52.08 30.66 52.08 32.61 53.5 31.87 55.79 33.82 54.37 35.77 55.79 35.03 53.5 36.98 52.08 34.57 52.08 33.82 49.78 33.07 52.08"/>
        <polygon class="cls-3" points="46.88 52.08 44.47 52.08 46.42 53.5 45.67 55.79 47.63 54.37 49.58 55.79 48.83 53.5 50.79 52.08 48.37 52.08 47.63 49.78 46.88 52.08"/>
      </g>
    </g>
  </g>
</svg>