<?xml version="1.0" encoding="UTF-8"?>
<svg id="Layer_2" data-name="Layer 2" xmlns="http://www.w3.org/2000/svg" viewBox="0 0 1927.07 1300">
  <defs>
    <style>
      .kobe {
        fill: #f02711;
      }
    </style>
  </defs>
  <g id="wagyu" data-name="wagyu">
    <path class="kobe" d="M1534.88,863.38c2.01,10.4,22.95,42.51,31.11,49.29,6.38,5.3,11.84,11.93,17.28,18.15,7.56,8.64,14.91,17.48,22.11,26.44,5.22,6.5,10.54,13.01,15.23,19.91,8.05,11.85,12.72,25.69,15.3,39.69,3.9,21.22,2.67,42.4-.09,63.63-2.75,21.18-5.65,42.42-9.62,63.42-2.51,13.29-9.17,24.64-15.46,36.53-9.17,17.33-18.26,36.19-30.85,51.36-4.1,4.94-18.77,15.28-10.76,22.45,4.01,3.59,12.26,2.99,17.21,3.31,19.56,1.25,39.47,1.45,59.04.23,1.99-.12,5.6.2,7.06-1.14,1.96-1.8,2.93-6.68,3.82-9.08,3.51-9.43,6.68-19.01,9.6-28.64.8-2.63,1.58-5.24,2.12-7.93-.42,2.07-.83,4.14-1.25,6.21,8.11.97,16.23,1.95,24.34,2.92.89-19.33,1.78-38.65,2.68-57.98.05-1.18-.22-3.1.2-4.23.55-1.51-.34-.4,1.31-1.57.75-.53,2.87-.63,3.44-1.37.83-1.09.34-5.63.36-7,.08-5.74-.06-11.49-.2-17.23-.16-6.81-1.36-15.4,1.53-21.82,2.72-6.02,5.03-11.84,6.75-18.28,1.83-6.87,2.6-13.62,3.74-20.57,1.41-8.56,5.25-16.6,6.48-25.2-1.15,28.61-2.95,57.21-4.63,85.8-1.29,22.02-.45,44.87-7.78,65.88-5.45,15.61-11.72,31.58-20.35,45.74-4.78,7.84-11.19,14.25-14.61,22.97-2.56,6.53-5.01,16.42-2.9,23.48,1.82,6.07,12.28,4.4,16.93,4.4,7.63,0,15.26,0,22.89,0h25.04c2.93,0,7.31.78,10.08-.22,2.44-.88,4.94-3.21,7.1-4.62,3.09-2.01,6.17-4.01,9.26-6.02,2.65-1.72,2.65-1.5,2.51-4.61-.2-4.39.33-8.84.92-13.18,1.23-9.04,3.12-18.03,5.42-26.87.67-2.59,1.21-5.48,2.34-7.94,2.24-4.85,7.42-4.65,12.04-3.73,0-15.32-1.93-30.66-4.07-45.8-2-14.11-.93-29.05-.27-43.21.67-14.51,3.06-28.91,3.27-43.43.23-16.39-.72-32.82.35-49.19.42-6.51,1-13.29,3.19-19.48,2.91-8.23,8.4-15.43,11.62-23.57,2.34-5.93,2.08-11.18,2.51-17.33.36-5.11,1.82-10.24,3.15-15.16,3.75-13.85,8.54-27.54,14.36-40.66,2.36-5.33,4.85-10.78,8.23-15.56.47-.66,1.47-1.56,1.78-2.3.59-1.41.39-.82-.18-2.49-.91-2.68-2.34-5.27-3.4-7.91-10.83-26.91-18.76-54.98-27.52-82.6-4.27-13.45-9.61-26.81-6.92-41.21,1.81-9.71,7.8-16.81,12.96-24.91,5.25-8.23,9.97-16.79,14.34-25.52,18.32-36.55,32.59-76.78,41.01-116.81,3.78-17.97,5.95-36.38,8.52-54.54,6.8-47.9,14.25-96.11,17.97-144.37.17-2.21.35-4.42.35-6.64-.14,17.26-.27,34.53-.41,51.79-.31,38.57-.61,77.15-.92,115.72l-.98,123.16c-.19,24.26-.38,48.52-.58,72.79-.01,1.47-.02,2.94-.08,4.41-.78,17.57.13,34.79,3.53,52.08,5.41,27.52,17.06,54.01,19.28,82.12.52,6.59.44,13.22-.36,19.78,16.4-38.94,26.52-83.36,24.45-125.77-.41-8.46-1.4-16.98-3.58-25.18-2.4-8.99-6.79-17.29-10.16-25.93-7.17-18.42-10.3-36.85-10.65-56.57-.84-47.54.7-95.22,1.36-142.75.69-48.9.63-97.96,3.08-146.81.69-13.85,1.84-27.54,1.03-41.43-1.08-18.77-4.61-37.46-11.25-55.08-11.34-30.07-31.95-56.12-59.51-72.86-26.3-15.97-57.42-22.88-88.03-21-21.18,1.3-42.35,4.28-63.5,6.1-55.97,4.81-112.04,8.37-168.12,11.58-70.1,4.01-140.24,7.32-210.4,10.18-75.37,3.07-150.77,5.62-226.18,7.62-73.12,1.94-146.25,3.38-219.39,4.02-61.74.54-123.5.6-185.23-.74-12.55-.27-25.1-.61-37.65-1.03-21.54,0-43.19-1.8-64.64-3.6-21.39-1.8-42.63-3.99-63.55-8.86-22.55-5.26-45.16-10.21-67.74-15.32-5.14-1.16-12.42-1.54-16.87-4.69-5.68-4.01-4-9.28-1.11-14.45,3.45-6.17,6.06-12.86,8.21-19.58,4.39-13.75,8.94-32.29,1.41-45.78-2.55-4.57-6.74-8.22-12.18-8.31-5.81-.1-10.4,3.5-14.75,6.88-15.63,12.15-32.71,23.33-49.87,33.19-3.5,2.01-5.29,2.65-9.45,2.64-7.29-.02-14.64.02-21.92-.64-2.92-.26-3.17-.35-2.94-3.22.17-2.23.62-4.44,1.04-6.62,1.12-5.8,2.41-11.57,3.26-17.43,1.99-13.78,1.85-28.69-5.74-40.89-7.19-11.56-15.69-22.24-22.61-34.01-5.52-9.39-11.97-20.01-11.99-31.21,0-3.71-.8-10.34-6.16-8.89-5.26,1.42-8.02,8.99-9.03,13.63-2.58,11.92.51,25.43,3.51,37,2.73,10.52,7.86,19.77,11.07,30.05,2.22,7.09,3.53,15.23.58,22.32-4.96-3.31-7.72-10.94-10.21-16.05-4.14-8.49-7.95-17.15-12.49-25.44-4.16-7.6-8.74-13.91-15.31-19.53-7.81-6.67-13.57-15.55-17.31-25.07-2.93-7.46-4.92-15.71-4.63-23.77.1-2.78.57-5.35,1.54-7.95,1.23-3.3,4.43-10.15.46-12.99-6.94-4.96-17.21,12.62-19.48,17.12-4.47,8.86-6.14,18.84-5.74,28.7.36,8.62,2.21,17.19,5.16,25.28,2.1,5.75,5.31,10.91,7.6,16.55,6.59,16.22,10.59,35.19,10.98,52.7.05,2.39.57,6.67-.64,8.86-.87,1.57-2.25,1.39-4.11,1.99-2.63.84-5.16,2.03-7.51,3.48-6.75,4.15-11.28,11.1-16.9,16.6-6.57,6.43-13.48,12.56-20.64,18.32-2.93,2.36-5.91,4.7-9.05,6.78-2.59,1.72-5.52,2.88-7.9,4.89-7.39,6.27-12.04,15.89-17.16,23.94-2.94,4.64-6.29,8.92-9.62,13.27-9.22,12.02-18.4,24.06-27.56,36.12-7.55,9.92-15.11,19.84-22.53,29.85-4.51,6.09-9.69,11.69-15.2,16.89-6.16,5.82-12.07,9.3-19.75,12.57-15.36,6.55-35.01,13.39-44.59,28.05-6.2,9.48-5.1,19.79-2.59,30.31,2.51,10.51,6.41,21.04,12.43,30.07,10.59,15.87,31.92,22.96,50.29,24.12,8.31.53,16.66-1.37,25.05-1.15,9.12.24,18.19,1.16,26.83,4.14,18.14,6.26,37.66,4.3,56.41,6.29,8.98.95,19.31,2.16,27.3,6.72,2.87,1.64,5.11,4.13,7.93,5.88,4.33,2.7,9.08,4.78,13.83,6.62,8.79,3.42,17.97,6.08,27.42,6.51,11.41.52,22.79.47,33.85,3.75,9.83,2.91,18.36,8.49,26.77,14.17,8.64,5.84,17.06,12.01,25.28,18.42,13.85,10.81,27.9,22.22,37.94,36.81,6.12,8.89,10.18,18.28,11.28,29.05.55,5.37,1.64,10.7,2.71,15.98,6.52,32.28,14.1,65.27,25.15,96.33,11.08,31.12,19.41,63.49,25.43,95.97,1.13,6.09,1.5,12.26,2.56,18.33,2.02,11.55,8.85,22.07,15.87,31.21,9.82,12.79,21.94,23.05,34.14,33.5,10.91,9.34,21.95,18.53,32.61,28.15,11.81,10.65,29.77,15.01,45.13,16.43,6.19.57,12.42.64,18.62.24.97-.06,4.24-.85,5.05-.43.75.39,1.89,2.78,2.42,3.5,2.04,2.74,4.29,5.31,6.47,7.94,2.89,3.48,5.86,6.97,7.11,11.39,1.3,4.59,1.85,9.48,2.41,14.21,1,8.42.59,16.49,3.67,24.5,3.11,8.11,7.21,15.78,10.88,23.64,3.03,6.49,3.18,13.8,3.46,20.86.33,8.54.43,17.21-.33,25.73-1.06,11.89-2.99,23.76-4.62,35.58-2.06,14.96-4.12,29.94-6.52,44.85-.59,3.67-.93,7.57-2.39,11.02-2.97,6.97-7.77,13.42-12.03,19.63-9.73,14.21-20.63,27.4-30.94,41.16-5.87,7.84-25.06,29.53-10.05,37.54,16.72,8.92,42.22,10.19,58.74.07,13.08-8.01,25.88-16.52,38.8-24.78,3.07-1.96,6.14-3.93,9.22-5.89,1.81-1.15,5.05-2.42,6.42-4.08.8-.97.65-.22.8-1.28.14-.98-1-3.01-1.31-3.95-.79-2.36-1.57-4.72-2.36-7.08,6.79-1.51,21.52-3.84,22.45-12.49.73-6.82.52-13.87.77-20.73.09-2.47.61-3.06-1.09-4.4-.93-.74-2.22-.75-2.67-1.75-.38-.84-.01-2.75-.02-3.68-.05-7.8-.12-15.61-.14-23.41-.02-9.25.02-18.51.25-27.76.17-6.7.05-13.74,1.3-20.35,2.61-13.79,3.34-27.54,3.49-41.63.05-4.88.04-9.77-.11-14.66-.1-3.3-.86-6.9-.7-10.17.13-2.59,2.12-4.87,3.5-7.18,1.69-2.82,3.39-5.65,5.08-8.47,4.2,7.65,5.91,17.04,7.83,25.45,3.08,13.54,5.53,27.23,7.75,40.93,4.02,24.79,8.08,50.08,8.87,75.23.29,9.12-1.17,18.33-2.31,27.35-1.95,15.48-4.56,31.01-9.1,45.96-4.45,14.63-10.67,27.08-22.25,37.23-11.36,9.96-28.09,24.67-15.82,40.68,5.69,7.43,14.47,8.94,23.27,8.99,8.71.04,17.18.07,25.52-2.8,17.45-6.02,33.46-17.95,48.29-28.68,1.25-.91,4.34-2.49,4.86-3.89.51-1.36-.13-4-.17-5.44-.19-6.04-.38-12.08-.57-18.13-.05-1.73-.7-4.42-.19-6.08.52-1.7-.51-.54,1.26-1.41,4.34-2.12,10.97-.12,15.15-2.52,1.33-.76.37.49,1.17-1.01.98-1.84.45-5.9.44-7.97,0-5.04-.59-10.06-1.58-15-1.75-8.73-4.88-17.11-6.73-25.81-2.38-11.2-2.16-23.1-2.45-34.49-.4-15.42-.51-30.86-.28-46.29.17-11.36.27-22.85,1.88-34.12,3.71-26.05,6.86-52.24,8.98-78.47.48-5.91.9-11.84,1.08-17.77.11-3.74-.47-7.57-.34-11.26.18-4.86,3.65-10.72,5.37-15.29,2.91-7.72,5.76-15.47,8.16-23.36,1.06-3.46,2.04-6.96,2.8-10.5.47-2.18.3-6.24,1.95-6.94,2.13-.9,6.69,0,9,0h114.41c46.4,0,92.88.78,139.26-.98,29.48-1.12,60.3-1.77,89.09-8.8,6.57-1.61,20.8-7.35,27.17-9.45,7.19-2.37,17.65-3.62,25.56-6.96,47.7-20.15,89.88-24.16,137.82-43.72,12.91-5.27,43.42-6.78,55.13-2.85"/>
  </g>
</svg>
