<?xml version="1.0" encoding="UTF-8"?>
<svg id="Layer_2" data-name="Layer 2" xmlns="http://www.w3.org/2000/svg" viewBox="0 0 1116.08 980.9">
  <defs>
    <style>
      .cls-1 {
        fill: #161616;
      }
    </style>
  </defs>
  <g id="Layer_1-2" data-name="Layer 1">
    <g>
      <path class="cls-1" d="M741.06,980.9h-366.04c-39.75,0-77.13-18.31-99.99-48.97-21.15-28.37-27.56-63.8-17.61-97.21l33.02-110.8c12.89-43.27,55.19-73.48,102.87-73.48h329.48c47.67,0,89.97,30.22,102.87,73.48l33.02,110.8c9.96,33.41,3.54,68.84-17.61,97.21-22.86,30.67-60.24,48.97-99.99,48.97ZM393.3,670.43c-38.89,0-73.31,24.34-83.7,59.19l-33.02,110.8c-8.14,27.3-2.86,56.29,14.48,79.55,19.1,25.63,50.49,40.93,83.96,40.93h366.04c33.47,0,64.85-15.3,83.96-40.93,17.33-23.25,22.61-52.25,14.48-79.55l-33.02-110.8c-10.39-34.85-44.8-59.19-83.7-59.19h-329.48Z"/>
      <g>
        <circle class="cls-1" cx="342.75" cy="434.95" r="41.92" transform="translate(-159.31 668.59) rotate(-76.72)"/>
        <circle class="cls-1" cx="766.52" cy="434.95" r="41.92" transform="translate(-108.1 326.44) rotate(-22.5)"/>
      </g>
      <g>
        <path class="cls-1" d="M433.96,849.22c-50.68,0-91.91-41.23-91.91-91.91,0-8.83,7.16-15.99,15.99-15.99s15.99,7.16,15.99,15.99c0,33.04,26.88,59.92,59.93,59.92,8.83,0,15.99,7.16,15.99,15.99s-7.16,15.99-15.99,15.99Z"/>
        <path class="cls-1" d="M675.31,849.22c-8.83,0-15.99-7.16-15.99-15.99s7.16-15.99,15.99-15.99c33.04,0,59.93-26.88,59.93-59.92,0-8.83,7.16-15.99,15.99-15.99s15.99,7.16,15.99,15.99c0,50.68-41.23,91.91-91.91,91.91Z"/>
      </g>
      <path class="cls-1" d="M737.66,980.9h-366.04c-34.79,0-66.82-13.3-90.2-37.46-21.49-22.21-32.84-50.8-31.97-80.54l-20.91-455.75c-22.06,11.34-46.51,17.27-71.61,17.27-41.75,0-81.04-16.21-110.63-45.66C16.71,349.34.29,310.16.06,268.44l-.06-10.06h240.92c2.63-4.04,5.53-7.89,8.68-11.55-29.33-28.69-53.8-61.15-72.84-96.61-21.14-39.39-35.03-81.54-41.3-125.29-1.42-9.93,4.03-19.22,13.57-23.11,10.06-4.1,21.04-1.09,27.33,7.49,85.76,116.88,227.17,186.66,378.28,186.66S847.15,126.19,932.91,9.3c6.3-8.58,17.28-11.59,27.33-7.49,9.54,3.89,14.99,13.18,13.56,23.11-6.27,43.75-20.17,85.9-41.3,125.29-19.03,35.47-43.51,67.92-72.84,96.61,3.15,3.66,6.05,7.51,8.68,11.55h247.73l-.06,10.06c-.23,41.72-16.65,80.9-46.24,110.33-29.59,29.44-68.88,45.66-110.63,45.66-27.81,0-54.52-7.16-78.21-20.85l-21.21,457.24c1.46,30.06-9.55,59.08-31.05,81.75-23.44,24.72-55.76,38.33-91.03,38.33ZM246.95,372.13l22.51,490.63v.39c-.82,24.42,8.54,47.99,26.33,66.38,19.57,20.23,46.5,31.37,75.82,31.37h366.04c29.72,0,56.89-11.4,76.51-32.09,17.8-18.78,26.88-42.73,25.56-67.44l-.03-.5.02-.5,22.92-493.98,15.08,11.18c23.69,17.57,51.85,26.85,81.43,26.85,71.67,0,130.89-55.67,136.45-126.04h-238.62l-2.89-5c-4.18-7.24-9.38-13.87-15.45-19.69l-7.63-7.32,7.74-7.21c62.64-58.37,103.57-135.46,115.26-217.07.06-.4.16-1.15-1.33-1.76-.55-.23-2.45-.83-3.65.8-43.2,58.87-101.4,107.84-168.32,141.59-69.04,34.83-147.22,53.24-226.09,53.24s-157.05-18.41-226.09-53.24c-66.92-33.76-125.12-82.72-168.32-141.59-1.2-1.64-3.1-1.03-3.65-.8-1.49.61-1.38,1.36-1.33,1.76,11.69,81.61,52.63,158.7,115.26,217.07l7.74,7.21-7.63,7.32c-6.07,5.82-11.27,12.45-15.45,19.69l-2.89,5H20.48c5.56,70.37,64.78,126.04,136.45,126.04,26.91,0,52.96-7.81,75.33-22.59l14.69-9.71Z"/>
    </g>
  </g>
</svg>