<?xml version="1.0" encoding="UTF-8"?>
<svg id="Layer_2" data-name="Layer 2" xmlns="http://www.w3.org/2000/svg" viewBox="0 0 1095.97 960.86">
  <defs>
    <style>
      .cls-1 {
        fill: #fff;
      }

      .cls-2 {
        fill: #161616;
      }
    </style>
  </defs>
  <g id="Layer_1-2" data-name="Layer 1">
    <g>
      <path class="cls-2" d="M248.54,736.95l8.63-28.98c15.48-51.96,65.92-88.24,122.66-88.24h329.48c56.74,0,107.18,36.28,122.66,88.24l8.63,28.98,24.68-422.76c4.57-56.99-41.39-105.7-99.72-105.7h-441.98c-58.33,0-104.29,48.71-99.72,105.7l24.68,422.76Z"/>
      <path class="cls-2" d="M727.6,960.86h-366.04c-74.23,0-127.98-66.35-108.02-133.33l33.02-110.8c11.69-39.22,49.82-66.34,93.28-66.34h329.48c43.46,0,81.6,27.12,93.28,66.34l33.02,110.8c19.96,66.98-33.79,133.33-108.02,133.33Z"/>
      <g>
        <circle class="cls-1" cx="332.69" cy="424.91" r="41.92" transform="translate(-162.52 639.39) rotate(-75.36)"/>
        <circle class="cls-1" cx="756.46" cy="424.91" r="41.92" transform="translate(-105.02 321.83) rotate(-22.5)"/>
      </g>
      <g>
        <path class="cls-1" d="M423.9,839.18c-50.68,0-91.91-41.23-91.91-91.91,0-8.83,7.16-15.99,15.99-15.99s15.99,7.16,15.99,15.99c0,33.04,26.88,59.92,59.93,59.92,8.83,0,15.99,7.16,15.99,15.99s-7.16,15.99-15.99,15.99Z"/>
        <path class="cls-1" d="M665.25,839.18c-8.83,0-15.99-7.16-15.99-15.99s7.16-15.99,15.99-15.99c33.04,0,59.93-26.88,59.93-59.92,0-8.83,7.16-15.99,15.99-15.99s15.99,7.16,15.99,15.99c0,50.68-41.23,91.91-91.91,91.91Z"/>
      </g>
      <path class="cls-2" d="M802.23,258.34c.45,80.73,66.03,146.04,146.87,146.04s146.42-65.31,146.87-146.04h-293.74Z"/>
      <path class="cls-2" d="M0,258.34c.45,80.73,66.03,146.04,146.87,146.04s146.42-65.31,146.87-146.04H0Z"/>
      <path class="cls-2" d="M544.58,195.93c-160.3,0-301.81-75.53-386.34-190.75-7.54-10.28-24.71-4.08-22.94,8.29,27.15,189.44,200.03,335.52,409.28,335.52S926.71,202.91,953.86,13.47c1.77-12.37-15.39-18.57-22.94-8.29-84.54,115.22-226.04,190.75-386.34,190.75Z"/>
    </g>
  </g>
</svg>