<?xml version="1.0" encoding="UTF-8"?>
<svg id="Layer_2" data-name="Layer 2" xmlns="http://www.w3.org/2000/svg" viewBox="0 0 233.32 226.13">
  <defs>
    <style>
      .cls-1 {
        fill: #ff9901;
      }

      .cls-2 {
        fill: #300;
      }
    </style>
  </defs>
  <g id="_ëÎÓÈ_1" data-name="ëÎÓÈ 1">
    <rect class="cls-2" width="233.32" height="226.13" rx="40.65" ry="40.65"/>
    <g>
      <path class="cls-1" d="M165.4,74.65c6.9,0,12.5-5.6,12.5-12.5s-5.6-12.5-12.5-12.5-12.5,5.6-12.5,12.5,5.6,12.5,12.5,12.5Z"/>
      <rect class="cls-1" x="154.55" y="82.47" width="21.7" height="77.19" rx="1.05" ry="1.05"/>
      <path class="cls-1" d="M81.24,58.69v3.4c0,1.02-.17,2.03-.51,2.99l-32.61,93.63c-.22.63.25,1.29.92,1.29h19.24c.57,0,1.06-.37,1.23-.91l7.17-23.34h37.13l7.45,23.35c.17.53.67.9,1.23.9h20.72c.67,0,1.14-.67.91-1.3l-35.76-100.14c-.18-.51-.67-.85-1.21-.85h-24.92c-.55,0-.99.44-.99.99ZM82.67,116.27l12.23-39.81,12.7,39.81h-24.93Z"/>
    </g>
  </g>
</svg>