<?xml version="1.0" encoding="UTF-8"?>
<svg id="Layer_2" data-name="Layer 2" xmlns="http://www.w3.org/2000/svg" viewBox="0 0 232.81 226.13">
  <defs>
    <style>
      .cls-1 {
        fill: #31a8ff;
      }

      .cls-2 {
        fill: #011d36;
      }
    </style>
  </defs>
  <g id="_ëÎÓÈ_1" data-name="ëÎÓÈ 1">
    <g>
      <rect class="cls-2" width="232.81" height="226.13" rx="40.24" ry="40.24"/>
      <path class="cls-1" d="M187.07,85.66c0-.3-.17-.57-.44-.71-1.59-.78-7.53-3.3-18.18-3.3-12.6,0-32.49,5.2-32.49,23.64,0,25.32,34.69,23.18,34.69,33.7,0,5.24-7.52,5.84-10.64,5.84-8.19,0-17.35-3.72-23.89-6.92-.23-.11-.5.05-.5.31v18.13c0,.31.18.59.47.72,2.12.94,11.24,4.64,23.35,4.64,16.11,0,32.61-5.95,32.61-24.11,0-25.44-35.72-22.74-35.72-33.45,0-9.52,23.85-4.27,30.22-1.1.23.12.5-.05.5-.31l.02-17.1Z"/>
      <path class="cls-1" d="M88.04,58.41h-34.74c-.45,0-.82.37-.82.82v98.78c0,.45.37.82.82.82h18.83c.45,0,.82-.37.82-.82v-30.92h12.25c16.42,0,39.96-7.98,39.96-34.34,0-24.17-19.32-34.34-37.11-34.34ZM85.26,109.4h-12.31v-33.3h12.08c3.54,0,19.14,1.5,19.14,15.84,0,15.49-15.09,17.46-18.91,17.46Z"/>
    </g>
  </g>
</svg>