<?xml version="1.0" encoding="UTF-8"?>
<svg id="Layer_2" data-name="Layer 2" xmlns="http://www.w3.org/2000/svg" viewBox="0 0 232.43 226.55">
  <defs>
    <style>
      .cls-1 {
        fill: #fff;
      }
    </style>
  </defs>
  <g id="_ëÎÓÈ_1" data-name="ëÎÓÈ 1">
    <g>
      <path d="M40.34,0h151.76c22.26,0,40.34,18.07,40.34,40.34v145.88c0,22.26-18.07,40.34-40.34,40.34H40.34c-22.26,0-40.34-18.07-40.34-40.34V40.34C0,18.07,18.07,0,40.34,0Z"/>
      <path class="cls-1" d="M119.42,61.73c0-.55-.31-1.05-.81-1.28-2.28-1.08-9.39-3.88-21.89-3.88-23.1,0-39.91,8.91-39.91,30.74,0,34.24,46.31,27.85,46.31,45.85,0,6.91-7.93,9.47-16.41,9.47-12.09,0-20.74-4.39-28.52-8.51-.52-.28-1.14.1-1.14.69v19.8c0,.55.32,1.05.82,1.28,2.92,1.35,13.39,5.7,27.78,5.7,19.08,0,39.31-8.22,39.31-29.98,0-35.27-47.29-30.75-47.29-46.58,0-13.77,31.49-9.67,40.54-3.93.52.33,1.19-.05,1.19-.66l.03-18.7Z"/>
      <path class="cls-1" d="M177.6,144.45v13.29c0,.63-.36,1.21-.94,1.48-1.97.92-6.04,2.23-13.19,2.23-8.58,0-22.22-1.82-22.22-22.11v-56.02c0-8.83,1.1-16.61,1.58-19.59.12-.76.73-1.35,1.49-1.45l17.86-2.37c.78-.1,1.47.51,1.45,1.3l-.55,21.82v50.8c0,2.44-.59,10.11,8.36,10.11,1.32,0,3.39-.14,5.08-.41.56-.09,1.07.34,1.07.91Z"/>
      <rect class="cls-1" x="130.64" y="82.37" width="46.99" height="18.05" rx="1.08" ry="1.08"/>
    </g>
  </g>
</svg>