<svg xmlns="http://www.w3.org/2000/svg" viewBox="0 0 105.35 44.01"><defs><style>.cls-1{fill:#fff;}.cls-2{fill:#231815;}.cls-3{fill:#00a0e9;}.cls-4{fill:none;}</style></defs><g><g><path class="cls-1" d="M105.35,31.19v-17a2,2,0,0,0-2-2H89.67a2,2,0,0,0,.73-.57l.07-.09A2,2,0,0,0,90.2,8.8a4.54,4.54,0,0,1-.61-.63l.17-.09a1.85,1.85,0,0,0,.37-.25,2.23,2.23,0,0,0,.72-1.59,2.2,2.2,0,0,0-.32-1.14A1.94,1.94,0,0,0,90.84,4V3.82A2,2,0,0,0,90,2.21l-.89-.65a2,2,0,0,0-1.47-.38,2.12,2.12,0,0,0-1-.74L85.8.13a2,2,0,0,0-1.6.08,2,2,0,0,0-.62.48A2.18,2.18,0,0,0,82.21.2L81.52.14A2,2,0,0,0,80,.67,2,2,0,0,0,79.38,2a1.55,1.55,0,0,0-.22.12A4.8,4.8,0,0,0,77,.48a2,2,0,0,0-2.49.75l-.1.16a2.05,2.05,0,0,0-.31,1c-.73.46-1.35.87-1.87,1.22-.21.15-.44.3-.66.47V4A2,2,0,0,0,72,2.81,2.18,2.18,0,0,0,70.76.88l-.1-.06L70,.48a2,2,0,0,0-2.09.16H64.23L64,.5a2,2,0,0,0-2,0,2,2,0,0,0-1,1.73v.19l-.21-.2A2.41,2.41,0,0,0,60.42,2a3.78,3.78,0,0,0-1.9-.39,6.82,6.82,0,0,0-3,.48A5.12,5.12,0,0,0,53.66.71,2,2,0,0,0,51,1.59l-.11.21A2.06,2.06,0,0,0,51.14,4c0,.21-.07.42-.11.63a8.19,8.19,0,0,0-1.15-.87,1.85,1.85,0,0,0-.45-.21,3.23,3.23,0,0,0-1.36-2.12A7,7,0,0,0,45.33.27,2,2,0,0,0,43,1.9l0,.18a1.93,1.93,0,0,0,.11,1,2.05,2.05,0,0,0-.41.7,2,2,0,0,0-1.48,2,1.92,1.92,0,0,1-.22.89.88.88,0,0,1-.12.21,2.5,2.5,0,0,0-.74,1.82A2.33,2.33,0,0,0,42.4,11a2.17,2.17,0,0,0,.36,0,2.19,2.19,0,0,0,1.13,1.24H30.63a2,2,0,0,0-2,2v4a12,12,0,0,0-.83-1.69l0-.05a14,14,0,0,0-16.7-5.56A13.44,13.44,0,0,0,2.39,21.65H2.11A1.91,1.91,0,0,0,1,22a2.18,2.18,0,0,0-.83,2.59,2,2,0,0,0,1.57,1.26c.26,0,.56.07.86.09a.27.27,0,0,0,0,.13l.54,1.84a1.83,1.83,0,0,0,.08.25A13.7,13.7,0,0,0,15.4,36.31h.46A14.1,14.1,0,0,0,28.33,28.7c.12-.24.2-.5.3-.75v3.24a2,2,0,0,0,.81,1.59A2,2,0,0,0,29,34v.24a2,2,0,0,0,.71,1.53v2.38A2,2,0,0,0,29,39.72V40a2,2,0,0,0,2,2h2.63a5.54,5.54,0,0,0,2.55-.64A2,2,0,0,0,37.6,42h2a2.58,2.58,0,0,0,.29,0,2.07,2.07,0,0,0,.35,0h1.67a2,2,0,0,0,1.31-.5,3.77,3.77,0,0,0,2,.59h.13a3.53,3.53,0,0,0,2-.62,4,4,0,0,0,2.14.63,4.09,4.09,0,0,0,1.88-.47,2.75,2.75,0,0,0,1.54.48h.23a3.28,3.28,0,0,0,2.05-.76,1.64,1.64,0,0,0,.29-.3,2.59,2.59,0,0,0,2.16,1.07h.24a3.31,3.31,0,0,0,1.35-.33,3.86,3.86,0,0,0,1.44.45l.44,0a3.88,3.88,0,0,0,2.44-.86l0,0a3,3,0,0,0,0,.31,2.36,2.36,0,0,0,1.21,1.92,3.06,3.06,0,0,0,1.54.44h.07a3.06,3.06,0,0,0,2.2-.9,4.82,4.82,0,0,0,.93-1.36l.21-.49a3.87,3.87,0,0,0,2.15,1,3.15,3.15,0,0,0,.44,0,3.88,3.88,0,0,0,2.23-.72,3.22,3.22,0,0,0,1.81.55h.15a3.45,3.45,0,0,0,.72-.08,2,2,0,0,0,1.09,0l.11,0h.4l.23,0,.36,0h1.68a2,2,0,0,0,1.78-1.11A2,2,0,0,0,84.66,42h1.58a2.12,2.12,0,0,0,.44,0,2.22,2.22,0,0,0,.51.06h1.55a1.91,1.91,0,0,0,.83-.19,3.67,3.67,0,0,0,1.39.28h.12a3.42,3.42,0,0,0,1.76-.45,3.27,3.27,0,0,0,1.7.47h.09a3.49,3.49,0,0,0,1-.14,2.65,2.65,0,0,0,.85.11,3.24,3.24,0,0,0,.76-.11,2.34,2.34,0,0,0,.38,0h1.68a2,2,0,0,0,1.25-.45l0,0a2.78,2.78,0,0,0,1.61.52h.24a3.28,3.28,0,0,0,2-.76,2,2,0,0,0,.29-2.78l-.14-.18a1.87,1.87,0,0,0-.35-.34,2,2,0,0,0,.73-1.55V36.2A2,2,0,0,0,104,34.42a2,2,0,0,0-1.58-1.23h1A2,2,0,0,0,105.35,31.19ZM13,31.55a9.15,9.15,0,0,1-3.88-2.46,2.23,2.23,0,0,0,.87-.27h0a10,10,0,0,0,2.39,2.32,2.12,2.12,0,0,0,.57.27,2.37,2.37,0,0,0,.8.14,2.13,2.13,0,0,0,1.88-1.15,2,2,0,0,0-.08-2,7.76,7.76,0,0,1-.85-1.9,1.94,1.94,0,0,0,.78-.37L16.92,25a2,2,0,0,0,.78-1.58v-.22a2,2,0,0,0-.62-1.44,2,2,0,0,0-1.47-.56h0a6.63,6.63,0,0,1,2-1.91l.21-.14.11,0a3.41,3.41,0,0,0,1.5-1,2,2,0,0,0,0-2.42,2.27,2.27,0,0,0-1.17-.81,2,2,0,0,0-1.29,0,17.9,17.9,0,0,0-5.43,3,1.79,1.79,0,0,0-.57-.09h-.12a2,2,0,0,0-.82.18,16.13,16.13,0,0,0-2.13,1.15,9.54,9.54,0,0,1,8.73-4.63,9.23,9.23,0,0,1,7.9,5.57A8.49,8.49,0,0,1,23.1,28.6,9.75,9.75,0,0,1,13,31.55ZM77.84,12.21a2.23,2.23,0,0,0,.76-.5,1.92,1.92,0,0,0,.69.5Zm3.49-.07h0ZM77,5.92a5.92,5.92,0,0,1,.81-.37l.09,0a2.44,2.44,0,0,0,.63-.25,1.93,1.93,0,0,0,.65.62,8.89,8.89,0,0,1-.3,2.29c0,.07-.05.14-.08.2A7.68,7.68,0,0,0,77.5,7l-.09-.08-1-.71Zm-5.21,4.65V8.48l.43.26a11.46,11.46,0,0,1,2.53,2l.13.19.29.41a2.35,2.35,0,0,0,1.1.84H70.91A2,2,0,0,0,71.78,10.57ZM58.29,7.06a7.57,7.57,0,0,1,1-.73l.39,0A2.24,2.24,0,0,0,61,5.7a14.9,14.9,0,0,1-.1,1.88A2.1,2.1,0,0,0,59.7,7.2a2.82,2.82,0,0,0-.76.13c-.26,0-.8,0-1,0h-.17A1.74,1.74,0,0,0,58.29,7.06Zm-7.22,3.46,0-.15.09,0a2.5,2.5,0,0,0,2.34,1.87,2.74,2.74,0,0,0,.64-.09,2.27,2.27,0,0,0,1.13-.78l.17.1.19.08a6.33,6.33,0,0,0,2.5.43l1.61-.08.29,0a1.91,1.91,0,0,0,.33.37H49.69A2.84,2.84,0,0,0,51.07,10.52Zm-14,22.67h.06l0,0Zm2.77,1.21A2,2,0,0,0,38,34.32a4.87,4.87,0,0,0-.32-.47,1.6,1.6,0,0,1,2.28.61Zm5.43,3.69h0Zm5.47-3.75a4,4,0,0,0-3.42.47,3.69,3.69,0,0,0-3.74-.33,2.52,2.52,0,0,0-1.3-.36,3,3,0,0,0-.62.06,2,2,0,0,0-.94,0,2.46,2.46,0,0,0-.78-1H52.26A2,2,0,0,0,50.75,34.34Zm4.63.21a2.78,2.78,0,0,0-.27.21,2.19,2.19,0,0,0-.46-.34,2,2,0,0,0-1.57-1.23H57A2,2,0,0,0,55.38,34.55Zm9.47,4.94a3.58,3.58,0,0,0,.14-.65l.25.51A2,2,0,0,0,64.85,39.49Zm16.67-5.37a3,3,0,0,0-.62.06,2,2,0,0,0-1.55.25l-.06,0-.13-.1a2,2,0,0,0-1.77,0,1.14,1.14,0,0,1-.33.08l-.25,0-.19-.1-.1,0a2,2,0,0,0-1.65,0,.68.68,0,0,1-.27.07,2.37,2.37,0,0,0-.54.13,4.15,4.15,0,0,0-3.19-.11,2,2,0,0,0-.85-.2H68.83a1.94,1.94,0,0,0-.8.17,2.06,2.06,0,0,0-.79-.16H65.67a2,2,0,0,0-1.73,1l0,0a1.5,1.5,0,0,0-.23-.2,4.18,4.18,0,0,0-4.22-.52.71.71,0,0,0-.09-.07,2,2,0,0,0-1.57-1.23H83.17a2,2,0,0,0-.5,1.22A2.45,2.45,0,0,0,81.52,34.12Zm1.35,4.77s0-.1-.07-.15a2.53,2.53,0,0,0,.27-.18A1.81,1.81,0,0,0,82.87,38.89Zm8.19-.8h0Zm9.08-3.93a1.9,1.9,0,0,0-.41,0,3.21,3.21,0,0,0-.63.06,2,2,0,0,0-1.54.25l-.14,0a1.61,1.61,0,0,0-.48.12,3.37,3.37,0,0,0-2-.48,4,4,0,0,0-1.79.43,1.64,1.64,0,0,0-.22.14,3.53,3.53,0,0,0-2-.57,3.78,3.78,0,0,0-2,.57,3.1,3.1,0,0,0-1.19-.53,2.15,2.15,0,0,0-.32-1h14.06A2,2,0,0,0,100.14,34.16Z"/><path class="cls-2" d="M50.12,8a5.46,5.46,0,0,0-1.4-2.47l.1-.11c2,1.27,2,2.41,2,2.5,0,.29-.17.54-.39.54S50.21,8.3,50.12,8ZM46.94,4.18a.31.31,0,0,0,.2.11.41.41,0,0,0,.33-.38,1.23,1.23,0,0,0-.54-.86,5.22,5.22,0,0,0-2-.82l0,.18a5.16,5.16,0,0,1,1.44,1.06C46.48,3.58,46.86,4.08,46.94,4.18ZM43.17,5.76a3.72,3.72,0,0,1-.4,1.79,3.31,3.31,0,0,1-.41.64c-.22.23-.26.3-.26.45v0a.34.34,0,0,0,.35.33c.46,0,1-.73,1-2.29,0-.32,0-.64-.06-1Zm2.43,4.79h2.59c.46,0,.81-.09,1-.6-.28-.14-.38-.25-.38-.49l.07-1.2-.16,0-.2.71a5.34,5.34,0,0,1-.28.76c-.07.12-.15.22-.57.22H46l-.42,0c-.35,0-.35-.11-.35-.26V5c.26-.09.35-.15.35-.23s0-.11-.22-.15l-.83-.17V9.79C44.57,10.44,44.65,10.55,45.6,10.55ZM58.16,4.18,56.87,5.4l.13.14a8.85,8.85,0,0,1,1.48-1A1.36,1.36,0,0,1,59,4.37l.52-.07c.16,0,.23-.1.23-.21a.51.51,0,0,0-.17-.3,1.84,1.84,0,0,0-1-.17,4.77,4.77,0,0,0-3.33.92l.1.16A5.45,5.45,0,0,1,58.16,4.18ZM53.33,8.45a6.74,6.74,0,0,1-.13-1.26,9,9,0,0,1,.7-3.31c.11-.17.15-.22.15-.3S53.77,3,52.79,2.51l-.11.21c.32.21.58.43.58.81a3.43,3.43,0,0,1-.08.56,13.65,13.65,0,0,0-.44,3.3c0,1.57.37,2.81.79,2.81h.07a.22.22,0,0,0,.15-.28l-.1-.6v-.2A5,5,0,0,1,54,7.79l.44-1.19-.17-.09Zm4.74,1.49,1.7-.08c.06,0,.32,0,.32-.18s-.27-.48-.39-.48-.35.11-.42.11c-.39,0-1.23.07-1.32.07-2.09,0-2.34-.91-2.49-1.78h-.2a2.1,2.1,0,0,0,1.12,2A4.16,4.16,0,0,0,58.07,9.94ZM70.12,6.6c0,.08-.05.1-.34.25v3.72l-.6.08v-.32H65.06v.42l-.58.07V6.06l.58.36h1.7V4.83l.67.1c.09,0,.2.09.2.16s0,.08-.28.25V6.4h1.7L69.28,6l.64.38C70.09,6.49,70.12,6.51,70.12,6.6ZM66.76,8.37h-1.7v1.69h1.7Zm0-1.68h-1.7V8.1h1.7Zm2.42,1.68H67.35v1.68h1.83Zm0-1.68H67.35V8.1h1.83Zm-.25-2.15H63.59V6.13a9.74,9.74,0,0,1-.38,2.57,6.1,6.1,0,0,1-1.3,2.14l-.19-.11C62.65,9.32,63,8.51,63,5.46V2.24l.71.4h5.14l.25-.38.66.34s.22.14.22.21,0,.09-.38.24V4.81l-.66.12Zm0-.25V2.93L63.61,3V4.29Zm3.57,2.3.69.43a12.69,12.69,0,0,1,3.05,2.45c.1.11.43.63.52.72a.33.33,0,0,0,.27.18c.17,0,.27-.22.27-.38,0-.34-.23-.67-1.15-1.48a22.29,22.29,0,0,0-3-2c-.07,0-.32-.11-.32-.3S73,5.9,74,5.33c.28-.17,1.68-1,2.06-1.17a7.82,7.82,0,0,1,1.18-.52c.38-.11.4-.08.41-.21s-.26-.62-1.4-1.12l-.1.16.26.18c.08.06.27.21.27.35s-.17.26-.47.43c-.87.54-1.93,1.21-2.77,1.79-.65.44-1.07.72-1.07,1.07A.31.31,0,0,0,72.52,6.59ZM83.78,5.44A10.11,10.11,0,0,0,84.9,4h3.94V3.82L88,3.16l-.5.6H85.09a7.56,7.56,0,0,0,.63-1.11c.35-.07.38-.12.38-.17s0-.11-.18-.17L85.09,2a14,14,0,0,1-1.44,3.32Zm3,1.8c.29-.14.61-.3,1.15-.6l.46-.26c.32,0,.35,0,.4-.06a.09.09,0,0,0,0-.08c0-.09-.1-.17-.13-.2l-.58-.45A11.2,11.2,0,0,1,86.74,7a5.49,5.49,0,0,1-.32-1.55l.86-.55c.42,0,.51,0,.51-.15s0-.09-.19-.22L87,4.13a12,12,0,0,1-2.73,2.12l-.42.22-.14.07.08.16c.24-.09.31-.12.81-.34l.46-.2,0,4.65.6-.07,0-4.85.49-.26A10.44,10.44,0,0,0,87,9a11.58,11.58,0,0,0,1,1.7l.31-.22a.41.41,0,0,1,.26-.07,1.07,1.07,0,0,1,.25,0l.07-.08A7.26,7.26,0,0,1,86.8,7.24ZM83.74,5.72c0-.07-.1-.14-.15-.17L83,5.13l-.28.43h-.93l0-1.1c.22-.14.25-.16.25-.2s0,0-.14-.12H84V3.93l-.77-.59-.43.53H82V2.63c.26-.14.38-.21.38-.31s-.12-.13-.24-.13l-.74,0V3.87H80l.13.27h1V5.86a11,11,0,0,1-.39,2.9,9,9,0,0,1-.7,1.63l.18.06A9.42,9.42,0,0,0,81.17,9a7.38,7.38,0,0,0,.58-3.15h1.1V7.72a7,7,0,0,1-.17,1.5,1.34,1.34,0,0,1-.28.66H81.23V10l.63.17c.26.07.25.14.26.29s0,.2.17.2a1.14,1.14,0,0,0,.85-.68,6.61,6.61,0,0,0,.3-2.42V5.9C83.64,5.83,83.74,5.79,83.74,5.72ZM35.86,34.77A2.93,2.93,0,0,1,36.67,37a3.1,3.1,0,0,1-.76,2.21,3.57,3.57,0,0,1-2.64.83H31v-.27c.66,0,.71,0,.71-.62V34.9c0-.58-.05-.62-.71-.62V34h2.56A3,3,0,0,1,35.86,34.77ZM36,37a2.87,2.87,0,0,0-.59-2,2.4,2.4,0,0,0-2-.68h-.8c-.26,0-.3.06-.3.35v4.56c0,.35,0,.41.31.41h.56a2.78,2.78,0,0,0,2.16-.76A2.68,2.68,0,0,0,36,37Zm2.9,2.18V36.16l-.07,0a3.2,3.2,0,0,1-1.24.35v.18c.69,0,.69,0,.69.51v2.05c0,.49,0,.55-.69.55V40h2v-.21C38.94,39.77,38.91,39.7,38.91,39.22Zm-.38-3.62a.4.4,0,0,0,.4-.4c0-.31-.16-.49-.38-.49s-.4.18-.42.49A.4.4,0,0,0,38.53,35.6Zm3.72.52c-.36,0-.61.19-1,.61l0-.56-.08-.05a2.3,2.3,0,0,1-1,.34v.19c.44,0,.48,0,.48.52v2c0,.5,0,.55-.48.55V40h1.67v-.21c-.53,0-.57-.05-.57-.55V37.11c.29-.42.52-.68.76-.68s.17.07.24.28a.29.29,0,0,0,.3.23.26.26,0,0,0,.26-.29.43.43,0,0,0-.18-.36A.66.66,0,0,0,42.25,36.12Zm4.33,2.93.24.12a1.83,1.83,0,0,1-.54.6,1.8,1.8,0,0,1-1,.3,1.77,1.77,0,0,1-1.37-.55A2.36,2.36,0,0,1,43.47,38,2,2,0,0,1,44,36.57a1.61,1.61,0,0,1,1.16-.45,1.53,1.53,0,0,1,1.18.47A2.22,2.22,0,0,1,46.81,38H44.13a2.2,2.2,0,0,0,.29,1.28,1.11,1.11,0,0,0,.93.5,1.31,1.31,0,0,0,.79-.23A1.22,1.22,0,0,0,46.58,39.05Zm-2.44-1.29h2a1.89,1.89,0,0,0-.26-1,.82.82,0,0,0-.73-.35.93.93,0,0,0-.72.35A1.68,1.68,0,0,0,44.14,37.76Zm6.18,1.85a1.44,1.44,0,0,1-.71.18,1.21,1.21,0,0,1-1-.51,2.11,2.11,0,0,1-.3-1.2,1.86,1.86,0,0,1,.34-1.21,1,1,0,0,1,.91-.48.72.72,0,0,1,.71.38c.18.32.24.42.43.42h0a.22.22,0,0,0,.2-.25.66.66,0,0,0-.29-.48,2,2,0,0,0-2.49.26,1.93,1.93,0,0,0-.48,1.36,2.08,2.08,0,0,0,.59,1.57,2,2,0,0,0,2.21.19,1.86,1.86,0,0,0,.59-.56l-.24-.14A1.72,1.72,0,0,1,50.32,39.61Zm2.9.18c-.31,0-.44-.22-.44-.6V36.47h.95V36.2h-.95V35.15h-.22c-.15.76-.35,1.09-.91,1.14v.19h.52v2.75a.81.81,0,0,0,0,.22.76.76,0,0,0,.87.63,1.27,1.27,0,0,0,.88-.3l-.14-.18A1,1,0,0,1,53.22,39.79Zm4.73,0c-.31,0-.43-.22-.43-.6V36.47h.95V36.2h-.95V35.15h-.23c-.15.76-.35,1.09-.91,1.14v.19h.52v2.75a.81.81,0,0,0,0,.22.77.77,0,0,0,.88.63,1.27,1.27,0,0,0,.87-.3l-.14-.18A.92.92,0,0,1,58,39.79Zm4.53-3.2a2,2,0,0,1,.54,1.5,1.55,1.55,0,0,1,0,.43,1.92,1.92,0,0,1-3.81-.43h0a2,2,0,0,1,.57-1.49A2.22,2.22,0,0,1,62.48,36.59Zm-.11,1.51A2,2,0,0,0,62,36.74a1.26,1.26,0,0,0-1.75,0,2,2,0,0,0-.39,1.35h0a2.1,2.1,0,0,0,.4,1.37,1.27,1.27,0,0,0,1.74,0A2,2,0,0,0,62.37,38.1Zm6.46-1.69c.42,0,.45.07.34.3l-1.1,2.57h0l-1.14-2.43c-.17-.35-.13-.43.33-.43v-.2H65.67v.2c.33,0,.39,0,.61.53l1.49,3-.4,1c-.15.3-.46.8-.84.8a.45.45,0,0,1-.36-.22.43.43,0,0,0-.38-.23h0a.21.21,0,0,0-.21.23.42.42,0,0,0,.22.34,1.11,1.11,0,0,0,.61.15,1.06,1.06,0,0,0,.76-.3,2.71,2.71,0,0,0,.53-.77l1.82-4.13c.14-.34.21-.38.5-.38v-.21H68.83Zm4.86.18a2,2,0,0,1,.54,1.5,1.55,1.55,0,0,1,0,.43,1.92,1.92,0,1,1-3.81-.43h0A2,2,0,0,1,71,36.59,2.22,2.22,0,0,1,73.69,36.59Zm-.11,1.5a2,2,0,0,0-.38-1.35,1.27,1.27,0,0,0-1.76,0,2.09,2.09,0,0,0-.38,1.35,2.13,2.13,0,0,0,.4,1.38,1.27,1.27,0,0,0,1.74,0A2.06,2.06,0,0,0,73.58,38.09Zm4.74,1.15V36.17l-.08-.05a3,3,0,0,1-1,.27v.18c.46,0,.48,0,.48.54v2a1.34,1.34,0,0,1-1.07.63.75.75,0,0,1-.58-.24,1.38,1.38,0,0,1-.21-.86V36.17l-.1,0a3,3,0,0,1-1,.26v.18c.46,0,.46,0,.46.52V38.7a1.38,1.38,0,0,0,.39,1.11,1.3,1.3,0,0,0,.86.25,1.63,1.63,0,0,0,1.23-.57h0l0,.55,0,0a2.45,2.45,0,0,1,.53-.09h.5v-.18C78.36,39.79,78.32,39.73,78.32,39.24Zm3.16-3.12c-.36,0-.61.19-1,.61l0-.56-.08-.05a2.25,2.25,0,0,1-1,.34v.19c.44,0,.49,0,.49.52v2c0,.5,0,.55-.49.55V40h1.68v-.21c-.53,0-.57-.05-.57-.55V37.11c.29-.42.53-.68.76-.68s.17.07.24.28a.29.29,0,0,0,.3.23.26.26,0,0,0,.26-.29.43.43,0,0,0-.18-.36A.66.66,0,0,0,81.48,36.12Zm6.8,3.1V37.48a1.34,1.34,0,0,0-.33-1.1,1.15,1.15,0,0,0-.81-.26,1.77,1.77,0,0,0-1.33.67h0V34.23l-.08,0a2.82,2.82,0,0,1-1,.34v.18c.46,0,.51.06.51.5v4c0,.49,0,.55-.52.55V40h1.58v-.21c-.4,0-.44,0-.44-.55v-2a1.74,1.74,0,0,1,1.14-.76.68.68,0,0,1,.54.2,1.33,1.33,0,0,1,.18.89v1.7c0,.5,0,.55-.47.55V40h1.55v-.21C88.32,39.77,88.28,39.72,88.28,39.22Zm4.08-.17.24.12a1.83,1.83,0,0,1-.54.6,1.74,1.74,0,0,1-1,.3,1.78,1.78,0,0,1-1.36-.55A2.3,2.3,0,0,1,89.25,38a2,2,0,0,1,.55-1.43A1.61,1.61,0,0,1,91,36.12a1.55,1.55,0,0,1,1.18.47A2.21,2.21,0,0,1,92.58,38H89.91a2.2,2.2,0,0,0,.29,1.28,1.11,1.11,0,0,0,.93.5A1.3,1.3,0,0,0,92.36,39.05Zm-2.45-1.29h2a1.89,1.89,0,0,0-.26-1,.82.82,0,0,0-.73-.35.93.93,0,0,0-.72.35A1.69,1.69,0,0,0,89.91,37.76Zm7,2,.06.19a1.33,1.33,0,0,1-.55.12.55.55,0,0,1-.58-.43h0a1.72,1.72,0,0,1-1.26.46,1.35,1.35,0,0,1-.82-.25.87.87,0,0,1-.36-.72,1,1,0,0,1,.55-.93,4.25,4.25,0,0,1,1.33-.48l.53-.11v-.38a.94.94,0,0,0-.14-.59.79.79,0,0,0-.65-.25,1,1,0,0,0-.61.19,1,1,0,0,0-.27.41.29.29,0,0,1-.32.2h0a.23.23,0,0,1-.22-.24.75.75,0,0,1,.47-.58,2,2,0,0,1,1-.24,1.38,1.38,0,0,1,1.08.33,1.08,1.08,0,0,1,.29.84v2c0,.38.09.55.27.55A.48.48,0,0,0,96.92,39.75Zm-1.13-.43V37.86a5.26,5.26,0,0,0-1.15.41A.85.85,0,0,0,94,39a.69.69,0,0,0,.2.53.86.86,0,0,0,.59.2A1.37,1.37,0,0,0,95.79,39.32Zm3.89-3.2c-.36,0-.6.19-1,.61l0-.56-.08-.05a2.35,2.35,0,0,1-1,.34v.19c.44,0,.48,0,.48.52v2c0,.5,0,.55-.48.55V40h1.68v-.21c-.53,0-.58-.05-.58-.55V37.11c.3-.42.53-.68.76-.68s.18.07.25.28a.29.29,0,0,0,.3.23.26.26,0,0,0,.26-.29.47.47,0,0,0-.18-.36A.66.66,0,0,0,99.68,36.12Zm3.4,3.48a1,1,0,0,1-.56.19c-.31,0-.44-.22-.44-.6V36.47h1V36.2h-1V35.15h-.22c-.15.76-.35,1.09-.92,1.14v.19h.51v2.75a.81.81,0,0,0,0,.22.76.76,0,0,0,.87.63,1.27,1.27,0,0,0,.88-.3Z"/><path class="cls-3" d="M103.35,14.21v17H30.63v-17ZM11.76,12.82a11.47,11.47,0,0,0-7.43,9.37.59.59,0,0,0,.5.07A10.14,10.14,0,0,1,6,18.4a11.5,11.5,0,0,1,10.78-5.9,11.15,11.15,0,0,1,9.63,6.84,10.52,10.52,0,0,1-1.81,10.58,11.76,11.76,0,0,1-12.26,3.54A11.05,11.05,0,0,1,5,25.53l-.44,0L5,27.34a11.68,11.68,0,0,0,10.42,7,12,12,0,0,0,11.07-6.48,10.86,10.86,0,0,0-.45-10.26A11.93,11.93,0,0,0,11.76,12.82ZM8.16,26.68c.24.18.56.52.83.38a4,4,0,0,1-.56-1.28c0-.54-.37-1.06,0-1.5.59,0,1.25-.15,1.82.17a7.82,7.82,0,0,0,3.27,5c.1,0,.27.13.35,0a9.19,9.19,0,0,1-1.22-3,4.14,4.14,0,0,1,0-2l1.62.1,1.48-1.14v-.22l-2.88.13-.15-.13a8.42,8.42,0,0,1,3.89-5.62c.4-.35,1-.35,1.28-.73-.05-.07-.12-.07-.18-.1a16.08,16.08,0,0,0-5.36,3.14A10.21,10.21,0,0,0,10,23.42a4.3,4.3,0,0,1-1.6,0A6.07,6.07,0,0,1,11,19.79h-.12c-1.69.77-3.63,1.89-4.2,3.73-1.55.1-3.3.15-4.6.13a.19.19,0,0,0-.07.22c1.22.19,3.42.11,4.82.38A5.86,5.86,0,0,0,8.16,26.68Z"/><path class="cls-1" d="M79,25.3h1.27v1.61h1.67V25.3H83.4c0,.76,0,.76-1.1.68l.43,1.07,1,.06c.61.06,1-.44,1-1.2V20.42H82.3l-.62-.5c.31-.21,2.32-1.85,2.74-2.24l-.55-.91h-6.3l.32,1.42h1.5l-.71,1a11,11,0,0,1,1.72,1.24H77.51v6.48H79Zm4.31-3.64v.71H81.91v-.71Zm0,1.81v.76H81.91v-.76Zm-3.84-5.26H81.8a12.92,12.92,0,0,1-1.06.9C80.29,18.83,79.86,18.53,79.44,18.21ZM79,21.64h1.27v.73H79Zm0,1.81h1.27v.77H79Zm-3.42-2.26A21.66,21.66,0,0,0,73.43,18l1.06-.9a14.86,14.86,0,0,1,2.13,3.18ZM37.24,24.5c.5-1.29-.23-2.69-1-4,.08-.29,1.91-3.06,1.06-3.44H33.38v11.6h1.35V25.11c.33.07.47.45.72.65A2.56,2.56,0,0,0,37.24,24.5Zm-2.51-6.05h1c0,.38-.38,1.64-1,1.95Zm0,6h0v-2.8c.22-.12.44-.22.44-.22a5.76,5.76,0,0,1,.9,2.29C36.05,24.71,34.76,24.79,34.73,24.44Zm7.56,1.14A12.49,12.49,0,0,0,44.09,20H39.6V18.38h4.87V17.06H38.2c0,3.81.32,8.25-2.67,10.3l.83,1.07a6.5,6.5,0,0,0,1.42-1.3c.33.25.76.76,1,1a6.31,6.31,0,0,0,2.53-1.63,15.66,15.66,0,0,0,2.45,2.15l1-1A9.76,9.76,0,0,1,42.29,25.58ZM37.93,27h0a11.38,11.38,0,0,0,1.49-4.46,11.62,11.62,0,0,0,1.12,2.9A4.23,4.23,0,0,1,37.93,27Zm3.55-2.48a9.64,9.64,0,0,1-1-3.2h2a7.59,7.59,0,0,1-1,3.21ZM48,20.31c0,.35,0,1.08,0,1.08h7.32V22H48v1h7.32v.71H48v1h9V20.21H53.82c.15-.28,1-1.19,1.17-1.84l-1-.72H51.59a8,8,0,0,0,.58-.66,10,10,0,0,0-1.26-.65,9,9,0,0,1-4.38,3.09l.6,1.26A8.64,8.64,0,0,0,48,20.31ZM50.16,19h2.42a2.07,2.07,0,0,1-.84,1.17H48.3A6.53,6.53,0,0,0,50.16,19Zm1.73,6.23,1-.48a4.29,4.29,0,0,1,1,1.38c-.4.17-1,.53-1,.53A5,5,0,0,0,51.89,25.27Zm-3.55,0,1.17.55a7.23,7.23,0,0,1-1.57,2.67l-1.06-.82A5.9,5.9,0,0,0,48.34,25.27Zm6.14.26c.5.17,1,.38,1.42.48,0,.47-.09,1.11-.09,1.67,0,.81-1.55.95-2.81.95s-3.18,0-3.18-1.35c-.06-.64,0-1.66,0-2.12l1.5.22s-.19,1.49.14,1.71a4.28,4.28,0,0,0,3-.08C54.68,26.72,54.5,25.53,54.48,25.53Zm2.48-.8a15.42,15.42,0,0,1,1.74,2.78L57.2,28a9.18,9.18,0,0,0-1.43-2.67Zm14.2-5.38H59.68V18.1h5V16.58h1.72V18.1h4.72Zm-4.38,6.24A10,10,0,0,0,71.6,26.9l-.35,1.39c-1.7.07-4.48-.65-5.56-1.8-.77.93-3.36,1.84-4.83,2l-.76-1.37c2.24-.24,3.69-.74,4.57-1.62a13.49,13.49,0,0,1-1.74-3.32,7.49,7.49,0,0,1-1.82.77l-.68-1.28a6.27,6.27,0,0,0,3.07-2.19l1,1.22A6.71,6.71,0,0,1,63.13,22l1.23-.18a6.83,6.83,0,0,0,1.4,2.81,7,7,0,0,0,1.35-2.83c.19,0,1,.1,1.1.1a10.94,10.94,0,0,1-1.93-1.38l1-1a15.47,15.47,0,0,0,4,1.9l-.57,1.31a7.08,7.08,0,0,1-2-.64A11.36,11.36,0,0,1,66.78,25.59Zm17.29,2.05c.6,0,1.23-.1,1.83-.15l-.22,1.34a42.45,42.45,0,0,1-5.29.05c-2-.12-3.67-.36-4.35-1.53-.39.3-1.57,1-2,1.29l-.84-1.42s1.56-.66,1.88-.84V23.82H73.7V22.6h2.9v4.07C78.23,28.2,82.58,27.64,84.07,27.64Zm9.4-3.8-1,1.18c-.23-.28-.91-1-1.25-1.35v5.07H89.79V24.46a7.76,7.76,0,0,1-1.71,1.12l-.9-1.33a6.63,6.63,0,0,0,3.7-3.65h-3V19.08h1.93V16.91h1.45v2.17H93a8.06,8.06,0,0,1-1.27,3.11S93.19,23.66,93.47,23.84Zm6.33,3.37v1.5H92.7v-1.5h2.75V22H93.23v-1.6h2.22V16.81h1.6v3.62h1.89V22H97.05v5.18Z"/><rect class="cls-4" x="0.18" width="105" height="44"/></g></g></svg>
