<?xml version="1.0" encoding="utf-8"?>
<!-- Generator: Adobe Illustrator 23.1.0, SVG Export Plug-In . SVG Version: 6.00 Build 0)  -->
<svg version="1.1" id="レイヤー_1" xmlns="http://www.w3.org/2000/svg" xmlns:xlink="http://www.w3.org/1999/xlink" x="0px"
	 y="0px" viewBox="0 0 340 100" style="enable-background:new 0 0 340 100;" xml:space="preserve">
<style type="text/css">
	.st0{fill:#FFFFFF;}
</style>
<path class="st0" d="M230.5,37.3h-11.1c-0.4,0-1.4,0-1.4,1.1c0,1.1,1,1.1,1.4,1.1h11.1L230.5,37.3z"/>
<path class="st0" d="M178.7,58.7h-26.8c-0.4,0-1.5,0-1.5,1.2c0,1.2,1.2,1.2,1.5,1.2h26.8c0.4,0,1.5,0,1.5-1.2
	C180.2,58.7,179.1,58.7,178.7,58.7"/>
<path class="st0" d="M165.8,40.7h-11c-0.4,0-1.5,0-1.5-1.2c0-1.2,1.1-1.2,1.5-1.2h11V40.7z"/>
<path class="st0" d="M175.8,38.3h-10v2.4h10c0.4,0,1.5,0,1.5-1.2C177.4,38.3,176.2,38.3,175.8,38.3"/>
<path class="st0" d="M213.2,43.1c-0.6,0-0.8,0.3-1.9,2.3c-3.4,5.9-9.7,13.3-20.7,14.9c-1.2,0.2-2,0.5-2,1.9c0,0.7,0.6,1.5,1.7,1.5
	c0.6,0,2.4-0.5,3.6-0.9c4.9-1.4,8.8-3.5,11.9-6.4c5-4.6,8.3-11.9,8.3-12.5C214.2,43.5,213.8,43.1,213.2,43.1"/>
<path class="st0" d="M191.7,37.2c1.2,0.6,2.9,1.4,5.4,3.5c1.5,1.3,1.8,1.5,2.4,1.5c0.7,0,1.5-0.6,1.5-1.7c0-1-0.6-1.4-2.3-2.4
	c-2.4-1.4-6.4-3.1-6.9-3.1c-0.6,0-1,0.6-1,1.1C190.8,36.6,191.1,36.9,191.7,37.2"/>
<path class="st0" d="M290.7,51.1h-11.1c-1.2,0-1.4-0.6-1.4-1.2c0-0.5,0.2-1.2,1.4-1.2h11.2L290.7,51.1z"/>
<path class="st0" d="M307.1,48.7h-16.4l0,2.4h16.4c1.2,0,1.4-0.6,1.4-1.2C308.5,49.5,308.3,48.7,307.1,48.7"/>
<path class="st0" d="M101,50.5h11.1c0.4,0,1.4,0,1.4-1.1c0-1.1-1-1.1-1.4-1.1H101V50.5z"/>
<path class="st0" d="M101,48.3v2.2h-5.2c-0.3,0-1.9,0.1-1.9,2v10.4c0,0.5,0,2-1.6,2c-1.1,0-1.6-0.7-1.6-2V37.1c0-0.5,0-2.1,1.6-2.1
	c1.1,0,1.6,0.7,1.6,2v9c0,0.8,0.3,2.3,1.8,2.3L101,48.3z"/>
<path class="st0" d="M133.5,48.2h-11.1c-0.4,0-1.4,0-1.4,1.1c0,1.1,1,1.1,1.4,1.1h11.1L133.5,48.2z"/>
<path class="st0" d="M139.1,50.4c0.7,0.1,1.5,0.6,1.5,1.9v6.4c0,0.8-0.5,1.4-1.3,1.4h-16.7c-0.4,0-1.4,0-1.4,1.1c0,1,1,1,1.4,1h18.3
	c0.3,0.5,0.8,0.9,1.4,0.9c0.9,0,1.6-0.7,1.6-1.6v-4.9c0-0.1,0-0.1,0-0.1V43.5c0,0,0-0.1,0-0.2v-4.9c0-0.9-0.7-1.6-1.6-1.6
	c-0.5,0-1.1,0.3-1.3,0.8h-18c-0.5,0-1.4,0-1.4,1.1c0,1,1,1,1.4,1h16.4c1,0,1.3,0.7,1.3,1.4l0,5.4c-0.1,0.7-0.5,1.5-1.4,1.7h-5.8
	l0,2.2C133.4,50.4,139.1,50.4,139.1,50.4z"/>
<path class="st0" d="M230.5,37.3l0,2.2h7.2c1.2,0,1.2,1,1.2,1.1c0,0.1,0,0.3-0.1,0.7l0,0.3c0,0-0.4,3.2-2.2,6.6
	c-5.2,10.3-13.2,12.4-16.7,13.3c-0.3,0.1-1.1,0.2-1.1,1.1c0,0.6,0.4,1,1,1c0.4,0,2.1-0.4,3-0.6c4.4-1.2,7.8-3,10.8-5.7
	c5-4.6,7.4-11,8.3-14.4c0.8-3.2,0.9-4.3,0.9-4.3c0.2-0.9-0.4-1.9-1.3-2c-0.7-0.2-1.5,0.2-1.8,0.9h0L230.5,37.3z"/>
<path class="st0" d="M194.2,49.6c1,0.6,1.1,0.7,1.6,0.7c1,0,1.6-0.9,1.6-1.7c0-1.2-0.8-1.8-4-2.9c-2.2-0.8-5.8-1.8-6.1-1.8
	c-0.7,0-1.1,0.6-1.1,1.2c0,0.6,0.4,1,1,1.1c1.9,0.5,4.1,1.6,6.6,3.1L194.2,49.6z"/>
<path class="st0" d="M260,48.9c-0.9,0-1.4,0.6-1.4,1.8v1.6c0,2.7,0,9.7-7.4,11.2c-0.5,0.1-1.3,0.2-1.3,1.1c0,0.3,0.2,1,1,1
	c1,0,4.2-0.8,6.6-2.7c3.9-3.2,3.9-8.5,3.9-10.7v-1.5C261.5,49.5,261,48.9,260,48.9"/>
<path class="st0" d="M270.5,43.6c-0.7-0.2-1.4,0.2-1.8,0.9h-18.1c-0.4,0-1.3,0-1.3,1.1c0,1,1,1,1.3,1l14.8,0c0.2,0.1,1.2,0,2,0.1
	c0,0,0.8-0.1,0.6,0.9c-0.1,0.4-0.5,0.9-0.5,1.1c0,0.1-0.1,0.3-0.2,0.3c-0.4,0.6-1.3,2.2-3.9,4.8c-0.2,0.1-0.5,0.4-0.5,0.9
	c0,0.6,0.5,0.9,0.9,0.9c1.7,0,8-7.5,8-9.5C272.2,44.9,271.4,43.8,270.5,43.6"/>
<path class="st0" d="M315.2,46.4c1.1-3.5,2-6.7,2.8-9.7c0.3-1.1,0.5-2.3,2-2.3c1,0,1.8,0.8,1.8,1.8c0,0.6-1.7,5.4-3.8,11.1
	L315.2,46.4z"/>
<path class="st0" d="M312,55.9c-1.4,3.1-2.7,3.4-2.9,3.5l-0.5,0c-0.5,0-0.9,0.1-1.3,0.1c-1.7,0.1-1.8,1.4-1.8,1.8
	c0,1.1,0.9,1.9,1.8,1.9c0.8,0,15.7-3.3,21.5-4.6h0.1c1,0,2.2,0.2,2.5,0.9c0,0,0,0,0,0c0.2,0.4,0.4,1,0.6,1.8l0,0.1
	c0.3,0.7,0.6,1.7,1.9,1.7c1.1,0,1.7-1,1.7-1.8c0-1.2-3.4-7.4-8-12.5c-0.8-0.9-0.9-1-1.4-1c-0.7,0-1.2,0.5-1.2,1.2
	c0,0.4,0.4,1,1.3,2.1c0.5,0.6,1.3,1.7,2.1,2.9c0.1,0.3,0.6,1.1,0.3,1.8c-0.1,0.3-0.4,0.6-0.9,0.8c-3.6,0.7-7.3,1.4-11.3,2
	c-0.9,0.1-1.6,0-1.9-0.4c-0.5-0.7-0.1-1.9,0.1-2.4c0-0.1,0.1-0.2,0.1-0.3l0.1-0.1c0,0,0,0,0-0.1c1-2.6,2.1-5.3,3.1-7.9l-2.7-0.9
	L312,55.9z"/>
<path class="st0" d="M35.7,37.3c0,0-1.5,3.5,1.8,4.7C37.5,42,39.4,39.1,35.7,37.3"/>
<path class="st0" d="M39.2,39.4c0,0-1.2,3.6,2.1,4.6C41.3,43.9,43,40.9,39.2,39.4"/>
<path class="st0" d="M42.8,42.3c0,0,0.4,3.7,3.8,3.2C46.7,45.5,46.9,42.1,42.8,42.3"/>
<path class="st0" d="M31.4,39.1c0,0,0.9-3.2-3.3-3.4C28.1,35.8,27.9,39.3,31.4,39.1"/>
<path class="st0" d="M43.2,36.2c0,0,0-3.5-4.1-2.9C39.1,33.3,39.8,37,43.2,36.2"/>
<path class="st0" d="M44.1,31.2c0,0,1.3-3.2-2.7-4.2C41.4,27,40.7,30.7,44.1,31.2"/>
<path class="st0" d="M39.1,32.5c0,0,1.2-3.2-2.8-4.1C36.2,28.4,35.6,32.1,39.1,32.5"/>
<path class="st0" d="M47.6,35c0,0,0.2-3.4-3.9-3.1C43.6,31.9,44.1,35.6,47.6,35"/>
<path class="st0" d="M43.8,36.4c0,0,1.3,3.5,4.5,2.2C48.3,38.6,47.7,35.2,43.8,36.4"/>
<path class="st0" d="M44.3,39.3c0.4,3.1,3,2.4,3,2.4C47.1,39.1,44.3,39.3,44.3,39.3"/>
<path class="st0" d="M43.2,39.5c-0.1-2.7-3-2.4-3-2.4C40.6,40.2,43.2,39.5,43.2,39.5"/>
<path class="st0" d="M35.9,34.5c0.4,3.1,3,2.4,3,2.4C38.8,34.3,35.9,34.5,35.9,34.5"/>
<path class="st0" d="M35.5,33.8c0.1-2.7-2.7-2.7-2.7-2.7C32.9,34.3,35.5,33.8,35.5,33.8"/>
<path class="st0" d="M46.9,30c1.3-2.9-1.2-3.7-1.2-3.7C44.3,28.6,46.9,30,46.9,30"/>
<path class="st0" d="M31.4,48.1c3.6,2,4.9-1.2,4.9-1.2C33.4,45,31.4,48.1,31.4,48.1"/>
<path class="st0" d="M28.2,44.7c3.2,2.6,5-0.4,5-0.4C30.7,41.8,28.2,44.7,28.2,44.7"/>
<path class="st0" d="M40,49.5c0,0-2.9-1.8-4.6,1.9C35.3,51.5,38.9,52.8,40,49.5"/>
<path class="st0" d="M45.5,51c0,0-2.7-2.1-4.8,1.5C40.7,52.5,44.1,54.2,45.5,51"/>
<path class="st0" d="M30.6,41.4c0,0-1.3-1.5-2.7-0.3C27.9,41.1,28.8,42.7,30.6,41.4"/>
<path class="st0" d="M62.6,44c3.4-0.6,2.6-4.3,2.6-4.3C61.3,40.8,62.6,44,62.6,44"/>
<path class="st0" d="M58.4,45c3.4-0.8,2.3-4.4,2.3-4.4C56.8,41.9,58.4,45,58.4,45"/>
<path class="st0" d="M52.4,45.7c3.2,1.4,4.6-2.1,4.6-2.1C53.1,42.3,52.4,45.7,52.4,45.7"/>
<path class="st0" d="M71.9,40.3c-4.1,0.2-3.5,3.6-3.5,3.6C71.8,44.1,71.9,40.3,71.9,40.3"/>
<path class="st0" d="M60.4,32.9c-4.1-0.2-3.8,3.2-3.8,3.2C60,36.6,60.4,32.9,60.4,32.9"/>
<path class="st0" d="M60,27.5c-4.1,0.6-3.1,3.9-3.1,3.9C60.3,31.3,60,27.5,60,27.5"/>
<path class="st0" d="M49.6,29.1c2.6-2.2,0-4.8,0-4.8C46.8,27.2,49.6,29.1,49.6,29.1"/>
<path class="st0" d="M65,30.4c-4.1,0.6-3.1,3.9-3.1,3.9C65.3,34.2,65,30.4,65,30.4"/>
<path class="st0" d="M55.6,31.4c-4.1,0.2-3.5,3.6-3.5,3.6C55.5,35.2,55.6,31.4,55.6,31.4"/>
<path class="st0" d="M55.4,35.9c-4.1-0.6-4.1,2.8-4.1,2.8C54.6,39.5,55.4,35.9,55.4,35.9"/>
<path class="st0" d="M55.4,39.7c0,0-2.9-0.3-3.1,2.3C52.3,42,54.9,42.8,55.4,39.7"/>
<path class="st0" d="M59.7,37.6c0,0-2.9-0.3-3.1,2.3C56.6,39.9,59.2,40.7,59.7,37.6"/>
<path class="st0" d="M64,36.5c0,0-2.9-0.3-3.1,2.3C60.9,38.8,63.4,39.6,64,36.5"/>
<path class="st0" d="M68.1,34.6c0,0-2.9-0.4-3.1,2.2C65,36.8,67.5,37.7,68.1,34.6"/>
<path class="st0" d="M54.2,26.4c0,0-2.6,0.6-1.5,3.5C52.7,29.9,55.3,28.8,54.2,26.4"/>
<path class="st0" d="M66.2,42.3c2.2-0.3,1.7-2.1,1.7-2.1C66,40.3,66.2,42.3,66.2,42.3"/>
<path class="st0" d="M34.1,38.8c0.8-1.7-1.1-2.4-1.1-2.4C32.3,38.5,34.1,38.8,34.1,38.8"/>
<path class="st0" d="M63.8,49c0,0,1.3,3.2,4.9,1.2C68.7,50.2,66.7,47,63.8,49"/>
<path class="st0" d="M59.4,50.5c1.1,3.3,4.6,1.9,4.6,1.9C62.4,48.7,59.4,50.5,59.4,50.5"/>
<path class="st0" d="M53.9,51.7c1.4,3.2,4.8,1.5,4.8,1.5C56.6,49.6,53.9,51.7,53.9,51.7"/>
<path class="st0" d="M70.1,46.9c-1.2-1.4-2.7,0-2.7,0C69,48.4,70.1,46.9,70.1,46.9"/>
<path class="st0" d="M49.6,37.9c2-1.7,0.1-3.7,0.1-3.7C47.4,36.4,49.6,37.9,49.6,37.9"/>
<path class="st0" d="M49.6,29.7c-2.2,2.2,0,3.7,0,3.7C51.6,31.7,49.6,29.7,49.6,29.7"/>
<path class="st0" d="M49.6,46.8c2-1.7,0-3.7,0-3.7C47.5,45.3,49.6,46.8,49.6,46.8"/>
<path class="st0" d="M49.6,38.7c-2.1,2.3,0.1,3.7,0.1,3.7C51.6,40.6,49.6,38.7,49.6,38.7"/>
<path class="st0" d="M33.6,57.6c0.6-0.1,0.7,0,0.8,0.1c0.1,0,0.5-0.2,0.5-0.2c0,0,0.1,0,0.1,0c-0.1,0.2-0.2,0.5-0.5,0.7
	c0.1,0.5,0.3,0.8,0.6,1.2c0.3,0.4,0.1,0.8-0.3,0.9c-0.4,0.1-0.7-0.1-0.9-0.3c-0.2-0.1-0.7-0.2-0.7,0.1c0,0.1-0.1,1-0.4,1.4
	c-0.3,0.3-0.3,0.8-0.2,1.3c0,0.2-0.1,0.1-0.1,0.1l-0.3,0c-0.1,0-0.1-0.1-0.1-0.1c0-0.1-0.1-0.2-0.1-0.4c0-0.4-0.3-0.2-0.3-0.2
	c-0.2,0.2-0.4,0.3-0.7,0.4c-0.3,0.1-0.3,0.3-0.3,0.3c0,0.1-0.1,0.1-0.1,0.1c-0.3,0-0.4,0-0.4,0c-0.1,0,0-0.1,0-0.1
	c-0.1-0.4-0.5-0.3-0.5-0.3c-0.7,0.1-1.3-0.1-1.7-0.2c-0.1,0-0.3-0.1-0.3,0c-0.2,0.2,0,0.6,0.1,0.8c0,0.1,0.1,0.3,0.1,0.5L27.5,64
	c-0.1-0.4-0.2-0.7-0.3-0.9c-0.2-0.3-0.4-0.6-0.5-0.3c0,0.1,0,0.2-0.1,0.3l-0.4-0.7l0-0.1c0-0.1,0-0.2,0.1-0.3c0-0.3,0.1-0.7-0.2-0.9
	c-0.1,0.2,0,0.4-0.1,0.7l-0.3-0.5c0-0.5-0.3-1-0.4-1.6c0-0.4,0.4-0.5,1-0.9c1.2-0.4,2.2-0.1,3.4-0.2c0.5-0.5,2.9-0.2,3-0.4
	c0-0.1-0.2-0.2-0.4-0.2c-0.1-0.2,0.4-0.4,0.6-0.3c0,0,0.1,0.1,0.2-0.1C33.1,57.8,33.3,57.6,33.6,57.6"/>
<path class="st0" d="M49.6,20.9c-15.7,0-28.5,12.8-28.5,28.5s12.8,28.5,28.5,28.5c15.7,0,28.5-12.8,28.5-28.5S65.3,20.9,49.6,20.9
	 M32.2,68.5c0.2,0,0.3-0.1,0.5-0.1c0.4-0.1,0.8-0.1,0.9,0c0.3,0.1,0.9,0,1.2-0.1c0.2-0.1,0.6,0.1,0.7,0.3c0.1,0.3,0.1,1.8,0.3,2.6
	c0.1,0.4-0.3,0.3-0.3,0.3c-1.2-0.8-2.4-1.7-3.5-2.6C32.1,68.9,31.7,68.6,32.2,68.5 M43.6,71.6C43.6,71.6,43.6,71.6,43.6,71.6
	c-1.4,0.1-2,0.1-3,0.1c-0.3,0-0.1-0.3-0.1-0.3c0.1-0.5,0.2-0.9,0.7-1.9c0,0,0.1,0,0.2-0.1c0.1,0,0.1-0.1,0.2-0.2l0.5-2.8
	c0,0,0.1-0.7,0.3-0.8c0.3-0.1,0.5,2.5,0.5,3.5c0,0,0,0.3,0.2,0.3c0,0,0.3,0.1,0.4,0.3l0.3,1.5C43.8,71.6,43.6,71.6,43.6,71.6
	 M57.1,71.4c0-0.1,0-0.2,0-0.2L57,69.4c0.1,0,0.2,1.5,0.3,1.9C57.2,71.6,57.2,71.5,57.1,71.4 M59.3,71.1c-0.1,0.4-0.4,0.4-0.4,0.4
	c-0.3,0-0.6,0-0.8,0c0,0-0.4,0-0.4-0.2c0-0.5,0-1,0-1c0-0.1,0-1.4,0-1.4c0,0,0,0,0,0c0-0.6,0-0.5,0.1-0.8c0.1-0.4,0.1-0.6,0.1-0.6
	c0.1-0.1,0.1-0.7,0-0.9c0-0.2,0.3-0.4,0.3-0.4c0.6-0.3,0.9-0.8,1-1.1c0,0.8,0.1,1.6-0.1,2.7c0,0,0,0.5,0.1,0.5c0,0,0.4,0,0.4,0.3
	C59.8,69.5,59.5,70.2,59.3,71.1 M62.3,71.1c0,0.3-0.3,0.4-0.3,0.4c-0.5,0-1.1,0-1.6,0c-0.3,0-0.2-0.3-0.2-0.3
	c0.2-0.7,0.4-1.7,0.5-2.8c0,0,0-0.2,0.2-0.2C61,68.2,61,68,61,68c0.2-0.5-0.1-3,0.1-2.8c0.2,0.1,0.5,1.9,0.6,2.4
	c0,0-0.1,0.5,0.4,0.4c0,0,0.1-0.1,0.2,0.2C62.4,70.1,62.3,71.1,62.3,71.1 M69.4,65.9l0,0.2l-0.2,0.6c-1.4,1.6-2.9,2.9-4.7,4.1
	c-0.3,0.3-0.7,0.3-0.7,0.3l-0.7,0.1c-0.3,0-0.2-0.7-0.2-0.7c0.2-0.6,0.3-2,0.1-2.8c0-0.1,0.2-0.2,0.2-0.4c-0.3-2-1.1-4.6-1.1-4.6
	c-0.1-0.7,0-1.6,0-2.4c0,0,0-0.8,0.1-0.3l0.4,0.9c0,0,0.5,1,0.9,0.3c0.1-0.2,0.2-1.2,0.3-1.5c0,0.2,0.2-0.6,0.1,0.5
	c0,0.5-0.2,1.2-0.2,1.2c0,0.1,0.1,0.1,0.2,0.1c0,0.1,0,0.2,0,0.3c0,0,0.3,1.7,0.4,2.3c0,0,0,0,0.1,0c0,0.1,0,0.2,0,0.2
	c0,0.3,0.1,0.4,0.1,0.4s0.3,0.2,0.5-0.1c0,0,0.3-0.3,0.8-0.6c0.1,0.3,0.3,0.3,0.3,0.3s0.3,0.1,0.4-0.3c0,0,0.1-0.3,0.3-0.6
	c0.1-0.1,0.2-0.1,0.3-0.2c0,0,0.1,0,0.1,0c0,0,0,0,0,0c0,0,0,0,0.1,0c0,0,0,0,0.1,0l0.1,0c0.2,0.1,0.4,0.2,0.6,0.3
	c0,0,0.2,0.1,0.3,0c0.1,0,0.1-0.1,0.1-0.1c0.1-0.3-0.5-0.6-0.5-0.6c-0.1-0.1-0.2-0.2-0.3-0.2c-0.2-0.1,0-0.4,0-0.4
	c0.1-0.1,0.2-0.2,0.2-0.3c0,0,0.2-0.1,0.2-0.1c0,0,0,0,0.1,0l0.1,0c0.2,0,0.5,0,0.7,0c0,0,0.2,0.1,0.3-0.1c0.1-0.1,0.1-0.2,0.1-0.2
	c-0.1-0.3-0.7-0.3-0.7-0.3c-0.9-0.2-0.8,0.1-0.8,0.1s0,0,0,0l0,0.2c0,0-0.5,0.9-0.5,0.9c-0.1,0.2-0.3,0.4-0.4,0.6
	c-0.3,0.5-0.6,0-0.6,0c-0.2-0.6-0.7-1.7-0.8-1.8c0.1,0,0.2-0.1,0.2-0.1c-0.2-0.4-0.3-1.7-0.3-1.7s0-0.4,0.4-0.6c0.5-0.2,1-1,1-1
	c0.3-0.4,0.2-1.2,0.2-1.7c0-0.1,0.1-0.3,0.1-0.4c0,0,0.1-0.4,1.1-0.2c0,0,0.9,0.5,0.9,0.5c0,0,0.5,0.4,1,1c0,0-0.3,0.6,0.2,0.9
	c0,0,0,0.2,0.1,0.5L69.4,65.9z M70.3,56.7c0,0-0.3,0-0.3-0.1c0-0.1,0-0.2,0-0.2c0-0.1,0.1-0.1,0.1-0.2c0-0.1,0-0.2,0-0.3
	c0,0,0-0.2,0.2-0.1c0.1,0.1,0.2,0.1,0.3,0.1c0,0,0.2,0,0.2,0.2C70.7,56.2,70.6,56.6,70.3,56.7 M73.5,60.2c0,0.1-0.1,0.2-0.1,0.3
	c-0.1,0.5-0.5,0-0.5,0c-0.5-0.8-1.1-1.9-1.1-1.9c0-0.3,0-0.5,0-0.5c0.2-0.2,0.2-0.4,0.1-0.6c0,0,0.9,1.6,1.4,2.3
	C73.4,59.8,73.6,60,73.5,60.2 M37.2,71L37.2,71l0.1-0.3l0.5-1.3c0.1-0.3,0-0.4,0-0.4l-0.1-1.3c0,0,0-0.1,0-0.4
	c0.1-0.5,0.3-1.3,0.4-1.9c0-0.3,0.1-0.5,0.1-0.7c-0.1-0.2,0-0.4,0.1-0.5c0,0,0.1,0,0.2,0c0.2,0,0.4,0,0.5-0.1
	c0.1-0.1,0.2-0.3,0.1-0.5c0-0.2-0.2-0.3-0.3-0.5c-0.1-0.1-0.2-0.4-0.3-0.6c0,0,0,0,0-0.1c-0.1-0.2-0.1-0.4-0.1-0.5
	c0,0,0-0.1,0.1-0.1c0.2,0,0.3-0.1,0.3-0.2c0.1-0.1,0.1-0.3,0.1-0.5S38.7,61,38.7,61l-0.5,0.3c0,0-0.1,0.1-0.2,0.1
	c-0.1,0-0.2,0-0.3-0.1l-0.2-0.1c-0.3-0.1-0.6,0-0.8,0.1c-0.3,0.1-0.4,0.3-0.4,0.3S36,61.7,35.8,62c-0.1,0.1-0.3,0.2-0.4,0.2
	c-0.2,0-0.1,0.1-0.1,0.1c0,0,0.1,0.1,0.1,0.2c0.1,0.1,0.1,0.1,0.2,0.1c0.1,0,0.1,0,0.2,0c0.2,0,0.3-0.1,0.4-0.2c0,0,0.1-0.1,0.2,0
	c0.1,0.2-0.1,0.2-0.2,0.2c-0.3,0.1-0.7,0.3-1.1,0.3c-0.1,0-0.5,0.1-0.9,0.1C33.8,63,33.8,63,33.6,63L33.1,63c-0.4,0-1.1,0.1-1.6,0.2
	c0,0-0.5,0.1-0.5,0.1c-0.3,0.1-3.3,0.1-3.4,0.3c-0.3-0.5-0.6-0.9-0.8-1.4l-0.4-0.8c-0.1-0.1-0.1-0.3-0.2-0.4l-0.2-0.5
	c-1.6-3.4-2.5-7.1-2.5-11.1c0-14.5,11.8-26.2,26.2-26.2c14.4,0,26.2,11.8,26.2,26.2c0,3.4-0.7,6.6-1.8,9.6c-0.2,0.4-0.3,0.1-0.3,0.1
	l-0.4-0.5l-0.7-1.3c-0.5-0.7-0.7-0.7-0.7-0.7c0,0-0.1-0.1-0.3-0.1c-0.6,0-0.7-0.9-0.7-0.9s0.1-0.2,0.3-0.4c0,0,0-0.2,0.1-0.1
	c0,0,0,0.1,0.1,0.1c0.2,0.2,0.6,0.7,1,0.6c0.5-0.1-0.4-1-1-1.2c0-0.1,0.1-0.3,0.1-0.4c0,0,0.2-0.1,0.1-0.4c-0.2-0.3-0.3-0.1-0.3,0
	c0,0,0,0,0-0.1c-0.4-0.6-0.9-0.6-0.9-0.6c-0.2-0.2-0.6-0.1-0.6,0l-0.3,0.2c-0.6,0.5-0.2,1.5-0.2,1.5s-0.3-0.1-0.2,0.2
	c0,0,0,0.1,0.2,0.1c0.1,0,0.1,0,0.1,0c0,0,0,0,0.1,0c0,0,0,0,0.1,0l-0.1,0.5c0,0.3-0.2,0.1-0.2,0.1c-0.2-0.2-0.3-0.3-0.5-0.3
	c0,0-0.7-0.4-0.9-0.3c0,0-0.7,0.1-1.2,0.6c0,0-0.1,0.1-0.2,0.1c-0.1,0-0.1,0-0.1,0c0,0,0,0.1,0,0.1c0,0,0,0,0,0.1
	c-0.1,0-0.1,0.1-0.1,0.1c0,0,0,0.1,0,0.1c0,0,0,0,0,0c0,0,0,0.3,0.2,0.2c0,0,0.1,0.3,0.2,0.1c0,0,0.1-0.1,0.1,0.1c0,1.4-1.1,2-1.1,2
	c0,0-0.4,0.1-0.4,0.1c-0.3,0-0.4-0.2-0.4-0.4c0,0,0-0.2,0.2-0.2c0.3,0,0.4-0.4,0.5-0.5l0.2,0.3c0,0,0,0.1,0.2-0.1
	c0.3-0.4,0.4-1.9-0.1-2.1c-0.3-0.1-0.6,0-0.7,0.1c-0.2,0.2-0.5,0.2-0.5,0.2c-0.6-0.1-0.8,0.6-0.8,0.6l0,0.2c0,0-0.1,0.2-0.1,0.5
	l-0.1,0.1c0,0,0,0.2,0.1,0.2c0.1,0.2,0.2,0.4,0.5,0.5c0,0,0.3,0,0.3,0.3c0,0.1-0.1,0.2-0.4,0.2c0,0-0.5,0.2-0.5,0.9
	c0,0.1,0,0.2,0,0.4c0,0.1,0,0.1,0,0.1L63.2,60c-0.1-0.3-0.2-0.6-0.2-0.6s-0.4-0.9-0.5-0.9c-0.5-1-1.4-1-1.4-1l-0.3-0.1
	c0,0-0.2-0.3-0.2-0.4c0.3-0.1,0.4-0.2,0.6-0.8c0.3-0.1,0.3-0.3,0.3-0.3c0-0.3-0.1-0.3-0.2-0.2c0,0,0.1-0.1,0.1-0.2
	c0.1-0.5,0.1-0.5,0.1-0.8c0-0.3-0.3-0.5-0.4-0.5c-0.1,0-0.4-0.1-0.4-0.2c0,0-0.3,0-0.3,0l-0.2,0.1l-0.2,0c0,0-0.4,0-0.6,0.1
	c-0.2,0.1-0.4,0.6-0.4,0.6c-0.1,0.2,0,0.4,0,0.4s0,0.3,0.1,0.4c-0.1,0-0.2,0-0.2,0.2c0,0,0,0.2,0.2,0.3c0.2,0.5,0.3,0.7,0.6,0.8
	c0,0,0.1,0,0.2,0c0,0,0,0.1,0,0.1c0,0.1,0,0.2,0,0.3c0,0-0.3,0.1-0.3,0.1s-1.1,0.4-1.5,1.2c0,0-0.6,1.1-0.9,1.6c0,0-0.1,0.1,0,0.3
	c-0.1,0.4-0.2,0.9-0.2,0.9c-0.2,1,1.1,1.8,1.8,2.2c0,0,0.2,0.1,0.2,0.4C59,64.3,59,64.4,59,64.4c-0.4,1.2-1.1,1.4-1.5,1.5
	c-0.1,0-0.2,0-0.2,0l0-0.1c0-0.1,0.1-0.1,0.1-0.1c0.4-0.3,0.4-0.3,0.4-0.6c0-0.1,0.1-0.1,0.1-0.2c0.1,0,0.1-0.1,0.1-0.2
	c0-0.1-0.2-0.1-0.2-0.1l0-0.1c0,0,0.1,0,0.1-0.2c0-0.2-0.2-0.9-1.1-0.7c-0.7,0.1-0.8,0.7-0.7,1.2c0,0,0.1,0.1,0.1,0.1
	C56.1,65,56,65,56,65c0,0,0,0.1,0,0.1c0,0.1,0.1,0.1,0.1,0.2c0,0,0.2,0.4,0.7,0.5c0.1,0,0.1,0.1,0.1,0.1l0,0.1c0,0-0.3,0-0.4,0
	c-0.1,0-0.2,0-0.2,0c-0.4,0.1-0.6,0.2-0.8,0.3c-0.2-0.1-0.3-0.4-0.5-0.8c0-0.1,0.1-0.3,0-0.5c0,0,0-0.1-0.1-0.1
	c-0.1,0-0.1,0.1-0.1,0.1c0,0,0,0,0,0c0-0.1-0.1-0.2-0.2-0.3c0,0,0,0,0,0c0,0-0.1,0-0.1,0c0,0,0,0,0,0.1l0,0l0.1,0.1l-0.1-0.1
	c0,0,0,0-0.1-0.1c0,0,0,0-0.1,0c0,0,0,0,0,0c0,0,0,0,0,0.1c0,0,0,0,0,0c0,0,0,0,0,0c0,0,0,0,0,0c0,0-0.1,0-0.1,0c0,0,0,0,0,0.1
	c0,0,0,0,0,0l0.2,0.2c-0.1,0-0.1,0-0.2,0c0,0,0,0,0,0c0,0,0,0,0,0.1c0,0,0,0.1,0,0.1c0,0,0,0,0,0c0.1,0,0.2,0.1,0.3,0.1
	c0,0,0.1,0.1,0.3,0.1l0,0.1c0,0,0.2,0.6,0.5,1.1c0,0.1,0.1,0.1,0.2,0.1c0,0,0,0,0,0c0.2,0,0.3,0.1,0.4,0c0.1-0.1,0.2,0.1,0.2,0.1
	c-0.1,0.7,0.1,1.5,0.1,1.5c0,0.5,0.1,1.3,0.1,1.3l0.2,1.3c0.1,0.4-0.1,0.3-0.1,0.3c-1.3,0-1.4,0.1-2.9,0.2c-1.5,0.1-1.5-1.9-1.5-1.9
	l0-18.1c0,0,0-1.1,1-1.2c7.9-0.6,13.7-4.3,13.8-4.3c0,0,1-0.5,1.2-1.2c0.1-0.3,0-0.6-0.2-0.9c-0.1-0.1-0.3-0.3-0.6-0.3
	c-0.3,0-0.6,0.1-0.6,0.1L66,44.1c-5.2,2-10.2,3.1-14.8,3.1c-13,0-17.7-7-17.9-7.3c-0.4-0.5-0.8-0.6-1-0.6c-0.1,0-0.3,0-0.4,0.1
	c-0.5,0.2-0.7,0.6-0.7,0.7c-0.3,0.7,0.3,1.3,0.3,1.3c5.8,6.5,9.8,7.6,14.5,8.5c0,0,1.3,0.3,1.3,1.2v19.3c0,1.3-1,1.3-1,1.3
	c-0.7-0.1-0.7-0.1-1.3-0.1c-0.3,0-0.3-0.5-0.3-0.5c0-1,0-1.8,0-1.8c0,0,0.2,0,0.1-0.4c-0.2-1.5-0.9-5.8-1-6.3c0,0-0.1-1.1-0.1-1.5h0
	c0,0-0.1-0.4,0-0.6c0,0,0.1-0.2,0.1-0.1c0,0.1,0.1,0.3,0.1,0.3c0.1,0.7,0.3,1.7,0.4,2.1c0,0,0.3,1.4,0.4,1.5
	c0.1,0.1,0.1,0.2,0.1,0.3c0,0-0.2,0.8,0,0.8c0.2,0,0.1,0.3,0,0.4c0,0.1,0.1,0.1,0.3,0c0.1-0.1,0.2-0.4,0.2-0.5c0.1-0.6,0-0.9,0-0.9
	c0-0.1-0.1-0.1-0.1-0.2c0,0,0.1-0.1,0.1-0.1c0.1-0.2,0-0.4,0-0.4c-0.2-0.5-0.2-0.5-0.3-1.1c0,0-0.4-2.3-0.7-3.4
	c-0.1-0.3-0.3-0.5-0.3-0.5c-0.2-0.1-0.4-0.2-0.5-0.2c-0.2,0,0-0.1,0-0.1c0,0,0,0,0.1,0c0.1-0.2-0.3-0.1-0.3-0.1L43,58.3
	c-0.2,0.1-0.2-0.1-0.2-0.1c0-0.1,0-0.3,0.2-0.3c0.3,0,0.7-0.6,0.7-0.6c0.3-0.1,0.3-0.3,0.3-0.3c0-0.1,0-0.2-0.1-0.2c0,0-0.1,0-0.1,0
	c0-0.1,0.1-0.6,0.1-0.9c0-0.3-0.1-0.4-0.1-0.4C43.6,55.3,43.4,55,43,55c-0.5-0.1-1.1,0.1-1.2,0.2c-0.1,0.1-0.2,0.2-0.2,0.2l-0.2,0.6
	c0,0.1,0,0.2,0,0.2h-0.7c-0.1,0,0,0.1,0,0.1l0.7,0.3c0,0,0,0,0,0c-0.3,0.1,0,0.5,0,0.5c0,0,0,0.1,0.1,0.1c0,0,0.1,0,0.1,0.1
	c0,0.6,0.5,0.6,0.5,0.8c0,0,0,0.1,0,0.1c0,0.1-0.1,0-0.1,0l-0.2-0.2c-0.2-0.1-0.2,0-0.2,0v0.2c0,0.2-0.1,0.2-0.2,0.2
	c0,0-0.1,0-0.1,0v0c-0.7,0.2-1.3,3.4-1.3,3.4c-0.2,0.5-0.2,1.6-0.2,2.1c0,0-0.2,0.4-0.2,0.6c0,0,0,0.1,0,0.3c0,0,0,0.1,0,0.1
	c0,0,0,0,0,0c0,0,0,0.1,0,0.1c0,0,0.1,0,0.1,0c0,0,0,0.1,0,0.1c0.1,0.1,0.1,0,0.1,0c0,0,0.1-0.1,0.1-0.2c0,0,0-0.2,0-0.3
	c0-0.1,0-0.1,0.1-0.1c0,0,0,0,0,0s-0.1,0.2,0,0.4c0.1,0.1,0.1-0.1,0.1-0.1c0-0.1,0.1-0.7,0.1-0.7c0,0,0-0.2,0-0.3
	c0.1-0.5,0.9-3.3,0.9-3.3c0.1-0.2,0.3-0.7,0.2,0.6c0,0-0.1,2.8-0.3,4.1c0,0-0.8,3.5-0.7,3.6c0,0.1,0,1.2-0.2,2.2
	c-0.2,0.7-0.7,0.6-0.7,0.6c-0.6,0-1.7-0.1-2.2-0.1c-0.5,0-0.6-0.6-0.6-0.6c0-0.5,0.1-0.8,0.1-1l0-0.6c0-0.3,0-0.5,0-0.7
	c0,0,0.1-0.5,0.3-0.3l0.2,0.3c0.1,0.3,0,0.6,0,0.6l-0.2,1l-0.1,0.3c0,0-0.1,0.1,0,0.2C36.7,71,37.2,71,37.2,71 M59,63L59,63
	C59,63.1,59,63.1,59,63.2c-0.1,0-0.1-0.1-0.1-0.1L58,62.3c-0.4-0.5-0.1-1.1,0-1.3c0,0,0.2,0,0.2-0.1l0.5-0.7c0,0,0.2-0.2,0.2,0
	c0.1,0.5,0.2,1.8,0.2,2.6v0C59.1,63,59,63,59,63"/>
</svg>
